<?xml version="1.0" encoding="utf-8"?>
<!-- Generator: Adobe Illustrator 27.5.0, SVG Export Plug-In . SVG Version: 6.00 Build 0)  -->
<svg version="1.1" xmlns="http://www.w3.org/2000/svg" xmlns:xlink="http://www.w3.org/1999/xlink" x="0px" y="0px"
	 viewBox="0 0 1122 1122" style="enable-background:new 0 0 1122 1122;" xml:space="preserve">
<g id="Bg">
	<rect style="fill:#FFFFFF;" width="1122" height="1122"/>
</g>
<g id="Object">
	<g>
		<path style="fill:#E6ACAB;" d="M357.534,289.544c-3.241,11.648-7.333,22.981-12.009,34.135
			c-11.469,27.357-24.01,54.254-37.027,80.863c-10.645,21.76-22.155,43.222-38.741,61.571c-7.052,7.802-14.569,14.729-22.777,21.099
			c-0.289,0.225-0.564,0.539-0.895,0.628c-9.899,2.674-11.542,11.115-14.494,19.318c-15.998,44.452-27.661,90.135-39.691,135.735
			c-2.381,9.024,3.128,14.079,7.717,19.718c7.835,9.627,18.694,15.758,28.191,23.469c0.282,0.229,0.709,0.313,0.926,0.58
			c2.462,3.029,7.103,5.624,5.597,9.9c-1.393,3.955-6.203,2.87-9.733,2.807c-23.372-0.418-45.457-6.365-66.71-15.773
			c-10.206-4.518-20.389-9.087-30.578-13.644c-2.186-0.977-4.012-2.481-5.953-3.863c-4.286-3.051-1.957-4.49,1.145-5.673
			c4.808-1.833,9.806-2.796,14.99-2.837c11.542-0.092,22.913-1.771,34.113-4.396c7.961-1.866,13.464-6.105,15.541-14.924
			c9.931-42.181,22.113-83.745,35.713-124.882c2.182-6.6,4.399-13.135,5.924-19.926c0.621-2.765,0.466-5.237-1.25-7.264
			c-9.1-10.744-9.813-24.057-11.57-37.052c-3.864-28.576,1.691-56.384,7.125-84.161c4.639-23.714,11.865-46.774,19.674-69.569
			c4.965-14.492,12.039-28.259,18.102-42.379c1.269-2.956,2.7-2.649,4.991-1.005c7.897,5.666,16.411,10.326,25.017,14.817v0
			c5.712,2.978,12.223,4.139,17.65,7.762c9.708,2.525,19.385,5.175,29.135,7.525c5.309,1.28,10.687,2.608,16.216,2.307
			C358.045,284.206,358.456,286.232,357.534,289.544z M311.67,266.826L311.67,266.826c-5.909-2.233-11.819-4.466-17.728-6.698
			c-7.746-3.858-15.648-7.463-21.932-13.966c30.682,4.285,60.264,11.595,86.237,29.628
			C341.826,277.05,326.744,271.961,311.67,266.826z"/>
		<path style="fill:#E6AAAA;" d="M811.191,445.818c4.206,0.159,8.277-0.917,12.297-1.956c7.382-1.908,14.704-4.043,22.052-6.083
			c4.08-2.822,9.015-3.785,13.319-6.12v0c6.485-3.521,12.898-7.169,18.83-11.575c1.721-1.278,2.805-1.529,3.807,0.702
			c4.785,10.657,10.334,21.033,14.288,31.987c6.22,17.229,12,34.666,15.822,52.634c4.476,21.045,9.046,42.113,6.465,63.882
			c-1.174,9.899-1.549,20.028-8.332,28.307c-1.279,1.561-1.366,3.443-0.86,5.537c1.244,5.143,3.011,10.082,4.752,15.072
			c10.85,31.099,20.628,62.539,28.703,94.477c1.688,6.678,5.924,9.831,11.999,11.15c8.546,1.856,17.21,2.99,25.984,2.916
			c3.941-0.033,7.752,0.637,11.429,1.97c2.373,0.86,4.16,1.925,0.941,4.298c-1.458,1.074-2.827,2.24-4.476,3.01
			c-7.688,3.591-15.371,7.191-23.072,10.752c-16.037,7.416-32.75,12.212-50.51,12.821c-2.682,0.092-6.325,0.977-7.433-2.012
			c-1.198-3.232,2.297-5.262,4.131-7.595c0.162-0.206,0.486-0.275,0.697-0.453c7.122-5.979,15.3-10.775,21.135-18.19
			c3.418-4.343,7.542-8.254,5.62-15.084c-9.713-34.51-19.148-69.089-31.862-102.677c-2.346-6.198-3.7-12.593-11.258-14.503
			c-0.253-0.064-0.465-0.299-0.688-0.466c-6.318-4.739-12.118-9.911-17.576-15.753c-12.836-13.74-21.852-29.91-30.215-46.317
			c-10.226-20.063-20.094-40.351-29.153-61.002c-3.693-8.42-6.945-16.983-9.554-25.796
			C807.73,447.243,808.016,445.698,811.191,445.818z M807.758,439.303c19.517-14.031,41.911-19.956,65.179-23.596
			c-4.695,5.021-10.657,7.859-16.496,10.889c-4.464,1.771-8.927,3.542-13.391,5.313v0C831.656,436,820.255,440.056,807.758,439.303z
			"/>
		<g>
			<g>
				<linearGradient id="SVGID_1_" gradientUnits="userSpaceOnUse" x1="504.5583" y1="779.227" x2="513.3452" y2="770.4401">
					<stop  offset="0" style="stop-color:#DDBF66"/>
					<stop  offset="1" style="stop-color:#C69849"/>
				</linearGradient>
				<path style="fill:url(#SVGID_1_);" d="M509.269,780.914c3.792-0.34,5.768-2.753,5.663-6.338
					c-0.106-3.647-2.357-5.71-6.196-5.874c-3.653,0.384-5.704,2.481-5.918,6.138C502.615,778.336,505.735,781.23,509.269,780.914z"
					/>
				
					<linearGradient id="SVGID_00000160177316073128970830000000256657928097413761_" gradientUnits="userSpaceOnUse" x1="339.2211" y1="1055.9636" x2="745.1918" y2="649.9929">
					<stop  offset="0" style="stop-color:#DDBF66"/>
					<stop  offset="1" style="stop-color:#C69849"/>
				</linearGradient>
				<path style="fill:url(#SVGID_00000160177316073128970830000000256657928097413761_);" d="M947.293,873.836
					c-0.758-1.145-1.849-0.444-2.607,0.447h0c-2.671,1.857-6.268,1.806-8.673,4.21c0,0-0.001,0-0.001,0
					c-8.682,4.386-17.363,8.773-26.224,13.25c-0.109-2.253-0.193-3.995-0.278-5.736c0.567-7.342,1.734-14.65,1.248-22.051
					c0.368-1.18,0.439-2.375,0.43-3.574c0.781-7.409,0.843-14.847,0.604-22.297c0.26-0.258,0.267-0.522,0.021-0.793
					c1.327-5.571,1.054-11.232,0.853-16.875c-0.093-2.604-0.945-5.045-3.811-5.735c-3.136-0.755-5.06,1.213-6.293,3.734
					c-2.878,5.885-5.247,11.959-5.961,18.552c-1.07,4.243-2.141,8.486-3.211,12.729c-2.194,3.548-4.388,7.095-6.581,10.643
					l-0.002,0.001c-3.094,3.581-6.188,7.162-9.282,10.743l0,0c-2.678,2.53-5.635,4.242-9.516,3.243
					c-3.678-1.717-3.254-5.446-4.176-8.514c0.222-0.29,0.231-0.586,0.028-0.89c1.022-2.461,1.207-5.029,0.975-7.65
					c2.196-11.621,4.565-23.216,5.402-35.047c1.306-3.255,1.242-6.609,0.25-9.86c-1.308-4.287-3.848-4.867-7.913-2.058
					c-3.191,4.077-4.208,9.184-6.481,13.696c-1.259,0.754-1.749,2.035-2.266,3.299c-5.877,8.219-11.755,16.439-17.632,24.658
					c-0.928,1.847-3.672,2.478-3.424,5.113c-3.074,1.459-5.125,4.009-7.094,6.648c-2.587,2.141-5.174,4.281-7.76,6.422h0
					c-1.477-0.008-3.383,0.578-2.922-2.111c6.369-11.853,11.89-24.087,15.016-37.205c1.625-6.818,2.956-13.906-1.405-20.447
					c-2.066-3.808-5.057-2.915-8.109-1.571c-3.694,1.627-7.372,3.29-11.056,4.937c-1.6,0.009-2.34-0.869-3.172-2.238
					c-2.678-4.411-4.267-4.371-7.757-0.209c-2.179,4.686,1.445,5.987,4.46,7.643c0.493,2.262-1.05,4.118-1.245,6.243
					c-0.763,1.766-1.525,3.532-2.287,5.298l0,0c-2.643,3.599-4.693,7.518-6.328,11.664c-2.023,1.719-2.747,4.247-4.009,6.44l0,0
					c-2.891,4.257-6.396,8.103-8.601,12.82c-1.622,1.024-2.509,2.624-3.34,4.268l0,0c-2.902,2.599-5.006,6.21-9.159,7.224
					c-1.297-7.867,1.372-15.372,2.102-23.054c3.051-11.486,5.643-23.056,6.404-34.961c1.029-1.961,0.848-4.104,0.714-6.165
					c-0.168-2.581-0.133-5.657-3.196-6.595c-3.225-0.988-5.219,1.089-6.559,3.831l0,0h0c-2.129,3.318-4.13,6.698-5.067,10.587
					c-1.292-1.425-2.585-2.85-3.877-4.275l0,0c-3.077-4.338-7.03-6.088-12.235-4.143c-2.344,0.025-4.485,0.634-6.291,2.199
					c-1.452,0.148-2.591,0.813-3.386,2.047l0,0c-3.683,2.005-6.524,4.835-8.422,8.591c-2.065,1.631-2.785,4.171-4.214,6.232
					c-6.998,0.917-12.273,5.313-17.955,8.888c-2.308-5.885-6.31-10.771-9.502-16.135c1.133-3.005,3.891-6.123,0.545-9.127
					c-2.194-1.97-4.882-1.699-7.066,0.593c-2.439,1.472-4.529,3.168-4.137,6.454c-0.726,3.291,0.283,6.362,1.2,9.445
					c0.133,2.537-1.72,4.251-2.634,6.353l0,0.001c-1.371,1.178-2.817,2.299-3.165,4.241h0c-1.476,1.325-3.118,2.506-3.875,4.455h0
					l0,0c-3.54,4.4-6.992,8.863-9.815,13.774c-1.181,1.39-2.362,2.78-3.542,4.169c0,0-0.002,0.001-0.002,0.002
					c-2.289,2.175-4.577,4.35-6.866,6.524c-0.377-0.662-0.754-1.325-1.13-1.987c4.496-8.176,7.477-16.993,10.535-25.743
					c2.382-6.814,4.424-13.821,3.23-21.244c-0.664-7.273-3.009-9.622-8.599-8.616c-1.063,0.673-2.126,1.346-3.189,2.018
					c-2.837,1.472-5.675,2.944-8.512,4.416h0c-0.326-0.092-0.641-0.063-0.945,0.088c-2.333,0.147-2.013-1.81-2.63-3.149
					c-1.413-3.066-3.204-5.663-7.202-3.402c-0.815,0.062-1.54,0.278-1.916,1.103c-3.906,4.812-3.203,7.482,3.122,11.844
					c-0.783,2.078-1.567,4.156-2.35,6.235c0,0-0.001,0.001-0.001,0.002c-0.849,0.479-0.832,1.3-0.833,2.113
					c-1.103,1.259-1.799,2.698-1.928,4.386l0,0c-6.248,11.002-11.85,22.426-20.71,31.723v0c-2.039,1.456-4.079,2.913-6.118,4.369
					c-1.761,0.416-3.522,0.832-5.283,1.248c-2.16-1.29-2.138-3.483-2.148-5.556c-0.023-4.913,0.086-9.826,0.141-14.739v-0.001
					c2.445-7.614,2.258-15.698,4.186-23.404c3.448-2.075,5.381-5.421,7.337-8.748l0,0l0,0.001c3.405-3.585,3.424-8.038,3.217-12.55
					l0,0c-1.411-4.198-3.718-6.623-8.441-4.264c-3.888,1.567-7.986,2.761-10.862,6.12c-2.518,1.101-4.271,2.972-5.455,5.419
					c-2.788,2.324-3.998,5.779-6.138,8.567c-2.481,0.69-4.962,1.379-7.443,2.069v0c-3.037,0.177-3.554-0.837-2.325-3.703
					c1.689-3.941,2.882-8.141-2.029-11.026c-1.715-1.91-3.5-1.546-5.315-0.165c0.011-0.013,0.021-0.026,0.033-0.039
					c-5.378,3.262-6.443,7.929-3.278,14.358c0.001,0.002,0.002,0.005,0.002,0.007c0.296,1.831,2.747,2.675,2.235,4.877
					c-3.027,4.345-5.135,9.165-7.245,13.985c-1.726,3.005-3.638,5.921-4.495,9.344c-1.492,0.875-1.628,0.032-1.766-1.231
					c-0.374-3.445,0.19-7.008-1.243-10.324c-1.055-7.764-0.448-15.682-2.173-23.383c0.486-4.617-0.433-9.122-1.196-13.622
					c-0.431-2.54-1.536-4.94-4.504-5.108c-2.972-0.168-4.3,2.056-4.992,4.581c-0.884,3.228-1.553,6.504-1.199,9.893
					c-0.679,2.478-1.357,4.957-2.036,7.435c-2.791,5.121-6.184,9.952-7.58,15.744c-2.03,3.995-4.06,7.989-6.09,11.983
					c-1.307,1.898-2.327,3.918-2.651,6.234c-0.001,0-0.001,0-0.001,0c-2.9,4.738-5.872,9.418-10.378,12.86v0
					c-1.39,0.374-2.78,0.748-4.17,1.123c-1.693-1.633-1.015-3.719-0.637-5.449c3.366-15.412,3.554-31.262,6.565-46.726
					c1.082-5.559,1.111-11.273,0.275-16.913c-0.346-2.332-1.279-4.518-3.846-5.256c-2.541-0.731-4.43,0.55-6.079,2.326
					c-2.448,2.635-3.98,5.814-5.458,9.038c-4.995,10.896-7.107,22.534-8.885,34.262c-4.731,7.401-7.719,15.873-13.799,22.445
					c-1.432,0.983-2.863,1.966-4.295,2.949c-2.335-5.322-0.958-10.785-0.438-16.157c0.987-10.199,4.561-20.009,4.72-30.349
					c0,0,0-0.001,0-0.001c1.548-6.128,1.607-12.259,0.049-18.394v0c0.377-2.045-0.589-3.771-1.454-5.453
					c-3.716-7.229-10.628-7.699-15.309-1.05c-0.678,0.964-1.045,2.147-1.556,3.228c-2.356,0.974-2.697,3.18-3.227,5.271
					c-1.792,1.341-3.799,2.555-3.189,5.333v0c-2.508,1.393-2.66,4.378-4.297,6.36l0,0c-2.166,4.045-4.356,8.078-6.488,12.141
					c-0.986,1.878-1.543,1.374-2.004-0.266c0.053-2.467,0.106-4.933,0.16-7.4c0.258-0.264,0.27-0.539,0.038-0.826
					c1.343-6.618,1.128-13.289,0.477-19.941c-0.234-2.393-0.547-5.173-3.598-5.839c-3.205-0.7-4.871,1.644-6.235,3.909
					c-3.018,5.009-4.955,10.451-5.852,16.247c-3.577,9.29-5.545,18.989-7.418,28.723c-0.76,3.948-0.655,8.125-2.823,11.741
					c-1.449,2.876-2.899,5.752-4.348,8.628h0c-0.461,0.577-0.922,1.154-1.383,1.731c-2.073,2.258-4.145,4.516-6.218,6.774
					c-0.845,0.65-1.689,1.3-2.533,1.95h-0.001c-1.643,0.821-3.287,1.642-4.93,2.463c-3.673-4.438-0.825-9.274-0.851-13.935
					c4.144-10.282,8.691-20.443,9.494-31.725c1.91-11.296,3.191-22.551-2.146-33.381c-0.595-2.265-1.94-3.795-4.267-4.367
					c-5.302-2.888-8.662-2.079-12.968,3.12c-1.088,0.822-1.818,1.887-2.168,3.208v0c-4.142,5.594-7.194,11.746-9.383,18.339h0
					c-1.091,1.581-2.18,3.163-2.272,5.182c-2.119,2.921-3.406,6.243-4.619,9.6c-0.001,0.001-0.002,0.003-0.003,0.004
					c-0.507,0.732-1.014,1.464-1.521,2.196c-0.028-1.024-0.057-2.048-0.085-3.072c1.206-6.428,1.147-12.863,0.393-19.301
					c0.001-0.044,0.001-0.087,0.002-0.131c-0.009-0.015-0.016-0.03-0.024-0.045c-0.046-0.386-0.096-0.771-0.147-1.157
					c0.139-0.237,0.105-0.541-0.116-0.917c-0.033-3.515-0.042-7.031-1.223-10.412c-0.62-1.774-1.677-3.118-3.642-3.38
					c-1.978-0.264-3.422,0.77-4.373,2.355c-1.533,2.556-2.942,5.195-2.942,8.311c-3.524,9.659-4.362,19.979-7.339,29.773
					c-6.55,13.967-12.285,28.333-20.336,41.566c-3.258,4.243-5.769,9.049-9.653,12.821l0,0h0c-2.196-0.315-5.523,1.428-5.933-2.438
					c-1.843-17.391-6.904-34.358-6.77-52.006c0.144-18.938,0.232-37.877,0.344-56.815c0.147-1.237,0.271-2.239,0.412-3.073
					c1.026-3.282,3.93-4.557,7.951-5.076c4.672-0.603,9.239-2.019,13.853-3.077c1.867,0.137,3.693,0.009,5.408-0.84
					c2.521-0.078,5.064-0.002,7.45-1.046c3.559-0.18,7.173,0.128,10.605-1.185h0c0.704-0.033,1.407-0.066,2.111-0.099
					c2.121-0.029,4.242-0.058,6.363-0.086v0c2.566,0.119,5.188,0.707,7.548-0.9c0.001-0.001,0.002-0.001,0.002-0.001
					c0.336,0.028,0.654-0.034,0.954-0.185v0c0.935,0.009,1.792-0.191,1.848-1.31c0.07-1.407-1.006-1.736-2.077-1.739
					c-3.12-0.007-6.241,0.091-9.361,0.147l0,0.001l0,0c-6.478,0.103-12.998-0.891-19.415,0.758l0,0
					c-3.179,0.205-6.444-0.341-9.483,1.086c-0.001,0-0.002,0-0.002,0c-0.316-0.108-0.605-0.06-0.868,0.145
					c-2.605-0.199-5.202-0.336-7.63,0.922l-0.001,0.001c-4.884,0.655-9.768,1.31-14.652,1.965
					c2.674-29.688,5.35-59.375,8.022-89.063c1.398-15.538,4.051-30.985,3.406-46.672c0.631-1.875-1.205-2.403-1.932-3.537
					c-1.065,0-2.131,0-3.196,0c0.007,0.397,0.014,0.793,0.022,1.19c-0.727,0.648-1.454,1.296-2.181,1.944
					c-5.004,1.255-5.344,6.127-7.46,9.621c-2.398,2.71-3.512,6.045-4.575,9.406l-0.001,0c-0.199,0.436-0.397,0.872-0.596,1.308
					c-3.461,7.187-6.557,14.521-8.879,22.165l0,0c-1.282,1.551-1.923,3.355-2.108,5.339c-2.642,5.517-4.857,11.194-6.422,17.116
					c0,0,0,0,0,0c-5.874,12.077-10.655,24.59-14.929,37.307l0,0c-3.065,6.164-5.713,12.49-7.472,19.163v0
					c-3.788,9.628-7.577,19.257-11.366,28.885c-0.383,0.364-0.766,0.728-1.149,1.093c-14.58,4.555-29.161,9.11-43.741,13.666
					c-1.74,0.242-3.501,0.388-5.218,0.741c-12.327,2.535-24.645,5.138-37.207,1.407c-0.018-0.318-0.09-0.623-0.219-0.914
					c-2.625-0.137-5.035-1.025-7.384-2.123c-4.291,4.749,0.508,5.072,3.14,6.449l0,0c4.907,3.032,10.23,4.919,15.969,5.412
					c13.636,1.17,26.712-1.97,39.743-5.374c9.209-1.629,17.92-4.834,26.523-8.381c2.968-0.525,5.319-0.59,3.198,3.563
					c-0.681,1.334-0.928,2.89-1.373,4.344l0,0c-3.508,6.499-5.956,13.438-8.464,20.353h0c-0.57,0.88-1.266,1.704-1.691,2.649
					c-8.518,18.927-20.43,35.649-33.488,51.629l0,0c-2.204,0.921-3.771,2.614-5.29,4.365c-2.079,0.821-3.976,1.831-4.463,4.304l0,0
					c-0.293-0.073-0.55-0.006-0.769,0.201c-0.713,0.31-1.426,0.619-2.139,0.929v0c-2.278,0.4-6.076,0.291-5.467,3.115
					c0.79,3.67,4.45,2.349,7.027,1.291c3.005-1.234,6.287-2.193,7.995-5.4l0,0c0.212-0.214,0.281-0.467,0.208-0.759v0
					c6.452-2.38,10.254-7.592,13.881-12.991l0,0c7.999-11.022,16.998-21.385,22.45-34.084c5.337-7.965,8.894-16.805,12.563-25.589
					c0,0,0.001-0.001,0.001-0.001c2.15-2.877,3.766-5.995,4.339-9.586v0c2.636-4.01,3.125-9.106,6.452-12.767
					c9.527-2.686,19.055-5.366,28.579-8.061c1.807-0.511,3.861-1.791,4.22,1.563c-2.837,21.298-2.749,42.712-2.17,64.113
					c0.308,11.382,2.854,22.421,7.345,32.95c1.359,6.942,4.745,12.84,9.786,17.663c3.523,3.371,7.744,5.394,12.868,3.604
					c2.481-0.213,4.176-1.86,5.849-3.398c5.258-4.835,9.059-10.727,12.082-17.153c5.748-6.933,8.524-15.505,12.818-23.239h0v0
					c2.051,1.863,0.401,4.403,1.186,6.498c-1.881,5.663-1.899,11.324,0.03,16.983c0.276,0.396,0.553,0.792,0.829,1.187
					c-0.391,3.34,0.639,6.042,4.047,7.012c3.533,1.005,5.667-1.211,7.15-4.059c1.209-2.321,2.809-4.503,3.018-7.25
					c4.466-9.783,4.783-20.427,6.39-30.803c0.912-0.378,0.957-1.187,0.994-2c1.358-2.47,3.001-4.824,3.151-7.782l0-0.001
					c2.538-5.638,5.075-11.276,7.613-16.914c1.958-4.25,5.981-7.19,7.452-11.749l0,0c1.644-2.163,3.288-4.325,4.933-6.487h0
					c0.258-0.233,0.329-0.514,0.212-0.842c5.033-0.683,2.288,3.188,2.962,5.058c-3.377,11.304-6.875,22.574-10.078,33.928
					c-1.483,5.253-2.447,10.663-1.576,16.197c0.427,8.632,0.941,17.241,6.461,24.531c4.466,5.28,8.507,5.333,15.055,0.195l0,0
					c3.219-1.84,6.005-4.1,7.428-7.678l0,0c1.444-2.03,2.887-4.059,4.331-6.089l0,0c1.448-1.232,2.734-1.835,3.187,0.816
					c-0.158,0.333-0.152,0.664,0.02,0.991c-0.219,2.556,1.13,4.672,2.291,6.675c2.32,4.002,6.27,3.782,9.206-0.273
					c2.147-2.51,3.628-5.388,4.583-8.529c1.723-5.666,3.393-11.348,5.085-17.024c4.592-9.953,9.185-19.906,13.777-29.859
					c1.174-2.079,2.347-4.159,3.521-6.239c1.056-1.773,2.959-3.018,3.281-5.25c0.293-0.287,0.585-0.573,0.878-0.86
					c0.062-0.264,0.202-0.486,0.381-0.685c-0.127,0.229-0.254,0.457-0.381,0.685c2.424-0.767,3.846-2.583,4.956-4.728l0,0l0,0
					c0.837-0.737,1.341-2.292,2.842-1.542c1.119,0.56,0.731,1.782,0.702,2.784c-0.03,1.027-0.062,2.053-0.094,3.08
					c-3.898,11.383-8.278,22.605-11.287,34.284c-2.114,8.206-2.646,16.424-0.454,24.679c1.293,4.869,3.47,9.169,8.373,11.431h0
					c6.436,2.853,10.878,1.756,14.491-3.768c1.438-2.199,2.572-4.596,3.844-6.903l0,0c4.223-3.806,4.3-10.034,8.107-14.347
					c0.942,2.025-0.281,4.244,1.427,5.742c0.944,4.941,1.471,10.031,5.027,14.036c0.771,2.138,2.129,3.672,4.394,4.273l0,0
					l-0.001-0.001c5.094,3.574,8.008,3.122,14.085-2.181l0,0c6.127-3.646,8.266-10.015,10.935-16.021c0,0-0.001-0.001-0.001-0.001
					c0.9-1.822,1.802-3.644,2.704-5.465l0,0c2.146-3.891,4.291-7.781,6.436-11.672h0c0.558-2.305,2.093-3.659,4.244-4.869
					c0.443,7.291-0.586,14.173,1.073,20.918c0.222,5.884,0.925,11.686,3.419,17.099c1.099,2.384,2.889,4.08,5.754,3.989
					c2.67-0.086,4.161-1.781,5.024-4.088c1.052-2.815,1.995-5.671,2.984-8.509c2.496-5.618,4.992-11.237,7.488-16.855l0,0
					c3.178-5.044,6.357-10.088,9.535-15.132l0,0c0.369-0.322,0.739-0.643,1.108-0.965c2.65-0.033,5.311,0.069,7.946-0.146
					c1.799-0.147,2.659,0.401,2.71,2.19c-4.866,14.123-5.229,27.812,3.906,40.588c0.759,2.16,2.137,3.706,4.368,4.406
					c3.581,3.067,7.638,3.328,11.966,2h0c1.876,0.199,3.319-0.514,4.366-2.061c0,0.002,0,0.004,0,0.006
					c1.473-0.168,2.512-1.004,3.335-2.17c0,0,0,0,0,0c2.279-1.575,4.802-2.882,6.071-5.559c2.702-1.207,4.14-3.69,5.864-5.866
					c8.372-10.568,14.245-22.554,19.667-34.793c1.722-1.27,2.135-3.124,2.279-5.099l0,0c0.177-0.217,0.202-0.451,0.077-0.702
					c2.905-0.106,5.524-1.051,8.057-2.461c1.016-0.566,2.334-2.221,3.498-0.03c-2.406,4.738-4.929,9.42-7.191,14.225
					c-3.923,8.336-8.318,16.547-9.365,25.898c-0.743,6.635,0.005,12.836,6.77,16.47c4.34,3.075,7.919,2.034,10.94-2.023
					c2.275-1.806,4.448-3.693,5.299-6.635l0,0c3.154-3.86,7.172-7.038,9.273-11.731c5.267-2.553,5.891-8.393,8.889-12.553
					c1.894-0.801,2.1-2.876,3.218-4.263c1.012-1.234,2.024-2.468,3.036-3.701l0,0c1.51-0.493,1.823-3.736,4.349-1.894
					c2.07,3.952,4.14,7.903,6.209,11.855c0.21,4.445-4.466,6.542-5.089,10.587c-4.469,5.703-9.549,11.196-6.653,19.421
					c0.001,0.002,0.001,0.003,0.001,0.005c1.182,4.916,4.865,6.807,9.357,7.111c5.616,0.38,9.833-2.129,12.346-7.274
					c1.597-1.305,2.072-3.24,2.613-5.05c2.71-9.065,1.699-18.042-0.868-26.954c0.471-5.598,8.112-12.21,13.767-11.913
					c-1.366,1.052-0.747,2.61-1.007,3.944c-5.399,12.805-4.84,25.131,2.966,36.874c3.093,5.054,7.878,5.789,13.193,5.168
					c6.375-0.793,10.276-5.042,13.77-9.859c1.845-0.855,2.112-3.396,4.231-3.958c1.258,3.607,1.599,7.572,4.167,10.667
					c2.987,5.146,6.249,6.496,10.099,3.724c3.546-2.554,7.137-5.195,9.24-9.249c1.812-0.807,2.952-2.133,3.213-4.143v0v0
					c0.709-1.08,1.418-2.16,2.127-3.24c3.195-3.03,5.621-6.595,7.406-10.609c1.869-1.673,2.527-3.995,3.336-6.235v0
					c2.347-4.567,5.386-8.813,6.479-13.962l0,0c1.506-0.479,1.444-1.997,2.037-3.08h0c1.765-2.527,2.214-5.549,3.156-8.386
					c2.251-0.74,4.487-1.532,6.758-2.202c1.692-0.499,1.435,0.775,1.431,1.757c-7.071,11.287-11.257,23.664-13.423,36.71
					c-0.805,4.849-1.265,9.87,0.727,14.669c0.266,2.951,1.718,5.017,4.529,6.068c0.669,0.447,1.338,0.893,2.007,1.34
					c1.971,1.543,4.304,1.725,6.525,1.14c6.152-1.621,9.135-6.627,11.953-11.731c0.644-0.682,1.288-1.363,1.932-2.045
					c0.362-0.043,0.676-0.188,0.943-0.437c2.065-1.165,3.714-2.685,4.327-5.086c1.468-2.026,2.936-4.053,4.404-6.079
					c4.913-6.531,9.825-13.061,14.738-19.592v0c0.379,0.397,0.759,0.795,1.138,1.192c-2.535,9.137-3.879,18.324-1.159,27.681
					c1.18,7.145,2.168,14.407,10.518,17.157c7.5,3.01,10.497,1.843,17.171-6.686c3.992-3.001,5.237-8.039,8.558-11.538
					c0.385-0.28,0.77-0.56,1.155-0.84c1.537,1.068,0.231,2.869,1.063,4.119l0,0l0,0c-1.477,13.441-2.955,26.881-4.432,40.322
					c-1.071,1.885-2.747,3.091-4.5,4.304c-6.791,4.698-13.456,9.563-18.921,15.851c-2.237,1.844-4.226,3.903-5.655,6.454
					c-0.001,0.001-0.002,0.002-0.002,0.002c-3.571,4.237-6.447,8.946-9.301,13.67c-2.134,2.181-3.287,4.953-4.592,7.632
					l-0.002,0.002c-0.256,0.612-0.512,1.224-0.768,1.836v0c-0.977,1.911-1.955,3.823-2.933,5.734
					c-0.44,2.003-0.881,4.005-1.321,6.008c-0.162,0.397-0.255,0.803-0.312,1.215c-1.702,6.894-1.926,13.784,0.335,20.672
					c0,0,0,0.001,0,0.002c0.369,3.044,1.666,5.555,4.216,7.347c4.196,4.136,9.004,4.332,14.175,2.205h0h0
					c8.547-2.8,14.426-8.834,19.378-15.991l0,0c5.854-6.694,10.168-14.334,13.779-22.408c5.404-8.558,8.821-17.932,11.5-27.635
					c3.102-11.237,4.639-22.753,6.351-34.241c9.227-5.39,18.455-10.781,27.682-16.171l0,0l0,0c3.988-0.324,6.19-3.841,9.526-5.33
					C947.201,876.055,948.236,875.261,947.293,873.836z M606.937,812.35L606.937,812.35c1.142-1.687,2.283-3.375,3.425-5.062
					c4.478-0.29,2.7,3.15,3.14,5.267c-0.786,1.387-1.573,2.773-2.36,4.16c-1.943,0.276-2.356,4.285-5.281,2.165
					C606.77,816.794,605.204,814.3,606.937,812.35z M288.465,675.224c-0.717,6.103-1.494,12.196-3.178,18.13
					c-0.809-5.688,1.373-11.083,1.915-17.248c-1.196,5.908-1.807,11.926-3.224,17.792c-3.71,23.834-5.72,47.832-6.765,71.922
					c0.125,0.924,0.046,1.822-0.106,2.711c-0.996,0.6-2.24,0.8-3.411,1.122c-3.236,0.89-6.602,1.336-9.712,2.653
					c-0.507,0.125-1.015,0.24-1.526,0.328c-1.432,0.485-2.883,0.898-4.342,1.277c-2.271,0.504-4.543,1.009-6.814,1.513
					c-2.946-3.279,1.652-5.552,1.135-8.507l-0.001-0.001c1.574-2.74,2.982-5.532,2.863-8.82c-0.066,0.088-0.132,0.176-0.198,0.264
					c0.055-0.099,0.117-0.19,0.198-0.265c1.13-3.761,2.261-7.522,3.391-11.284c1.731-2.637,2.672-5.565,3.18-8.652h0
					c0.792-1.747,1.685-3.456,2.36-5.247c5.533-14.681,11.025-29.378,16.529-44.069v0c-0.067-2.878,2.267-5.412,1.208-8.432l0,0v0
					c0.836-1.733,1.673-3.466,2.509-5.199l0,0c0.604-1.818,1.209-3.637,1.813-5.455c0.265-0.073,0.533-0.132,0.804-0.177
					c0,0,0,0,0,0l0,0C289.206,671.06,287.959,673.355,288.465,675.224L288.465,675.224L288.465,675.224z M569.055,822.634
					c-1.448-2.454-5.476-4.14-2.082-7.825c1.164-1.264,2.594-1.804,3.619-0.725C573.593,817.243,570.44,819.79,569.055,822.634z
					 M642.196,816.856c-0.001,0-0.001,0-0.001,0c-1.006-0.474-1.823-1.125-2.13-2.254c0.003,0.002,0.005,0.006,0.009,0.008
					c-0.003-0.017-0.004-0.036-0.007-0.053c0.583-0.26,1.165-0.518,1.744-0.774l0.001,0.001c1.187,0.977,2.376,1.952,3.566,2.927
					C644.317,816.758,643.256,816.807,642.196,816.856z M693.378,816.695c-0.329-0.385-0.657-0.769-0.986-1.154
					c-0.007-2.2,1.22-2.499,2.999-1.946C695.487,815.127,694.885,816.205,693.378,816.695z M695.286,872.998
					c-1.628,0.018-3.256,0.036-4.884,0.054c-1.646-4.765,0.728-8.935,1.965-13.273l0.001,0c2.578-0.335,2.829-2.834,4.033-4.42
					c0.859-1.131,1.419-2.537,3.117-1.131C700.038,860.92,701.25,867.768,695.286,872.998z M757.817,827.872
					c-3.208,10.134-5.885,20.355-4.936,31.148c0.053,0.214,0.115,0.424,0.186,0.631c-2.721,0.805-3.337,3.15-3.542,5.796
					c-4.255,1.73-7.409,5.241-11.451,7.31c-0.108-0.1-0.217-0.2-0.336-0.302c-2.749-1.331-1.907-4.858-3.503-6.895
					c0.018-0.246,0.031-0.492,0.052-0.738c1.146-10.384,2.378-20.751,5.637-30.749c0.442-1.356,0.519-2.782,0.115-4.189
					c-0.051-0.146-0.111-0.285-0.18-0.417c0.376-0.994,0.719-2.003,1.076-3.005c0.796-1.705,1.591-3.409,2.387-5.114
					c0.076-0.114,0.166-0.222,0.246-0.335c1.734-1.688,3.467-3.376,5.201-5.065c2.071-0.69,4.123-1.733,6.306-0.339
					c0.608,0.431,1.215,0.862,1.823,1.293c0.886,2.466,1.922,4.896,2.339,7.473C758.884,825.588,758.435,826.765,757.817,827.872z
					 M883.81,922.839c-0.966,17.964-7.466,34.072-16.095,49.519c-0.871,1.559-2.36,2.958-1.815,4.997
					c-3.653,1.479-5,5.242-7.619,7.757c-2.813,2.701-5.739,4.549-9.785,3.837c-0.026,0-0.05-0.005-0.075-0.005
					c-1.018-2.23-3.301-3.744-3.925-6.197c-1.082-1.993-1.188-4.252-1.481-6.46c-0.151-1.633-0.302-3.267-0.453-4.9
					c0.149-0.091,0.289-0.2,0.411-0.342c0.251-0.413,0.437-0.859,0.548-1.332c0.317-1.914,0.143-3.9,0.818-5.763
					c0.245-0.941,0.467-1.888,0.652-2.844c0.477-1.247,0.988-2.476,1.525-3.691c1.76-2.637,3.132-5.499,4.483-8.372
					c0.827-1.271,1.713-2.51,2.667-3.711c1.526-2.105,2.957-4.27,4.241-6.532c0.248-0.541,0.55-1.04,0.872-1.524
					c0.522-0.459,0.942-0.995,1.252-1.613c0.361-0.404,0.735-0.798,1.129-1.177c0.478-0.51,0.928-1.046,1.321-1.626
					c2.942-3.699,5.87-7.418,10.198-9.655c4.583-2.433,8.021-6.614,12.902-8.602C884.011,917.105,883.959,920.071,883.81,922.839z"
					/>
			</g>
			
				<linearGradient id="SVGID_00000124153875443740193990000014677004639426344379_" gradientUnits="userSpaceOnUse" x1="400.2191" y1="743.683" x2="698.3186" y2="445.5835">
				<stop  offset="0" style="stop-color:#DDBF66"/>
				<stop  offset="1" style="stop-color:#C69849"/>
			</linearGradient>
			<path style="fill:url(#SVGID_00000124153875443740193990000014677004639426344379_);" d="M848.553,618.071
				c-0.538-1.048-1.672-1.27-2.609-0.864c-6.778,2.934-14.356,4.194-20.02,9.478v0l0,0c-0.614,0.117-1.228,0.235-1.841,0.353v0l0,0
				c-2.138,0.099-3.62,1.446-5.147,2.706c-4.508-0.203-0.839-4.355-2.796-5.791l0,0c-0.675-9.693-1.349-19.385-2.024-29.078
				c-0.051-11.492,0.542-23.041-3.058-34.216c-1.006-4.757-1.946-5.143-5.388-2.21l0,0c-2.666,4.463-4.12,9.392-5.514,14.344
				c-0.161,0.282-0.249,0.586-0.262,0.911c-2.705,4.034-4.362,8.565-6.167,13.025l-0.002,0.002c0.001,0,0.001-0.001,0.002-0.001
				c0,0.001,0,0.001,0,0.001c0.001,0,0.002,0,0.003,0c-2.046,1.954-2.992,4.578-4.245,7.015c0,0-0.001,0.001-0.002,0.002
				c-3.024,4.681-6.049,9.362-9.073,14.042l0,0c-2.299,2.353-4.599,4.705-6.899,7.058l0,0c-1.249,0.75-2.497,1.501-3.746,2.252
				c-1.64-1.191-2.007-2.978-2.032-4.802c-0.047-3.465,0.057-6.932,0.098-10.398c1.042-5.228,1.143-10.519,1.067-15.822
				c1.518-9.422,1.575-18.902,0.651-28.357c-0.3-3.071-1.165-6.627-5.121-7.122c-4.251-0.531-5.606,2.756-6.743,6.02
				c-3.381,2.258-6.763,4.516-10.144,6.773c-1.661,0.733-3.12,1.74-4.27,3.162l-0.001,0c-0.511,0.327-1.023,0.654-1.534,0.982
				c-2.086-6.681-5.471-12.529-10.924-17.054c-1.772-3.437-5.495-3.455-8.448-4.821c-0.562-0.313-1.125-0.502-1.689-0.59
				c-4.87-1.472-9.615-0.778-14.267,1.51c-1.005,0.686-2.011,1.373-3.016,2.059c-2.24,0.34-3.316,1.98-4.243,3.785
				c-2.3,1.184-3.445,3.392-4.791,5.421c-2.087,2.028-3.221,0.982-3.99-1.238c0.339-2.628-2.423-4.358-2.028-7.002
				c0.084-3.296-1.415-5.572-4.696-6.02c-3.252-0.444-4.773,1.822-5.668,4.59c-0.257,0.796-0.519,1.59-0.779,2.385
				c-5.402,4.644-9.136,10.945-15.017,15.113c-0.936-1.369-1.871-2.738-2.807-4.108l0,0c-4.437-7.699-9.872-10.208-17.384-8.028
				c0.003-0.002,0.006-0.005,0.009-0.008c-1.97-0.148-3.642,0.51-5.054,1.869c-0.641,0.438-1.282,0.877-1.923,1.315
				c-2.022,0.072-3.001,1.559-4.033,2.975c-2.14,1.021-3.532,2.892-4.777,4.733c-2.314,3.424-2.513,0.776-3.135-0.926v0
				c-0.055-1.946-0.11-3.893-0.165-5.839c-0.054-2.616,0.058-5.248-0.212-7.841c-0.224-2.148-0.893-4.593-3.56-4.581
				c-2.49,0.011-4.242,1.549-4.277,4.369h0l0,0c-0.026,0.598-0.051,1.195-0.076,1.793l0,0v0c-2.802,2.103-2.613,5.279-2.966,8.262
				c-2.074,5.868-2.501,12.099-3.978,18.098c-4.439,8.359-8.879,16.718-13.318,25.077c-3.714,4.359-6.157,10.18-12.825,11.136
				c-0.175-0.246-0.406-0.336-0.685-0.285c-0.391-3.907-0.782-7.814-1.173-11.72c0.06-0.132,0.113-0.265,0.156-0.399
				c0.829-2.142,0.896-4.393,0.825-6.663c2.869-10.822,4.151-21.924,5.459-32.992c0.834-7.062,2.218-14.2,0.49-21.358
				c0.18-3.091-1.357-5.185-4.199-5.888c-3.289-0.814-5.751,0.681-7.218,3.745c-1.843,1.71-2.783,3.952-3.671,6.225
				c-1.419,2.599-2.725,0.94-4.047-0.109c-0.872-1.613-2.136-2.743-3.947-3.198v0c-5.404-4.171-11.228-4.446-17.36-1.872
				c-6.609,1.559-11.609,5.332-15.197,11.047c-10.022,13.103-15.451,27.636-13.811,44.369c-0.009,1.309-0.018,2.618-0.027,3.927
				c-1.15,1.614-2.871,2.897-2.963,5.122c-1.052,1.243-2.104,2.485-3.155,3.727c-1.492,1.639-3.501,2.896-3.928,5.32
				c-2.404,1.932-4.809,3.863-7.213,5.795l0,0l0,0c-2.602,0.046-5.204,0.091-7.806,0.136c-2.915-2.147-5.578-4.567-7.943-7.311v0
				c-3.927-12.786-2.679-25.819-1.522-38.77c1.827-20.458,5.216-40.755,6.513-61.273c3.69-4.316,7.381-8.631,11.071-12.947
				c4.234-4.178,8.141-8.595,10.352-14.243l0.001-0.001c0.83-0.383,0.793-1.095,0.694-1.83l0.001-0.001
				c2.668-0.639,3.235-2.947,4.029-5.074l0,0c8.266-12.494,11.824-26.542,12.336-41.22c0.226-6.478-0.579-13.549-7.321-17.616
				c-6.593-4.967-13.411-4.47-20.358-0.84c-4.503,1.754-7.785,4.865-10.077,9.074c-1.604,1.312-2.618,3.002-3.19,4.976
				c-5.585,8.381-9.385,17.617-12.751,27.034c-7.004,19.591-10.401,39.972-13.236,60.491c-0.744,5.383-0.409,11.007-2.899,16.09
				c-4.711,3.946-9.422,7.892-14.133,11.838l0,0c-4.069,3.011-8.139,6.022-12.888,9.537c0-2.649,0.026-4.416-0.004-6.182
				c-0.198-11.466,0.817-22.964-0.929-34.388v-0.001c-0.372-21.766-2.015-43.469-3.17-65.197
				c-1.398-8.982,2.088-15.842,9.147-21.185c0.483-0.365,0.703-1.077,1.045-1.628c0.517-0.408,1.125-0.741,1.539-1.235
				c15.872-18.916,26.855-40.251,31.222-64.669c1.313-7.338,1.76-14.885-1.554-22.023c0.003,0,0.006-0.001,0.006-0.001l0.003-0.001
				l0,0l0-0.001c-0.066-1.715-0.677-3.17-2.038-4.266l-0.001-0.001c-1.222-2.797-3.179-4.831-6.092-5.873v0
				c-0.71-0.569-1.419-1.139-2.129-1.708c-0.993-0.708-1.986-1.416-2.979-2.124c-2.011,0-4.023,0-6.034,0
				c-1.581,1.804-4.925,0.475-5.916,3.329c-5.149,3.499-10.335,6.959-13.348,12.702c-3.165,3.544-5.543,7.552-7.089,12.048
				c-0.933,1.746-1.987,3.439-2.779,5.246c-8.4,19.155-12.849,39.246-14.275,60.073c-0.784,11.453-1.798,22.891-2.708,34.336
				c-0.117,0.577-0.233,1.153-0.35,1.729c-15.65,12.83-31.302,25.657-46.949,38.49c-6.457,5.295-13.1,10.413-17.318,17.878l0,0
				c-1.622,1.252-2.508,2.967-3.076,4.882c-1.759,1.729-2.52,3.984-3.284,6.237l0,0c-0.248,0.635-0.495,1.27-0.742,1.905l0,0
				c-1.608,2.845-3.126,5.719-2.973,9.138l0,0c-1.625,2.785-0.864,5.782-0.653,8.688c0.117,1.61,1.211,2.875,2.991,2.594
				c2.082-0.328,1.093-1.961,1.007-3.163c-0.093-1.303-0.181-2.607-0.272-3.911c0.05-0.94,0.099-1.881,0.148-2.821
				c0.03,0,0.059-0.02,0.086-0.049c1.74-0.829,1.857-2.457,1.958-4.093c1.31-1.816,2.524-3.663,1.997-6.084
				c-0.068,0.059-0.136,0.118-0.205,0.178c0.062-0.067,0.128-0.129,0.205-0.178c0.174-0.21,0.194-0.434,0.061-0.672
				c2.927-1.134,3.78-3.526,3.871-6.381c0.229-0.156,0.285-0.36,0.167-0.611l0,0c2.537-0.333,3.101-2.514,4.056-4.329h0
				c17.48-17.612,37.846-31.784,56.787-47.655c0.687-0.576,1.383-0.903,2.268-0.53l0,0c0.023,1.615,0.047,3.231,0.07,4.846
				c-0.095,2.338-0.217,4.675-0.28,7.013c-0.914,34.123-0.066,68.295-2.906,102.363c-0.282,0.41-0.564,0.819-0.846,1.229
				c-6.079,5.433-12.176,10.846-18.234,16.303c-11.157,10.05-20.115,21.653-25.241,35.943h0c-2.988,5.704-5.024,11.724-6.005,18.095
				l0,0c-3.04,9.682-3.84,19.511-1.945,29.519c-0.092,1.775-0.101,3.533,1.021,5.063l0.001,0.001
				c1.412,6.933,4.994,12.37,11.081,16.082c5.056,4.358,11.004,4.647,17.047,3.25c12.138-2.806,21.62-9.56,28.348-20.086
				c4.089-6.397,6.96-13.359,9.198-20.576c10.136-32.68,15.323-66.162,16.124-100.346l0.436,0.001l0.372-0.229
				c5.404-2.868,9.937-6.87,14.347-11.032c3.728-2.225,7.101-4.896,10.092-8.045l0.001,0c2.241-1.283,2.532,0.238,2.727,1.897
				c-0.723,8.16-0.835,16.357,0.007,24.478c1.486,14.325,4.839,28.19,11.857,40.953l0,0c2.717,6.487,7.548,10.706,14.072,13.107h0
				c4.947,2.743,10.019,3.825,15.375,1.164v0c4.151-0.942,6.791-3.79,9.02-7.156c1.768-1.247,3.022-2.825,3.257-5.059l0,0
				c0.859-0.342,0.835-1.093,0.845-1.827c1.995-1.581,3.47-3.505,3.995-6.055c0.338-0.058,0.631-0.207,0.877-0.446
				c0.964-0.882,1.928-1.764,2.892-2.646c1.156,1.744,2.041,3.695,3.802,4.977c2.239,3.642,5.133,6.524,9.257,7.979
				c4.939,2.617,8.847,0.749,12.358-2.843c2.831-1.245,3.966-4.134,5.981-6.169c0.665-0.666,1.331-1.331,1.996-1.997
				c0.643-0.738,1.286-1.476,1.93-2.214v0c2.055-0.599,2.058-3.138,3.808-4.028c0.855-1.161,1.095-2.815,2.688-3.415
				c0.07,0.168,0.137,0.329,0.206,0.495c0.072,0.935,0.152,1.87,0.318,2.792c0.477,1.258,0.504,2.645,1.12,3.86
				c0.639,1.483,1.1,3.028,1.592,4.563c1.056,4.308,3.067,8.151,7.029,11.045c0.727,1.219,1.812,1.838,3.218,1.92
				c0.007-0.001,0.014-0.002,0.021-0.004c-0.03,0.034-0.063,0.063-0.092,0.1c0.095,1.027,0.842,1.197,1.682,1.393
				c6.318,1.469,10.248-1.973,13.633-6.565c0.912-4.026,4.209-6.633,6.024-10.122c2.896-2.354,4.281-5.762,6.158-8.828
				c1.085-0.701,1.724-0.387,1.954,0.858c-3.687,21.146-5.874,42.459-7.166,63.876c-0.656,10.869-1.498,21.731-1.125,32.632
				c0.139,4.058,1.738,7.333,6.104,8.032c4.621,0.74,7.176-2.046,8.552-6.079c1.521-4.458,2.316-9.092,2.726-13.767
				c1.642-18.681,3.122-37.375,4.827-56.05c1.477-16.166,4.028-32.236,4.276-48.51l0,0v0c0.337,0.006,0.615-0.12,0.833-0.376
				c1.901-1.525,2.725-3.613,3.101-5.934c0.554-0.803,1.32-1.517,1.101-2.642c3.24-1.107,4.834-3.94,6.751-6.434
				c0.46-0.613,0.92-1.226,1.381-1.839c0.949-0.321,2.274,0.386,2.821-1.032c1.979,0.009,3.958,0.019,5.937,0.028
				c6.35,4,6.211,10.666,6.97,16.964c-0.314,0.647-0.627,1.295-0.941,1.942c-3.975,3.146-7.763,6.463-10.195,11.034
				c0,0,0,0-0.001,0.001c-2.459,2.6-4.21,5.693-5.105,9.076c-1.618,6.115-2.273,12.215,3.348,16.982
				c5.991,4.002,12.156,3.386,17.286-1.727c2.782-1.893,4.111-4.823,5.077-7.812c3.537-10.939,5.152-22.074,2.691-33.514
				c0.577-7.438,7.697-9.626,11.444-15.108c0.343,1.471,0.528,2.262,0.712,3.053c-2.261,22.839-4.455,45.685-6.802,68.516
				c-2.037,19.817-5.577,39.515-4.479,59.568c0.146,2.669-0.056,5.423,1.204,7.872c1.555,3.022,3.396,5.68,7.375,5.932
				c3.95,0.251,6.331-1.636,7.881-4.952c0.984-2.105,1.997-4.218,2.728-6.416c3.692-11.107,3.107-22.821,4.707-34.229
				c3.922-27.958,4.945-56.053,3.393-84.242c0.011-1.681,0.023-3.363,0.034-5.044c0.688-1.635,1.376-3.271,2.064-4.906
				c2.172-0.587,3.551-1.949,4.062-4.159l0,0c0.735-0.942,1.47-1.884,2.205-2.826h0c2.589-1.763,5.177-3.526,7.766-5.29
				c3.324,0.069,6.649,0.138,9.973,0.206c2.882,1.662,3.83,4.924,5.961,7.206l0,0c2.305,6.387,4.321,12.818,3.08,19.758
				c-1.731,1.329-3.461,2.657-5.191,3.986c0,0-0.001,0-0.001,0c-0.292,0.231-0.585,0.463-0.877,0.694
				c-3.388,2.18-6.147,4.99-8.367,8.339c-0.002,0.002-0.003,0.003-0.005,0.005c-3.258,2.676-5.785,6-7.808,9.626
				c-2.548,4.568-4.13,9.403-1.814,14.643c2.755,5.975,6.015,7.603,12.203,6.096c4.023-0.425,7.773-1.597,11.055-4.047
				c5.139-1.991,8.388-6.009,10.788-10.662c4.609-8.937,6.635-18.5,6.115-28.571c0.009-2.034,0.018-4.069,0.027-6.103h0l0,0
				l0.022-0.025c1.428-0.954,2.856-1.908,4.284-2.862c0,0,0.001-0.001,0.002-0.001c1.18-0.762,2.353-1.536,3.543-2.282
				c2.706-1.697,3.189-0.012,3.318,2.197c-1.073,5.556-2.325,11.088-2.178,16.802c-1.87,7.78-1.757,15.58,0.099,23.316
				c1.314,5.476,3.584,10.45,8.989,13.213c5.532,3.4,8.422,2.957,14.138-2.17c4.194-2.099,5.321-6.681,8.06-9.957
				c3.376-3.923,5.227-8.785,8.049-13.049c2.296-1.35,2.621-4.046,4.08-5.968c1.851,1.77,0.08,4.159,1.041,6.081l0,0l0,0
				c-0.403,11.885-0.747,23.771-1.237,35.652c-0.199,4.833,0.378,9.723-0.895,14.492c-8.758,6.309-16.284,13.932-23.439,21.952
				l0,0.001c-2.96,2.794-5.979,5.537-7.998,9.154c0,0-0.001,0.001-0.002,0.001c-6.079,7.415-9.673,16.036-12.212,25.169l0.002,0
				c-1.223,2.52-1.92,5.149-1.638,7.979c-0.23,0.545-0.391,1.089-0.457,1.629c-0.97,3.908-0.994,7.82,0.397,11.738
				c0,0.001,0,0.003,0.001,0.004c0.32,2.331,0.986,4.488,2.989,5.972c0.386,1.66,1.494,2.651,3.026,3.249l0,0.001
				c4.104,3.89,8.803,5.52,14.387,3.788c4.39-0.31,8.557-1.295,12.159-4l0,0c2.048-0.405,3.574-1.75,5.08-3.017
				c10.975-9.238,16.065-21.68,19.046-35.251c6.445-19.213,9.355-39.023,10.008-59.214c3.274-3.418,8.292-3.484,11.928-6.207
				c0.354-0.329,0.708-0.658,1.062-0.987c6.023-2.236,12.134-4.275,17.774-7.41C847.884,620.202,849.36,619.644,848.553,618.071z
				 M365.565,616.953c-0.035,0.016-0.07,0.031-0.106,0.046c0.009-0.023,0.015-0.048,0.023-0.071
				C365.509,616.937,365.537,616.944,365.565,616.953z M367.436,617.735c0.03,0.039,0.063,0.073,0.089,0.118
				c-0.03,0.044-0.062,0.088-0.093,0.132C367.438,617.895,367.437,617.814,367.436,617.735z M396.179,600.745
				c-2.257,20.824-5.095,41.571-9.733,62.016c-2.105,9.28-5.701,17.895-13.395,24.163c-1.544,1.546-3.069,2.534-4.581,2.988
				c-1.31,0.275-2.456,0.303-3.505,0.081c-1.145-0.302-2.284-0.936-3.419-1.88c-0.935-0.868-1.851-2.016-2.82-3.479
				c-0.727-1.098-1.353-2.262-2.026-3.396c-0.716-3.328-1.432-6.655-2.148-9.982c0.318-5.947,0.636-11.894,0.954-17.841l0,0
				c1.677-6.009,3.355-12.017,5.032-18.026c2.023-4.347,4.046-8.694,6.069-13.042l0,0c0.951-1.342,1.942-2.657,2.848-4.03
				c7.509-11.382,17.563-20.212,28.256-28.404c-0.03,0.129-0.057,0.259-0.092,0.387
				C397.158,593.784,396.559,597.242,396.179,600.745z M455.973,330.36c-0.137,0.007-0.275,0.008-0.412,0.013
				c0.035-0.061,0.065-0.132,0.097-0.199C455.763,330.236,455.869,330.291,455.973,330.36z M465.04,343.422L465.04,343.422
				L465.04,343.422L465.04,343.422z M465.038,343.423c0.213,0.154,0.495,0.37,0.757,0.567c-0.174,0.038-0.392,0.049-0.659,0.03
				C465.102,343.821,465.073,343.622,465.038,343.423L465.038,343.423z M466.02,338.42c-0.113-0.131-0.226-0.262-0.34-0.392
				c0.119,0.037,0.234,0.077,0.358,0.109C466.031,338.231,466.025,338.325,466.02,338.42z M426.505,429.327
				c-0.015-0.109-0.031-0.218-0.045-0.327c1.208-1.988,0.891-4.294,0.808-6.465c-0.776-20.339,0.945-40.376,6.908-59.935
				c0.484-1.586,0.952-3.246-0.186-4.804c-0.005-0.062-0.01-0.124-0.014-0.186c1.816,0.156,2.278-1.422,2.737-2.647
				c2.112-5.647,5.406-10.586,8.891-15.433c0.52-0.955,1.173-1.745,1.939-2.393c0.7-0.431,1.399-0.863,2.099-1.294
				c0.234-0.102,0.476-0.195,0.724-0.28c2.897-0.395,5.765-0.484,8.494,0.887l0.001,0c1.013,1,2.026,1.999,3.039,2.998
				c0.652,1.347,1.303,2.693,1.955,4.04c0.14,0.568,0.259,1.134,0.372,1.699c-0.03,0.232-0.042,0.467-0.007,0.708
				c0.777,5.341,0.771,10.612,0.155,15.829c-0.68,4.444-1.812,8.855-3.087,13.27c-3.457,11.966-9.204,22.76-15.62,33.229
				c-1.296,1.784-2.656,3.535-4.103,5.242C435.988,418.215,432.4,424.891,426.505,429.327z M491.495,498.893
				c1.473-10.742,2.939-21.487,4.137-32.268c0.309-4.637,0.952-9.19,1.874-13.675c0.6-2.594,1.219-5.183,1.889-7.758
				c1.442-5.14,3.229-10.195,5.292-15.183c0.061-0.177,0.138-0.341,0.21-0.509c1.101-1.153,2.202-2.305,3.303-3.458
				c0.025,0.035,0.046,0.069,0.077,0.103c3.16,0.957,6.32-1.385,9.482-0.008c0.767,0.037,1.406,0.301,1.99,0.662
				c4.053,5.357,3.082,11.713,2.234,17.977c-1.286,9.49-4.614,18.317-8.719,26.872c-0.354,0.608-0.753,1.185-1.237,1.704
				c-0.261,0.381-0.509,0.77-0.717,1.184c-0.221,0.458-0.473,0.897-0.717,1.341c-1.436,1.862-2.68,3.85-3.779,5.934
				c-0.194,0.285-0.39,0.57-0.582,0.856c-0.645,0.931-1.28,1.87-1.919,2.806c-1.879,2.391-3.758,4.783-5.637,7.174
				c-0.928,0.939-1.923,1.822-3.021,2.618C494.121,496.317,492.763,497.557,491.495,498.893z M554.139,600.466
				c0.003,0.132,0.015,0.259,0.035,0.381c-0.564-0.029-0.795,0.281-0.661,0.962c0.002,0.059,0.003,0.118,0.005,0.177
				c-2.292-0.623-3.196,0.792-3.852,2.572c-0.011-0.005-0.022-0.009-0.033-0.014c-1.606-0.009-2.631,0.719-3.074,2.188
				c-2.349-0.443-4.215,0.794-6.119,1.891c-0.027,0.031-0.037,0.062-0.06,0.093c-0.032-0.032-0.063-0.065-0.093-0.098
				c-0.682-1.123-1.207-2.311-1.62-3.546c-0.085-0.293-0.173-0.584-0.271-0.871c-0.13-0.449-0.25-0.902-0.355-1.362
				c-1.205-6.719-1.428-13.281-0.813-19.708c0.68-6.293,2.111-12.463,4.141-18.534c1.29-3.69,2.828-7.341,4.61-10.952
				c0.04-0.114,0.096-0.217,0.142-0.327c2.72-2.795,5.821-5.04,9.534-6.396c0.018-0.043,0.039-0.078,0.058-0.118
				c0.013,0.073,0.018,0.136,0.036,0.215c1.894,1.178,4.078,1.411,6.193,1.875c1.047,0.04,1.961,0.316,2.799,0.726
				c1.308,1.141,2.374,2.412,2.866,3.99c-0.322,1.557-0.576,3.135-1.313,4.572c-3.487,10.53-4.431,21.448-4.886,32.438
				c0.066,0.194,0.115,0.391,0.169,0.587C557.625,593.01,556.397,597.19,554.139,600.466z M640.856,607.964
				c0.177-0.08,0.362-0.177,0.567-0.318c-0.424-6.282,0.555-12.239,3.968-17.674c0.703-1.12,1.214-2.382,1.226-3.764
				c-0.006-0.033-0.016-0.057-0.023-0.089c1.221-0.064,2-0.94,2.824-1.727c0.059-0.059,0.109-0.124,0.162-0.187
				c-0.105,0.608-0.263,1.208-0.513,1.792c-2.229,6.893-3.313,14.068-5.159,21.056c-0.032,0.17-0.075,0.336-0.115,0.503
				c-0.975-0.032-1.934,0.305-2.902,0.439C640.88,607.984,640.868,607.974,640.856,607.964z M694.417,561.76
				c0.001-0.002,0.001-0.003,0.002-0.005l0,0L694.417,561.76z M741.683,568.715L741.683,568.715L741.683,568.715
				c-0.008-0.006-0.014-0.012-0.021-0.018c0.007-0.009,0.017-0.017,0.023-0.026C741.684,568.686,741.683,568.7,741.683,568.715z
				 M717.527,545.62L717.527,545.62c-0.007,0.009-0.011,0.017-0.017,0.026c-0.006-0.011-0.013-0.021-0.019-0.032
				c0.012,0.003,0.023,0.004,0.035,0.006H717.527z M717.459,548.602c0.006-0.006,0.01-0.012,0.016-0.018
				c0.003,0.005,0.006,0.01,0.009,0.015C717.476,548.601,717.467,548.601,717.459,548.602z M727.597,584.564
				c-0.025,0.083-0.047,0.166-0.073,0.249c-0.001-0.092-0.002-0.185-0.003-0.277C727.547,584.546,727.573,584.556,727.597,584.564z
				 M713.223,595.319c3.169-4.589,7.609-7.935,10.98-12.271c0.001-0.002,0.001-0.003,0.002-0.005c1.15,0.463,1.502,1.67,2.014,2.724
				c0.099,0.074,0.201,0.134,0.305,0.181c-0.342,1.823-0.695,3.642-1.099,5.44c-1.297,4.235-2.725,8.411-4.551,12.432
				c-0.983,1.666-2.14,3.261-3.54,4.758c-0.013,0.042-0.032,0.078-0.046,0.119c-2.746-0.658-3.999,0.901-4.748,3.208
				c-1.4-1.256-3.109-1.698-4.911-1.898C708.811,604.856,710.109,599.828,713.223,595.319z M751.811,702.299
				c-0.15,0.09-0.334,0.14-0.573,0.122C751.447,702.365,751.635,702.326,751.811,702.299z M755.41,724.849
				c-0.093-0.066-0.184-0.14-0.273-0.22c0.544-2.309-1.027-4.273-1.565-6.401c-0.422-0.816-0.572-1.784-0.953-2.623
				c0.011-0.837,0.022-1.673,0.033-2.51c0.505-1.38,0.322-2.986,0.882-4.346c0.382-1.686,0.525-3.375,0.196-5.077
				c1.525,0.012,1.992-1.19,2.18-2.283c1.478-8.568,6.193-15.66,10.341-23.011c0.003-0.103-0.001-0.191-0.002-0.285
				c3.916-1.046,5.203-4.329,6.37-7.714c0.069,0.049,0.135,0.1,0.215,0.143c1.968-0.047,2.724-1.75,3.84-2.894
				c4.967-5.089,10.026-10.069,15.767-14.407c0.641,1.494-0.012,3.327,1.059,4.619c-0.008,0.198-0.023,0.396-0.032,0.595
				c-0.032,0.036-0.067,0.062-0.097,0.102c-2.78,8.325-2.628,17.089-3.781,25.65c-2.02,15.009-4.096,29.907-16.224,40.872
				c-0.519,1.037-1.224,1.851-2.029,2.546c-1.185,0.62-2.371,1.24-3.556,1.859c-0.044-0.061-0.079-0.123-0.139-0.183
				C763.656,727.557,758.497,729.056,755.41,724.849z"/>
		</g>
		<path style="fill:#D04C4B;" d="M468.325,232.757c-4.834,4.537-13.128,6.978-20.179,6.167c3.329-6.774,4.338-14.73-3.626-17.558
			c-4.588-1.629-9.714,1.265-11.699,5.48c-2.414,5.124,0.352,11.093,4.528,14.338c0.508,0.395,1.043,0.751,1.591,1.084
			c-7.993,8.722-21.498,11.837-32.567,13.979c-3.787,0.733-2.184,6.517,1.595,5.786c11.884-2.3,24.616-5.656,33.733-14.1
			c0.948-0.878,1.974-2.034,2.982-3.372c9.514,2.199,21.438-1.511,27.885-7.561C475.389,234.352,471.14,230.115,468.325,232.757z
			 M440.227,227.331c6.336-2.717,3.755,6.767,2.313,9.885C439.12,234.958,434.898,229.616,440.227,227.331z"/>
		<path style="fill:#D04C4B;" d="M249.052,142.309c8.78,11.213,14.39,24.084,16.626,38.149c0.605,3.805,6.37,2.13,5.771-1.642
			c-2.307-14.516-8.206-28.052-17.268-39.624C251.831,136.192,246.669,139.266,249.052,142.309z"/>
		<path style="fill:#D04C4B;" d="M373.21,134.645c-3.027,7.472-6.053,14.944-9.08,22.416c-1.449,3.577,4.352,5.133,5.786,1.595
			c3.027-7.472,6.054-14.944,9.08-22.416C380.445,132.663,374.643,131.107,373.21,134.645z"/>
		<path style="fill:#D04C4B;" d="M760.493,377.241c-7.922,1.06-16.791,1.425-23.85-2.979c-1.609-1.004-3.11-2.26-4.394-3.705
			c0.46-0.191,0.915-0.393,1.36-0.615c4.505-2.251,7.46-6.326,7.119-11.459c-0.266-4.002-2.718-8.345-6.831-9.406
			c-4.585-1.184-8.669,1.964-10.459,5.985c-1.547,3.478-1.492,7.428-0.418,11.072c-0.223,0.003-0.442,0.004-0.657,0.004
			c-9.052-0.004-18.103-2.275-26.335-5.953c-3.496-1.562-6.551,3.607-3.028,5.181c9.03,4.035,22.008,8.372,32.954,6.859
			c7.681,11.17,22.014,12.694,34.539,11.017C764.264,382.736,764.314,376.73,760.493,377.241z M728.966,365.08
			c-0.771-2.24-1.62-11.104,3.337-10.218c3.488,0.624,2.566,6.354,1.022,8.047c-1.109,1.216-2.611,1.979-4.243,2.457
			C729.045,365.269,728.999,365.177,728.966,365.08z"/>
		<path style="fill:#D04C4B;" d="M805.756,286.145c1.519,13.968,1.933,27.981,1.24,42.014c-0.191,3.86,5.81,3.849,6,0
			c0.693-14.033,0.28-28.046-1.24-42.014C811.343,282.348,805.338,282.306,805.756,286.145z"/>
		<path style="fill:#D04C4B;" d="M909.046,340.551c-11.424,7.265-18.47,19.129-19.515,32.608c-0.298,3.85,5.703,3.831,6,0
			c0.875-11.288,7.005-21.362,16.543-27.427C915.323,343.665,912.317,338.471,909.046,340.551z"/>
		<g>
			<path style="fill:#FAD6D4;" d="M110.279,659.805c0,1.835,0,3.669,0,5.504c0.344,0.014,0.688,0.023,1.032,0.027
				c0.027-1.842,0.054-3.683,0.081-5.525C111.021,659.81,110.65,659.807,110.279,659.805z"/>
			<path style="fill:#E6AAAA;" d="M359.101,239.089c5.523,0.269,12-6.833,11.872-13.02c-0.121-5.874-5.659-10.876-12.247-11.064
				c-6.363-0.181-11.912,5.294-11.954,11.797C346.73,233.283,352.219,238.753,359.101,239.089z"/>
			<path style="fill:#FEFEFE;" d="M256.728,422.315c0.129-0.014,0.259-0.027,0.389-0.039c-0.145-0.079-0.29-0.159-0.435-0.238
				C256.697,422.13,256.713,422.223,256.728,422.315z"/>
			<path style="fill:#FEFEFE;" d="M253.64,400.301c0.124-0.037,0.247-0.081,0.371-0.114c-0.21-0.056-0.42-0.105-0.631-0.165
				C253.467,400.115,253.553,400.208,253.64,400.301z"/>
			<polygon style="fill:#FEFEFE;" points="305.145,379.12 305.146,379.122 305.147,379.121 305.147,379.121 305.146,379.121 			"/>
			<path style="fill:#FEFEFE;" d="M223.62,455.845c-0.005-0.645-0.039-1.287-0.097-1.926
				C223.443,454.501,223.548,455.175,223.62,455.845z"/>
			<path style="fill:#FEFEFE;" d="M224.085,439.355c0.028,0.007,0.058,0.011,0.084,0.019c0.016-0.116,0.033-0.232,0.049-0.349
				C224.171,439.14,224.131,439.243,224.085,439.355z"/>
			<path style="fill:#FEFEFE;" d="M270.548,445.249c0.007,0.03,0.007,0.056,0.008,0.083c0.089,0.009,0.178,0.018,0.267,0.027
				C270.925,445.074,270.415,444.701,270.548,445.249z"/>
			<path style="fill:#FEFEFE;" d="M237.326,451.098c0.148,0.057,0.3,0.116,0.455,0.179c0.009-0.359,0.044-0.749,0.115-1.182
				C237.647,450.41,237.465,450.748,237.326,451.098z"/>
			<path style="fill:#FEFEFE;" d="M234.774,424.166c0.045-0.033,0.085-0.071,0.121-0.114c-0.043,0.035-0.086,0.071-0.13,0.106
				C234.768,424.161,234.772,424.164,234.774,424.166z"/>
			<path style="fill:#FFFFFF;" d="M305.81,257.406c-4.164-1.536-8.603-1.183-11.867,2.722c0.642,0.243,1.284,0.485,1.926,0.728
				c-3.224,1.571-4.725,3.717-4.964,5.985c-0.427,4.048,3.092,8.461,7.666,10.582c6.709,3.11,14.078-4.768,11.727-11.115
				c0.458,0.173,0.915,0.346,1.372,0.519l0,0C312.024,262.248,309.72,258.848,305.81,257.406z"/>
			<path style="fill:#D04C4B;" d="M266.146,359.365c4.309,1.642,1.173,5.359,2.867,8.667c-3.777-1.544-6.831-2.052-9.029,1.168
				c-3.02-1.03-5.837-1.152-6.52,2.786c-0.384,2.218-2.293,1.803-3.39,2.726c0.005,0.359,0.016,0.719,0.031,1.078h0
				c0.358,0.366,0.716,0.733,1.074,1.1l0.001,0c10.278,1.116,20.555,2.232,30.833,3.349c6.003-0.007,12.006,0.025,18.008-0.045
				c1.75-0.021,3.688,0.563,5.124-1.071c0-0.001-0.001-0.001-0.001-0.002c-1-0.308-1.996,0.419-2.663-1.623
				c-2.12-6.491,0.834-10.048,6.069-12.77l0,0v0c-15.508-4.462-31.339-6.548-47.466-6.469c0,1.806,0,3.612,0,5.602
				C263.942,363.393,261.774,357.699,266.146,359.365z"/>
			<path style="fill:#D04C4B;" d="M292.422,381.524c0.061,0.007,0.122,0.012,0.184,0.02
				C292.558,381.351,292.304,381.239,292.422,381.524z"/>
			<path style="fill:#D05755;" d="M274.295,437.448c-0.307-0.915-1.046-1.87,0.117-2.694c0.841-0.596,1.557-0.384,2.083,0.492
				l0.002,0.002c1.049-0.419,1.783-1.153,2.2-2.203c-2.357,0.085-4.742,0.208-4.402-3.302c0.273-1.356,2.317-1.965,1.676-3.59
				c-2.332-2.412-3.915,4.535-6.953,0.057c-1.712-2.524-3.123-4.461-2.429-7.472l0,0c-0.96,0.058-1.969,0.323-2.192,1.305
				c-1.242,5.473-4.237,3.9-7.279,2.235c-0.13,0.013-0.26,0.026-0.389,0.039c0.158,0.965,0.325,1.929,0.462,2.897
				c0.201,1.417,2.604,2.874,0.493,4.153c-1.468,0.889-3.419-0.365-4.306-1.537c-2.952-3.9-4.724-4.06-6.912,0.792
				c-0.856,1.9-2.213,6.09-6.295,3.324c-1.601-0.016-3.201-0.031-3.303,2.202c0,1.101,0,2.201,0,3.302
				c2.159,2.785,1.781-0.686,1.948-1.023c0.59-1.196,0.973-2.737,2.603-1.851c1.497,0.814,0.75,2.185-0.044,3.28
				c-1.473,2.031-1.987,4.223-1.299,6.696c0.514,1.845-0.946,2.52-2.29,3.309c1.431,0.962,2.803,0.815,4.031,0
				c0.763-0.506,1.271-1.374,2.089-0.12c0.609,0.932-2.185,3.958,1.517,2.822c1.781-0.547,2.493-2.407,1.831-4.552
				c-0.629-2.036-1.378-3.322-3.777-2.19c-0.389,0.184-1.016-0.137-1.673-0.247c0.28-2.42,2.097-1.927,3.549-2.369
				c1.021-0.311,3.172,0.41,2.8-2.272c-0.49-3.525,2.752-2.364,4.182-2.396c2.823-0.064,1.073,2.203,0.817,3.182
				c-0.483,1.848-0.101,3.296,1.155,4.475c0.958,0.899,1.564-0.489,2.296-0.803c2.332-0.999,0.677-2.645,0.518-4.096
				c-0.205-1.872-2.008-4.204-0.039-5.522c1.802-1.206,4.296-1.772,6.199,0.862c1.655,2.29,2.361-0.268,3.001-1.104
				c1.84-2.402,3.719-3.128,6.414-1.028c-6.565,3.905-6.733,4.371-2.807,7.15c-0.367,1.835-0.734,3.669-1.101,5.504
				c0.588,0.059,1.177,0.119,1.765,0.178c-0.001-0.027,0-0.053-0.008-0.083c-0.133-0.548,0.377-0.174,0.275,0.11
				c0.114,0.011,0.227,0.023,0.341,0.034c-0.025,0.225-0.05,0.451-0.075,0.676c-1.133,0.062-2.266,0.123-3.399,0.185
				c-0.037,1.431-0.771,2.165-2.201,2.202c2.561,1.812,5.123,1.071,7.684,0c0.872-1.045,1.745-2.09,2.617-3.135
				c0.001-0.001,0.002-0.003,0.003-0.004c-0.001,0.001-0.002,0.002-0.003,0.004C276.882,442.395,272.195,440.565,274.295,437.448z
				 M271.875,438.312c-0.352,0.516-0.905,1.092-1.473,1.221c-1.15,0.26-0.392-0.748-0.329-0.907
				c0.233-0.588,0.652-1.101,1.269-2.057C271.65,437.507,272.027,438.09,271.875,438.312z"/>
			<path style="fill:#E06A69;" d="M317.404,372.224c-1.683,6.569-7.254,6.227-12.257,6.896l0,0l-0.001,0.001
				c-1.436,1.634-3.374,1.051-5.124,1.071c-6.002,0.07-12.005,0.038-18.008,0.045c3.022,1.98,6.439,0.823,10.408,1.286
				c-0.117-0.285,0.136-0.173,0.184,0.02c0.992,0.128,2.016,0.357,3.079,0.769c-6.176,1.306-11.087,2.577-16.077,3.298
				c-2.405,0.348-4.567,0.789-6.691,2.037c-8.995,5.285-16.412,2.395-19.764-7.493c-0.398-1.176-1.302-2.181-1.972-3.265l0.001,0
				l-0.001,0c-0.358-0.366-0.716-0.733-1.074-1.1h0v0c-3.566,0.997-2.7,3.946-1.688,5.703c4.609,8,11.375,12.995,21.02,12.357
				c6.516-0.431,13.051-0.422,19.528-0.954c3.266-0.268,6.369-2.525,9.545-3.882c3.379-3.624,8.43-4.201,12.394-6.779
				c1.405-0.914,2.823-0.982,3.03,1.308l0,0l0,0c1.081-1.864,2.26-3.679,3.215-5.606
				C318.051,376.121,319.826,374.231,317.404,372.224z"/>
			<path style="fill:#DB6564;" d="M307.841,388.082c-0.249,0.612-0.991,1.652-1.078,1.61c-3.612-1.742-5.218,2.726-8.251,2.624
				c3.121,3.393,2.027,5.263-1.916,7.115c-7.07,3.32-14.059,3.834-21.296,0.955c-3.274-1.302-6.655-0.144-9.676,0.396
				c-4.095,0.731-7.811,0.417-11.614-0.595c-0.124,0.033-0.247,0.077-0.371,0.114c3.439,3.712,6.669,7.815,12.836,5.324
				c1.109-0.448,2.54-0.233,3.416,0.999l0,0c3.211-0.928,6.095-1.37,9.343,0.823c1.825,1.232,4.933,0.48,7.077-0.575
				c1.96,1.751-1.737,3.17,0.257,4.536c1.762,1.207,2.57-1.989,4.349-1.097c0.759-3.154,4.509-2.465,6.075-4.836
				c2.1-3.178,3.004-0.837,3.741,1.205l0,0l0,0c4.034-5.944,8.038-11.906,11.163-18.402
				C310.65,386.122,309.408,384.236,307.841,388.082z"/>
			<path style="fill:#CA4E4D;" d="M235.768,473.773c0.474,0.887,1.294,1.079,2.2,1.1c-0.149-1.873,0.572-4.143-2.564-4.425
				c-1.418-0.128-4.014,1.128-3.399-2.423c0.493-2.842,3.54-3.857,4.509-3.352c3.567,1.859,5.656-0.189,8.06-1.907
				c-3.389-0.411-6.671-1.144-9.553-3.074c-2.294,1.772-2.94,4.561-6.028,3.532c-2.244-0.748-1.546-2.516-1.568-3.987
				c-0.036-2.415,1.84-2.48,2.421-0.946c1.145,3.026,2.894,1.351,4.895,1.221c-0.024-0.017-0.05-0.031-0.074-0.048
				c-0.366-0.734-0.732-1.469-1.099-2.203h0c0.671-2.777-0.482-5.446,1.128-8.643c1.264-2.508-3.758-1.832-5.979-2.205
				c-0.325-4.014,10.592-0.572,4.848-7.863l0,0l0,0c-5.193,2.755-4.791-3.438-7.694-4.903c-1.368,2.449,1.386,4.534,0.388,6.978
				c-0.373,0.914,2.135,3.408-0.194,3.863c-2.737,0.535-2.315-2.122-1.895-5.114c-0.026-0.008-0.056-0.013-0.084-0.019
				c-2.2,5.41-2.054,7.037,0.766,9.58c1.765,1.592,2.473,2.336-0.344,3.63c-0.652,0.299-0.906,0.783-0.984,1.354
				c0.058,0.64,0.092,1.282,0.097,1.926c0.064,0.6,0.098,1.195-0.061,1.714l0,0l0,0.001c0.624,6.189,2.355,12.022,5.578,17.377
				C230.659,470.634,233.154,471.867,235.768,473.773z"/>
			<path style="fill:#D85F5E;" d="M296.993,405.476c-1.566,2.37-5.316,1.681-6.075,4.836c-1.779-0.892-2.587,2.304-4.349,1.097
				c-1.994-1.366,1.703-2.785-0.257-4.536c-2.144,1.055-5.253,1.807-7.077,0.575c-3.248-2.193-6.132-1.751-9.343-0.823l0,0v0
				c-1.606,3.962-5.911,3.606-8.807,5.505l0,0l0,0c0.367,0.367,0.735,0.734,1.102,1.101h0c0.734,1.101,1.468,2.202,2.202,3.303h0
				l0,0c1.575-2.461,4.886-2.291,6.698-4.426c0.694-0.817,1.759-0.896,2.327,0.004c3.21,5.081,7.864,3.572,12.372,2.844
				c0.899,1.037,0.208,2.009-0.06,3.048c-0.599,2.321-0.08,3.369,2.358,1.806c2.869-1.84,3.435,0.122,3.856,2.329l0,0l0,0
				c3.716-4.706,6.14-10.146,8.794-15.456l0,0C299.997,404.639,299.092,402.297,296.993,405.476z"/>
			<path style="fill:#C74B4A;" d="M259.73,461.493c-1.904-1.283-4.172,1.899-6.643,2.32c-3.012,0.513-5.634-1.117-8.513-1.047
				c-2.403,1.718-4.492,3.766-8.06,1.907c-0.969-0.505-4.016,0.509-4.509,3.352c-0.616,3.551,1.98,2.296,3.399,2.423
				c3.135,0.282,2.415,2.552,2.564,4.425c3.958,1.274,6.786-3.766,11.128-1.81c-2.239,3.169-6.19,4.682-7.802,8.284
				c8.39-0.775,13.368-6.312,17.733-12.704C257.464,465.981,262.688,463.486,259.73,461.493z M244.237,465.465
				c2.073,0.801,2.255,2.191,3.45,3.774C245.25,468.644,244.067,467.975,244.237,465.465z"/>
			<path style="fill:#D7605E;" d="M234.623,378.303c-7.3,3.518-1.088,6.617,0.428,7.361c5.115,2.51,4.25,5.983,2.919,9.952l0,0l0,0
				l0,0.001l0,0c4.203,1.578,2.385,4.875,2.2,7.706c0.367,0.734,0.735,1.467,1.102,2.201v0c1.153,0.041,3.233-3.828,3.301,0.747
				c0.035,2.351,1.504,2.608,3.302,2.557v0v0c3.259,2.469,7.304,2.32,11.009,3.301c-1.587-3.736-7.012-8.005-10.43-9.012
				c-3.046-0.898-4.858-2.964-2.781-6.398c-3.749-6.217-6.314-12.894-7.938-19.967c-0.417-1.817-0.103-3.161,1.352-4.267h0.001l0,0
				c-3.379-1.82-8.827-1.577-7.784-7.806v0c-1.52,4.34-3.321,8.607-3.487,13.302C230.533,371.951,231.95,379.086,234.623,378.303z"
				/>
			<path style="fill:#CB4948;" d="M239.089,372.485L239.089,372.485c1.515,0.17,3.234-0.471,4.393,1.109l0,0
				c2.196,0.383,4.269,1.494,6.593,1.118l0,0c1.097-0.922,3.006-0.508,3.39-2.726c0.682-3.939,3.499-3.817,6.52-2.786
				c0.003-1.613-0.828-2.869-2.108-3.596c-3.128-1.778-3.522-4.272-2.297-7.34c-0.372,0-0.744,0-1.117-0.001
				c-2.781,2.027-5.911,0.681-8.877,0.921c-0.898,3.357-5.699,4.716-4.687,9.12c0.077,0.333-0.888,1.28-1.387,1.293
				c-1.095,0.03-1.917-0.72-2.651-1.599c-2.187-2.62,0.467-5.202-0.043-7.789l0,0v0c-2.971,0.092-5.2,1.1-5.514,4.47v0
				C230.262,370.908,235.71,370.665,239.089,372.485z"/>
			<polygon style="fill:#CC5150;" points="223.569,410.819 223.569,410.819 223.569,410.82 223.569,410.819 			"/>
			<path style="fill:#CC5150;" d="M234.766,424.158c-0.033,0.027-0.066,0.054-0.099,0.081c0.041-0.019,0.073-0.047,0.108-0.072
				C234.772,424.164,234.768,424.161,234.766,424.158z"/>
			<path style="fill:#CC5150;" d="M223.62,455.845c-0.072-0.67-0.176-1.344-0.097-1.926c0.078-0.57,0.332-1.054,0.984-1.354
				c2.817-1.294,2.109-2.038,0.344-3.63c-2.819-2.543-2.966-4.17-0.766-9.58c0.045-0.112,0.086-0.215,0.133-0.33
				c-0.016,0.117-0.033,0.233-0.049,0.349c-0.42,2.992-0.842,5.649,1.895,5.114c2.329-0.455-0.179-2.948,0.194-3.863
				c0.998-2.444-1.756-4.528-0.388-6.978c2.903,1.465,2.501,7.658,7.694,4.903l0,0c-1.19-0.924-2.379-1.848-3.574-2.776
				c3.204-2.52,4.032,3.248,6.877,1.673c0-1.101,0-2.201,0-3.302c-4.188-0.931-5.262-3.04-2.763-6.785
				c0.538-0.807,0.393-2.069,0.562-3.122c-2.157-0.046-4.461-0.416-4.879,3.216c-2.593-4.887-6.55-8.604-6.624-13.635
				c-1.323,10.052-2.065,20.154-1.656,30.286c0.181,4.496,0.382,9.123,2.051,13.453l0,0
				C223.717,457.04,223.684,456.445,223.62,455.845z"/>
			<path style="fill:#FFFFFF;" d="M312.444,313.081c-3.826-0.059-7.811,4.048-8.025,8.269c-0.196,3.863,4.302,7.97,8.84,8.072
				c4.573,0.103,8.5-3.686,8.494-8.196C321.748,316.829,317.554,313.159,312.444,313.081z"/>
			<path style="fill:#D65D5B;" d="M288.084,419.808c-2.438,1.563-2.957,0.515-2.358-1.806c0.268-1.039,0.959-2.011,0.06-3.048
				c-4.508,0.728-9.163,2.237-12.372-2.844c-0.569-0.9-1.634-0.821-2.327-0.004c-1.813,2.135-5.123,1.964-6.698,4.426l0,0
				c0.473,0.888,1.294,1.08,2.201,1.102c3.004,0.937,6.336,6.301,8.358-2.141c1.461,4.578,2.854,7.46,5.871,9.096
				c1.536,0.832,0.77,2.139,1.047,3.262c0.484,1.96-0.171,4.667,2.814,5.35l0,0l0.001,0c2.94-3.347,5.336-7.051,7.26-11.065l0,0
				C291.519,419.93,290.953,417.968,288.084,419.808z"/>
			<path style="fill:#CB4F4E;" d="M234.895,424.053c0.037-0.044,0.07-0.091,0.099-0.142c-0.109,0.109-0.218,0.219-0.328,0.328
				c0.033-0.027,0.066-0.054,0.099-0.081C234.809,424.123,234.852,424.088,234.895,424.053z"/>
			<path style="fill:#CB4F4E;" d="M234.667,424.239c-0.172-1.602,0.35-3.031,1.1-4.402c-1.049-0.419-1.783-1.153-2.201-2.202
				c-0.959,0.208-2.123,1.573-2.82,0.171c-0.571-1.149,0.735-1.853,1.719-2.373c-0.645-1.812,2.746-2.901,0.952-4.826
				c-1.371-1.471-2.424,1.163-3.437,0.744c-2.028-5.09,1.652-6.925,4.687-9.127c-0.906-0.022-1.728-0.214-2.202-1.101
				c-2.148,0.71-3.306,4.592-6.682,1.772c-0.801-0.669-0.768,2.121-2.031,2.607l0,0c-0.061,1.772-0.122,3.545-0.183,5.317v0
				c0,0.001,0,0.001,0,0.001c-0.297,1.058-0.419,2.051-0.405,2.999c0.074,5.031,4.031,8.748,6.624,13.635
				C230.205,423.823,232.51,424.193,234.667,424.239z"/>
			<path style="fill:#CD4B4A;" d="M302.482,377.497c0.667,2.042,1.663,1.315,2.663,1.623l0.001,0l0.001,0
				c5.002-0.669,10.574-0.327,12.257-6.896c-0.413-5.497-4.891-6.192-8.853-7.497l0,0
				C303.316,367.449,300.361,371.006,302.482,377.497z"/>
			<path style="fill:#D35B5A;" d="M281.865,427.852c-0.277-1.124,0.488-2.43-1.047-3.262c-3.017-1.635-4.41-4.518-5.871-9.096
				c-2.022,8.443-5.354,3.078-8.358,2.141c0,0.367,0,0.734-0.001,1.101h0l0,0c-0.694,3.011,0.716,4.948,2.429,7.472
				c3.038,4.478,4.621-2.469,6.953-0.057c0.642,1.625-1.402,2.234-1.676,3.59c2.37-0.102,4.25,0.448,4.402,3.302
				c-0.417,1.05-1.15,1.784-2.2,2.203c1.538,2.414,1.006,5.125,1.112,7.745l0,0l0,0c2.915-2.86,5.328-6.083,7.07-9.79l0,0
				C281.694,432.518,282.35,429.812,281.865,427.852z"/>
			<path style="fill:#CB5150;" d="M262.188,459.463L262.188,459.463c-3.462-1.289-6.869-2.756-9.914,1.003
				c-1.002,1.237-1.922-0.265-2.745-0.774c-2.705-1.672,2.09-2.976-0.408-4.909c-1.037-0.056-2.26,1.297-2.486,2.33
				c-0.514,2.352-2.137,3.13-3.831,2.686c-2.264-0.594-0.706-2.104-0.314-3.457c0.524-1.805-1.105-0.541-1.691-0.839
				c-1.52-0.772-3.088-1.509-3.017-4.226c-0.155-0.063-0.307-0.122-0.455-0.179c-1.161,2.925,0.934,6.73-3.758,6.163
				c0.366,0.734,0.732,1.469,1.099,2.203c0.024,0.017,0.05,0.031,0.074,0.048c0.17-0.011,0.341-0.015,0.515,0
				c-0.082,0.058-0.157,0.12-0.235,0.18c2.882,1.931,6.164,2.664,9.553,3.074c2.879-0.07,5.501,1.56,8.513,1.047
				c2.471-0.421,4.74-3.603,6.643-2.32c2.957,1.993-2.266,4.488-0.704,7.149c2.651-1.792,3.589-4.821,5.279-7.307
				C263.6,460.711,262.894,460.087,262.188,459.463L262.188,459.463z"/>
			<path style="fill:#D45B5A;" d="M236.172,390.803c-4.93,0.892-4.528,3.171-2.605,5.915l0,0.001l0,0
				c1.913,1.413,2.993-0.505,4.403-1.102l0,0c1.331-3.969,2.196-7.442-2.919-9.952c-1.516-0.744-7.728-3.844-0.428-7.361
				c-2.673,0.782-4.09-6.352-6.806-0.323c-1.05,1.337-0.928,2.883-0.792,4.431C230.558,384.464,230.843,389.747,236.172,390.803z"/>
			<path style="fill:#CE4B4A;" d="M257.877,365.604c1.28,0.728,2.111,1.984,2.108,3.596c2.198-3.22,5.251-2.712,9.029-1.168
				c-1.694-3.308,1.442-7.026-2.867-8.667c-4.373-1.666-2.204,4.029-5.062,4.496c0-1.989,0-3.796,0-5.602v0
				c-1.835,0.002-3.67,0.003-5.505,0.005C254.354,361.332,254.748,363.826,257.877,365.604z"/>
			<path style="fill:#C64747;" d="M249.096,473.063c-4.342-1.955-7.171,3.084-11.128,1.81c-0.907-0.021-1.727-0.214-2.2-1.1
				c-1.949,0.784-3.898,1.567-5.847,2.351v0l0,0c2.431,4.703,6.333,6.203,11.374,5.223h0
				C242.906,477.745,246.857,476.232,249.096,473.063z"/>
			<path style="fill:#D05756;" d="M265.488,448.457c-3.738-3.74-5.997,0.877-9.045,1.789c3.67-0.166,7.256,0.875,9.483,3.309
				c0.833,0.911-1.446,4.482-3.738,5.908l0,0c0.706,0.624,1.412,1.248,2.118,1.873c3.33-4.035,6.691-8.049,8.866-12.879
				C270.611,449.527,268.05,450.268,265.488,448.457z"/>
			<path style="fill:#CE5252;" d="M225.783,402.895c3.376,2.819,4.533-1.063,6.682-1.772c-1.469-1.927,1.468-2.752,1.102-4.404l0,0
				l0,0l0-0.001c-2.334,0.377-2.934-1.198-3.885-2.906c-0.681-1.223-1.098-3.942-3.818-2.597c-0.229,0.276-0.265,0.576-0.11,0.899
				c0.857,1.752,5.076,4.151-0.884,4.589l0,0c-0.501,2.917-1.462,5.775-1.118,8.799h0
				C225.015,405.016,224.982,402.226,225.783,402.895z"/>
			<path style="fill:#DD6765;" d="M310.905,382.234c-3.964,2.578-9.014,3.155-12.394,6.779c0,1.101,0,2.202,0,3.302
				c3.033,0.102,4.639-4.366,8.251-2.624c0.087,0.042,0.829-0.998,1.078-1.61c1.566-3.846,2.809-1.96,4.056,0.198
				c1.242-1.337,2.023-2.872,2.039-4.737l0,0C313.728,381.252,312.311,381.321,310.905,382.234z"/>
			<path style="fill:#D15857;" d="M229.682,393.812c0.951,1.708,1.551,3.283,3.885,2.906c-1.922-2.744-2.325-5.023,2.605-5.915
				c-5.33-1.056-5.614-6.339-9.147-8.391c-0.658,2.899-1.652,5.753-1.162,8.803C228.583,389.87,229.001,392.589,229.682,393.812z"/>
			<path style="fill:#C84A48;" d="M236.862,367.997c0.734,0.879,1.556,1.63,2.651,1.599c0.499-0.014,1.463-0.961,1.387-1.293
				c-1.012-4.404,3.789-5.762,4.687-9.12c-0.015,0.001-0.03,0.001-0.046,0.003c0.018-0.009,0.036-0.017,0.053-0.026
				c0.004-0.016,0.012-0.031,0.016-0.047c-2.963,0.103-5.993-0.329-8.791,1.096l0,0
				C237.329,362.796,234.675,365.378,236.862,367.997z"/>
			<path style="fill:#D05756;" d="M276.497,435.247l-0.002-0.002c-0.733,0.734-1.467,1.468-2.2,2.202
				c-2.1,3.117,2.587,4.946,1.494,7.872c0.001-0.001,0.002-0.002,0.003-0.004c0.606-0.775,1.212-1.55,1.818-2.325l0,0
				C277.503,440.372,278.034,437.661,276.497,435.247z"/>
			<path style="fill:#C74B4A;" d="M235.768,473.773c-2.613-1.906-5.108-3.139-6.632,1.164c0.262,0.396,0.523,0.791,0.785,1.187v0
				C231.87,475.34,233.819,474.557,235.768,473.773z"/>
			<path style="fill:#D15857;" d="M225.754,392.114c-1.062,1.382-0.975,2.985-0.884,4.589h0
				C230.829,396.265,226.611,393.866,225.754,392.114z"/>
			<path style="fill:#CE4B4A;" d="M245.541,359.186c0.015-0.001,0.03-0.001,0.046-0.003c2.966-0.24,6.096,1.106,8.877-0.921
				c-3.016-0.277-6.036-0.589-8.869,0.897C245.577,359.169,245.559,359.177,245.541,359.186z"/>
			<path style="fill:#E26A6A;" d="M251.18,376.889c0.67,1.084,1.574,2.089,1.972,3.265c3.351,9.888,10.769,12.778,19.764,7.493
				c2.124-1.248,4.286-1.689,6.691-2.037c4.99-0.721,9.901-1.992,16.077-3.298c-1.063-0.412-2.088-0.641-3.079-0.769
				c-0.062-0.008-0.122-0.012-0.184-0.02c-3.969-0.462-7.385,0.694-10.408-1.286C271.736,379.122,261.458,378.006,251.18,376.889
				L251.18,376.889z"/>
			<path style="fill:#DE6867;" d="M250.075,374.712c-2.325,0.376-4.397-0.735-6.593-1.118l0,0v0
				c-2.252,3.845-0.773,8.312,1.501,10.306c3.873,3.396,5.73,7.743,8.397,11.719c6.207,5.907,12.748,3.32,19.129,0.518
				c1.316-0.578,2.157-0.636,3.443-0.303c8.003,2.071,15.57,1.054,22.56-3.517c0-1.101,0-2.202,0-3.302
				c-3.176,1.358-6.279,3.614-9.545,3.882c-6.477,0.532-13.013,0.523-19.528,0.954c-9.645,0.638-16.41-4.357-21.02-12.357
				c-1.013-1.757-1.878-4.706,1.688-5.703v0C250.091,375.431,250.08,375.072,250.075,374.712L250.075,374.712z"/>
			<path style="fill:#CD5453;" d="M229.991,435.775c1.195,0.928,2.385,1.852,3.574,2.776l0,0c5.744,7.291-5.173,3.849-4.848,7.863
				c2.221,0.373,7.243-0.303,5.979,2.205c-1.611,3.196-0.457,5.866-1.128,8.643h0c4.692,0.566,2.597-3.238,3.758-6.163
				c0.139-0.35,0.321-0.687,0.57-1.003c-0.07,0.433-0.106,0.823-0.115,1.182c-0.071,2.718,1.497,3.454,3.017,4.226
				c0.586,0.298,2.214-0.966,1.691,0.839c-0.392,1.353-1.949,2.863,0.314,3.457c1.694,0.444,3.317-0.334,3.831-2.686
				c0.226-1.032,1.449-2.386,2.486-2.33c2.498,1.933-2.297,3.237,0.408,4.909c0.824,0.509,1.743,2.011,2.745,0.774
				c3.045-3.759,6.452-2.292,9.914-1.003h0c2.292-1.426,4.572-4.998,3.738-5.908c-2.227-2.434-5.813-3.475-9.483-3.309
				c3.048-0.912,5.307-5.529,9.045-1.789c1.431-0.038,2.165-0.771,2.201-2.202c-0.658-0.424-1.809-0.608-1.191-1.717
				c0.093-0.168,1.495,0.393,2.292,0.617c0.367-1.835,0.734-3.669,1.101-5.504c-3.927-2.779-3.759-3.244,2.807-7.15
				c-2.695-2.1-4.574-1.373-6.414,1.028c-0.641,0.836-1.347,3.395-3.001,1.104c-1.903-2.634-4.397-2.068-6.199-0.862
				c-1.968,1.318-0.166,3.649,0.039,5.522c0.159,1.451,1.814,3.097-0.518,4.096c-0.732,0.314-1.337,1.702-2.296,0.803
				c-1.256-1.179-1.638-2.627-1.155-4.475c0.256-0.979,2.006-3.246-0.817-3.182c-1.43,0.032-4.672-1.129-4.182,2.396
				c0.372,2.682-1.779,1.961-2.8,2.272c-1.452,0.442-3.269-0.051-3.549,2.369c0.656,0.111,1.284,0.431,1.673,0.247
				c2.398-1.133,3.148,0.154,3.777,2.19c0.662,2.145-0.05,4.005-1.831,4.552c-3.702,1.137-0.909-1.889-1.517-2.822
				c-0.818-1.254-1.327-0.385-2.089,0.12c-1.228,0.815-2.599,0.962-4.031,0c1.343-0.79,2.804-1.464,2.29-3.309
				c-0.689-2.473-0.174-4.665,1.299-6.696c0.794-1.095,1.54-2.466,0.044-3.28c-1.63-0.886-2.014,0.655-2.603,1.851
				c-0.166,0.337,0.211,3.808-1.948,1.023C234.022,439.023,233.195,433.255,229.991,435.775z"/>
			<path style="fill:#D15857;" d="M253.669,421.155c-3.804,1.476-5.232-4.473-8.987-2.702c1.058-4.888-6.329-7.549-3.41-12.928l0,0
				v0c-0.367-0.734-0.735-1.467-1.102-2.201c-1.794-2.266-1.033-5.261-2.2-7.706h0l0,0l0-0.001l0,0
				c-1.41,0.597-2.49,2.515-4.403,1.102l0,0c0.366,1.652-2.571,2.476-1.102,4.404c0.474,0.887,1.295,1.079,2.202,1.101
				c0.58-0.83,1.415-1.311,2.294-0.749c1.019,0.652,0.592,1.51-0.115,2.217c-0.82,0.821-2.783,1.68-1.383,2.872
				c4.196,3.572,2.347,8.963,4.425,13.146c-0.932,1.615-2.113-1.672-3.02,0.128c-0.001,0.733-0.001,1.467-0.002,2.201v0
				c0.001,1.468,0.002,2.936,0.003,4.403c1.558,0.461,3.108-1.09,4.866,0.033c-0.525,1.466-1.044,2.918-1.564,4.371
				c0,0.367,0,0.734,0,1.101c4.083,2.766,5.439-1.424,6.295-3.324c2.187-4.851,3.959-4.692,6.912-0.792
				c0.887,1.172,2.838,2.426,4.306,1.537c2.111-1.279-0.292-2.736-0.493-4.153c-0.138-0.968-0.304-1.932-0.462-2.897
				c-0.015-0.092-0.031-0.185-0.046-0.277C255.666,421.714,254.443,420.855,253.669,421.155z"/>
			<path style="fill:#D35B5A;" d="M253.551,414.649c-2.972-0.279-7.391-0.421-5.676-5.82v0c-1.798,0.051-3.267-0.206-3.302-2.557
				c-0.068-4.575-2.148-0.706-3.301-0.747l0,0c-2.92,5.379,4.467,8.04,3.41,12.928c3.755-1.771,5.183,4.178,8.987,2.702
				c0.774-0.3,1.997,0.558,3.013,0.883c0.145,0.079,0.29,0.158,0.435,0.238c3.042,1.665,6.037,3.238,7.279-2.235
				c0.223-0.982,1.232-1.247,2.192-1.305h0c0-0.367,0-0.734,0.001-1.101c-0.906-0.023-1.728-0.215-2.201-1.102h0
				c-0.734-1.101-1.468-2.202-2.202-3.303h0h0C259.303,413.76,256.361,414.913,253.551,414.649z"/>
			<path style="fill:#CD5453;" d="M240.17,430.844c-0.43-1.971-4.436-1.26-3.301-4.403c-0.001-1.468-0.002-2.936-0.003-4.403
				c-0.624,0.625-1.247,1.249-1.871,1.873c-0.029,0.052-0.062,0.099-0.099,0.142c-0.036,0.042-0.076,0.08-0.121,0.114
				c-0.034,0.026-0.067,0.053-0.108,0.072c-0.169,1.053-0.024,2.316-0.562,3.122c-2.499,3.745-1.425,5.854,2.763,6.785
				c0.102-2.232,1.702-2.218,3.303-2.202C240.17,431.577,240.17,431.21,240.17,430.844z"/>
			<path style="fill:#CD5453;" d="M278.696,433.044c-0.152-2.854-2.032-3.405-4.402-3.302
				C273.954,433.252,276.34,433.129,278.696,433.044z"/>
			<path style="fill:#D05756;" d="M266.499,444.537c-0.617,1.109,0.533,1.293,1.191,1.717c1.133-0.062,2.266-0.123,3.399-0.185
				c0.025-0.225,0.05-0.451,0.075-0.676c-0.114-0.012-0.227-0.023-0.341-0.034c-0.089-0.009-0.178-0.018-0.267-0.027
				c-0.588-0.06-1.177-0.119-1.765-0.178C267.994,444.93,266.592,444.369,266.499,444.537z"/>
			<path style="fill:#CD5453;" d="M270.074,438.626c-0.063,0.159-0.821,1.167,0.329,0.907c0.567-0.128,1.121-0.705,1.473-1.221
				c0.151-0.222-0.226-0.805-0.533-1.743C270.726,437.525,270.307,438.038,270.074,438.626z"/>
			<path style="fill:#CD5453;" d="M274.411,434.754c-1.163,0.824-0.424,1.779-0.117,2.694c0.733-0.734,1.467-1.468,2.2-2.202
				C275.968,434.37,275.252,434.159,274.411,434.754z"/>
			<path style="fill:#DD6765;" d="M275.952,395.833c-1.286-0.333-2.127-0.275-3.443,0.303c-6.381,2.802-12.922,5.389-19.129-0.518
				c0.171,1.602-0.35,3.031-1.101,4.403c0.367,0,0.734,0,1.101,0c0.211,0.06,0.421,0.109,0.631,0.165
				c3.803,1.012,7.519,1.326,11.614,0.595c3.021-0.54,6.402-1.698,9.676-0.396c7.236,2.879,14.225,2.364,21.296-0.955
				c3.943-1.851,5.036-3.722,1.916-7.115C291.522,396.887,283.955,397.904,275.952,395.833z"/>
			<path style="fill:#D96361;" d="M252.279,400.022c-2.482-0.539-5.446-0.115-6.605-3.302c-2.077,3.434-0.266,5.501,2.781,6.398
				c3.417,1.007,8.842,5.275,10.43,9.012c0.733,0,1.467,0,2.2-0.001l0,0c2.896-1.898,7.201-1.543,8.807-5.505v0
				c-0.876-1.232-2.307-1.447-3.416-0.999c-6.167,2.49-9.397-1.612-12.836-5.324c-0.087-0.093-0.173-0.187-0.26-0.28
				C253.013,400.022,252.646,400.022,252.279,400.022z"/>
			<path style="fill:#CB5150;" d="M229.845,458.291c-0.58-1.534-2.457-1.469-2.421,0.946c0.022,1.472-0.675,3.239,1.568,3.987
				c3.088,1.029,3.733-1.76,6.028-3.532c0.078-0.06,0.153-0.123,0.235-0.18c-0.174-0.015-0.345-0.011-0.515,0
				C232.739,459.642,230.99,461.317,229.845,458.291z"/>
			<path style="fill:#D65D5B;" d="M258.884,412.13c-3.705-0.981-7.75-0.832-11.009-3.301v0c-1.715,5.399,2.704,5.541,5.676,5.82
				c2.809,0.264,5.752-0.889,8.635-1.419h0c-0.367-0.367-0.735-0.734-1.102-1.101l0,0
				C260.351,412.129,259.618,412.129,258.884,412.13z"/>
			<path style="fill:#CB5150;" d="M244.237,465.465c-0.17,2.51,1.013,3.179,3.45,3.774
				C246.492,467.656,246.31,466.266,244.237,465.465z"/>
			<path style="fill:#DB6564;" d="M252.279,400.022c0.75-1.372,1.272-2.801,1.101-4.403c-2.667-3.976-4.524-8.324-8.397-11.719
				c-2.274-1.994-3.753-6.461-1.501-10.306v0c-1.159-1.58-2.878-0.939-4.393-1.108h-0.001c-1.455,1.106-1.769,2.45-1.352,4.267
				c1.624,7.073,4.189,13.75,7.938,19.967C246.833,399.907,249.797,399.483,252.279,400.022z"/>
			<path style="fill:#D45B5A;" d="M240.17,403.324c0.185-2.831,2.003-6.128-2.2-7.706h0
				C239.137,398.063,238.376,401.058,240.17,403.324z"/>
			<path style="fill:#CE5252;" d="M236.867,419.836c0.907-1.799,2.088,1.488,3.02-0.128c-2.078-4.182-0.229-9.573-4.425-13.146
				c-1.4-1.192,0.563-2.052,1.383-2.872c0.706-0.707,1.134-1.564,0.115-2.217c-0.879-0.563-1.714-0.081-2.294,0.749
				c-3.035,2.202-6.715,4.037-4.687,9.127c1.014,0.419,2.066-2.215,3.437-0.744c1.794,1.926-1.597,3.014-0.952,4.826
				c-0.156,0.995,2.239,0.715,1.101,2.202c0.418,1.049,1.152,1.784,2.201,2.202C236.134,419.836,236.501,419.836,236.867,419.836z"
				/>
			<path style="fill:#CC5150;" d="M232.465,415.433c-0.984,0.52-2.291,1.224-1.719,2.373c0.697,1.402,1.861,0.036,2.82-0.171
				C234.704,416.148,232.309,416.428,232.465,415.433z"/>
			<path style="fill:#CC5150;" d="M234.994,423.91c0.624-0.625,1.247-1.249,1.871-1.873v0c0.001-0.733,0.001-1.467,0.002-2.201
				c-0.367,0-0.734,0-1.101,0c-0.75,1.372-1.272,2.8-1.1,4.402C234.776,424.129,234.885,424.02,234.994,423.91z"/>
			<path style="fill:#D05755;" d="M240.17,430.844c0.52-1.452,1.04-2.905,1.564-4.371c-1.758-1.122-3.307,0.428-4.866-0.033
				C235.734,429.584,239.74,428.873,240.17,430.844z"/>
		</g>
		<g>
			<path style="fill:#FAD6D4;" d="M1001.028,728.1c0.023,1.394,0.046,2.789,0.069,4.183c-0.261,0.015-0.523,0.026-0.784,0.033
				c-0.043-1.399-0.087-2.799-0.13-4.198C1000.464,728.112,1000.746,728.106,1001.028,728.1z"/>
			<path style="fill:#E6AAAA;" d="M806.651,411.417c-4.195,0.274-9.207-5.044-9.187-9.748c0.019-4.466,4.165-8.338,9.171-8.563
				c4.834-0.217,9.12,3.876,9.233,8.818C815.982,406.85,811.878,411.076,806.651,411.417z"/>
			<path style="fill:#FEFEFE;" d="M886.75,549.411c-0.099-0.009-0.197-0.017-0.296-0.025c0.109-0.062,0.219-0.124,0.328-0.186
				C886.771,549.27,886.76,549.34,886.75,549.411z"/>
			<path style="fill:#FEFEFE;" d="M888.823,532.639c-0.094-0.027-0.189-0.059-0.284-0.082c0.159-0.045,0.318-0.085,0.478-0.134
				C888.952,532.495,888.887,532.567,888.823,532.639z"/>
			<polygon style="fill:#FEFEFE;" points="849.41,517.182 849.409,517.183 849.408,517.183 849.408,517.182 849.409,517.182 			"/>
			<path style="fill:#FEFEFE;" d="M912.334,574.484c-0.005-0.49,0.014-0.979,0.05-1.466
				C912.451,573.46,912.38,573.974,912.334,574.484z"/>
			<path style="fill:#FEFEFE;" d="M911.774,561.955c-0.021,0.005-0.044,0.009-0.064,0.016c-0.014-0.088-0.028-0.176-0.042-0.265
				C911.706,561.793,911.738,561.871,911.774,561.955z"/>
			<path style="fill:#FEFEFE;" d="M876.531,567.015c-0.005,0.023-0.004,0.043-0.005,0.063c-0.068,0.008-0.135,0.016-0.203,0.024
				C876.243,566.887,876.626,566.597,876.531,567.015z"/>
			<path style="fill:#FEFEFE;" d="M901.856,571.046c-0.112,0.045-0.227,0.092-0.344,0.142c-0.011-0.273-0.043-0.569-0.102-0.897
				C901.604,570.528,901.746,570.782,901.856,571.046z"/>
			<path style="fill:#FEFEFE;" d="M903.46,550.544c-0.035-0.025-0.066-0.053-0.094-0.085c0.034,0.026,0.067,0.053,0.1,0.079
				C903.464,550.54,903.462,550.542,903.46,550.544z"/>
			<path style="fill:#FFFFFF;" d="M854.983,427.31c-0.061-0.024-0.125-0.039-0.187-0.062c0.548-0.217,1.096-0.435,1.644-0.652
				c-2.53-2.928-5.909-3.14-9.054-1.921c-2.954,1.145-4.663,3.758-4.337,7.234l0,0c0.261-0.104,0.523-0.207,0.784-0.311
				c-0.129,0.756-0.107,1.546,0.05,2.296c0.922,4.405,4.697,8.11,9.254,5.907C857.987,437.454,862.204,430.151,854.983,427.31z"/>
			<path style="fill:#D04C4B;" d="M878.806,501.679c-3.255,1.301-0.825,4.088-2.071,6.624c2.852-1.221,5.167-1.645,6.877,0.775
				c2.283-0.821,4.423-0.949,4.99,2.037c0.32,1.681,1.765,1.342,2.611,2.029c0,0.273-0.003,0.547-0.01,0.819h0
				c-0.267,0.283-0.535,0.566-0.802,0.849l0,0c-7.798,0.977-15.596,1.953-23.394,2.93c-4.563,0.07-9.125,0.169-13.688,0.19
				c-1.33,0.006-2.796,0.474-3.908-0.75l0.001-0.001c0.756-0.247,1.522,0.294,2.004-1.267c1.531-4.96-0.759-7.627-4.772-9.63l0,0v0
				c11.732-3.585,23.739-5.368,35.998-5.509c0.023,1.373,0.045,2.746,0.07,4.258C880.531,504.714,882.109,500.359,878.806,501.679z"
				/>
			<path style="fill:#D04C4B;" d="M859.11,518.851c-0.047,0.006-0.093,0.01-0.139,0.017
				C859.005,518.721,859.196,518.632,859.11,518.851z"/>
			<path style="fill:#D05755;" d="M872.549,567.135c-0.001-0.001-0.001-0.002-0.002-0.003
				C872.547,567.133,872.548,567.134,872.549,567.135c0.676,0.784,1.352,1.567,2.028,2.351c1.96,0.782,3.916,1.313,5.84-0.095
				c-1.088-0.011-1.655-0.559-1.701-1.646c-0.862-0.033-1.724-0.066-2.586-0.098c-0.022-0.171-0.044-0.342-0.065-0.513
				c0.086-0.01,0.172-0.02,0.259-0.03c-0.081-0.215,0.302-0.505,0.208-0.087c-0.005,0.023-0.004,0.043-0.005,0.063
				c0.446-0.052,0.893-0.105,1.339-0.158c-0.302-1.39-0.604-2.78-0.905-4.17c2.95-2.161,2.817-2.513-2.222-5.399
				c2.022-1.63,3.459-1.101,4.888,0.702c0.497,0.628,1.066,2.563,2.295,0.802c1.414-2.026,3.317-1.627,4.701-0.732
				c1.513,0.977,0.172,2.772,0.039,4.198c-0.103,1.105-1.341,2.377,0.445,3.107c0.56,0.229,1.038,1.277,1.755,0.582
				c0.94-0.912,1.213-2.017,0.823-3.416c-0.207-0.74-1.565-2.442,0.581-2.429c1.087,0.007,3.537-0.916,3.209,1.769
				c-0.25,2.043,1.377,1.468,2.156,1.692c1.109,0.318,2.484-0.079,2.727,1.756c-0.497,0.092-0.97,0.344-1.268,0.209
				c-1.837-0.831-2.391,0.156-2.843,1.711c-0.477,1.639,0.088,3.044,1.448,3.437c2.828,0.818,0.667-1.447,1.118-2.164
				c0.606-0.963,1.004-0.31,1.59,0.065c0.944,0.604,1.988,0.699,3.064-0.05c-1.031-0.583-2.149-1.078-1.782-2.487
				c0.493-1.888,0.074-3.548-1.071-5.073c-0.617-0.822-1.202-1.855-0.074-2.492c1.228-0.694,1.539,0.472,2.002,1.374
				c0.13,0.254-0.113,2.897,1.493,0.753c-0.014-0.837-0.027-1.673-0.041-2.51c-0.106-1.695-1.321-1.664-2.538-1.632
				c-3.068,2.153-4.152-1.015-4.826-2.448c-1.723-3.66-3.068-3.517-5.263-0.516c-0.66,0.902-2.127,1.88-3.254,1.222
				c-1.621-0.945,0.188-2.083,0.323-3.163c0.092-0.738,0.207-1.472,0.315-2.208c-0.099-0.009-0.197-0.017-0.296-0.025
				c-2.292,1.304-4.548,2.537-5.561-1.608c-0.182-0.743-0.952-0.933-1.683-0.964h0c0.565,2.28-0.483,3.77-1.753,5.71
				c-2.253,3.441-3.543-1.819-5.286,0.044c-0.467,1.243,1.094,1.681,1.318,2.708c0.303,2.664-1.512,2.6-3.305,2.565
				c0.33,0.793,0.897,1.342,1.699,1.647l0.001-0.001c0.389-0.672,0.931-0.842,1.578-0.4c0.894,0.612,0.345,1.347,0.122,2.046
				C875.221,563.476,871.681,564.924,872.549,567.135z M875.819,560.427c0.481,0.719,0.806,1.104,0.99,1.547
				c0.05,0.12,0.639,0.877-0.239,0.693c-0.433-0.09-0.861-0.522-1.135-0.91C875.318,561.591,875.597,561.144,875.819,560.427z"/>
			<path style="fill:#E06A69;" d="M840.005,512.093c1.361,4.973,5.592,4.643,9.402,5.089c0,0,0,0,0,0l0.001,0.001
				c1.112,1.224,2.578,0.756,3.908,0.75c4.563-0.021,9.125-0.121,13.688-0.19c-2.273,1.543-4.884,0.706-7.895,1.107
				c0.086-0.218-0.106-0.13-0.139,0.017c-0.752,0.11-1.528,0.297-2.331,0.623c4.711,0.915,8.459,1.82,12.261,2.306
				c1.833,0.234,3.482,0.543,5.112,1.465c6.903,3.905,12.505,1.616,14.929-5.942c0.288-0.899,0.963-1.674,1.458-2.506h0l0,0
				c0.267-0.283,0.535-0.566,0.802-0.849h0v0c2.723,0.713,2.102,2.966,1.354,4.314c-3.404,6.138-8.484,10.019-15.823,9.655
				c-4.958-0.246-9.926-0.158-14.855-0.482c-2.486-0.163-4.872-1.84-7.304-2.832c-2.614-2.713-6.46-3.088-9.505-4.998
				c-1.079-0.677-2.158-0.711-2.287,1.032l0,0l0,0c-0.845-1.403-1.764-2.768-2.514-4.221
				C839.562,515.063,838.189,513.649,840.005,512.093z"/>
			<path style="fill:#DB6564;" d="M847.472,524.028c0.197,0.462,0.774,1.243,0.84,1.21c2.724-1.369,4,2.007,6.305,1.892
				c-2.33,2.618-1.475,4.026,1.545,5.384c5.415,2.435,10.734,2.739,16.199,0.46c2.472-1.031,5.056-0.192,7.359,0.18
				c3.122,0.505,5.942,0.22,8.82-0.597c0.095,0.024,0.189,0.056,0.284,0.082c-2.567,2.864-4.972,6.023-9.69,4.207
				c-0.848-0.326-1.933-0.146-2.584,0.802l0,0c-2.452-0.666-4.65-0.966-7.091,0.742c-1.371,0.959-3.743,0.427-5.387-0.349
				c-1.468,1.356,1.36,2.388-0.139,3.451c-1.324,0.94-1.978-1.48-3.319-0.78c-0.616-2.388-3.458-1.818-4.678-3.6
				c-1.635-2.39-2.294-0.599-2.829,0.963v0l0,0c-3.14-4.468-6.259-8.949-8.714-13.848
				C845.313,522.573,846.233,521.124,847.472,524.028z"/>
			<path style="fill:#CA4E4D;" d="M903.324,588.262c-0.349,0.68-0.97,0.836-1.659,0.864c0.09-1.425-0.486-3.142,1.893-3.395
				c1.076-0.115,3.065,0.807,2.553-1.884c-0.41-2.154-2.739-2.887-3.469-2.491c-2.688,1.458-4.302-0.073-6.15-1.349
				c2.571-0.354,5.056-0.952,7.223-2.456c1.766,1.318,2.292,3.43,4.626,2.609c1.696-0.596,1.144-1.931,1.142-3.05
				c-0.003-1.836-1.43-1.862-1.852-0.689c-0.833,2.314-2.183,1.063-3.706,0.989c0.018-0.013,0.038-0.024,0.056-0.037
				c0.269-0.563,0.538-1.125,0.808-1.688h0c-0.545-2.102,0.299-4.146-0.966-6.555c-0.992-1.891,2.833-1.44,4.517-1.751
				c0.197-3.055-8.058-0.303-3.783-5.916l0,0h0c3.982,2.03,3.599-2.673,5.787-3.822c1.07,1.845-0.997,3.464-0.208,5.309
				c0.295,0.69-1.58,2.617,0.196,2.934c2.087,0.372,1.733-1.642,1.377-3.911c0.02-0.007,0.042-0.01,0.064-0.016
				c1.74,4.085,1.649,5.323-0.463,7.291c-1.321,1.232-1.85,1.807,0.307,2.755c0.499,0.22,0.699,0.584,0.765,1.017
				c-0.036,0.487-0.054,0.975-0.05,1.466c-0.041,0.457-0.06,0.91,0.068,1.302v0c0,0,0,0.001,0,0.001
				c-0.397,4.712-1.64,9.167-4.023,13.277C907.167,585.813,905.286,586.781,903.324,588.262z"/>
			<path style="fill:#D85F5E;" d="M855.935,537.113c1.22,1.782,4.062,1.212,4.678,3.6c1.341-0.701,1.995,1.719,3.319,0.78
				c1.499-1.063-1.329-2.096,0.139-3.451c1.643,0.775,4.015,1.308,5.387,0.349c2.441-1.707,4.639-1.407,7.091-0.742l0,0l0,0
				c1.27,2.992,4.538,2.668,6.763,4.074l0,0l0,0c-0.275,0.284-0.549,0.567-0.824,0.851h0c-0.544,0.846-1.088,1.692-1.632,2.538l0,0
				v0c-1.228-1.851-3.742-1.68-5.147-3.28c-0.537-0.612-1.348-0.659-1.769,0.032c-2.376,3.902-5.933,2.813-9.369,2.316
				c-0.67,0.799-0.133,1.529,0.084,2.316c0.484,1.756,0.103,2.56-1.77,1.402c-2.204-1.363-2.609,0.136-2.902,1.818v0l0,0
				c-2.883-3.531-4.793-7.636-6.877-11.638v0C853.641,536.515,854.299,534.724,855.935,537.113z"/>
			<path style="fill:#C74B4A;" d="M885.58,584.653c3.398,4.805,7.251,8.951,13.637,9.436c-1.271-2.718-4.292-3.819-6.034-6.2
				c3.276-1.54,5.489,2.255,8.481,1.237c0.09-1.425-0.486-3.142,1.893-3.395c1.076-0.115,3.065,0.807,2.553-1.884
				c-0.41-2.154-2.739-2.887-3.469-2.491c-2.688,1.458-4.302-0.073-6.15-1.349c-2.19-0.018-4.162,1.254-6.458,0.902
				c-1.884-0.289-3.648-2.68-5.079-1.681C882.733,580.779,886.735,582.61,885.58,584.653z M894.207,584.965
				c0.889-1.218,1.01-2.277,2.575-2.912C896.943,583.959,896.052,584.482,894.207,584.965z"/>
			<path style="fill:#D7605E;" d="M903.003,515.682c5.593,2.583,0.91,5.016-0.234,5.601c-3.857,1.971-3.156,4.601-2.095,7.601l0,0
				l0,0l0,0.001l0,0c-3.175,1.252-1.752,3.735-1.576,5.885c-0.27,0.562-0.54,1.124-0.81,1.687v0c-0.876,0.046-2.505-2.869-2.5,0.609
				c0.003,1.788-1.11,2.001-2.478,1.984v0v0c-2.447,1.917-5.523,1.854-8.327,2.646c1.16-2.86,5.23-6.172,7.815-6.98
				c2.304-0.72,3.655-2.314,2.034-4.898c2.772-4.772,4.639-9.879,5.785-15.276c0.294-1.387,0.039-2.404-1.081-3.227l0,0l0,0
				c2.545-1.426,6.689-1.309,5.819-6.03v0c1.209,3.28,2.632,6.5,2.816,10.067C906.032,510.802,905.044,516.243,903.003,515.682z"/>
			<path style="fill:#CB4948;" d="M899.536,511.315L899.536,511.315c-1.15,0.148-2.465-0.318-3.326,0.898v0
				c-1.664,0.319-3.226,1.189-4.997,0.932v0c-0.846-0.687-2.291-0.348-2.611-2.029c-0.568-2.985-2.707-2.858-4.99-2.037
				c-0.023-1.226,0.593-2.191,1.557-2.76c2.356-1.391,2.624-3.291,1.654-5.608c0.283-0.005,0.566-0.01,0.849-0.014
				c2.139,1.506,4.501,0.444,6.759,0.589c0.724,2.541,4.391,3.514,3.676,6.874c-0.054,0.254,0.691,0.962,1.07,0.966
				c0.833,0.009,1.448-0.571,1.995-1.249c1.629-2.018-0.42-3.948-0.065-5.921l0,0v0c2.26,0.033,3.966,0.772,4.247,3.329v0
				C906.226,510.006,902.082,509.889,899.536,511.315z"/>
			<polygon style="fill:#CC5150;" points="911.81,540.259 911.811,540.259 911.811,540.261 911.81,540.259 			"/>
			<path style="fill:#CC5150;" d="M903.466,550.538c0.026,0.02,0.051,0.04,0.076,0.06c-0.031-0.014-0.056-0.035-0.083-0.054
				C903.462,550.542,903.464,550.54,903.466,550.538z"/>
			<path style="fill:#CC5150;" d="M912.334,574.484c0.046-0.51,0.117-1.023,0.05-1.466c-0.066-0.433-0.266-0.797-0.765-1.017
				c-2.158-0.948-1.628-1.523-0.307-2.755c2.111-1.969,2.202-3.206,0.463-7.291c-0.036-0.084-0.068-0.162-0.105-0.249
				c0.014,0.089,0.028,0.177,0.042,0.265c0.356,2.269,0.711,4.283-1.377,3.911c-1.776-0.317,0.099-2.243-0.196-2.934
				c-0.789-1.845,1.278-3.464,0.208-5.309c-2.188,1.149-1.806,5.852-5.787,3.822h0c0.893-0.717,1.786-1.434,2.682-2.154
				c-2.467-1.875-3.024,2.519-5.206,1.358c-0.014-0.837-0.027-1.673-0.041-2.51c3.172-0.76,3.962-2.376,2.015-5.192
				c-0.419-0.606-0.324-1.568-0.466-2.366c1.639-0.062,3.386-0.372,3.749,2.383c1.91-3.747,4.871-6.621,4.865-10.447
				c1.131,7.624,1.821,15.293,1.637,23c-0.082,3.42-0.176,6.939-1.391,10.251v0C912.274,575.393,912.292,574.941,912.334,574.484z"
				/>
			<path style="fill:#FFFFFF;" d="M843.038,467.077c2.907-0.092,5.988,2.98,6.203,6.185c0.197,2.934-3.171,6.112-6.619,6.246
				c-3.475,0.135-6.506-2.695-6.558-6.124C836.012,470.042,839.155,467.2,843.038,467.077z"/>
			<path style="fill:#D65D5B;" d="M862.885,547.896c1.872,1.158,2.254,0.355,1.77-1.402c-0.217-0.786-0.754-1.516-0.084-2.316
				c3.436,0.497,6.992,1.586,9.369-2.316c0.421-0.691,1.232-0.645,1.769-0.032c1.404,1.6,3.919,1.429,5.147,3.28v0
				c-0.349,0.681-0.97,0.837-1.659,0.865c-2.272,0.75-4.737,4.869-6.38-1.523c-1.053,3.498-2.076,5.706-4.349,6.987
				c-1.157,0.652-0.559,1.635-0.755,2.493c-0.344,1.496,0.188,3.545-2.072,4.102l0,0l-0.001,0c-2.276-2.507-4.144-5.293-5.656-8.32
				v0C860.276,548.032,860.681,546.534,862.885,547.896z"/>
			<path style="fill:#CB4F4E;" d="M903.366,550.459c-0.029-0.033-0.054-0.068-0.077-0.107c0.084,0.082,0.169,0.164,0.253,0.245
				c-0.026-0.02-0.051-0.04-0.076-0.06C903.433,550.512,903.4,550.485,903.366,550.459z"/>
			<path style="fill:#CB4F4E;" d="M903.543,550.598c0.111-1.22-0.304-2.299-0.891-3.333c0.792-0.331,1.341-0.898,1.646-1.701
				c0.732,0.146,1.633,1.169,2.146,0.095c0.42-0.88-0.581-1.399-1.336-1.782c0.467-1.386-2.124-2.171-0.784-3.657
				c1.024-1.136,1.857,0.854,2.622,0.523c1.478-3.894-1.342-5.243-3.676-6.879c0.689-0.028,1.311-0.184,1.66-0.864
				c1.642,0.513,2.57,3.449,5.101,1.264c0.601-0.519,0.61,1.603,1.577,1.956l0,0c0.068,1.346,0.137,2.693,0.205,4.039v0
				c0,0,0,0.001,0,0.002c0.238,0.8,0.344,1.554,0.345,2.274c0.006,3.825-2.955,6.7-4.865,10.447
				C906.929,550.226,905.181,550.536,903.543,550.598z"/>
			<path style="fill:#CD4B4A;" d="M851.414,515.915c-0.482,1.561-1.248,1.021-2.004,1.267l-0.001,0l-0.001,0
				c-3.811-0.446-8.041-0.116-9.402-5.089c0.245-4.183,3.641-4.767,6.636-5.809l0,0
				C850.654,508.288,852.944,510.954,851.414,515.915z"/>
			<path style="fill:#D35B5A;" d="M867.712,553.932c0.197-0.857-0.401-1.841,0.755-2.493c2.273-1.281,3.296-3.489,4.349-6.987
				c1.642,6.392,4.108,2.273,6.38,1.523c0.005,0.279,0.01,0.558,0.014,0.837h0h0c0.565,2.28-0.483,3.77-1.753,5.71
				c-2.253,3.441-3.543-1.819-5.286,0.044c-0.467,1.243,1.094,1.681,1.318,2.708c-1.803-0.048-3.225,0.393-3.305,2.565
				c0.33,0.793,0.897,1.342,1.699,1.647c-1.139,1.854-0.701,3.908-0.749,5.901l0,0l0,0c-2.251-2.138-4.126-4.557-5.496-7.353l0,0
				C867.9,557.477,867.368,555.428,867.712,553.932z"/>
			<path style="fill:#CB5150;" d="M883.063,577.715L883.063,577.715c2.615-1.023,5.187-2.18,7.548,0.639
				c0.777,0.928,1.457-0.225,2.077-0.622c2.035-1.305-1.626-2.236,0.249-3.737c0.787-0.055,1.734,0.958,1.919,1.74
				c0.42,1.781,1.664,2.353,2.945,1.994c1.713-0.48,0.511-1.608,0.196-2.631c-0.42-1.366,0.833-0.425,1.275-0.659
				c1.146-0.606,2.328-1.185,2.24-3.25c0.117-0.05,0.232-0.097,0.344-0.142c0.919,2.209-0.626,5.127,2.933,4.638
				c-0.269,0.563-0.538,1.125-0.808,1.688c-0.018,0.013-0.038,0.024-0.056,0.037c-0.129-0.006-0.26-0.007-0.391,0.007
				c0.063,0.043,0.121,0.089,0.181,0.134c-2.167,1.503-4.652,2.102-7.223,2.456c-2.19-0.018-4.162,1.254-6.458,0.902
				c-1.884-0.289-3.648-2.68-5.079-1.681c-2.223,1.552,1.779,3.383,0.624,5.425c-2.037-1.329-2.788-3.62-4.104-5.488
				C882.005,578.681,882.534,578.198,883.063,577.715L883.063,577.715z"/>
			<path style="fill:#D45B5A;" d="M901.981,525.202c3.758,0.617,3.481,2.354,2.054,4.463l0,0v0
				c-1.437,1.098-2.281-0.346-3.361-0.783l0,0c-1.061-3-1.762-5.629,2.095-7.601c1.143-0.584,5.826-3.018,0.234-5.601
				c2.041,0.561,3.029-4.879,5.169-0.33c0.815,1.003,0.742,2.18,0.657,3.358C906.17,520.314,906.019,524.333,901.981,525.202z"/>
			<path style="fill:#CE4B4A;" d="M885.169,506.319c-0.964,0.569-1.58,1.534-1.557,2.76c-1.711-2.42-4.025-1.996-6.877-0.775
				c1.246-2.536-1.184-5.322,2.071-6.624c3.303-1.321,1.725,3.035,3.903,3.354c-0.025-1.512-0.047-2.885-0.07-4.258v0
				c1.395-0.022,2.789-0.043,4.184-0.065C887.793,503.028,887.525,504.928,885.169,506.319z"/>
			<path style="fill:#C64747;" d="M893.184,587.889c3.276-1.54,5.489,2.255,8.481,1.237c0.689-0.027,1.31-0.184,1.659-0.864
				c1.491,0.571,2.982,1.143,4.474,1.714v0l0,0c-1.789,3.605-4.736,4.794-8.58,4.112h0
				C897.947,591.37,894.925,590.269,893.184,587.889z"/>
			<path style="fill:#D05756;" d="M880.417,569.39c2.794-2.89,4.57,0.592,6.898,1.247c-2.792-0.081-5.504,0.755-7.167,2.633
				c-0.622,0.703,1.155,3.389,2.915,4.444l0,0c-0.529,0.483-1.058,0.967-1.587,1.45c-2.582-3.026-5.186-6.035-6.9-9.679
				C876.537,570.268,878.493,570.799,880.417,569.39z"/>
			<path style="fill:#CE5252;" d="M910.029,534.263c-2.531,2.185-3.459-0.751-5.101-1.264c1.092-1.483-1.15-2.074-0.892-3.334v0v0
				l0,0c1.779,0.257,2.215-0.947,2.917-2.258c0.502-0.938,0.786-3.01,2.87-2.021c0.177,0.207,0.209,0.434,0.095,0.682
				c-0.63,1.342-3.806,3.218,0.729,3.477l0,0c0.418,2.211,1.183,4.371,0.959,6.674h0
				C910.639,535.866,910.629,533.745,910.029,534.263z"/>
			<path style="fill:#DD6765;" d="M845.07,519.621c3.045,1.91,6.891,2.286,9.505,4.998c0.014,0.837,0.027,1.673,0.041,2.51
				c-2.304,0.115-3.581-3.261-6.305-1.892c-0.066,0.033-0.643-0.749-0.84-1.21c-1.239-2.904-2.159-1.454-3.08,0.201
				c-0.961-1.001-1.573-2.158-1.609-3.576l0,0C842.912,518.91,843.99,518.944,845.07,519.621z"/>
			<path style="fill:#D15857;" d="M906.952,527.408c-0.701,1.31-1.138,2.515-2.917,2.258c1.427-2.11,1.704-3.847-2.054-4.463
				c4.038-0.869,4.188-4.888,6.848-6.492c0.537,2.195,1.327,4.352,0.993,6.677C907.738,524.398,907.454,526.47,906.952,527.408z"/>
			<path style="fill:#C84A48;" d="M901.173,507.876c-0.547,0.678-1.162,1.258-1.995,1.249c-0.379-0.004-1.124-0.712-1.07-0.966
				c0.715-3.36-2.952-4.333-3.676-6.874c0.012,0.001,0.023,0.001,0.035,0.001c-0.014-0.007-0.027-0.012-0.041-0.019
				c-0.003-0.012-0.009-0.023-0.013-0.036c2.254,0.041,4.551-0.325,6.696,0.724l0,0
				C900.753,503.928,902.802,505.858,901.173,507.876z"/>
			<path style="fill:#D05756;" d="M871.885,559.487l0.001-0.001c0.567,0.549,1.133,1.098,1.7,1.647
				c1.635,2.343-1.905,3.792-1.037,6.002c-0.001-0.001-0.001-0.002-0.002-0.003c-0.47-0.582-0.94-1.163-1.41-1.745l0,0
				C871.184,563.395,870.746,561.341,871.885,559.487z"/>
			<path style="fill:#C74B4A;" d="M903.324,588.262c1.963-1.482,3.844-2.45,5.055,0.802c-0.194,0.304-0.388,0.608-0.582,0.912v0
				C906.306,589.405,904.815,588.834,903.324,588.262z"/>
			<path style="fill:#D15857;" d="M909.917,526.068c0.824,1.037,0.779,2.257,0.729,3.477h0
				C906.111,529.287,909.287,527.411,909.917,526.068z"/>
			<path style="fill:#CE4B4A;" d="M894.466,501.287c-0.011-0.001-0.023-0.001-0.035-0.001c-2.258-0.145-4.62,0.917-6.759-0.589
				c2.289-0.248,4.58-0.523,6.753,0.571C894.438,501.274,894.452,501.28,894.466,501.287z"/>
			<path style="fill:#E26A6A;" d="M890.4,514.813c-0.495,0.832-1.17,1.607-1.458,2.506c-2.424,7.558-8.026,9.847-14.929,5.942
				c-1.63-0.922-3.279-1.231-5.112-1.465c-3.802-0.486-7.551-1.391-12.261-2.306c0.803-0.326,1.579-0.513,2.331-0.623
				c0.047-0.007,0.093-0.011,0.139-0.017c3.011-0.401,5.622,0.436,7.895-1.107C874.803,516.767,882.602,515.79,890.4,514.813
				L890.4,514.813z"/>
			<path style="fill:#DE6867;" d="M891.213,513.144c1.772,0.257,3.333-0.614,4.997-0.932v0l0,0c1.759,2.894,0.691,6.308-1.013,7.852
				c-2.901,2.629-4.259,5.957-6.236,9.013c-4.644,4.567-9.648,2.683-14.533,0.633c-1.008-0.423-1.647-0.457-2.621-0.188
				c-6.057,1.674-11.821,0.995-17.191-2.392c-0.014-0.837-0.027-1.673-0.041-2.51c2.431,0.992,4.818,2.669,7.304,2.832
				c4.93,0.324,9.898,0.236,14.855,0.482c7.339,0.365,12.419-3.516,15.823-9.655c0.748-1.348,1.369-3.601-1.354-4.314v0
				C891.21,513.691,891.214,513.418,891.213,513.144L891.213,513.144z"/>
			<path style="fill:#CD5453;" d="M907.241,559.308c-0.897,0.72-1.789,1.437-2.682,2.154l0,0c-4.275,5.613,3.98,2.861,3.783,5.916
				c-1.684,0.311-5.509-0.14-4.517,1.751c1.264,2.409,0.421,4.453,0.966,6.555h0c-3.559,0.489-2.014-2.429-2.933-4.638
				c-0.11-0.264-0.253-0.518-0.446-0.755c0.059,0.328,0.091,0.624,0.102,0.897c0.088,2.065-1.094,2.644-2.24,3.25
				c-0.442,0.233-1.695-0.707-1.275,0.659c0.315,1.023,1.518,2.152-0.196,2.631c-1.282,0.359-2.526-0.213-2.945-1.994
				c-0.184-0.782-1.131-1.795-1.919-1.74c-1.875,1.501,1.787,2.432-0.249,3.737c-0.62,0.397-1.3,1.551-2.077,0.622
				c-2.361-2.819-4.933-1.662-7.548-0.639h0c-1.76-1.056-3.537-3.742-2.915-4.444c1.662-1.878,4.375-2.714,7.167-2.633
				c-2.328-0.655-4.103-4.137-6.898-1.247c-1.088-0.011-1.655-0.559-1.701-1.646c0.495-0.331,1.367-0.485,0.884-1.32
				c-0.073-0.126-1.132,0.317-1.734,0.497c-0.302-1.39-0.604-2.78-0.905-4.17c2.95-2.161,2.817-2.513-2.222-5.399
				c2.022-1.63,3.459-1.101,4.888,0.702c0.497,0.628,1.066,2.563,2.295,0.802c1.414-2.026,3.317-1.627,4.701-0.732
				c1.513,0.977,0.172,2.772,0.039,4.198c-0.103,1.105-1.341,2.377,0.445,3.107c0.56,0.229,1.038,1.277,1.755,0.582
				c0.94-0.912,1.213-2.017,0.823-3.416c-0.207-0.74-1.565-2.442,0.581-2.429c1.087,0.007,3.537-0.916,3.209,1.769
				c-0.25,2.043,1.377,1.468,2.156,1.692c1.109,0.318,2.484-0.079,2.727,1.756c-0.497,0.092-0.97,0.344-1.268,0.209
				c-1.837-0.831-2.391,0.156-2.843,1.711c-0.477,1.639,0.088,3.044,1.448,3.437c2.828,0.818,0.667-1.447,1.118-2.164
				c0.606-0.963,1.004-0.31,1.59,0.065c0.944,0.604,1.988,0.699,3.064-0.05c-1.031-0.583-2.149-1.078-1.782-2.487
				c0.493-1.888,0.074-3.548-1.071-5.073c-0.617-0.822-1.202-1.855-0.074-2.492c1.228-0.694,1.539,0.472,2.002,1.374
				c0.13,0.254-0.113,2.897,1.493,0.753C904.217,561.827,904.774,557.433,907.241,559.308z"/>
			<path style="fill:#D15857;" d="M889.06,548.491c2.909,1.074,3.921-3.465,6.797-2.166c-0.865-3.702,4.717-5.817,2.43-9.869l0,0v0
				c0.27-0.562,0.54-1.124,0.81-1.687c1.336-1.745,0.72-4.012,1.576-5.885l0,0l0,0l0-0.001l0,0c1.079,0.436,1.924,1.881,3.361,0.783
				v0c-0.258,1.26,1.985,1.85,0.892,3.334c-0.349,0.68-0.971,0.836-1.66,0.864c-0.451-0.623-1.092-0.979-1.753-0.541
				c-0.767,0.509-0.431,1.155,0.115,1.683c0.633,0.614,2.136,1.242,1.087,2.166c-3.145,2.768-1.672,6.842-3.2,10.047
				c0.729,1.216,1.585-1.297,2.297,0.059c0.01,0.557,0.019,1.115,0.029,1.673l0,0c0.018,1.116,0.035,2.231,0.052,3.347
				c-1.179,0.37-2.376-0.79-3.698,0.085c0.417,1.108,0.83,2.205,1.243,3.303c0.005,0.279,0.009,0.558,0.013,0.837
				c-3.068,2.153-4.152-1.015-4.826-2.448c-1.723-3.66-3.068-3.517-5.263-0.516c-0.66,0.902-2.127,1.88-3.254,1.222
				c-1.621-0.945,0.188-2.083,0.323-3.163c0.092-0.738,0.207-1.472,0.315-2.208c0.01-0.07,0.021-0.141,0.031-0.211
				C887.549,548.94,888.469,548.272,889.06,548.491z"/>
			<path style="fill:#D35B5A;" d="M889.069,543.544c2.256-0.249,5.612-0.412,4.242-4.495v0c1.367,0.017,2.48-0.197,2.478-1.984
				c-0.005-3.478,1.624-0.563,2.5-0.609l0,0c2.286,4.052-3.295,6.167-2.43,9.869c-2.876-1.3-3.888,3.24-6.797,2.166
				c-0.592-0.219-1.511,0.449-2.279,0.708c-0.109,0.062-0.219,0.124-0.328,0.186c-2.292,1.304-4.548,2.537-5.561-1.608
				c-0.182-0.743-0.952-0.933-1.683-0.964h0c-0.005-0.279-0.009-0.558-0.014-0.837c0.689-0.029,1.31-0.185,1.659-0.865l0,0
				c0.544-0.846,1.088-1.692,1.632-2.538h0h0C884.686,542.94,886.937,543.78,889.069,543.544z"/>
			<path style="fill:#CD5453;" d="M899.442,555.687c0.302-1.503,3.356-1.013,2.454-3.388c-0.018-1.116-0.035-2.231-0.052-3.347
				c0.482,0.467,0.964,0.934,1.446,1.401c0.023,0.039,0.048,0.074,0.077,0.107c0.028,0.032,0.059,0.06,0.094,0.085
				c0.026,0.019,0.052,0.039,0.083,0.054c0.142,0.798,0.047,1.76,0.466,2.366c1.946,2.816,1.156,4.432-2.015,5.192
				c-0.106-1.695-1.321-1.664-2.538-1.632C899.451,556.244,899.446,555.965,899.442,555.687z"/>
			<path style="fill:#CD5453;" d="M870.185,557.84c0.08-2.172,1.502-2.613,3.305-2.565
				C873.793,557.939,871.978,557.875,870.185,557.84z"/>
			<path style="fill:#D05756;" d="M879.6,566.423c0.483,0.835-0.389,0.99-0.884,1.32c-0.862-0.033-1.724-0.066-2.586-0.098
				c-0.022-0.171-0.044-0.342-0.065-0.513c0.086-0.01,0.172-0.02,0.259-0.03c0.068-0.008,0.135-0.016,0.203-0.024
				c0.446-0.052,0.893-0.105,1.339-0.158C878.469,566.741,879.527,566.297,879.6,566.423z"/>
			<path style="fill:#CD5453;" d="M876.809,561.975c0.05,0.12,0.639,0.877-0.239,0.693c-0.433-0.09-0.861-0.522-1.135-0.91
				c-0.118-0.167,0.161-0.614,0.383-1.331C876.3,561.146,876.625,561.531,876.809,561.975z"/>
			<path style="fill:#CD5453;" d="M873.464,559.086c0.894,0.612,0.345,1.347,0.122,2.046c-0.567-0.549-1.133-1.098-1.7-1.647
				C872.276,558.813,872.818,558.644,873.464,559.086z"/>
			<path style="fill:#DD6765;" d="M871.807,529.522c0.974-0.269,1.613-0.235,2.621,0.188c4.885,2.05,9.889,3.935,14.533-0.633
				c-0.11,1.22,0.304,2.3,0.891,3.333c-0.279,0.005-0.558,0.009-0.837,0.014c-0.16,0.049-0.318,0.088-0.478,0.134
				c-2.878,0.816-5.699,1.102-8.82,0.597c-2.303-0.372-4.887-1.211-7.359-0.18c-5.464,2.279-10.783,1.975-16.199-0.46
				c-3.02-1.358-3.875-2.766-1.545-5.384C859.986,530.517,865.75,531.195,871.807,529.522z"/>
			<path style="fill:#D96361;" d="M889.853,532.41c1.88-0.441,4.138-0.155,4.979-2.593c1.622,2.584,0.271,4.178-2.034,4.898
				c-2.585,0.808-6.655,4.12-7.815,6.98c-0.558,0.009-1.115,0.018-1.672,0.027l0,0c-2.225-1.407-5.493-1.083-6.763-4.074l0,0
				c0.651-0.947,1.735-1.128,2.584-0.802c4.719,1.816,7.123-1.343,9.69-4.207c0.065-0.072,0.129-0.144,0.194-0.216
				C889.296,532.419,889.574,532.414,889.853,532.41z"/>
			<path style="fill:#CB5150;" d="M907.632,576.42c0.422-1.173,1.849-1.147,1.852,0.689c0.002,1.119,0.554,2.454-1.142,3.05
				c-2.334,0.821-2.86-1.291-4.626-2.609c-0.06-0.045-0.118-0.091-0.181-0.134c0.132-0.014,0.262-0.013,0.391-0.007
				C905.449,577.483,906.8,578.735,907.632,576.42z"/>
			<path style="fill:#D65D5B;" d="M884.984,541.695c2.804-0.792,5.88-0.729,8.327-2.646v0c1.371,4.083-1.986,4.245-4.242,4.495
				c-2.132,0.236-4.383-0.604-6.581-0.971h0c0.275-0.284,0.549-0.567,0.824-0.851l0,0
				C883.869,541.713,884.426,541.704,884.984,541.695z"/>
			<path style="fill:#CB5150;" d="M896.782,582.053c0.16,1.906-0.73,2.429-2.575,2.912
				C895.096,583.747,895.217,582.687,896.782,582.053z"/>
			<path style="fill:#DB6564;" d="M889.853,532.41c-0.587-1.033-1.002-2.113-0.891-3.333c1.977-3.055,3.335-6.383,6.236-9.013
				c1.704-1.544,2.772-4.958,1.013-7.852l0,0c0.861-1.215,2.176-0.749,3.325-0.897l0,0c1.12,0.822,1.375,1.84,1.081,3.227
				c-1.146,5.396-3.013,10.503-5.785,15.276C893.992,532.255,891.733,531.969,889.853,532.41z"/>
			<path style="fill:#D45B5A;" d="M899.098,534.769c-0.176-2.149-1.599-4.633,1.576-5.885l0,0
				C899.818,530.757,900.434,533.024,899.098,534.769z"/>
			<path style="fill:#CE5252;" d="M901.815,547.279c-0.712-1.357-1.568,1.157-2.297-0.059c1.527-3.205,0.055-7.279,3.2-10.047
				c1.049-0.924-0.454-1.552-1.087-2.166c-0.545-0.529-0.881-1.175-0.115-1.683c0.661-0.438,1.302-0.083,1.753,0.541
				c2.334,1.636,5.155,2.984,3.676,6.879c-0.765,0.331-1.598-1.658-2.622-0.523c-1.34,1.486,1.251,2.271,0.784,3.657
				c0.131,0.755-1.693,0.572-0.809,1.687c-0.305,0.803-0.853,1.37-1.646,1.701C902.373,547.269,902.094,547.274,901.815,547.279z"/>
			<path style="fill:#CC5150;" d="M905.106,543.877c0.755,0.383,1.756,0.902,1.336,1.782c-0.512,1.074-1.414,0.051-2.146-0.095
				C903.413,544.448,905.237,544.631,905.106,543.877z"/>
			<path style="fill:#CC5150;" d="M903.289,550.352c-0.482-0.467-0.964-0.934-1.446-1.401l0,0c-0.01-0.557-0.019-1.115-0.029-1.673
				c0.279-0.005,0.558-0.009,0.837-0.014c0.587,1.033,1.002,2.113,0.891,3.333C903.458,550.516,903.374,550.434,903.289,550.352z"/>
			<path style="fill:#D05755;" d="M899.442,555.687c-0.413-1.098-0.826-2.195-1.243-3.303c1.322-0.875,2.519,0.284,3.698-0.085
				C902.798,554.674,899.744,554.183,899.442,555.687z"/>
		</g>
	</g>
</g>
</svg>
