<?xml version="1.0" encoding="utf-8"?>
<!-- Generator: Adobe Illustrator 27.5.0, SVG Export Plug-In . SVG Version: 6.00 Build 0)  -->
<svg version="1.1" xmlns="http://www.w3.org/2000/svg" xmlns:xlink="http://www.w3.org/1999/xlink" x="0px" y="0px"
	 viewBox="0 0 500 500" style="enable-background:new 0 0 500 500;" xml:space="preserve">
<g id="BACKGROUND">
	<rect style="fill:#F0EEEF;" width="500" height="500"/>
</g>
<g id="OBJECTS">
	<g>
		<g>
			<path style="fill:#FFAE83;" d="M210.867,43.446c-10.674,11.438-14.082,40.325-4.896,51.548
				c11.338,13.854,25.913-0.699,31.902-12.048C258.901,43.092,219.677,34.005,210.867,43.446z"/>
			<path style="fill:#FFBC99;" d="M212.866,49.393c-5.706,6.19-7.568,21.786-2.691,27.829c6.019,7.459,13.808-0.419,17.017-6.554
				C238.46,49.126,217.575,44.284,212.866,49.393z"/>
			<polygon style="fill:#FFAE83;" points="215.487,98.245 208.047,104.3 217.852,107.131 			"/>
		</g>
		<path style="fill:#2C4047;" d="M214.906,133.545c-1.936-0.626-3.972-1.038-5.942-1.549c-3.061-0.794-8.292-1.226-9.693-4.581
			c-1.986-4.758,5.804-5.848,8.771-6.132c3.297-0.315,6.645-0.288,9.878-1.091c4.861-1.208,10.413-5.448,8.867-11.166
			c-0.847-3.131-3.913-5.234-6.571-6.761c-2.812-1.615-6.05-2.699-9.29-1.914c-0.519,0.126-0.362,0.917,0.167,0.816
			c3.277-0.629,6.342,0.39,9.148,2.066c2.774,1.656,5.98,3.998,5.956,7.573c-0.051,7.45-8.905,9.036-14.621,9.427
			c-3.868,0.264-11.294,0.017-13.088,4.497c-2.148,5.364,5.958,6.882,9.285,7.707c1.815,0.45,3.631,0.896,5.446,1.345
			c0.692,0.171,1.424,0.29,2.082,0.574c0.221,0.119,0.442,0.239,0.664,0.358c-0.101,0.747-0.201,1.495-0.301,2.242
			c-0.176,0.346-0.663,0.668-0.944,0.918c-2.6,2.317-5.796,3.364-9.189,3.839c-0.114,0.016-0.098,0.193,0.014,0.199
			c2.866,0.15,5.685-0.821,8.048-2.415c1.192-0.804,4.265-2.822,3.345-4.629C216.563,134.133,215.634,133.781,214.906,133.545z"/>
	</g>
	<path style="fill:#D9D9D7;" d="M454.52,468.104c0-3.652-20.201-10.225-133.154-12.172c-112.953-1.948-275.886,1.467-275.886,5.12
		c0,3.652,27.302,12.612,140.256,14.56C298.689,477.559,454.52,471.757,454.52,468.104z"/>
	<g>
		<g>
			<path style="fill:#80BE95;" d="M488.547,69.426c3.585,16.083-8.741,44.13-23.072,49.416
				c-17.69,6.526-23.155-14.468-22.533-27.969C445.123,43.464,485.587,56.151,488.547,69.426z"/>
			<path style="fill:#89CCA0;" d="M484.752,74.695c1.811,9.854-5.693,27.323-13.999,30.8c-10.253,4.292-13.068-8.559-12.504-16.887
				C460.227,59.364,483.257,66.562,484.752,74.695z"/>
			<polygon style="fill:#80BE95;" points="455.099,116.714 458.621,126.183 448.208,123.52 			"/>
		</g>
		<path style="fill:#2C4047;" d="M436.782,149.075c2.092,0.465,4.161,1.178,6.222,1.766c3.203,0.913,8.183,3.313,11.246,1.014
			c4.343-3.26-2.148-8.408-4.69-10.249c-2.825-2.046-5.879-3.808-8.386-6.264c-3.769-3.692-6.546-10.506-2.09-14.872
			c2.44-2.391,6.347-2.663,9.575-2.631c3.415,0.034,6.934,0.779,9.457,3.222c0.404,0.391-0.161,1.026-0.587,0.652
			c-2.639-2.321-5.966-3.031-9.409-3.008c-3.403,0.023-7.564,0.438-9.45,3.696c-3.931,6.792,3.261,12.957,8.243,16.364
			c3.371,2.305,10.245,6.045,9.482,11.07c-0.913,6.017-9.082,3.068-12.545,2.041c-1.888-0.56-3.775-1.124-5.663-1.686
			c-0.719-0.214-1.447-0.497-2.196-0.591c-0.265-0.01-0.529-0.019-0.794-0.029c-0.308,0.732-0.616,1.465-0.923,2.197
			c-0.025,0.408,0.246,0.961,0.367,1.338c1.124,3.492,3.467,6.149,6.293,8.391c0.095,0.075-0.014,0.228-0.119,0.173
			c-2.682-1.394-4.724-3.78-6.018-6.489c-0.653-1.366-2.366-4.839-0.566-5.988C434.964,148.724,435.996,148.9,436.782,149.075z"/>
	</g>
	<path style="fill:#FFAE83;" d="M456.351,234.81c2.874,1.979,7.073,3.351,10.918,3.057c0.308,0.758,0.662,1.47,1.032,2.089
		c2.904,4.863,7.665,8.766,13.185,10.204c0.58,0.151,0.791-0.779,0.262-0.997c-4.942-2.032-10.971-6.068-13.124-11.472
		c1.514-0.287,2.94-0.861,4.159-1.812c3.495-2.727,2.088-9.01-2.906-7.539c-3.711,1.093-4.056,4.523-3.22,7.706
		c-3.277,0.19-6.505-0.791-9.27-2.618C456.465,232.82,455.43,234.176,456.351,234.81z M467.816,234.12
		c-0.102-2.007,1.177-4.749,3.694-4.291c2.226,0.404,1.856,3.214,0.526,4.473c-0.834,0.79-2.125,1.219-3.204,1.461
		c-0.253,0.057-0.506,0.084-0.759,0.126C467.945,235.311,467.846,234.724,467.816,234.12z"/>
	<g>
		<g>
			<g>
				<g>
					<g>
						<g>
							<g>
								<g>
									<g>
										<path style="fill:#C66D5D;" d="M38.239,127.841c1.66-0.277,3.745-3.179,5.075-6.377c0.744-1.79,2.344-7.28,1.603-8.691
											c-0.741-1.41-2.551,3.194-2.94,4.131c-0.39,0.937-1,1.434-1,1.434s3.335-10.871,2.621-11.922
											c-0.714-1.051-3.232,4.955-3.844,6.443c0,0,2.058-8.324,1.391-8.845c-1.338-1.047-3.89,8.133-3.89,8.133
											s1.374-7.085,0.201-7.258c-1.243-0.184-2.695,7.408-2.695,7.408s0.22-4.739-0.716-5.349
											c-0.937-0.611-1.788,6.591-1.429,8.094c0.435,1.824-3.571,5.269,0.292,10.573
											C33.713,126.723,35.032,128.376,38.239,127.841z"/>
									</g>
								</g>
							</g>
						</g>
					</g>
				</g>
			</g>
		</g>
		<path style="fill:#923D40;" d="M40.908,118.082c-0.88,0.075-1.712,0.534-2.348,1.138c-0.498,0.474-1.241,1.35-0.968,2.079
			c0.027,0.071,0.108,0.129,0.184,0.081c0.508-0.321,0.705-0.997,1.111-1.441c0.592-0.646,1.288-0.941,2.09-1.236
			C41.283,118.592,41.298,118.049,40.908,118.082z"/>
		<path style="fill:#923D40;" d="M40.126,113.381c-1.203-1.328-3.814-1.708-5.445-1.107c-0.215,0.079-0.224,0.45,0.049,0.436
			c0.938-0.048,1.838-0.114,2.766,0.098c0.86,0.197,1.587,0.648,2.398,0.962C40.124,113.859,40.27,113.54,40.126,113.381z"/>
		<path style="fill:#C66D5D;" d="M40.041,124.279c0,0,9.45,55.22,12.742,59.987l42.817-3.372l3.47,23.938
			c0,0-51.082,3.709-56.763-1.079c-4.999-4.213-10.125-79.184-10.125-79.184L40.041,124.279z"/>
		<g>
			<g>
				<g>
					<g>
						<g>
							<g>
								<path style="fill:#C66D5D;" d="M147.926,176.224c7.748-12.351,31.898-79.452,32.027-79.8c1.629-4.4-5.251-7.348-6.78-3.654
									c-6.184,14.937-24.392,46.863-27.604,51.841c-2.086,3.234-14.717,19.861-14.104,23.628
									C130.15,173.053,143.457,183.347,147.926,176.224z"/>
							</g>
						</g>
					</g>
				</g>
			</g>
		</g>
		<g>
			<g>
				<g>
					<g>
						<g>
							<g>
								<g>
									<g>
										<path style="fill:#C66D5D;" d="M174.035,100.39c-1.66-0.277-3.745-3.179-5.075-6.377c-0.744-1.79-2.344-7.28-1.603-8.691
											c0.74-1.41,2.551,3.194,2.94,4.131c0.39,0.937,1,1.434,1,1.434s-3.335-10.871-2.621-11.922
											c0.714-1.051,3.232,4.955,3.844,6.443c0,0-2.058-8.324-1.391-8.845c1.338-1.047,3.891,8.133,3.891,8.133
											s-1.374-7.085-0.201-7.258c1.243-0.184,2.695,7.408,2.695,7.408s-0.22-4.739,0.717-5.349
											c0.936-0.61,1.787,6.591,1.428,8.094c-0.435,1.823,3.571,5.269-0.292,10.573
											C178.561,99.272,177.242,100.925,174.035,100.39z"/>
									</g>
								</g>
							</g>
						</g>
					</g>
				</g>
			</g>
		</g>
		<path style="fill:#923D40;" d="M171.366,90.631c0.88,0.075,1.712,0.534,2.348,1.138c0.498,0.474,1.241,1.351,0.968,2.079
			c-0.027,0.071-0.108,0.129-0.184,0.081c-0.508-0.321-0.705-0.997-1.111-1.441c-0.592-0.646-1.288-0.941-2.09-1.236
			C170.991,91.141,170.976,90.597,171.366,90.631z"/>
		<path style="fill:#923D40;" d="M172.148,85.929c1.203-1.328,3.814-1.708,5.445-1.107c0.215,0.079,0.224,0.45-0.049,0.436
			c-0.938-0.048-1.838-0.114-2.766,0.098c-0.861,0.197-1.587,0.648-2.398,0.962C172.15,86.408,172.004,86.089,172.148,85.929z"/>
		<path style="fill:#ECE5DD;" d="M118.391,176.706c0,0,8.141-10.564,20.644-29.617c0,0,4.404,16.798,13.139,20.75
			c0,0-12.977,31.073-17.167,40.702C135.008,208.541,118.741,186.011,118.391,176.706z"/>
		<path style="fill:#ECE5DD;" d="M98.466,178.11c0,0-22.025,3.407-45.683,6.156c0,0,7.162,7.791,10.354,24.275
			c0,0,35.294,0.257,45.762,1.092C108.9,209.634,106.511,182.797,98.466,178.11z"/>
		<g>
			<path style="fill:#ECE5DD;" d="M148.177,446.344c0,0,17.364,6.328,20.181,7.376c2.817,1.048,2.736,7.366,2.736,7.366
				l-38.602-1.162c0,0-2.109-5.151,2.953-13.894L148.177,446.344z"/>
			<path style="fill:#C66D5D;" d="M157.995,430.057l-9.818,16.286c0,0-5.841,5.496-7.927,4.938
				c-2.085-0.557-4.804-5.252-4.804-5.252l11.612-22.204L157.995,430.057z"/>
			<polygon style="fill:#2C4047;" points="171.095,461.086 132.493,459.924 132.373,462.356 170.739,462.91 			"/>
			<path style="fill:#2C4047;" d="M154.33,449.865c0.245-0.5,0.489-0.999,0.751-1.49c0.41-0.769,1.573-0.199,1.215,0.597
				c-0.229,0.507-0.475,1.005-0.72,1.505c-0.219,0.445-0.412,0.946-0.869,1.185c-0.354,0.185-0.712,0.009-0.782-0.384
				C153.834,450.772,154.113,450.308,154.33,449.865z"/>
			<path style="fill:#2C4047;" d="M150.533,448.351c0.251-0.497,0.5-0.994,0.767-1.482c0.418-0.764,1.575-0.182,1.208,0.61
				c-0.234,0.505-0.486,1-0.737,1.497c-0.223,0.443-0.423,0.942-0.882,1.175c-0.356,0.181-0.712,0.001-0.778-0.393
				C150.027,449.253,150.311,448.792,150.533,448.351z"/>
		</g>
		<path style="fill:#6082BF;" d="M110.299,282.167c0,0,50.323,51.834,60.796,66.239c5.714,7.86-32.737,80.941-32.737,80.941
			l14.952,10.186c0,0,37.181-69.42,42.195-90.659c5.014-21.238-51.44-75.254-51.44-75.254L110.299,282.167z"/>
		<path style="fill:#5B7BB5;" d="M179.34,344.275c-1.112-4.146-4.305-7.359-7.211-10.343c-3.784-3.886-7.622-7.718-11.508-11.502
			c-9.089-8.85-18.512-17.252-28.178-25.457c-0.375-0.318-0.921,0.215-0.545,0.545c7.899,6.957,15.599,14.205,23.186,21.502
			c3.801,3.655,7.554,7.359,11.258,11.112c3.421,3.465,7.423,6.911,9.97,11.106c3.101,5.108,1.22,10.054-0.618,15.23
			c-1.793,5.048-3.647,10.073-5.592,15.064c-3.81,9.775-7.94,19.426-12.377,28.933c-3.698,7.923-7.617,15.741-11.735,23.453
			c-1.102-0.514-2.211-1.014-3.334-1.483c-0.653-0.273-1.096,0.811-0.48,1.139c1.035,0.551,2.083,1.076,3.132,1.602
			c-1.2,2.232-2.409,4.458-3.642,6.672c-0.528,0.948,0.926,1.798,1.454,0.85c1.249-2.244,2.477-4.499,3.691-6.762
			c1.086,0.539,2.173,1.074,3.254,1.622c2.325,1.177,4.777,2.922,7.316,3.517c0.504,0.118,0.952-0.527,0.531-0.911
			c-2.023-1.841-5.044-2.897-7.483-4.102c-0.973-0.481-1.948-0.957-2.926-1.427c8.808-16.536,16.686-33.561,23.553-50.996
			c1.963-4.983,3.85-9.997,5.641-15.045C178.286,354.102,180.639,349.116,179.34,344.275z"/>
		<g>
			<path style="fill:#ECE5DD;" d="M100.481,446.344c0,0,17.364,6.328,20.181,7.376c2.817,1.048,2.736,7.366,2.736,7.366
				l-38.602-1.162c0,0-2.109-5.151,2.953-13.894L100.481,446.344z"/>
			<path style="fill:#C66D5D;" d="M110.299,430.057l-9.818,16.286c0,0-5.841,5.496-7.927,4.938
				c-2.085-0.557-4.804-5.252-4.804-5.252l11.612-22.204L110.299,430.057z"/>
			<polygon style="fill:#2C4047;" points="123.399,461.086 84.797,459.924 84.677,462.356 123.044,462.91 			"/>
			<path style="fill:#2C4047;" d="M106.634,449.865c0.245-0.5,0.489-0.999,0.751-1.49c0.41-0.769,1.573-0.199,1.215,0.597
				c-0.229,0.507-0.475,1.005-0.72,1.505c-0.219,0.445-0.412,0.946-0.869,1.185c-0.354,0.185-0.711,0.009-0.782-0.384
				C106.138,450.772,106.417,450.308,106.634,449.865z"/>
			<path style="fill:#2C4047;" d="M102.837,448.351c0.251-0.497,0.5-0.994,0.767-1.482c0.418-0.764,1.575-0.182,1.208,0.61
				c-0.234,0.505-0.486,1-0.737,1.497c-0.223,0.443-0.423,0.942-0.882,1.175c-0.356,0.181-0.711,0.001-0.777-0.393
				C102.331,449.253,102.615,448.792,102.837,448.351z"/>
		</g>
		<path style="fill:#69A3E2;" d="M95.11,282.551c0,0,29.828,53.914,32.563,64.022c2.539,9.38-33.863,82.774-33.863,82.774
			l14.952,10.186c0,0,37.181-69.42,42.195-90.659c5.014-21.238-22.082-74.87-22.082-74.87L95.11,282.551z"/>
		<path style="fill:#5C90C7;" d="M132.915,344.84c-2.094-9.741-6.752-18.937-11.602-27.561
			c-5.983-10.636-12.366-21.108-18.941-31.386c-0.203-0.317-0.689-0.036-0.506,0.296c5.01,9.066,10.416,17.896,15.601,26.862
			c4.981,8.612,9.776,17.435,12.76,26.969c1.633,5.218,2.701,10.725,1.898,16.195c-0.726,4.943-2.749,9.583-4.839,14.077
			c-4.53,9.741-9.145,19.444-13.717,29.166c-4.041,8.593-8.085,17.185-12.132,25.775c-1.432-0.855-2.877-1.683-4.343-2.462
			c-0.554-0.294-0.974,0.469-0.483,0.826c1.379,1.003,2.797,1.961,4.232,2.897c-0.896,1.901-1.788,3.803-2.684,5.703
			c-0.395,0.838,0.854,1.573,1.249,0.73c0.884-1.887,1.773-3.771,2.658-5.657c3.468,2.212,7.024,4.313,10.486,6.488
			c0.705,0.443,1.356-0.676,0.651-1.114c-3.508-2.181-6.985-4.495-10.531-6.663c8.425-17.948,16.884-35.879,25.304-53.829
			c1.984-4.23,3.986-8.528,5.039-13.103C134.099,354.342,133.927,349.546,132.915,344.84z"/>
		<path style="fill:#2C4047;" d="M118.391,176.706c5.256-0.01,16.962,13.68,16.617,31.835c-0.25,13.142,2.41,20.119,3.599,25.367
			c1.998,8.816,12.546,41.928,12.546,41.928s-45.036,18.141-60.628,9.713c-4.428-2.393-0.214-6.971-0.214-6.971
			s-7.117-30.452-8.28-46.572c-0.764-10.585-1.925-22.302-1.03-34.888c0.556-7.823,6.809-17.64,14.586-18.649
			C102.384,177.586,110.933,176.72,118.391,176.706z"/>
		<g>
			<path style="fill:#63271F;" d="M115.998,135.288c0,0,4.93-0.158,6.31,3.932c0.655,1.943,1.536,9.367,1.536,9.367l-5.977,0.828
				L115.998,135.288z"/>
			<path style="fill:#63271F;" d="M85.549,145.85c0,0,0.987,5.204,2.901,10.071l6.066-1.42c0,0-2.028-6.446-1.937-11.721
				L85.549,145.85z"/>
			<g>
				<g>
					<g>
						<g>
							<path style="fill:#C66D5D;" d="M118.391,176.706c0,0,0.025,9.194-7.179,10.573c-9.417,1.802-12.747-9.169-12.747-9.169
								c-0.849-4.54-2.461-15.828-2.461-15.828l20.424,5.265L118.391,176.706z"/>
						</g>
					</g>
				</g>
			</g>
			<path style="fill:#0D0000;" d="M116.429,167.548l1.399,6.529c0,0-15.691,6.124-21.823-11.795L116.429,167.548z"/>
			<g>
				<g>
					<g>
						<g>
							<path style="fill:#923D40;" d="M119.019,149.942c0,0,0.433-3.02,3.35-2.911c2.917,0.108,4.767,11.787-2.326,12.055
								L119.019,149.942z"/>
						</g>
					</g>
				</g>
			</g>
			<g>
				<g>
					<g>
						<g>
							<path style="fill:#C66D5D;" d="M91.635,153.492c2.216,6.424,7.828,17.564,19.885,17.507
								c6.555-0.035,11.141-3.757,12.018-11.388c0.074-0.633,0.081-1.264,0.098-1.89c-0.002-0.008,0.002-0.025-0.001-0.033
								c0.019-0.744,0.012-1.489,0.002-2.217c-0.001-0.033,0.001-0.059,0-0.092c-0.006-0.208-0.017-0.407-0.02-0.608
								c-0.012-0.358-0.03-0.706-0.047-1.053c-0.001-0.067-0.008-0.124-0.015-0.181c-0.202-3.606-0.724-6.715-1.091-8.304
								c-0.125-0.529-0.258-1.089-0.411-1.661c-1.368-5.233-4.251-11.764-15.776-11.287c-8.218,0.346-17.006,8.56-15.774,17.33
								C90.504,149.615,90.839,151.179,91.635,153.492z"/>
						</g>
					</g>
				</g>
			</g>
			<path style="fill:#63271F;" d="M88.483,145.751c0,0,0.825,7.984,3.528,7.501c2.703-0.483-0.363-9.45-0.363-9.45L88.483,145.751z"
				/>
			<path style="fill:#441B15;" d="M124.962,136.581c-1.253,1.852-19.183,1.131-19.183,1.131s11.482,2.355,7.982,5.068
				c-3.5,2.713-21.75,2.362-21.75,2.362s-7.355,5.66-9.231,3.892c-2.44-2.298,4.264-6.828,4.264-6.828s-5.459,1.528-6.309-1.389
				s7.921-6.659,7.921-6.659s-6.788-1.398-6.08-4.327c0.708-2.929,12.384-1.079,12.384-1.079s-2.752-6.966,2.281-7.783
				c5.034-0.817,7.205,4.431,7.205,4.431s6.035-8.476,9.009-7.188c2.975,1.288,1.299,9.134,1.299,9.134s4.9-7.644,6.689-6.339
				c1.79,1.304-1.828,7.73-1.828,7.73s6.927-1.98,7.331,0.427c0.404,2.407-4.958,3.095-4.958,3.095S126.395,134.462,124.962,136.581
				z"/>
			<g>
				<g>
					<g>
						<g>
							<g>
								<path style="fill:#0D0000;" d="M107.648,153.126c0.128,0.933-0.181,1.745-0.689,1.815c-0.509,0.07-1.024-0.63-1.152-1.563
									c-0.128-0.933,0.181-1.745,0.689-1.815C107.005,151.494,107.521,152.193,107.648,153.126z"/>
							</g>
						</g>
					</g>
				</g>
			</g>
			<g>
				<g>
					<g>
						<g>
							<g>
								<path style="fill:#0D0000;" d="M118.788,151.044c0.128,0.933-0.181,1.745-0.689,1.815c-0.509,0.07-1.025-0.63-1.153-1.563
									c-0.128-0.933,0.181-1.745,0.689-1.815C118.144,149.412,118.66,150.111,118.788,151.044z"/>
							</g>
						</g>
					</g>
				</g>
			</g>
			<path style="fill:#441B15;" d="M112.38,145.181c0.055,0.544,3.129,0.676,4.923,0.493c1.794-0.183,2.366-0.686,2.311-1.23
				c-0.055-0.544-2.292-0.761-4.086-0.578C113.733,144.049,112.324,144.638,112.38,145.181z"/>
			<path style="fill:#441B15;" d="M108.494,146.21c0.174,0.518-2.569,1.909-4.278,2.485c-1.709,0.575-2.438,0.354-2.613-0.164
				c-0.174-0.518,1.773-1.641,3.481-2.216C106.793,145.739,108.319,145.692,108.494,146.21z"/>
			<path style="fill:#923D40;" d="M112.449,159.736c0.337-0.137,2.078-0.85,2.12-1.275c0.024-0.249-0.643-0.889-0.824-1.141
				c-0.744-1.036-1.275-2.18-1.658-3.393c-0.157-0.498,0.627-0.707,0.783-0.21c0.319,1.012,0.75,1.972,1.341,2.856
				c0.321,0.481,1.24,1.165,1.247,1.82c0.01,1.046-2.054,1.825-2.799,2.127C112.176,160.715,111.971,159.93,112.449,159.736z"/>
			<g>
				<g>
					<g>
						<g>
							<path style="fill:#FFFFFF;" d="M107.929,163.307c0,0,6.086-0.82,9.321-2.118c0,0,1.099,4.047-4.121,4.852
								C108.811,166.708,107.929,163.307,107.929,163.307z"/>
						</g>
					</g>
				</g>
			</g>
			<g>
				<g>
					<g>
						<g>
							<g>
								<path style="fill:#923D40;" d="M106.444,158.186c0.125,0.871-1.182,1.779-2.919,2.028c-1.737,0.249-3.246-0.255-3.371-1.126
									c-0.125-0.871,1.182-1.779,2.919-2.028C104.81,156.811,106.319,157.315,106.444,158.186z"/>
							</g>
						</g>
					</g>
				</g>
			</g>
			<g>
				<g>
					<g>
						<g>
							<g>
								<g>
									<path style="fill:#923D40;" d="M119.25,156.831c0.125,0.873,1.636,1.375,3.375,1.128c0.355-0.053,0.694-0.136,1.011-0.237
										c-0.002-0.008,0.002-0.025-0.001-0.033c0.019-0.744,0.012-1.489,0.002-2.217c-0.001-0.033,0.001-0.059,0-0.092
										c-0.006-0.208-0.017-0.407-0.02-0.608c-0.441-0.05-0.943-0.041-1.451,0.036
										C120.428,155.055,119.125,155.958,119.25,156.831z"/>
								</g>
							</g>
						</g>
					</g>
				</g>
			</g>
			<g>
				<g>
					<g>
						<g>
							<g>
								<path style="fill:#C66D5D;" d="M93.007,152.043c0,0-2.091-2.859-5.022-1.156c-2.931,1.702,1.544,14.684,8.962,11.089
									L93.007,152.043z"/>
							</g>
						</g>
					</g>
				</g>
			</g>
			<path style="fill:#923D40;" d="M90.195,157.645c0.459-0.086,0.901-0.091,1.34-0.023c-0.342-0.922-0.874-2.096-1.672-2.322
				c-0.502-0.142-0.29-0.925,0.214-0.782c1.4,0.396,2.055,2.35,2.484,3.577c0.097,0.277-0.218,0.601-0.499,0.496
				c-0.551-0.207-1.076-0.271-1.658-0.162C89.895,158.524,89.681,157.742,90.195,157.645z"/>
		</g>
		<path style="fill:#25353B;" d="M126.976,217.833l-26.026,47.068C100.95,264.901,120.139,246.486,126.976,217.833z"/>
		<path style="fill:#25353B;" d="M129.886,229.201l-8.893,28.568C120.993,257.769,130.943,242.848,129.886,229.201z"/>
		<path style="fill:#25353B;" d="M145.144,268.665c0,0-29.089,10.828-50.55,9.784C94.594,278.45,122.734,283.242,145.144,268.665z"
			/>
	</g>
	<g>
		<path style="fill:#441B15;" d="M243.368,105.259c-0.483-0.053-0.96-0.129-1.42-0.245c-4.179-1.054-3.561-6.536-0.554-8.403
			c1.232-0.765,15.933-3.017,19.643-3.253c4.508-0.287,9.094-0.235,13.486,0.934c1.503,0.4,3.043,0.974,4.061,2.151
			c1.018,1.176,1.307,3.109,0.257,4.257c1.97-0.701,4.172,0.589,5.261,2.374c1.089,1.785,1.276,3.965,1.331,6.056
			c0.146,5.54-0.443,11.098-1.746,16.485c-0.62,2.565-1.477,5.215-3.403,7.019c-1.926,1.804-5.221,2.393-7.172,0.617
			c-0.772-0.703-1.243-1.674-1.631-2.644c-2.218-5.553-2.238-11.704-2.227-17.684c-5.597,1.998-20.499,10.567-21.232,10.152
			c-4.933-2.791-2.867-7.247,0.202-9.601c-1.473-0.012-6.488,1.12-7.764-2.231C239.71,109.272,242.585,105.877,243.368,105.259z"/>
		<g>
			<g>
				<g>
					<g>
						<g>
							<g>
								<g>
									<g>
										<path style="fill:#C66D5D;" d="M375.365,70.752c-1.345-0.947-1.953-4.386-1.77-7.767c0.102-1.892,1.018-7.406,2.268-8.335
											c1.25-0.929,0.895,3.894,0.841,4.884c-0.054,0.991,0.274,1.687,0.274,1.687s1.666-10.989,2.74-11.613
											c1.075-0.624,0.749,5.734,0.658,7.305c0,0,1.712-8.204,2.52-8.382c1.622-0.356-0.017,8.813-0.017,8.813
											s1.79-6.823,2.897-6.479c1.173,0.364-0.763,7.667-0.763,7.667s1.813-4.268,2.896-4.409
											c1.084-0.141-1.042,5.979-1.768,7.825c-0.732,1.861-0.675,6.467-5.587,10.54
											C379.525,73.342,377.964,72.581,375.365,70.752z"/>
									</g>
								</g>
							</g>
						</g>
					</g>
				</g>
			</g>
		</g>
		<path style="fill:#923D40;" d="M377.153,61.055c0.747,0.432,1.293,1.184,1.604,1.983c0.244,0.626,0.536,1.711-0.008,2.242
			c-0.053,0.052-0.149,0.069-0.197-0.005c-0.316-0.495-0.209-1.175-0.384-1.737c-0.255-0.817-0.748-1.368-1.335-1.962
			C376.61,61.351,376.823,60.864,377.153,61.055z"/>
		<path style="fill:#923D40;" d="M379.8,57.221c1.617-0.675,4.084,0.074,5.277,1.285c0.158,0.16,0.011,0.492-0.225,0.366
			c-0.81-0.433-1.579-0.865-2.488-1.063c-0.843-0.184-1.673-0.086-2.521-0.146C379.603,57.645,379.606,57.302,379.8,57.221z"/>
		<path style="fill:#C66D5D;" d="M382.028,71.145c0,0-4.338,7.646-7.053,14.339l-7.004-2.726c0,0,3.953-10.615,7.759-16.901
			L382.028,71.145z"/>
		<g>
			<g>
				<g>
					<g>
						<g>
							<g>
								<path style="fill:#C66D5D;" d="M236.621,163.786c-16.382-4.396-97.481-38.98-97.866-39.174
									c-4.871-2.461-1.34-10.42,2.887-8.482c17.095,7.838,56.77,22.113,63.447,23.815c4.339,1.105,29.388,3.808,31.847,7.504
									C241.868,150.512,246.069,166.321,236.621,163.786z"/>
							</g>
						</g>
					</g>
				</g>
			</g>
		</g>
		<g>
			<g>
				<g>
					<g>
						<g>
							<g>
								<g>
									<g>
										<path style="fill:#C66D5D;" d="M146.938,123.309c1.196-1.55,0.676-5.674-0.722-9.453
											c-0.783-2.115-3.765-8.062-5.513-8.677c-1.748-0.616,0.354,4.742,0.764,5.849c0.41,1.108,0.282,2.014,0.282,2.014
											s-5.763-11.907-7.204-12.238c-1.441-0.331,1.167,6.782,1.823,8.536c0,0-4.835-8.724-5.816-8.641
											c-1.97,0.167,3.122,10.013,3.122,10.013s-4.437-7.127-5.574-6.346c-1.205,0.827,3.567,8.448,3.567,8.448
											s-3.563-4.214-4.845-3.993c-1.282,0.221,3.693,7.033,5.19,8.031c1.815,1.21,1.127,7.318,8.619,8.782
											C142.195,125.938,144.628,126.303,146.938,123.309z"/>
									</g>
								</g>
							</g>
						</g>
					</g>
				</g>
			</g>
		</g>
		<path style="fill:#A14E3E;" d="M141.488,112.877c-0.691,0.76-1.037,1.811-1.1,2.829c-0.05,0.798,0.011,2.134,0.821,2.539
			c0.079,0.039,0.194,0.025,0.221-0.076c0.179-0.676-0.188-1.408-0.193-2.108c-0.007-1.019,0.353-1.822,0.803-2.708
			C142.212,113.015,141.794,112.54,141.488,112.877z"/>
		<path style="fill:#A14E3E;" d="M137.1,109.488c-2.077-0.18-4.604,1.563-5.517,3.366c-0.121,0.238,0.165,0.562,0.387,0.333
			c0.761-0.784,1.477-1.552,2.436-2.106c0.889-0.513,1.866-0.703,2.805-1.078C137.477,109.898,137.35,109.51,137.1,109.488z"/>
		<path style="fill:#426B99;" d="M261.505,146.734c0,0-12.654-1.472-35.562-5.571c-24.581-4.398-57.507-14.091-73.485-20.559
			l-3.787,12.48c0,0,80.471,33.738,110.396,38.163L261.505,146.734z"/>
		<g>
			<path style="fill:#ECE5DD;" d="M297.135,391.369c0,0,0.342,18.478,0.418,21.483c0.076,3.005,6.077,4.982,6.077,4.982
				l11.445-36.884c0,0-4.186-3.668-14.1-1.721L297.135,391.369z"/>
			<path style="fill:#C66D5D;" d="M276.546,385.267l20.589,6.101c0,0,7.096-3.739,7.246-5.892c0.151-2.153-3.406-6.249-3.406-6.249
				l-20.765-6.805L276.546,385.267z"/>
			<polygon style="fill:#2C4047;" points="303.63,417.833 315.074,380.949 317.413,381.625 305.47,418.09 			"/>
			<path style="fill:#2C4047;" d="M298.466,398.332c-0.552,0.07-1.104,0.138-1.653,0.226c-0.86,0.138-0.699,1.423,0.169,1.343
				c0.554-0.051,1.105-0.123,1.658-0.192c0.492-0.062,1.029-0.082,1.403-0.437c0.29-0.275,0.24-0.67-0.109-0.864
				C299.485,398.158,298.955,398.271,298.466,398.332z"/>
			<path style="fill:#2C4047;" d="M298.268,394.25c-0.551,0.076-1.102,0.15-1.651,0.244c-0.859,0.147-0.684,1.431,0.184,1.341
				c0.554-0.057,1.104-0.135,1.655-0.21c0.491-0.068,1.028-0.094,1.398-0.453c0.287-0.278,0.232-0.673-0.118-0.863
				C299.285,394.064,298.757,394.182,298.268,394.25z"/>
		</g>
		<g>
			<path style="fill:#ECE5DD;" d="M335.238,319.571c0,0,9.84,15.644,11.457,18.178c1.617,2.533,7.777,1.125,7.777,1.125
				l-9.257-37.493c0,0-5.479-0.978-12.961,5.81L335.238,319.571z"/>
			<path style="fill:#C66D5D;" d="M314.458,324.983l20.78-5.413c0,0,4.144-6.867,3.16-8.788c-0.984-1.922-6.145-3.591-6.145-3.591
				l-21.295,4.902L314.458,324.983z"/>
			<polygon style="fill:#2C4047;" points="354.471,338.874 345.214,301.38 347.567,300.751 356.18,338.143 			"/>
			<path style="fill:#2C4047;" d="M339.975,324.845c-0.437,0.345-0.874,0.688-1.299,1.047c-0.665,0.562,0.137,1.58,0.839,1.062
				c0.448-0.33,0.883-0.676,1.32-1.021c0.389-0.307,0.838-0.602,0.975-1.099c0.106-0.385-0.141-0.697-0.54-0.684
				C340.757,324.169,340.362,324.539,339.975,324.845z"/>
			<path style="fill:#2C4047;" d="M337.696,321.452c-0.433,0.35-0.866,0.698-1.287,1.062c-0.659,0.57,0.154,1.578,0.851,1.053
				c0.444-0.335,0.876-0.686,1.309-1.035c0.386-0.312,0.832-0.612,0.963-1.11c0.102-0.386-0.149-0.696-0.547-0.678
				C338.471,320.767,338.08,321.142,337.696,321.452z"/>
		</g>
		<path style="fill:#38425E;" d="M235.709,230.112c0,0-36.035,111.462-32.37,125.307c4.507,17.027,78.841,38.332,78.841,38.332
			l4.957-19.059l-60.68-26.207c0,0,30.577-82.938,50.168-113.341L235.709,230.112z"/>
		<path style="fill:#3E4969;" d="M284.825,379.269c-2.796-0.903-5.563-1.865-8.308-2.874c0.457-2.187,0.816-4.368,1.072-6.467
			c0.084-0.687-1.103-0.853-1.217-0.165c-0.342,2.063-0.721,4.107-1.169,6.138c-19.197-7.185-37.274-16.695-55.718-25.69
			c7.122-17.17,13.776-34.535,19.665-52.168c2.961-8.867,5.759-17.79,8.38-26.764c2.615-8.953,5.333-17.982,6.981-27.169
			c0.041-0.228-0.276-0.322-0.35-0.097c-2.934,8.87-5.163,17.979-7.822,26.937c-2.618,8.82-5.397,17.59-8.349,26.304
			c-6.027,17.791-12.663,35.379-20.131,52.617c-0.304,0.702,0.221,1.215,0.755,1.197c18.101,9.845,36.854,19.145,56.271,26.243
			c-0.226,0.94-0.466,1.877-0.735,2.811c-0.982,3.409-2.43,6.618-3.545,9.973c-0.174,0.524,0.611,0.839,0.881,0.371
			c2.184-3.769,3.7-8.2,4.733-12.667c2.732,0.983,5.476,1.923,8.234,2.813C285.31,380.89,285.676,379.544,284.825,379.269z"/>
		<path style="fill:#48557A;" d="M255.297,233.154c0,0-17.493,92.043-14.612,107.787c2.881,15.743,85.065-15.538,85.065-15.538
			l-6.021-15.353l-51.407,11.634c0,0,18.042-50.985,22.56-86.869L255.297,233.154z"/>
		<path style="fill:#4D5B82;" d="M320.982,313.342c-1.951,0.652-3.909,1.279-5.869,1.901c-0.493-1.272-1.022-2.528-1.648-3.727
			c-0.254-0.488-0.978-0.143-0.861,0.363c0.297,1.284,0.703,2.549,1.143,3.806c-7.206,2.258-14.476,4.309-21.806,6.131
			c-4.821,1.198-9.665,2.301-14.53,3.307c-4.887,1.011-10.009,1.555-14.805,2.93c1.128-7.338,3.275-14.659,5.011-21.864
			c1.806-7.499,3.679-14.983,5.612-22.45c1.933-7.467,3.933-14.917,6-22.349c2.063-7.418,4.488-14.783,6.303-22.264
			c0.135-0.558-0.662-0.766-0.851-0.235c-2.58,7.243-4.477,14.794-6.556,22.194c-2.087,7.426-4.107,14.87-6.06,22.332
			c-1.953,7.462-3.833,14.943-5.645,22.441c-1.801,7.456-3.093,15.181-5.324,22.515c-0.263,0.863,1.083,1.228,1.346,0.51
			c0.011,0,0.02,0.005,0.031,0.005c4.79-0.188,9.693-1.444,14.383-2.383c5.02-1.005,10.019-2.112,14.993-3.321
			c7.519-1.828,14.978-3.895,22.369-6.184c0.408,1.106,0.828,2.207,1.226,3.303c0.88,2.422,1.503,5.455,3.045,7.531
			c0.261,0.352,0.956,0.291,0.919-0.249c-0.188-2.731-1.754-5.557-2.719-8.11c-0.365-0.965-0.719-1.943-1.081-2.92
			c1.921-0.603,3.84-1.208,5.751-1.841C322.227,314.429,321.854,313.051,320.982,313.342z"/>
		<path style="fill:#426B99;" d="M298.083,145.232c0,0-10.233,1.772-22.173,1.503c-23.8-0.537-28.688,4.711-31.502,13.976
			c0,0-11.529,31.482-11.529,77.474c0,0,34.403,11.386,61.851-0.358c0,0,0.03-6.44-2.723-6.35
			C292.008,231.476,288.581,186.058,298.083,145.232z"/>
		<g>
			<g>
				<g>
					<g>
						<g>
							<path style="fill:#C66D5D;" d="M267.272,158.383c10.712,0.525,9.098-22.767,9.098-22.767l-0.002,0.003l-14.868,7.221
								l0.006,3.895C261.505,146.734,261.082,158.079,267.272,158.383z"/>
						</g>
					</g>
				</g>
			</g>
		</g>
		<path style="fill:#0D0000;" d="M261.5,142.839l0.006,3.895c0,0,12.824-0.074,14.83-10.537L261.5,142.839z"/>
		<g>
			<g>
				<g>
					<g>
						<path style="fill:#B65E5A;" d="M252.654,122.743c0,0-1.097-3.08-4.139-2.345c-3.041,0.735-2.499,13.397,5.01,12.169
							L252.654,122.743z"/>
					</g>
				</g>
			</g>
		</g>
		<g>
			<g>
				<g>
					<g>
						<g>
							<path style="fill:#C66D5D;" d="M282.177,120.644c-0.961,7.22-4.485,20.116-17.162,22.623
								c-6.894,1.358-12.503-1.575-15.049-9.405c-0.212-0.649-0.354-1.311-0.505-1.964c0.001-0.009-0.007-0.027-0.007-0.035
								c-0.178-0.777-0.33-1.562-0.474-2.328c-0.007-0.035-0.014-0.062-0.02-0.097c-0.039-0.22-0.069-0.431-0.108-0.642
								c-0.064-0.378-0.119-0.748-0.175-1.117c-0.013-0.071-0.018-0.132-0.023-0.193c-0.555-3.831-0.668-7.208-0.621-8.955
								c0.019-0.582,0.039-1.199,0.079-1.833c0.324-5.788,2.345-14.735,14.553-16.688c8.707-1.385,19.304,6.845,19.875,16.32
								C282.539,116.33,282.52,118.044,282.177,120.644z"/>
						</g>
					</g>
				</g>
			</g>
		</g>
		<g>
			<g>
				<g>
					<g>
						<g>
							<path style="fill:#0D0000;" d="M265.277,123.667c0.064,1.007,0.561,1.795,1.111,1.76c0.549-0.035,0.942-0.88,0.878-1.887
								c-0.064-1.007-0.561-1.795-1.111-1.76C265.606,121.816,265.212,122.66,265.277,123.667z"/>
						</g>
					</g>
				</g>
			</g>
		</g>
		<g>
			<g>
				<g>
					<g>
						<g>
							<path style="fill:#0D0000;" d="M253.132,123.851c0.064,1.007,0.561,1.795,1.11,1.76c0.549-0.035,0.942-0.88,0.878-1.887
								c-0.064-1.007-0.561-1.795-1.11-1.76C253.461,122,253.068,122.844,253.132,123.851z"/>
						</g>
					</g>
				</g>
			</g>
		</g>
		<path style="fill:#441B15;" d="M258.615,116.329c0.058,0.583-3.143,1.376-5.066,1.565c-1.923,0.19-2.632-0.217-2.689-0.8
			c-0.057-0.583,2.246-1.287,4.169-1.477C256.952,115.427,258.558,115.746,258.615,116.329z"/>
		<path style="fill:#441B15;" d="M262.917,116.582c-0.073,0.581,3.106,1.459,5.023,1.699c1.917,0.241,2.637-0.147,2.71-0.729
			c0.073-0.581-2.211-1.346-4.129-1.587C264.603,115.725,262.99,116.001,262.917,116.582z"/>
		<path style="fill:#B65E5A;" d="M261.641,131.633c-0.384-0.072-2.364-0.451-2.498-0.889c-0.079-0.257,0.487-1.071,0.623-1.374
			c0.561-1.247,0.876-2.562,1.02-3.917c0.059-0.557-0.809-0.609-0.867-0.054c-0.12,1.131-0.368,2.231-0.801,3.286
			c-0.235,0.574-1.055,1.488-0.922,2.177c0.212,1.101,2.546,1.48,3.392,1.638C262.136,132.603,262.184,131.735,261.641,131.633z"/>
		<g>
			<g>
				<g>
					<g>
						<path style="fill:#FFFFFF;" d="M267.149,134.422c0,0-6.568,0.435-10.242-0.241c0,0-0.293,4.485,5.362,4.22
							C266.946,138.182,267.149,134.422,267.149,134.422z"/>
					</g>
				</g>
			</g>
		</g>
		<g>
			<g>
				<g>
					<g>
						<g>
							<path style="fill:#B65E5A;" d="M267.619,128.726c0.054,0.942,1.62,1.617,3.498,1.509c1.878-0.108,3.356-0.959,3.302-1.9
								c-0.054-0.941-1.62-1.617-3.498-1.509C269.043,126.934,267.565,127.785,267.619,128.726z"/>
						</g>
					</g>
				</g>
			</g>
		</g>
		<g>
			<g>
				<g>
					<g>
						<g>
							<g>
								<path style="fill:#B65E5A;" d="M253.878,130.029c0.055,0.944-1.426,1.793-3.305,1.903c-0.384,0.02-0.758,0.005-1.112-0.034
									c0.001-0.009-0.007-0.027-0.007-0.035c-0.178-0.777-0.33-1.562-0.474-2.328c-0.007-0.035-0.014-0.062-0.02-0.097
									c-0.039-0.22-0.069-0.431-0.108-0.642c0.453-0.146,0.982-0.244,1.532-0.271
									C252.262,128.414,253.823,129.085,253.878,130.029z"/>
							</g>
						</g>
					</g>
				</g>
			</g>
		</g>
		<g>
			<g>
				<g>
					<g>
						<g>
							<g>
								<path style="fill:#C66D5D;" d="M280.427,119.413c0,0,1.588-3.449,5.03-2.284c3.441,1.165,1.503,15.755-7.055,13.557
									L280.427,119.413z"/>
							</g>
						</g>
					</g>
				</g>
			</g>
		</g>
		<path style="fill:#B65E5A;" d="M284.573,124.7c-0.501,0.007-0.966,0.096-1.413,0.261c0.163-1.042,0.472-2.388,1.262-2.795
			c0.497-0.256,0.107-1.033-0.392-0.776c-1.386,0.714-1.658,2.905-1.849,4.286c-0.043,0.312,0.357,0.585,0.63,0.415
			c0.534-0.334,1.073-0.514,1.707-0.523C285.076,125.56,285.134,124.692,284.573,124.7z"/>
		<g>
			<g>
				<path style="fill:#426B99;" d="M290.899,146.741l44.214-9.291l34.772-64.39l9.62,5.537c0,0-22.43,63.585-33.463,71.906
					c-5.634,4.249-57.05,25.168-57.05,25.168S278.402,162.387,290.899,146.741z"/>
			</g>
		</g>
		<path style="fill:#395D85;" d="M237.992,233.076c0,0,30.638,4.969,51.488-0.225C289.479,232.85,262.807,243.02,237.992,233.076z"
			/>
		<path style="fill:#395D85;" d="M281.077,181.109l-41.949,33.66C239.128,214.769,263.872,205.02,281.077,181.109z"/>
		<path style="fill:#395D85;" d="M279.452,192.731l-19.074,23.051C260.378,215.782,275.249,205.757,279.452,192.731z"/>
		<path style="fill:#ECE5DD;" d="M261.505,146.734h14.404c0,0-0.104,13.404-8.292,13.623
			C259.429,160.576,261.505,146.734,261.505,146.734z"/>
		<path style="fill:#441B15;" d="M246.614,111.091c0.671,1.357,2.693,1.99,4.507,2.05c2.625,0.088,5.17-0.681,7.358-1.784
			c2.574-1.298,4.755-3.076,6.326-5.156c-1.361,1.853-0.294,4.603,2.171,5.596c2.465,0.994,5.797,0.017,6.781-1.988
			c0.084,0.69,0.541,1.205,0.982,1.811c0.441,0.606,1.211,1.103,2.078,1.153c1.051,0.061,1.952-0.509,2.737-1.048
			c-0.622,2.679,0.031,5.256,0.86,7.934c0.129,0.418,0.416,0.925,0.953,0.93c0.267,0.002,0.499-0.132,0.69-0.276
			c1.253-0.951,1.503-2.457,1.682-3.844c0.526-4.059,0.956-8.47-1.788-11.997c-0.872-1.12-2.027-2.09-3.266-2.967
			c-2.814-1.993-6.148-3.565-9.773-4.285c-3.625-0.72-7.547-0.548-10.837,0.742c-1.884,0.739-3.519,1.817-5.018,2.981
			C249.546,103.672,247.67,107.242,246.614,111.091z"/>
		<path style="fill:#395D85;" d="M241.441,161.829c-0.501-2.348-0.899-4.709-1.128-7.1c-0.092-0.963-1.491-0.79-1.318,0.178
			c0.401,2.259,0.8,4.52,1.314,6.757c0.438,1.907,0.72,4.114,1.908,5.704c0.07,0.094,0.212,0.063,0.221-0.06
			C242.576,165.481,241.821,163.614,241.441,161.829z"/>
		<path style="fill:#395D85;" d="M199.097,141.66c-1.216-1.664-2.463-3.304-3.774-4.895c-1.032-1.252-2.243-3.346-3.88-3.764
			c-0.095-0.024-0.231,0.05-0.216,0.165c0.195,1.468,1.622,2.648,2.523,3.765c1.43,1.774,2.812,3.586,4.15,5.43
			C198.419,143.076,199.624,142.382,199.097,141.66z"/>
		<path style="fill:#395D85;" d="M257.947,150.971c0,0,0.408,12.019,9.092,12.113c8.684,0.094,10.374-11.268,10.374-11.268
			s0.661,13.71-10.374,13.991C256.003,166.089,257.947,150.971,257.947,150.971z"/>
		<path style="fill:#395D85;" d="M157.046,122.533c-0.751,2.3-1.096,4.769-1.581,7.139c-0.377,1.842-1.088,3.742-0.822,5.619
			c0.038,0.27,0.42,0.265,0.542,0.071c1.114-1.764,1.226-4.239,1.608-6.271c0.399-2.127,0.892-4.293,0.982-6.459
			C157.793,122.199,157.172,122.147,157.046,122.533z"/>
		<path style="fill:#395D85;" d="M377.716,83.146c-1.979-0.819-3.915-1.728-5.808-2.731c-1.531-0.811-2.979-1.878-4.616-2.453
			c-0.396-0.139-0.659,0.401-0.393,0.676c2.62,2.708,7.053,4.311,10.482,5.724C378.13,84.671,378.456,83.452,377.716,83.146z"/>
	</g>
	<g>
		<g>
			<g>
				<g>
					<g>
						<g>
							<g>
								<g>
									<g>
										<path style="fill:#C66D5D;" d="M340.409,99.103c1.622-0.273,3.656-3.112,4.952-6.24c0.725-1.751,2.282-7.119,1.556-8.497
											c-0.726-1.378-2.489,3.125-2.869,4.042s-0.976,1.403-0.976,1.403s3.246-10.63,2.546-11.657
											c-0.699-1.027-3.153,4.847-3.75,6.303c0,0,2.001-8.139,1.348-8.648c-1.31-1.022-3.792,7.955-3.792,7.955
											s1.334-6.927,0.187-7.095c-1.215-0.178-2.624,7.245-2.624,7.245s0.209-4.632-0.707-5.228
											c-0.916-0.596-1.643,5.842-1.786,7.821c-0.144,1.994-2.185,6.124,0.485,11.919
											C335.539,99.642,337.275,99.63,340.409,99.103z"/>
									</g>
								</g>
							</g>
						</g>
					</g>
				</g>
			</g>
		</g>
		<path style="fill:#923D40;" d="M342.986,89.585c-0.861,0.067-1.677,0.509-2.303,1.095c-0.49,0.459-1.223,1.311-0.961,2.025
			c0.026,0.07,0.105,0.127,0.179,0.081c0.499-0.31,0.696-0.97,1.097-1.4c0.583-0.627,1.266-0.911,2.052-1.193
			C343.348,90.087,343.367,89.556,342.986,89.585z"/>
		<path style="fill:#923D40;" d="M342.255,84.985c-1.167-1.307-3.716-1.698-5.314-1.121c-0.211,0.076-0.223,0.439,0.045,0.427
			c0.917-0.04,1.797-0.098,2.703,0.116c0.84,0.198,1.546,0.645,2.337,0.957C342.25,85.452,342.395,85.142,342.255,84.985z"/>
		<path style="fill:#C66D5D;" d="M335.307,94.532c0,0-3.881,7.888-7.888,13.897l6.194,4.257c0,0,6.552-9.24,9.608-15.923
			L335.307,94.532z"/>
		<path style="fill:#9D4541;" d="M358.533,192.833c-19.972-3.745-47.484-16.835-52.086-33.763
			c-4.602-16.928,24.848-58.766,24.848-58.766l8.363,5.804c0,0-21.199,33.996-17.818,44.271
			c5.722,17.392,51.517,14.086,51.517,14.086S371.912,195.342,358.533,192.833z"/>
		<path style="fill:#373A52;" d="M297.237,431.111c2.718,1.345,1.762,7.704-1.445,11.231c-3.207,3.527-15.409,10.464-17.88,11.027
			l-19.562-9.683c0,0,0.943-3.349,4.746-2.684c3.803,0.665,5.465,1.244,10.098,0.249L297.237,431.111z"/>
		<path style="fill:#C66D5D;" d="M366.092,312.587c0,0-47.87,93.353-68.855,118.524l-9.01-4.46c0,0,50.757-104.213,56.48-119.403
			L366.092,312.587z"/>
		<path style="fill:#373A52;" d="M297.9,439.012c0,0-8.073,15.547-9.642,19.479l-1.75-0.866c0,0,6.544-15.19,8.098-17.343
			L297.9,439.012z"/>
		<path style="fill:#C66D5D;" d="M297.237,431.111c0,0-7.295,11.733-14.849,14.692l-9.194-4.551c0,0,10.446-5.85,15.033-14.6
			L297.237,431.111z"/>
		<path style="fill:#373A52;" d="M406.214,422.167c2.281-1.998,7.793,1.313,9.828,5.624c2.035,4.311,3.788,18.237,3.365,20.736
			l-16.419,14.383c0,0-2.735-2.15-0.668-5.411c2.067-3.261,3.236-4.576,4.086-9.238L406.214,422.167z"/>
		<path style="fill:#C66D5D;" d="M370.497,363.234c0,0,17.994-41.661,21.667-49.911l-27.633-6.075c0,0-19.274,59.66-15.957,64.586
			c4.725,7.02,40.201,48.199,50.078,56.957l7.562-6.625C385.803,396.528,370.497,363.234,370.497,363.234z"/>
		<path style="fill:#C66D5D;" d="M406.214,422.167c0,0,8.058,11.223,7.909,19.333l-7.717,6.76c0,0-1.418-11.888-7.754-19.469
			L406.214,422.167z"/>
		<path style="fill:#2C4047;" d="M352.553,249.801c0,0,29.475,4.868,51.707,4.513c0,0,6.442,20.104,3.548,41.812
			c-3.005,22.536-25.04,52.835-25.04,52.835s-24.79-3.414-55.84-18.442C326.927,330.519,345.457,289.371,352.553,249.801z"/>
		<path style="fill:#334A52;" d="M387.039,341.907c-10.35-0.921-20.695-2.277-30.735-5.027c-0.499-0.137-0.988-0.292-1.483-0.436
			c2.603-5.315,4.675-10.991,6.586-16.503c2.556-7.373,4.646-14.904,6.382-22.51c1.745-7.648,3.141-15.373,4.314-23.129
			c0.564-3.732,1.077-7.472,1.553-11.217c0.498-3.917,1.23-7.941,1.33-11.889c0.018-0.688-1.087-0.866-1.224-0.166
			c-0.717,3.671-0.91,7.492-1.375,11.205c-0.489,3.907-1.019,7.809-1.606,11.702c-1.147,7.616-2.51,15.202-4.208,22.716
			c-1.688,7.473-3.699,14.877-6.162,22.133c-2.009,5.919-4.511,11.56-7.023,17.236c-8.444-2.591-16.39-6.205-24.298-10.185
			c-0.434-0.219-0.793,0.388-0.382,0.653c7.492,4.825,15.647,8.278,24.12,10.797c-0.489,1.106-0.977,2.214-1.46,3.328
			c-0.27,0.622,0.572,1.164,0.935,0.547c0.666-1.134,1.289-2.303,1.894-3.485c10.697,3.042,21.869,4.648,32.843,5.646
			C387.946,343.407,387.942,341.988,387.039,341.907z"/>
		<path style="fill:#334A52;" d="M408.04,269.992c-3.658-1.205-6.68-3.488-9.058-6.5c-1.122-1.421-2.067-2.96-2.889-4.571
			c-0.345-0.676-2.18-3.683-1.982-4.31c0.062-0.197-0.106-0.398-0.304-0.399c-0.051,0-0.103,0-0.154-0.001
			c-0.136-0.001-0.313,0.079-0.37,0.212c-0.488,1.15,0.492,2.702,0.944,3.768c0.935,2.204,2.119,4.309,3.574,6.213
			c2.519,3.297,5.86,5.821,9.825,7.091C408.584,271.801,408.989,270.304,408.04,269.992z"/>
		<path style="fill:#334A52;" d="M360.537,250.949c-1.593,2.725-2.205,5.745-4.232,8.283c-1.973,2.47-4.482,4.035-6.994,5.873
			c-0.44,0.322-0.202,1.185,0.406,0.963c5.792-2.122,11.095-8.714,11.87-14.835C361.661,250.653,360.798,250.502,360.537,250.949z"
			/>
		<path style="fill:#ECE5DD;" d="M359.658,206.087c0,0-2.945,28.427-7.106,43.714c0,0,29.763,12.175,51.707,4.513
			c0,0-2.696-19.431-7.529-48.227H359.658z"/>
		<path style="fill:#441B15;" d="M382.763,108.915c-6.709-3.402-15.31-2.68-21.358,1.792c-1.555,1.15-2.965,2.549-3.862,4.262
			c-1.318,2.517-1.424,5.47-1.504,8.31c-0.315,11.267-1.326,24.664-5.293,35.232c18.304-2.063,37.238-1.778,51.318,3.819
			c4.59-12.504,7.512-27.129,7.341-40.448c-0.044-3.456-0.268-6.984-1.56-10.19c-1.293-3.206-3.825-6.08-7.161-6.987
			C395.439,103.279,387.001,105.513,382.763,108.915z"/>
		<path style="fill:#C66D5D;" d="M431.274,249.282c0,0-3.358,2.073-7.837,7.698c-1.437,1.805,2.173,8.958,3.331,9.056
			c1.158,0.098,1.828-2.84,1.828-2.84s1.945,0.772,2.415-0.066c0.47-0.837,0.174-1.977,0.174-1.977s1.897,1.821,2.556,0.881
			c0.659-0.94-1.62-3.744-1.62-3.744s4.071-1.882,4.348-6.38L431.274,249.282z"/>
		<path style="fill:#373A52;" d="M413.77,424.571c0,0,11.286,13.398,14.321,16.349l-1.469,1.287c0,0-11.54-11.848-12.937-14.106
			L413.77,424.571z"/>
		<path style="fill:#9D4541;" d="M406.546,233.569c0,0-4.346-10.176-5.517-18.029c-3.388-22.716,2.988-49.075,2.988-49.075
			s-30.452-3.749-37.803-0.214c-7.351,3.535-14.381,23.31-13.88,32.825c0.501,9.515,4.63,12.896-0.814,32.333
			C351.52,231.409,370.592,247.279,406.546,233.569z"/>
		<path style="fill:#ECE5DD;" d="M367.79,165.688c0,0-6.149,29.758,4.509,31.448c15.079,2.391,21.571-29.861,21.571-29.861
			C395.278,159.903,368.119,159.07,367.79,165.688z"/>
		<g>
			<g>
				<g>
					<g>
						<g>
							<path style="fill:#C66D5D;" d="M376.498,179.118c10.569,1.825,13.264-26.307,13.264-26.307l-0.003,0.002l-15.636,5.357
								l-0.468,3.867C373.654,162.038,370.391,178.063,376.498,179.118z"/>
						</g>
					</g>
				</g>
			</g>
		</g>
		<path style="fill:#0D0000;" d="M374.123,158.171l-0.468,3.867c0,0,12.737,1.488,16.003-8.653L374.123,158.171z"/>
		<g>
			<g>
				<g>
					<g>
						<path style="fill:#B65E5A;" d="M367.79,137.147c0,0-0.714-3.19-3.822-2.832c-3.108,0.359-4.112,12.993,3.491,12.688
							L367.79,137.147z"/>
					</g>
				</g>
			</g>
		</g>
		<g>
			<g>
				<g>
					<g>
						<g>
							<path style="fill:#C66D5D;" d="M397.348,138.658c-1.833,7.05-6.901,19.421-19.789,20.365
								c-7.008,0.509-12.218-3.086-13.791-11.167c-0.132-0.67-0.192-1.344-0.262-2.011c0.002-0.008-0.004-0.027-0.002-0.036
								c-0.082-0.793-0.137-1.59-0.187-2.369c-0.002-0.036-0.006-0.063-0.008-0.099c-0.012-0.223-0.016-0.436-0.029-0.651
								c-0.017-0.383-0.027-0.757-0.037-1.13c-0.004-0.072-0.002-0.133,0.001-0.194c-0.085-3.87,0.214-7.236,0.474-8.964
								c0.089-0.576,0.185-1.186,0.301-1.809c1.026-5.706,4.122-14.34,16.476-14.791c8.811-0.315,18.327,9.145,17.741,18.619
								C398.234,134.42,398.006,136.12,397.348,138.658z"/>
						</g>
					</g>
				</g>
			</g>
		</g>
		<g>
			<g>
				<g>
					<g>
						<g>
							<path style="fill:#0D0000;" d="M380.206,139.602c-0.059,1.007,0.339,1.85,0.888,1.882c0.549,0.032,1.042-0.758,1.101-1.766
								c0.059-1.007-0.339-1.85-0.888-1.882C380.758,137.804,380.265,138.594,380.206,139.602z"/>
						</g>
					</g>
				</g>
			</g>
		</g>
		<g>
			<g>
				<g>
					<g>
						<g>
							<path style="fill:#0D0000;" d="M368.129,138.305c-0.059,1.007,0.339,1.85,0.888,1.882c0.549,0.032,1.042-0.759,1.101-1.766
								c0.059-1.007-0.339-1.85-0.888-1.882C368.681,136.508,368.188,137.298,368.129,138.305z"/>
						</g>
					</g>
				</g>
			</g>
		</g>
		<path style="fill:#441B15;" d="M374.488,131.506c-0.014,0.585-3.287,0.983-5.219,0.937c-1.932-0.046-2.586-0.536-2.572-1.122
			c0.014-0.585,2.386-1.004,4.318-0.958C372.947,130.409,374.502,130.921,374.488,131.506z"/>
		<path style="fill:#441B15;" d="M378.726,132.281c-0.143,0.568,2.905,1.826,4.779,2.298c1.874,0.472,2.635,0.175,2.778-0.393
			c0.143-0.568-2.031-1.606-3.905-2.078C380.504,131.636,378.869,131.714,378.726,132.281z"/>
		<path style="fill:#B65E5A;" d="M375.627,147.066c-0.372-0.118-2.291-0.735-2.371-1.186c-0.047-0.264,0.613-1.004,0.786-1.288
			c0.709-1.169,1.181-2.436,1.489-3.764c0.126-0.545-0.728-0.703-0.854-0.159c-0.257,1.109-0.637,2.17-1.195,3.164
			c-0.303,0.541-1.228,1.348-1.181,2.049c0.076,1.118,2.347,1.779,3.168,2.039C376,148.089,376.154,147.232,375.627,147.066z"/>
		<g>
			<g>
				<g>
					<g>
						<path style="fill:#FFFFFF;" d="M380.755,150.505c0,0-6.572-0.368-10.137-1.486c0,0-0.837,4.416,4.808,4.841
							C380.096,154.212,380.755,150.505,380.755,150.505z"/>
					</g>
				</g>
			</g>
		</g>
		<g>
			<g>
				<g>
					<g>
						<g>
							<path style="fill:#B65E5A;" d="M381.915,144.908c-0.061,0.941,1.411,1.803,3.288,1.924c1.877,0.122,3.448-0.543,3.509-1.484
								c0.061-0.941-1.411-1.802-3.288-1.924C383.546,143.303,381.976,143.967,381.915,144.908z"/>
						</g>
					</g>
				</g>
			</g>
		</g>
		<g>
			<g>
				<g>
					<g>
						<g>
							<g>
								<path style="fill:#B65E5A;" d="M368.117,144.528c-0.06,0.943-1.634,1.606-3.512,1.486c-0.384-0.027-0.753-0.087-1.1-0.169
									c0.002-0.008-0.004-0.027-0.002-0.036c-0.082-0.793-0.137-1.59-0.187-2.369c-0.002-0.036-0.006-0.063-0.008-0.099
									c-0.012-0.223-0.016-0.436-0.029-0.651c0.468-0.09,1.004-0.123,1.554-0.082C366.71,142.728,368.178,143.585,368.117,144.528
									z"/>
							</g>
						</g>
					</g>
				</g>
			</g>
		</g>
		<g>
			<g>
				<g>
					<g>
						<g>
							<g>
								<path style="fill:#C66D5D;" d="M395.761,137.223c0,0,1.996-3.23,5.271-1.655c3.274,1.575-0.426,15.82-8.653,12.597
									L395.761,137.223z"/>
							</g>
						</g>
					</g>
				</g>
			</g>
		</g>
		<path style="fill:#B65E5A;" d="M399.233,142.976c-0.498-0.054-0.971-0.023-1.434,0.087c0.289-1.014,0.76-2.313,1.593-2.62
			c0.524-0.193,0.233-1.012-0.294-0.818c-1.463,0.54-2,2.682-2.357,4.029c-0.081,0.305,0.283,0.624,0.574,0.488
			c0.571-0.267,1.127-0.38,1.758-0.311C399.627,143.89,399.79,143.036,399.233,142.976z"/>
		<path style="fill:#9D4541;" d="M404.017,166.465c14.208,1.039,38.138,27.48,44.898,43.667s-11.694,43.031-11.694,43.031
			l-7.763-4.006c0,0,11.018-20.533,6.51-33.673c-5.941-17.318-41.097-22.901-41.097-22.901S390.441,165.473,404.017,166.465z"/>
		<path style="fill:#873C38;" d="M354.129,204.607c0,0,18.269,5.873,32.891,3.14c0,0-9.855,4.323-14.069,3.864
			s-4.944-2.673-11.122-2.121C356.57,209.959,355.256,206.047,354.129,204.607z"/>
		<path style="fill:#441B15;" d="M376.858,113.899c-0.812,1.902-1.387,3.906-1.706,5.949c-0.247,1.579-0.327,3.265,0.362,4.707
			c1.187,2.482,4.182,3.435,6.878,3.985c2.851,0.582,5.751,1.005,8.493,1.977c2.742,0.972,5.711,2.362,7.314,4.79
			c3.108-6.538,1.854-14.985-3.377-19.99c-0.935-0.895-1.976-1.69-3.134-2.269c-1.738-0.869-3.68-1.225-5.592-1.572
			c-1.648-0.299-3.328-0.598-4.987-0.378C379.45,111.32,377.516,112.359,376.858,113.899z"/>
		<path style="fill:#441B15;" d="M396.996,124.407c0,0-4.452,11.263-0.889,12.584c2.624,0.973,5.687-10.568,5.687-10.568
			L396.996,124.407z"/>
		<path style="fill:#873C38;" d="M399.216,174.317c0,0-7.443,10.955,1.028,19.359C400.244,193.676,395.983,185.195,399.216,174.317z
			"/>
		<path style="fill:#873C38;" d="M353.017,191.607c0,0,1.602-12.404,7.728-20.023C360.745,171.584,350.746,180.609,353.017,191.607z
			"/>
		<path style="fill:#E0DAD2;" d="M358.118,248.286c0,0,17.611,8.445,41.839,2.794C399.956,251.081,371.501,253.265,358.118,248.286z
			"/>
		<path style="fill:#873C38;" d="M321.676,145.134c-0.086-0.136-0.272-0.132-0.359,0c-0.968,1.467-0.65,3.387-0.741,5.095
			c-0.121,2.267-0.294,4.53-0.489,6.792c-0.093,1.079,1.592,1.073,1.684,0c0.194-2.261,0.329-4.524,0.398-6.792
			C322.221,148.523,322.616,146.625,321.676,145.134z"/>
		<path style="fill:#873C38;" d="M439.924,222.207c-1.351-2.934-2.523-6.145-4.294-8.852c-0.306-0.468-1.077-0.181-0.922,0.389
			c0.864,3.178,2.526,6.256,3.845,9.264C438.96,223.935,440.352,223.135,439.924,222.207z"/>
		<path style="fill:#873C38;" d="M336.845,110.087c-1.183-1.218-2.762-1.954-4.144-2.819c-1.398-0.876-2.788-1.881-4.303-2.447
			c-0.339-0.127-0.654,0.45-0.362,0.73c1.229,1.18,2.691,2.001,4.077,2.898c1.372,0.889,2.764,2.056,4.278,2.555
			C336.822,111.146,337.204,110.457,336.845,110.087z"/>
		<path style="fill:#873C38;" d="M440.592,247.68c-1.1-0.94-2.624-1.21-3.988-1.636c-1.719-0.537-3.468-1.132-5.25-1.411
			c-0.539-0.084-0.72,0.6-0.223,0.808c1.565,0.657,3.225,1.1,4.829,1.659c1.389,0.484,2.849,1.311,4.33,1.307
			C440.638,248.408,440.882,247.928,440.592,247.68z"/>
		<path style="fill:#923D40;" d="M371.665,364.298c-0.435-1.125-0.947-2.212-1.56-3.252c-0.471-0.798-1.009-1.809-1.902-2.169
			c-0.129-0.052-0.286,0.08-0.277,0.211c0.056,0.868,0.674,1.631,1.083,2.377c0.561,1.02,1.029,2.08,1.44,3.169
			C370.734,365.387,371.958,365.055,371.665,364.298z"/>
	</g>
	<path style="fill:#2C4047;" d="M440.275,322.159c1.673-1.567,2.735-3.425,3.289-5.405c7.969,0.347,13.566,6.462,14.891,14.03
		c0.122,0.694,1.305,0.608,1.253-0.117c-0.613-8.484-7.801-14.722-15.844-15.278c0.961-5.978-2.348-12.701-7.566-15.919
		c-1.303-0.804-2.894-1.471-4.544-1.819c-0.032-0.233-0.072-0.452-0.121-0.654c-0.982-4.061-5.77-8.793-10.259-7.068
		c-0.032,0.012-0.021,0.058,0.006,0.068c3.253,1.184,6.435,1.856,8.232,5.199c0.308,0.574,0.554,1.36,0.719,2.239
		c-2.204-0.198-4.395,0.259-6.039,1.813c-2.341,2.211-1.799,7.294,1.79,7.99c4.094,0.794,5.747-4.446,5.757-8.153
		c2.419,0.569,4.665,1.96,6.394,3.694c3.227,3.237,5.016,8.116,4.179,12.564c-1.106,0.019-2.22,0.133-3.331,0.38
		c-2.753,0.612-8.936,3.027-7.524,6.99C432.854,326.352,438.429,323.888,440.275,322.159z M426.687,305.713
		c-2.089-0.046-3.108-2.669-2.192-4.476c0.946-1.868,3.254-2.47,5.203-2.436c0.275,0.005,0.547,0.037,0.819,0.065
		C430.748,302.088,429.832,305.783,426.687,305.713z M433.066,320.973c0.093-0.457,0.52-0.908,0.823-1.23
		c1.928-2.048,5.283-2.871,8.174-2.993c-0.361,1.105-0.901,2.168-1.642,3.153c-0.868,1.155-2.024,2.177-3.371,2.73
		c-0.578,0.238-1.88,0.691-2.508,0.465C433.858,322.852,432.948,321.556,433.066,320.973z"/>
	<path style="fill:#D76957;" d="M476.758,162.993c-1.197-3.957-6.394-5.111-9.775-3.167c-1.924,1.106-3.266,2.947-3.721,5.118
		c-0.578,2.759,0.471,6.196-1.279,8.628c-2.168,3.01-7.165,2.482-10.407,2.772c-2.727,0.243-6.624,0.906-7.643,3.92
		c-0.278,0.823,0.734,1.337,1.291,0.718c2.256-2.504,4.795-2.846,8.058-3.064c2.73-0.183,5.782-0.186,8.178-1.69
		c3.313-2.079,2.986-5.749,3.116-9.201c0.115-3.052,1.64-5.872,4.82-6.629c2.809-0.668,5.187,0.957,7.142,2.77
		C476.658,163.277,476.794,163.112,476.758,162.993z"/>
	<path style="fill:#FFAE83;" d="M424.997,91.28c-1.448,6.771,2.964,12.844,2.161,19.67c-0.409,3.478-1.669,6.854-3.728,9.694
		c-1.916,2.644-4.831,4.994-4.913,8.528c-0.044,1.873,0.842,3.942,2.762,4.519c1.824,0.549,4.139-0.319,4.332-2.368
		c0.05-0.529-0.63-0.664-0.861-0.224c-0.863,1.638-2.656,1.714-3.787,0.551c-0.854-0.879-1.036-1.771-0.857-2.974
		c0.258-1.739,1.373-3.143,2.458-4.457c1.56-1.888,3.058-3.681,4.151-5.891c1.998-4.042,2.727-8.742,2.013-13.196
		c-0.841-5.247-3.382-9.642-1.648-15.055c1.575-4.915,5.121-8.371,7.942-12.523c0.432-0.636-0.384-1.613-1.016-1.022
		C429.97,80.305,426.165,85.815,424.997,91.28z"/>
	<path style="fill:#2C4047;" d="M324.183,261.884c-0.299-2.727-0.885-5.44-1.397-8.134c-0.35-1.843-0.75-3.753-2.001-5.221
		c-1.212-1.422-2.966-2.07-4.675-2.68c-1.443-0.516-2.94-0.922-4.084-2.005c-1.406-1.33-1.42-2.666-1.158-4.436
		c0.058-0.39-0.333-0.738-0.704-0.512c-1.447,0.879-1.288,2.692-0.613,4.081c0.911,1.873,2.588,2.975,4.486,3.679
		c3.319,1.231,6.135,1.986,7.152,5.802c0.841,3.156,1.206,6.429,2.093,9.575C323.421,262.522,324.241,262.413,324.183,261.884z"/>
	<path style="fill:#80BE95;" d="M308.816,62.011c0.215-0.544,0.434-1.085,0.642-1.632c0.727-1.915,1.423-3.844,2.051-5.794
		c0.573-1.781,1.469-3.75,1.288-5.637c-0.019-0.2-0.297-0.39-0.456-0.189c-0.961,1.222-1.266,2.745-1.768,4.203
		c-0.668,1.939-1.351,3.873-2.082,5.79c-0.304,0.797-0.622,1.589-0.941,2.38c-2.354-1.243-5.266-0.903-7.17,1.418
		c-2.816,3.432-0.691,8.261,3.407,9.265c0.32,0.078,0.746-0.046,0.899-0.366c1.246-2.596,2.418-5.224,3.509-7.887
		c2.318,2.399,2.032,6.497,0.671,9.354c-2.629,5.52-10.394,10.961-8.835,17.783c0.106,0.463,0.854,0.478,0.951,0
		c0.672-3.312,1.669-6.066,3.645-8.84c1.699-2.386,3.684-4.574,5.125-7.138c2.118-3.769,2.771-8.416-0.189-11.955
		C309.332,62.488,309.079,62.242,308.816,62.011z M303.58,70.081c-5.396-2.013-1.933-10.308,3.193-7.594
		c0.063,0.033,0.116,0.074,0.177,0.109C305.896,65.121,304.771,67.617,303.58,70.081z"/>
	<path style="fill:#A9E0E5;" d="M75.586,112.272c4.25-8.603,8.504-21.656,0.952-27.622c0.612-1.637,1.008-3.169,1.137-4.376
		c1.229-11.517-7.437-19.941-19.304-19.837c-1.704,0.015-2.353,2.563-0.636,2.548c7.71-0.068,14.392,3.653,16.603,10.461
		c0.926,2.851,1.068,6.479,0.198,9.943c-0.254-0.128-0.51-0.256-0.783-0.373c-3.943-1.686-9.884-1.052-12.964,3.204
		c-2.271,3.138-2.397,7.653,0.745,9.423c5.665,3.192,10.804-2.309,13.708-8.041c0.479,0.511,0.895,1.051,1.212,1.6
		c3.785,6.57,0.276,15.132-3.241,22.251C72.437,113.023,74.806,113.851,75.586,112.272z M69.255,91.88
		c-1.545,1.209-3.628,2.366-5.475,1.778c-3.276-1.043-1.932-5.686,0.356-7.496c3.178-2.513,6.818-1.802,9.449,0.011
		C72.633,88.346,71.221,90.341,69.255,91.88z"/>
	<path style="fill:#80BE95;" d="M469.706,134.675c-0.776,0.887-1.478,1.831-2.251,2.716c-1.178,1.347,0.629,3.02,2.036,2.512
		c2.61-0.942,5.329-2.748,6.459-5.4c0.938-2.202-1.992-4.277-3.785-2.732C471.188,132.611,470.548,133.712,469.706,134.675z"/>
	<path style="fill:#A9E0E5;" d="M471.396,206.219c-0.628,0.185-1.036,0.539-1.44,1.048c-0.234,0.294-0.437,0.579-0.622,0.907
		c-0.462,0.821-0.444,1.971,0.268,2.664c0.659,0.642,1.822,0.969,2.651,0.422c0.477-0.315,0.913-0.643,1.332-1.028
		c0.715-0.656,1.02-1.997,0.454-2.851c-0.246-0.371-0.434-0.646-0.829-0.877C472.696,206.204,471.983,206.046,471.396,206.219z"/>
	<path style="fill:#80BE95;" d="M259.922,81.979c-0.266-2.242-2.794-2.98-4.157-1.126c-0.799,1.086-1.275,2.779-1.329,4.112
		c-0.098,2.406,3.484,3.418,4.6,1.246C259.646,85.022,260.081,83.321,259.922,81.979z"/>
	<path style="fill:#A9E0E5;" d="M185.38,55.407c-0.859,0.969-1.329,2.27-1.592,3.531c-0.348,1.669-0.346,3.169,1.204,4.192
		c0.542,0.358,1.25,0.287,1.797,0c1.217-0.638,1.391-1.689,1.709-2.893c0.236-0.894,0.702-1.558,0.949-2.462
		C190.062,55.522,187.036,53.54,185.38,55.407z"/>
	<path style="fill:#80BE95;" d="M412.538,62.77c-1.299,1.718-3.486,6.756-0.374,7.779c0.038,0.013,0.077,0.025,0.115,0.038
		c0.832,0.273,1.781,0.037,2.416-0.555c1.361-1.269,2.594-3.039,3.172-4.822c0.456-1.404-0.291-2.942-1.602-3.541
		C414.855,61.024,413.44,61.577,412.538,62.77z"/>
	<path style="fill:#80BE95;" d="M56.124,122.845c-1.743,1.639-2.83,4.647-1.275,6.786c0.558,0.768,1.327,1.261,2.32,1.111
		c0.901-0.135,1.692-0.759,1.935-1.668c0.431-1.608,0.05-3.261,0.236-4.897C59.536,122.455,57.205,121.829,56.124,122.845z"/>
	<path style="fill:#A9E0E5;" d="M300.436,291.039c-0.556-1.354-1.561-1.921-3.02-1.715c-0.495,0.07-0.893,0.369-1.26,0.682
		c-0.216,0.184-0.158,0.152,0.177-0.097c-0.183,0.142-0.366,0.283-0.55,0.425c-0.178,0.171-0.422,0.396-0.602,0.608
		c-1.268,0.042-2.437,1.224-2.011,2.616c0.023,0.086,0.061,0.167,0.095,0.249c0.123,0.704,0.528,1.341,1.172,1.732
		c1.261,0.765,2.767,0.543,3.955-0.236c0.616-0.404,1.156-0.919,1.554-1.544c0.187-0.225,0.312-0.486,0.375-0.783
		c-0.241,0.54-0.202,0.441,0.116-0.298C300.595,292.158,300.648,291.554,300.436,291.039z"/>
	<path style="fill:#A9E0E5;" d="M151.159,74.658c-0.115-0.209-0.247-0.405-0.372-0.609c-0.014-0.022-0.082-0.145-0.136-0.24
		c-0.047-0.128-0.166-0.413-0.182-0.457c-0.081-0.222-0.16-0.447-0.233-0.672c-0.171-0.534-0.256-1.097-0.564-1.581
		c-0.444-0.699-1.382-1.307-2.242-1.231c-0.029,0.003-0.058,0.005-0.087,0.008c-1.237,0.111-2.145,0.886-2.48,2.067
		c-0.532,1.874,0.003,4.42,1.188,5.962c0.962,1.252,2.756,1.926,4.178,0.929C151.643,77.845,151.979,76.146,151.159,74.658z"/>
	<path style="fill:#80BE95;" d="M114.632,77.679c-0.312-0.979-0.858-1.885-1.462-2.709c-0.458-0.624-1.199-1.351-2.02-1.604
		c-1.257-0.576-2.861,0.307-2.739,1.85c-0.044-0.205-0.073-0.183-0.083,0.102c-0.048,0.295-0.066,0.592-0.055,0.89
		c0.032,0.465,0.175,0.911,0.309,1.353c0.254,0.836,0.569,1.692,1.057,2.421c0.77,1.153,2.234,1.59,3.492,1.008
		C114.355,80.423,115.054,79.004,114.632,77.679z"/>
	<path style="fill:#80BE95;" d="M188.725,239.459c-1.072,0.752-2.125,1.494-3.127,2.338c-0.802,0.676-1.078,1.822-0.43,2.715
		c0.68,0.938,1.791,0.937,2.715,0.43c1.151-0.631,2.227-1.346,3.318-2.076C193.447,241.364,190.952,237.897,188.725,239.459z"/>
	<path style="fill:#A9E0E5;" d="M207.049,257.129c-0.402-0.412-0.87-0.535-1.386-0.49c-1.344-0.017-2.271,1.077-2.824,2.227
		c-0.228,0.473-0.382,0.981-0.427,1.504c-0.085,0.996,0.045,1.647,0.795,2.366c0.537,0.516,1.397,0.413,1.971,0.054
		c0.698-0.437,1.117-1.45,1.407-2.224c0.006-0.017,0.007-0.023,0.01-0.032c0.011-0.014,0.019-0.023,0.034-0.043
		c0.182-0.24,0.346-0.456,0.493-0.73c0.192-0.359,0.324-0.777,0.347-1.192C207.554,258.052,207.443,257.533,207.049,257.129z"/>
	<path style="fill:#A9E0E5;" d="M176.017,196.479c-2.419,4.247-4.481,10.281-4.907,16.186c-3.285,0.314-6.433,1.869-8.671,4.807
		c-5.41,7.102-4.633,16.795,0.909,23.51c0.481,0.583,1.413-0.072,0.96-0.698c-5.532-7.641-3.217-24.9,6.72-25.498
		c-0.01,4.028,0.829,7.886,2.94,10.948c4.953,7.181,15.051,1.311,10.297-6.428c-2.383-3.879-6.336-6.165-10.407-6.617
		c0.133-5.33,1.359-10.804,3.213-15.731C177.335,196.253,176.384,195.834,176.017,196.479z M181.574,220.047
		c2.47,2.165,1.721,4.38-2.249,6.646c-1.124-0.8-2.249-1.6-3.373-2.4c-1.862-2.172-1.982-6.447-2.081-9.249
		c0.928,0.213,1.901,0.54,2.931,1.023C178.817,217.013,180.244,218.286,181.574,220.047z"/>
	<path style="fill:#A9E0E5;" d="M66.839,332.351c-7.018,0.493-17.73-2.625-20.783,6.342c-3.111,9.137,6.655,18.576,15.083,19.838
		c0.85,0.127,1.06-1.065,0.249-1.297c-6.135-1.758-12.49-6.038-14.081-12.631c-0.851-3.527,0.185-7.485,3.4-9.451
		c2.49-1.523,5.609-1.657,8.445-1.553c4.961,0.182,10.327,1.123,14.621-2.046c1.278-0.943,2.312-2.122,3.099-3.442
		c1.719,0.136,3.483-0.145,5.192-0.966c4.373-2.099,7.197-6.717,7.528-11.493c0.38-5.483-1.966-10.35-5.302-14.525
		c-0.226-0.283-0.69,0.008-0.477,0.314c4.885,7.044,7.354,18.693-1.45,23.954c-1.541,0.921-3.171,1.337-4.778,1.334
		c1.003-2.293,1.327-4.888,0.901-7.404c-0.666-3.933-3.017-8.071-6.957-9.451c-3.391-1.188-6.452,0.655-6.661,4.34
		c-0.352,6.197,4.537,12.267,10.373,13.642C73.363,330.471,70.313,332.107,66.839,332.351z M69.899,323.115
		c-1.519-1.668-2.626-3.74-3.199-5.919c-0.785-2.985-0.1-7.084,3.855-6.099c4.766,1.188,7.066,7.311,6.589,11.733
		c-0.149,1.377-0.536,2.638-1.116,3.762C73.748,326.198,71.592,324.973,69.899,323.115z"/>
	<path style="fill:#FFAE83;" d="M53.907,267.557c-0.036-3.081,1.017-6.365,4.038-7.738c3.452-1.569,5.127,2.211,8.343,1.949
		c0.782-0.064,0.989-1.229,0.157-1.419c-2.703-0.615-4.41-3.068-7.395-2.633c-1.946,0.284-3.667,1.5-4.862,3.024
		c-3.863,4.927-0.986,11.389-0.557,16.882c0.282,3.609-0.448,7.411-3.88,9.281c-2.638,1.437-5.979,1.363-8.764,0.411
		c-3.086-1.056-5.365-3.534-8.689-4.021c-2.903-0.425-5.857,0.312-8.628,1.107c-0.767,0.22-0.434,1.357,0.335,1.185
		c3.688-0.826,7.511-1.745,11.024,0.164c2.514,1.366,4.551,3.014,7.426,3.573c4.264,0.828,9.138-0.305,11.476-4.246
		C57.168,279.62,53.975,273.308,53.907,267.557z"/>
	<path style="fill:#80BE95;" d="M450.722,276.844c-0.735-0.625-1.783-0.727-2.55-0.091c-0.687,0.57-1.039,1.717-0.458,2.509
		c0.83,1.133,0.935,2.276,1.346,3.593c0.611,1.959,3.129,1.72,3.758-0.058C453.567,280.681,452.333,278.214,450.722,276.844z"/>
	<path style="fill:#80BE95;" d="M459.491,259.577c-0.811-0.123-1.627,0.139-2.041,0.898c-0.366,0.671-0.274,1.693,0.346,2.198
		c0.963,0.785,1.683,1.366,2.294,2.379c0.589,0.976,1.92,1.306,2.896,0.717c1.043-0.629,1.228-1.872,0.717-2.896
		C462.929,261.318,461.24,259.841,459.491,259.577z"/>
	<path style="fill:#A9E0E5;" d="M35.915,221.712c-0.803-0.545-1.667-0.364-2.37,0.245c-0.782,0.677-1.58,1.343-2.288,2.099
		c-0.849,0.906-1.778,1.73-1.705,3.073c0.056,1.02,0.971,1.841,1.994,1.784c1.381-0.076,2.125-1.14,2.945-2.122
		c0.727-0.872,1.352-1.832,1.997-2.765C36.994,223.293,36.584,222.165,35.915,221.712z"/>
	<path style="fill:#A9E0E5;" d="M44.842,241.321c-0.09-1.247-1.422-1.853-2.467-1.259c-0.809,0.46-1.256,1.077-1.795,1.852
		c-0.519,0.746-1.047,1.627-0.879,2.571c0.199,1.116,1.276,2.311,2.56,1.752c1.039-0.452,1.596-1.196,2.004-2.234
		C44.626,243.084,44.913,242.311,44.842,241.321z"/>
	<path style="fill:#80BE95;" d="M306.224,108.53c-0.485-0.829-1.815-1.33-2.662-0.698c-1.109,0.828-4.17,3.056-2.061,4.495
		c0.205,0.128,0.413,0.206,0.652,0.239c0.423,0.057,0.88-0.042,1.28-0.186c0.749-0.27,1.437-0.747,2.093-1.187
		C306.397,110.607,306.778,109.478,306.224,108.53z"/>
	<path style="fill:#A9E0E5;" d="M277.495,60.363c-0.694,0.813-1.252,1.824-1.502,2.871c-0.255,1.066,0.035,1.945,0.336,2.955
		c0.497,1.666,2.738,1.165,3.108-0.273c-0.131,0.116-0.137,0.113-0.02-0.01c0.155-0.167,0.283-0.354,0.384-0.561
		c0.131-0.253,0.23-0.542,0.348-0.802c0.224-0.491,0.428-0.799,0.792-1.226C282.842,61.093,279.392,58.14,277.495,60.363z"/>
	<path style="fill:#80BE95;" d="M328.238,281.777c-0.901-2.942-5.674-2.533-5.534,0.749c0.068,1.578,0.285,3.272,0.643,4.815
		c0.33,1.425,1.866,2.338,3.26,2.128c1.323-0.199,2.744-1.431,2.576-2.918C329.003,284.955,328.709,283.314,328.238,281.777z"/>
	<path style="fill:#80BE95;" d="M339.924,274.652c-0.885-0.808-2.138-1.042-3.272-1.331c-1.156-0.294-2.533,0.377-2.81,1.596
		c-0.133,0.585-0.104,1.241,0.23,1.76c0.345,0.534,0.784,0.807,1.365,1.05c0.858,0.358,1.913,0.939,2.86,0.85
		c0.938-0.088,1.719-0.508,2.101-1.414C340.743,276.35,340.604,275.273,339.924,274.652z"/>
	<path style="fill:#80BE95;" d="M40.326,313.303c-1.725,1.659-2.882,4.32-3.849,6.479c-0.698,1.557-0.45,3.399,1.134,4.326
		c1.441,0.843,3.511,0.372,4.326-1.134c1.275-2.355,2.716-5.077,3.023-7.751C45.244,312.758,41.874,311.814,40.326,313.303z"/>
	<path style="fill:#80BE95;" d="M103.888,338.034c-0.136-1.167-0.24-2.357-1.066-3.153c-0.594-1.21-2.157-1.212-2.752,0
		c-0.825,0.795-0.929,1.986-1.065,3.153c-0.161,1.382-0.307,2.771-0.362,4.161c-0.145,3.608,5.753,3.614,5.608,0
		C104.195,340.805,104.05,339.416,103.888,338.034z"/>
	<path style="fill:#A9E0E5;" d="M88.162,334.122c-0.252-0.723-1.088-1.219-1.859-1.167c-0.677-0.062-1.43,0.238-1.874,0.701
		c-0.45,0.469-0.847,0.96-1.246,1.473c-0.465,0.598-0.757,1.145-0.791,1.909c-0.038,0.843,0.42,1.623,1.064,2.12
		c0.595,0.46,1.25,0.632,1.995,0.531c0.757-0.102,1.645-0.54,1.972-1.289c0.352-0.804,0.704-1.6,0.971-2.437
		C88.574,335.397,88.48,334.67,88.162,334.122z"/>
</g>
</svg>
