<?xml version="1.0" encoding="utf-8"?>
<!-- Generator: Adobe Illustrator 27.5.0, SVG Export Plug-In . SVG Version: 6.00 Build 0)  -->
<svg version="1.1" xmlns="http://www.w3.org/2000/svg" xmlns:xlink="http://www.w3.org/1999/xlink" x="0px" y="0px"
	 viewBox="0 0 500 500" style="enable-background:new 0 0 500 500;" xml:space="preserve">
<g id="BACKGROUND">
	<rect style="fill:#FFFFFF;" width="500" height="500"/>
</g>
<g id="OBJECT">
	<g>
		<g>
			<path style="fill:#F5EDE9;" d="M168.042,445.539c0,0,8.582-3.127,22.759-6.421c48.25-11.213,101.45-6.774,144.446,11.808l0,0
				c0,0-44.759,26.36-100.97,18.915C178.067,462.397,168.042,445.539,168.042,445.539z"/>
			<path style="fill:#F5EDE9;" d="M289.355,441.979c0,0,6.35-2.313,16.839-4.751c35.698-8.296,75.058-5.012,106.868,8.736h0
				c0,0-33.115,19.502-74.703,13.995C296.772,454.451,289.355,441.979,289.355,441.979z"/>
			<path style="fill:#F5EDE9;" d="M86.938,435.067c0,0,6.35-2.954,16.839-6.066c35.698-10.593,75.058-6.399,106.868,11.155h0
				c0,0-33.115,24.901-74.703,17.869C94.355,450.992,86.938,435.067,86.938,435.067z"/>
		</g>
		<g>
			<path style="fill:#FFAC1C;" d="M94.679,61.95c-0.694,0.007-1.403,0.065-2.03,0.359c-0.951,0.446-1.585,1.376-2.014,2.334
				c-2.39,5.341,0.606,11.765,5.072,15.546c4.466,3.781,10.151,5.729,15.335,8.443c4.078,2.135,7.874,4.764,11.659,7.386
				c8.193,5.677,16.938,12.096,19.691,21.676C139.988,95.055,125.411,74,104.794,64.161C101.643,62.657,98.17,61.913,94.679,61.95z"
				/>
			<path style="fill:#74A203;" d="M203.335,34.301c1.042,2.857,0.284,6.116-1.245,8.745c-1.53,2.629-3.759,4.765-5.892,6.933
				c-11.388,11.569-20.936,25.271-25.848,40.743c-4.533-16.155,0.239-33.608,8.034-48.466c2.583-4.925,5.775-9.937,10.798-12.324
				C194.204,27.544,201.43,29.076,203.335,34.301z"/>
			<path style="fill:#7F9DFF;" d="M407.618,147.966c4.343-13.4,17.3-23.552,31.35-24.563c3.323-0.239,6.778,0.017,9.762,1.498
				c2.984,1.481,5.418,4.371,5.662,7.694c0.356,4.855-3.945,8.96-8.559,10.513c-4.614,1.553-9.612,1.311-14.437,1.955
				c-6.68,0.891-13.119,3.535-18.496,7.597c-3.385,2.557-6.477,5.895-7.364,10.043C406.444,155.762,405.46,154.626,407.618,147.966z
				"/>
			<path style="fill:#E53F33;" d="M398.607,57.776c3.152-1.84,7.335-0.982,10.269,1.19c2.933,2.172,4.858,5.42,6.546,8.657
				c2.369,4.542,4.449,9.308,5.272,14.364c1.607,9.874-1.71,19.895-6.022,28.923c-4.006,8.387-9.602,16.923-18.388,19.954
				c5.725-11.551,9.337-24.889,6.033-37.35c-2.289-8.634-7.788-16.475-8.149-25.4C394.009,64.174,395.201,59.764,398.607,57.776z"/>
			<path style="fill:#7F9DFF;" d="M49.572,352.552c3.348-2.77,7.832-3.755,12.169-4.033c9.55-0.612,19.393,1.919,27.05,7.658
				c7.658,5.739,12.938,14.767,13.49,24.32c-9.435-13.536-28.776-19.108-43.966-12.667c-3.454,1.465-7.501,3.452-10.681,1.46
				c-2.121-1.329-2.963-4.054-2.931-6.557C44.752,358.85,46.581,355.026,49.572,352.552z"/>
			<path style="fill:#770D31;" d="M444.78,327.091c-0.577-3.418-3.431-6.14-6.685-7.333c-3.254-1.193-6.848-1.07-10.27-0.517
				c-10.378,1.677-20.068,7.3-26.674,15.478c-6.605,8.178-10.064,18.835-9.52,29.333c0.741-8.275,8.224-14.123,15.284-18.502
				c2.533-1.571,5.125-3.105,7.964-4.013c3.944-1.261,8.161-1.254,12.297-1.458c4.136-0.205,8.406-0.678,11.988-2.756
				C442.746,335.245,445.468,331.174,444.78,327.091z"/>
			<path style="fill:#097D6A;" d="M430.057,276.616c0.963,0.826,1.636,1.939,2.176,3.087c3.879,8.256,1.047,18.578-5.173,25.25
				c-6.22,6.672-15.202,10.158-24.183,11.753c4.843-5.609,9.845-11.519,11.545-18.732c0.833-3.532,0.823-7.203,1.348-10.794
				c0.525-3.59,1.698-7.281,4.37-9.735C422.813,274.991,427.302,274.254,430.057,276.616z"/>
			<polygon style="fill:#E53F33;" points="73.033,54.347 77.164,62.716 86.4,64.058 79.717,70.573 81.294,79.771 73.033,75.428 
				64.772,79.771 66.35,70.573 59.667,64.058 68.903,62.716 			"/>
			<polygon style="fill:#7F9DFF;" points="164.369,95.955 164.595,101.212 169.053,104.006 164.123,105.845 162.843,110.949 
				159.571,106.828 154.322,107.188 157.229,102.803 155.264,97.922 160.334,99.331 			"/>
			<polygon style="fill:#FFAC1C;" points="369.845,42.66 374.874,48.409 382.462,47.526 378.547,54.086 381.732,61.029 
				374.284,59.334 368.664,64.508 367.975,56.9 361.318,53.155 368.34,50.149 			"/>
			<polygon style="fill:#E53F33;" points="434.004,162.51 436.498,167.563 442.074,168.373 438.039,172.306 438.991,177.86 
				434.004,175.238 429.017,177.86 429.969,172.306 425.934,168.373 431.51,167.563 			"/>
			<polygon style="fill:#FFAC1C;" points="425.964,238.889 424.803,250.317 433.559,257.753 422.331,260.18 417.965,270.805 
				412.187,260.877 400.733,260.008 408.39,251.445 405.677,240.283 416.187,244.919 			"/>
			<polygon style="fill:#097D6A;" points="49.568,322.154 54.191,323.992 58.326,321.225 58.007,326.19 61.916,329.268 
				57.095,330.499 55.376,335.167 52.716,330.963 47.745,330.771 50.921,326.942 			"/>
		</g>
	</g>
	<g>
		<g>
			<g>
				<path style="fill:#E53F33;" d="M367.321,424.068c-1.334-1.704-2.343-3.628-2.993-5.664c-0.333-1.052-0.569-2.134-0.706-3.235
					c-0.132-1.065-0.693-2.03-1.591-2.618l-8.383-5.486c-1.554-1.017-3.629-0.667-4.763,0.803l-1.499,1.941l-7.654,9.923
					l31.77,20.791C372.492,434.697,370.977,428.72,367.321,424.068z"/>
				<path style="fill:#232163;" d="M352.452,426.551c-0.234,0.358-0.482,0.697-0.751,1.015l-11.97-7.833l7.654-9.923
					c0.609,0.26,1.198,0.576,1.768,0.949C354.426,414.21,355.903,421.278,352.452,426.551z"/>
				
					<rect x="335.706" y="429.852" transform="matrix(0.8367 0.5476 -0.5476 0.8367 294.2138 -123.7738)" style="fill:#232163;" width="37.968" height="3.384"/>
			</g>
			<g>
				<path style="fill:#E53F33;" d="M303.563,296.492c1.793-1.213,3.782-2.086,5.858-2.594c1.072-0.26,2.169-0.42,3.276-0.48
					c1.072-0.058,2.073-0.551,2.722-1.406l6.054-7.982c1.122-1.48,0.917-3.574-0.47-4.808l-1.833-1.63l-9.369-8.323l-22.943,30.252
					C292.601,300.914,298.669,299.817,303.563,296.492z"/>
				<path style="fill:#232163;" d="M302.117,281.487c-0.341-0.258-0.662-0.529-0.96-0.819l8.644-11.398l9.369,8.323
					c-0.301,0.589-0.658,1.155-1.069,1.698C314.292,284.312,307.137,285.295,302.117,281.487z"/>
				
					<rect x="277.997" y="281.681" transform="matrix(-0.6043 0.7968 -0.7968 -0.6043 702.2238 217.9815)" style="fill:#232163;" width="37.968" height="3.384"/>
			</g>
			<path style="fill:#643427;" d="M386.119,150.534c2.971-7.112,2.603-15.29,0.327-22.654c-2.276-7.364-5.989-13.849-10.316-20.228
				c0.454-4.457-0.074-9.092-2.081-13.098c-2.006-4.006-5.595-7.318-9.929-8.452c-4.335-1.134-9.524,0.788-12.38,4.24
				c-5.992,2.164-10.604,7.407-12.751,13.405c-2.147,5.998-1.994,12.661-0.374,18.822c1.62,6.162,4.643,11.874,8.126,17.208
				c-1.458,13.514-6.536,26.051-14.481,37.08c-2.593,3.599-5.52,7.032-7.267,11.109c-1.747,4.077-2.126,9.07,0.343,12.755
				c0.275-2.035,1.405-3.976,2.749-5.529c-0.372,9.633,5.525,19.745,14.343,23.641c9.015-10.279,18.27-20.407,26.069-31.638
				C376.296,175.965,380.848,163.15,386.119,150.534z"/>
			<path style="fill:#F27E55;" d="M330.141,285.806l-10.767-4.421c0,0-6.963,3.422-5.355,10.006l8.955,6.736L330.141,285.806z"/>
			<path style="fill:#232163;" d="M396.948,306.125c-0.49,10.78-1.46,18.7-3.18,20.61c-5.18,5.78-19.06,2.11-33.13-3.92
				c-18.37-7.87-37.05-19.74-37.05-19.74s-4.1-13.67,4.56-21l19.53,4.68l8.24,1.98l9.89-73.17l10.98-1.33l15.04-1.83l3.88,5.48
				C395.708,217.885,398.398,274.375,396.948,306.125z"/>
			<path style="fill:#F27E55;" d="M354.466,398.078l-3.526,11.093c0,0,3.98,6.66,10.41,4.519l5.981-9.476L354.466,398.078z"/>
			<path style="fill:#171642;" d="M384.676,218.732c0,0,5.989,24.859-0.557,25.885l-6.674-25.784L384.676,218.732z"/>
			<path style="fill:#171642;" d="M396.948,306.125c-0.49,10.78-1.46,18.7-3.18,20.61c-5.18,5.78-19.06,2.11-33.13-3.92l0.41-2.72
				l-13.37-33.34l8.24,1.98l9.89-73.17l10.98-1.33l0.15,0.06c0.9,0.37,1.57,1.15,1.79,2.09
				C379.388,219.205,392.198,273.875,396.948,306.125z"/>
			<path style="fill:#232163;" d="M395.708,323.735c0.1,22.34-24.24,84.34-24.24,84.34s-2.94,0.27-6.94-0.82
				c-0.32-0.08-0.64-0.17-0.97-0.28c-3.55-1.11-7.74-3.3-11.42-7.57l12-79.67l-18-44.87c0,0-33-23.13-9.61-65.46l9.61-4.44
				l29.67,12.11C375.808,217.075,395.618,301.405,395.708,323.735z"/>
			<path style="fill:#F27E55;" d="M440.538,209.705v8.22c0,0-32.73,3.65-46.73-4.57l-1.98-32.11l6.06-2.63l6.57-2.85l4.09,22.68
				L440.538,209.705z"/>
			<path style="fill:#E86E43;" d="M440.538,217.925c0,0-32.73,3.65-46.73-4.57l-1.98-32.11l6.06-2.63l2.16,0.78
				c0,0-2.24,31.07,3.76,32.37C409.808,213.075,440.538,217.925,440.538,217.925z"/>
			<path style="fill:#F27E55;" d="M324.248,137.255l-1.67,9.59l-0.03,0.04l-4.58,7.02c0,0-20.96-2.84-31.46-15.11
				c-12.05-15.16,5.42-54.23,6.22-55.97c0.01-0.04,0.02-0.06,0.02-0.06l8.06,2.29v39.57l17.16,3.95L324.248,137.255z"/>
			<path style="fill:#E86E43;" d="M322.548,146.885l-4.58,7.02c0,0-20.96-2.84-31.46-15.11c-12.05-15.16,5.42-54.23,6.22-55.97
				c-0.59,2.02-14.72,50.45,0.02,55.97C303.858,142.965,316.628,145.725,322.548,146.885z"/>
			<path style="fill:#FF951C;" d="M384.676,138.794l1.328-1.289c0,0,5.217,1.427,8.87,8.885
				c3.653,7.458,11.872,30.745,11.872,30.745s-4.566,5.746-13.242,5.632L384.676,138.794z"/>
			<path style="fill:#FFAC1C;" d="M395.468,182.235l3,34.67c-29.83,11.5-61.94-7.5-61.94-7.5l9.11-26.5l-9.83-27.17l-17.84-1.83
				c-5-9.67,0-25.33,0-25.33l32,1.83l7.34,5.83l17.09,2.56l5.37-3.39l6.24,2.1c0,0,10.96,18.23,13.46,28.23
				S395.468,182.235,395.468,182.235z"/>
			<path style="fill:#F27E55;" d="M381.218,162.475c-11.24,3.94-27.98-18.31-31.25-32.07l9.28,0.57l-0.15-10.56l-0.08-5.76
				l10.72,2.33l1.64,9.15l1.16,6.47l7.23,2.8C379.768,135.405,392.468,158.535,381.218,162.475z"/>
			<path style="fill:#CC5D32;" d="M371.378,126.135c-1.27-0.01-2.74-0.19-4.4-0.68c-3.06-0.92-5.75-2.7-7.88-5.04l-0.08-5.76
				l10.72,2.33L371.378,126.135z"/>
			<path style="fill:#F27E55;" d="M299.754,86.276l1.057-1.225c0,0,9.744-5.214,8.498-6.564c-1.246-1.35-4.723,0-4.723,0
				s3.58-7.478,2.334-8.621c-1.246-1.143-4.985,6.024-4.985,6.024s3.635-7.894,1.87-8.309c-1.766-0.416-4.882,7.167-4.882,7.167
				s2.285-8.101,0.935-8.725c-1.35-0.623-4.155,7.997-4.155,7.997s1.87-7.063,0-7.063c-1.869,0-4.256,11.471-2.959,15.81
				l2.543,4.547L299.754,86.276z"/>
			<path style="fill:#F27E55;" d="M438.993,217.434l1.542,0.492c0,0,8.621,6.915,9.373,5.239c0.753-1.676-1.854-4.343-1.854-4.343
				s8.283,0.357,8.845-1.238s-7.498-2.22-7.498-2.22s8.687,0.245,8.376-1.542c-0.311-1.787-8.508-1.676-8.508-1.676
				s8.348-1.079,8.391-2.565c0.043-1.486-8.986-0.681-8.986-0.681s7.23-1.053,6.496-2.773c-0.734-1.719-12.221,0.589-15.703,3.485
				l-3.184,4.124L438.993,217.434z"/>
			<path style="fill:#F27E55;" d="M353.241,97.248c0.162-3.57,3.506-6.11,7.005-5.385c4,0.828,9.114,3.021,11.725,8.709
				c4.667,10.167,1.167,18.167,1.167,18.167s-3.656,1.956-9.269,0.279c-4.04-1.207-7.452-3.94-9.765-7.465l-1.3-1.981
				c0,0,2.167-3.167,0.833-8.333C353.278,99.844,353.185,98.487,353.241,97.248z"/>
			<path style="fill:#FF951C;" d="M398.468,216.905c-29.83,11.5-61.94-7.5-61.94-7.5l9.11-26.5l-9.83-27.17l-17.84-1.83
				c-5-9.67,0-25.33,0-25.33s1.4,19.16,5.62,21.16l8.93,1.29c7.15,1.03,13.13,5.98,15.48,12.81l2.4,6.98
				c2.1,6.1,6.83,10.98,12.92,13.11c5.16,1.81,11.72,2.46,18.49-1.16c0,0-4.42,8.53-17.89,7.25c-4.94-0.47-9.54,2.61-11.21,7.28
				l-0.69,1.91c-1.65,4.63,0.3,9.81,4.64,12.1C364.098,215.225,377.598,219.615,398.468,216.905z"/>
			<path style="fill:#171642;" d="M381.908,326.335c0,0.03-0.01,0.07-0.01,0.1c0,0.06,0,0.12-0.02,0.17
				c-2.71,27.45-8.53,54.53-17.35,80.65c-0.32-0.08-0.64-0.17-0.97-0.28c8.82-26.07,14.64-53.1,17.34-80.51
				c-7.92-31.33-15.84-62.67-23.76-94c-3.89-1.91-6.76-5.72-7.28-10.54c-0.07-0.64,0.93-0.63,1,0c0.46,4.29,2.96,7.69,6.37,9.49
				c0.26-0.16,0.65-0.11,0.74,0.27c0.01,0.03,0.02,0.06,0.03,0.09c2.4,1.06,5.18,1.36,8.01,0.65c0.62-0.16,0.89,0.81,0.26,0.96
				c-2.8,0.71-5.54,0.49-7.97-0.42c7.84,31.02,15.68,62.03,23.51,93.05C381.878,326.095,381.918,326.195,381.908,326.335z"/>
		</g>
		<g>
			<g>
				<path style="fill:#643427;" d="M360.097,101.586c-0.899,0.044-1.786,0.882-2.4,1.493c-0.663,0.66-1.303,1.467-1.6,2.363
					c-0.127,0.382,0.362,0.593,0.627,0.365c0.66-0.57,1.226-1.24,1.899-1.802c0.615-0.513,1.518-0.908,1.956-1.579
					C360.806,102.079,360.511,101.565,360.097,101.586z"/>
				<path style="fill:#643427;" d="M360.051,108.363c0,0-1.741-2.824-0.851-3.636c0.89-0.812,3.868,1.393,3.868,1.393l-2.824-0.219
					L360.051,108.363z"/>
			</g>
			<g>
				<path style="fill:#643427;" d="M364.312,99.928c0.37-0.82,1.475-1.34,2.267-1.687c0.857-0.376,1.842-0.675,2.785-0.624
					c0.402,0.022,0.419,0.554,0.11,0.717c-0.772,0.406-1.603,0.687-2.372,1.108c-0.702,0.384-1.4,1.08-2.185,1.242
					C364.511,100.769,364.141,100.306,364.312,99.928z"/>
				<path style="fill:#643427;" d="M370.636,102.366c0,0-1.991-2.653-3.073-2.122c-1.081,0.531-0.12,4.109-0.12,4.109l0.83-2.708
					L370.636,102.366z"/>
			</g>
			<path style="fill:#CC5D32;" d="M369.955,106.938c-0.844-0.386-1.777-0.476-2.622-0.921c-0.892-0.471-1.553-1.233-2.233-1.953
				c-0.023-0.025-0.071,0.001-0.059,0.034c0.528,1.428,2.323,3.179,4.003,3.506c-0.114,0.103-0.225,0.211-0.344,0.321
				c-0.396,0.368-0.852,0.651-1.283,0.973c-0.504,0.375-0.025,1.231,0.501,0.857c0.461-0.329,0.84-0.73,1.223-1.144
				c0.276-0.299,0.551-0.601,0.68-0.973C370.127,107.559,370.309,107.1,369.955,106.938z"/>
			<path style="fill:#FFFFFF;" d="M362.297,111.836c2.626,1.331,5.93,1.22,8.461-0.285c0.152,0.694,0.223,1.646,0.159,2.354
				c-0.065,0.708-0.382,1.429-0.985,1.807c-0.577,0.362-1.311,0.355-1.983,0.241C365.546,115.542,363.22,114.092,362.297,111.836z"
				/>
		</g>
	</g>
	<g>
		<g>
			<g>
				<g>
					<path style="fill:#9EBA00;" d="M182.993,419.211c0.969-1.936,1.575-4.022,1.807-6.146c0.118-1.097,0.133-2.205,0.048-3.311
						c-0.082-1.07,0.275-2.127,1.039-2.882l7.124-7.044c1.321-1.306,3.423-1.376,4.828-0.161l1.855,1.604l9.475,8.202
						l-26.999,26.695C180.04,430.656,180.336,424.496,182.993,419.211z"/>
					<path style="fill:#232163;" d="M198.059,418.686c0.301,0.304,0.611,0.587,0.938,0.845l10.172-10.058l-9.475-8.202
						c-0.545,0.376-1.06,0.803-1.544,1.282C193.669,406.984,193.629,414.205,198.059,418.686z"/>
					
						<rect x="177.875" y="422.332" transform="matrix(-0.7111 0.7031 -0.7031 -0.7111 634.976 587.1316)" style="fill:#232163;" width="37.968" height="3.384"/>
				</g>
				<g>
					<path style="fill:#9EBA00;" d="M143.418,397.946c0.669-2.059,0.956-4.212,0.868-6.347c-0.048-1.102-0.198-2.2-0.447-3.281
						c-0.241-1.046-0.046-2.145,0.596-3.005l5.992-8.029c1.111-1.488,3.179-1.872,4.75-0.881l2.074,1.309l10.594,6.695
						l-22.707,30.429C142.207,409.705,141.58,403.57,143.418,397.946z"/>
					<path style="fill:#232163;" d="M158.236,395.177c0.342,0.255,0.692,0.489,1.053,0.696l8.555-11.465l-10.594-6.695
						c-0.483,0.453-0.928,0.953-1.335,1.498C152.147,384.262,153.186,391.408,158.236,395.177z"/>
					
						<rect x="138.863" y="398.943" transform="matrix(-0.5981 0.8014 -0.8014 -0.5981 573.3367 513.7372)" style="fill:#232163;" width="37.968" height="3.384"/>
				</g>
				<path style="fill:#F27E55;" d="M188.865,391.347l6.586,9.597c0,0-1.882,7.527-8.656,7.339l-8.468-7.339L188.865,391.347z"/>
				<g>
					<path style="fill:#F27E55;" d="M145.477,369.422l7.511,8.892c0,0-1.121,7.677-7.881,8.166l-9.158-6.457L145.477,369.422z"/>
				</g>
				<path style="fill:#232163;" d="M191.442,390.469c0,0-1.18,2.97-3.85,6.14c-0.21,0.26-0.43,0.51-0.67,0.76
					c-2.89,3.2-7.28,6.38-13.45,6.79c0,0-37.36-51.92-42.5-65.04c-5.13-13.12-24.53-72.17-24.53-72.17l1.43-19.39l37.36-9.99
					l5.32,3.7c0,0,10.09,16.27,9.52,38.52c-0.57,22.25,0.02,50.49,0.02,50.49L191.442,390.469z"/>
				<path style="fill:#232163;" d="M147.192,366.229c0,1.97-0.39,3.82-1.04,5.52c-2.97,7.87-11.34,12.66-11.34,12.66
					s-36.74-20.59-49.73-30.72c-12.98-10.14-25.48-18.69-25.48-30.72c0-7.29,33.08-72.38,33.08-72.38l7.61-5.21l19.95,3.16
					l6.33,39.59l-7.62,8.98l-0.07,0.08l-5.92,6.98l-12.99,15.31L147.192,366.229z"/>
				<path style="fill:#F27E55;" d="M68.552,219.519l-8.95,6.521l-10.05,64.229l6.933,2.746c0,0,24.067-38.996,25.817-60.746
					L68.552,219.519z"/>
				<path style="fill:#F27E55;" d="M200.302,159.019c-8.75,16.25-35.25,18.5-35.25,18.5l-3.92-2.32l-2.83-1.68l-2-17.5l5.25-5.93
					l23.5-0.76l0.74-39.35l6.93-3.51c0,0,0.11,0.24,0.3,0.69C195.212,112.239,208.342,144.089,200.302,159.019z"/>
				<path style="fill:#E86E43;" d="M200.302,159.019c-8.75,16.25-35.25,18.5-35.25,18.5l-3.92-2.32l0.96-7.45
					c0,0,25.64-3.6,32.97-9.89c7.34-6.29-2.33-50.65-2.33-50.65l0.29-0.05C195.212,112.239,208.342,144.089,200.302,159.019z"/>
				<path style="fill:#829900;" d="M80.035,178.769l-11.483-1.75c0,0-3.589,2.546-5,21.25c-1.362,18.051-3.95,27.771-3.95,27.771
					s11.2,9.729,22.7,6.229l4.355-25L80.035,178.769z"/>
				<path style="fill:#9EBA00;" d="M148.052,180.019l2.5,61.25c0,0-30.49,18.39-57.87,9.32l-0.32-1.03l-11.61-37.04
					c0,0-12.2-16.75-12.2-35.5c0,0,10.67-17,36.59-26c0,0,30.16-3.08,56.41-0.93c-0.91,6.22-0.62,12.06,0.54,17.66
					c0.7,3.33,1.71,6.58,2.96,9.77L148.052,180.019z"/>
				<path style="fill:#232163;" d="M102.897,128.206c0,0,1.55-10.35-3.758-14.355c-4.068-3.07-6.459,0.543-6.459,0.543l-11.93,7.303
					c0,0-7.076,2.41-3.922,8.275c2.347,4.364,7.794,7.77,7.794,7.77l3.372-1.826L102.897,128.206z"/>
				<path style="fill:#232163;" d="M94.736,118.159c1.124-1.395,1.597-3.419,0.802-5.025c-0.826-1.668-2.831-2.508-4.69-2.414
					s-3.591,0.962-5.157,1.969c-1.566,1.007-3.038,2.174-4.714,2.985c-1.675,0.811-3.635,1.243-5.407,0.674
					c0.157,0.807,0.694,1.576,1.421,1.96c-1.093,0.064-2.264,0-3.272-0.427c0.681,2.021,2.275,3.469,4.295,4.155
					c-1.277,0.223-2.778,0.023-3.913-0.604c0.612,1.797,2.043,3.681,3.769,4.471c1.726,0.79,3.778,0.836,5.538,0.124
					c1.185-1.941,3.343-3.216,5.32-4.341C90.703,120.56,93.309,119.93,94.736,118.159z"/>
				<path style="fill:#F27E55;" d="M84.188,136.115c-0.577-0.223-1.171-0.43-1.788-0.468c-0.618-0.038-1.27,0.11-1.73,0.523
					c-0.589,0.529-0.764,1.426-0.54,2.185c0.224,0.759,0.797,1.381,1.469,1.798c1.524,0.945,3.623,0.854,5.059-0.22L84.188,136.115z
					"/>
				<path style="fill:#F27E55;" d="M100.341,125.054c0.117-0.608,0.256-1.221,0.55-1.765c0.295-0.544,0.766-1.019,1.36-1.19
					c0.76-0.22,1.614,0.107,2.139,0.7c0.525,0.592,0.75,1.407,0.747,2.199c-0.005,1.793-1.194,3.525-2.866,4.174L100.341,125.054z"
					/>
				<path style="fill:#F27E55;" d="M106.012,161.479c-4.3,1.67-10.08-1.11-7.64-7.77l-2.38-5.36l-2.06-4.64l9.72-5.48l3.55,7.35
					l1.45,2.99c0,0,3.33,0.83,4.16,5.27C113.652,158.289,109.092,160.289,106.012,161.479z"/>
				<path style="fill:#CC5D32;" d="M107.202,145.579c-1.47,2.64-3.54,3.66-3.54,3.66c-2.89,0.64-5.45,0.18-7.67-0.89l-2.06-4.64
					l9.72-5.48L107.202,145.579z"/>
			</g>
			<path style="fill:#F27E55;" d="M90.254,119.323c-3.017,0.271-5.982,1.657-7.729,4.132c-1.748,2.474-2.248,5.786-1.309,8.666
				c0,0,6.298,16.515,18.375,13.839c0,0,10.458-5.167,1.183-22.286c-1.082-1.998-3.922-6.597-6.786-6.536
				C91.465,117.191,91.42,119.219,90.254,119.323z"/>
			<path style="fill:#F27E55;" d="M188.422,110.635c0,0-11.51-0.851-11.445-2.743c0.342-1.452,4.746-1.11,4.746-1.11
				s-5.439-4.1-4.751-5.551c0.689-1.452,6.752,2.648,6.752,2.648s-5.087-4.568-3.587-6.235c0.769-0.854,5.893,4.441,5.893,4.441
				s-3.075-5.295-2.221-6.406c0.854-1.11,5.039,5.039,5.039,5.039s-1.708-4.368,0-5.173c1.708-0.805,4.527,9.871,3.758,12.774
				L188.422,110.635z"/>
			<path style="fill:#F27E55;" d="M56.056,291.586c0,0,4.867,10.127,3.261,11.129c-1.396,0.526-3.569-3.319-3.569-3.319
				s-0.368,6.801-1.957,7.04c-1.589,0.239-1.57-7.081-1.57-7.081s-0.954,6.77-3.173,6.455c-1.138-0.162,0.398-7.368,0.398-7.368
				s-2.679,5.506-4.077,5.416c-1.398-0.089,1.371-6.993,1.371-6.993s-2.672,3.854-4.293,2.886
				c-1.621-0.968,5.666-9.263,8.505-10.246L56.056,291.586z"/>
			<path style="fill:#829900;" d="M148.052,180.019l2.5,61.25c0,0-30.49,18.39-57.87,9.32l-0.32-1.03
				c29.28,1.73,50.08-25.14,49.68-47.71c-0.4-23.28-4.64-34.29-4.64-34.29c12.51,7.76,20.68,3.7,24.69,0.19
				c0.7,3.33,1.71,6.58,2.96,9.77L148.052,180.019z"/>
			<path style="fill:#171642;" d="M187.592,396.609c-0.21,0.26-0.43,0.51-0.67,0.76c-14.52-18.62-27.29-38.55-38.14-59.54
				c-0.17-0.06-0.32-0.21-0.33-0.45l-0.02-0.21c-0.05-0.11-0.12-0.23-0.18-0.34c-0.12-0.25-0.03-0.48,0.13-0.62
				c-1.34-24.97-2.68-49.95-4.02-74.93c-3.98-1.16-7.46-3.9-9.54-7.9c-0.3-0.57,0.57-1.08,0.86-0.51c1.92,3.68,5.04,6.21,8.65,7.34
				c0.07-0.53,0.95-0.5,0.98,0.11c0,0.05,0.01,0.11,0.01,0.17c2.77,0.66,5.78,0.53,8.71-0.54c0.61-0.22,0.87,0.74,0.27,0.96
				c-2.99,1.09-6.06,1.25-8.92,0.62c1.34,25.12,2.69,50.24,4.04,75.37C160.262,357.939,173.042,377.939,187.592,396.609z"/>
			<path style="fill:#171642;" d="M118.882,297.189l-5.92,6.98l-4.12-29.94c-7.01-5.81-5.45-22.45-5.45-22.45
				c1.24,16.74,8.44,19.35,8.44,19.35L118.882,297.189z"/>
			<path style="fill:#171642;" d="M147.192,366.229c0,1.97-0.39,3.82-1.04,5.52l-59.49-50.88c12.18-1.49,27.25-31.36,27.25-31.36
				l5.04,7.6l-0.07,0.08l-5.92,6.98l-12.99,15.31L147.192,366.229z"/>
		</g>
		<g>
			<g>
				<path style="fill:#232163;" d="M98.671,126.236c-1.451-0.4-3.374,0.462-4.543,1.276c-0.621,0.432,0.046,1.303,0.634,0.822
					c0.561-0.458,1.173-0.836,1.819-1.162c0.674-0.34,1.44-0.372,2.125-0.665C98.83,126.455,98.784,126.267,98.671,126.236z"/>
				<path style="fill:#232163;" d="M97.029,130.967c0,0-1.418-2.405-0.308-2.96c1.11-0.555,2.528,1.912,2.528,1.912l-2.097-1.048
					L97.029,130.967z"/>
			</g>
			<g>
				<path style="fill:#232163;" d="M84.831,133.229c0.414-1.447,2.152-2.639,3.456-3.213c0.693-0.305,1.088,0.718,0.371,0.97
					c-0.683,0.24-1.325,0.566-1.939,0.947c-0.641,0.398-1.068,1.035-1.675,1.467C84.934,133.479,84.799,133.342,84.831,133.229z"/>
				<path style="fill:#232163;" d="M89.724,134.293c0,0-1.314-2.464-2.366-1.805c-1.052,0.658,0.315,3.154,0.315,3.154l0.197-2.336
					L89.724,134.293z"/>
			</g>
			<path style="fill:#CC5D32;" d="M97.069,134.507c-0.635-0.727-1.589-1.208-2.309-1.858c-0.661-0.597-1.161-1.416-1.879-1.935
				c-0.051-0.037-0.12,0.024-0.103,0.079c0.258,0.842,1.031,1.586,1.607,2.23c0.549,0.612,1.159,1.32,1.884,1.768
				c-0.115,0.066-0.229,0.138-0.341,0.21c-0.405,0.256-0.862,0.485-1.198,0.828c-0.201,0.205-0.002,0.62,0.296,0.509
				c0.453-0.169,0.845-0.483,1.245-0.75c0.242-0.162,0.491-0.313,0.665-0.532C97.139,134.99,97.221,134.681,97.069,134.507z"/>
			<path style="fill:#FFFFFF;" d="M92.038,139.226c3.152-0.609,6.027-2.535,7.79-5.218c0,0,2.443,5.839-0.579,7.689
				C96.228,143.547,92.038,139.226,92.038,139.226z"/>
		</g>
	</g>
	<g>
		<path style="fill:#F27E55;" d="M233.96,48.397l12.697-3.523c0,0,3.001-8.439,0.772-9.365c0,0,2.214-4.142,1.076-4.714
			c-1.767-0.887-4.637,3.877-4.637,3.877s2.715-4.669,1.394-5.27c-1.321-0.601-5.137,4.61-5.137,4.61s2.422-4.399,0.881-4.658
			c-1.541-0.259-4.403,5.319-4.403,5.319s2.275-4.037,0.954-4.403c-1.321-0.367-4.33,6.972-4.33,6.972s-4.036,2.569-2.447,8.513
			L233.96,48.397z"/>
		<g>
			<polygon style="fill:#F27E55;" points="319.648,364.918 315.692,361.097 315.417,354.633 305.287,349.852 308.347,340.079 
				318.773,342.224 325.368,350.761 325.801,356.846 322.146,365.748 			"/>
			<path style="fill:#E53F33;" d="M320.789,378.572l-1.636,2.099c0,0-4.156-6.756-3.46-19.574c0,0,5.399,0.384,8.054,3.415
				L320.789,378.572z"/>
			<path style="fill:#232163;" d="M319.152,380.671c0,0,5.213-23.012,4.681-30.285c0,0-9.488-4.295-6.382-9.533l12.428,2.711
				l-0.828,5.504l-2.852,0.98l2.446,1.682l-4.597,22.953c-0.337,1.683-1.11,3.267-2.322,4.482
				C321.029,379.864,320.164,380.467,319.152,380.671z"/>
		</g>
		<g>
			<polygon style="fill:#F27E55;" points="292.947,365.305 288.991,361.484 288.715,355.02 278.585,350.239 281.646,340.466 
				292.072,342.611 298.667,351.148 299.1,357.234 295.445,366.135 			"/>
			<path style="fill:#E53F33;" d="M294.087,378.959l-1.637,2.099c0,0-4.156-6.756-3.46-19.574c0,0,5.399,0.384,8.054,3.415
				L294.087,378.959z"/>
			<path style="fill:#232163;" d="M292.451,381.058c0,0,5.213-23.012,4.681-30.285c0,0-9.488-4.295-6.382-9.533l12.428,2.711
				l-0.828,5.504l-2.852,0.98l2.446,1.682l-4.597,22.953c-0.337,1.683-1.11,3.267-2.322,4.482
				C294.328,380.251,293.463,380.855,292.451,381.058z"/>
		</g>
		<path style="fill:#7F9DFF;" d="M239.622,344.972c0,0-13.65,2.69-27.96,1.69c-10.3-0.71-20.94-3.34-27.1-10.26
			c-10.79-12.12,13.12-118.08,13.12-118.08l9.29-3.92l20.45,8.91l-0.09,14.91l-0.57,89.61L239.622,344.972z"/>
		<path style="fill:#4B66BD;" d="M239.622,344.972c0,0-13.65,2.69-27.96,1.69c-7.13-3.65-14.65-4.973-17.33-14.086
			c-4.812-16.36,16.36-94.064,16.36-94.064c-3.85-7.7,0-18.06,0-18.06l12.91,3.62l3.73,14.15l-0.57,89.61L239.622,344.972z"/>
		<path style="fill:#7F9DFF;" d="M310.052,344.602c-0.05,0.32-0.12,0.65-0.19,0.98c-0.7,3.3-2.07,7.1-4.62,10.93
			c0,0-103.68-1.98-107.56-28.35c-3.89-26.38,20.18-106.5,20.18-106.5l33.96-4.95l10.36,3.61c0,0,11.88,20.46,7.85,36.95
			c-6.01,27.03-33.85,48.46-33.85,48.46l74,29.35C310.182,335.082,311.052,339.042,310.052,344.602z"/>
		<path style="fill:#F27E55;" d="M212.842,79.412l13.34,28.79l-2.34,5.62l-7.84,6.83l-2.13,0.52l-8.03,1.98
			c0,0-11.66-16.17-9.83-39.5c1.8-22.97,33.75-40.13,34.75-40.66c0.01-0.01,0.02-0.01,0.02-0.01l5.4,4.67L212.842,79.412z"/>
		<path style="fill:#E86E43;" d="M203.382,79.412c-1.75,16.31,3.03,29.21,10.49,41.76l-8.03,1.98c0,0-11.66-16.17-9.83-39.5
			c1.8-22.97,33.75-40.13,34.75-40.66C229.992,43.592,205.162,62.742,203.382,79.412z"/>
		<path style="fill:#F27E55;" d="M359.762,184.072c0,0-58.58,22.41-89.73-12.58l0.38-5.66l0.18-2.57l10.03-8.68l7.14-1.43
			l24.41,22.5l46.35,1.49L359.762,184.072z"/>
		<path style="fill:#E86E43;" d="M359.762,184.072c0,0-58.58,22.41-89.73-12.58l0.38-5.66l4.48-1.38c0,0,13.85,12.04,31.79,19.62
			C324.622,191.662,359.762,184.072,359.762,184.072z"/>
		<path style="fill:#232163;" d="M262.847,79.766c5.526-0.162,10.891,3.902,12.231,9.265c0.655,2.622,0.444,5.46,1.52,7.94
			c1.045,2.41,3.23,4.283,3.845,6.837c0.821,3.41-1.385,6.765-1.855,10.24c-0.393,2.911,0.448,5.83,0.743,8.753
			c0.295,2.923-0.129,6.24-2.396,8.108c0,0-1.22-2.659-7.66-2.805c-6.441-0.146-24.445-8.636-29.275-19.322
			c-2.781-6.001-9.222-6.666-9.222-6.666c0.1-1.78,1.418-3.484,3.006-4.293c1.588-0.81,3.367-1.353,4.644-2.596
			c2.026-1.974,2.41-5.36,4.773-6.915c1.948-1.283,4.554-0.852,6.748-1.643c2.335-0.841,3.933-2.94,5.776-4.602
			C257.568,80.405,260.635,78.64,262.847,79.766z"/>
		<path style="fill:#E53F33;" d="M287.762,153.152c0,0-2.98,15.17-17.73,18.34l-6.52-5.84l-14,24.5l12.67,30.17
			c0,0-34.83,17-64.49-1.99c-0.01-0.01-0.01-0.01-0.01-0.01l7.16-51.17c0,0-9-18.47,9.34-27.83l-8.34-16.17
			c0,0,5.69-17.13,20.34-14.95l9.5,10.95l3,7.83l17.02,5.84l5.52,0.99C261.222,133.812,269.012,135.532,287.762,153.152z"/>
		<path style="fill:#F27E55;" d="M261.222,133.812c0,0-8.93,18.3-22.25,13.18c-13.32-5.13-3.29-27.84-3.29-27.84l6.3,3.04l4.67-8.84
			l2.72-5.15l8.05,5.41l-0.07,8.86l-0.07,7.78L261.222,133.812z"/>
		<path style="fill:#CC5D32;" d="M257.422,113.612l-0.07,8.86c-5.16,0.92-10.24-2.99-10.67-8.53c-0.02-0.19-0.03-0.39-0.03-0.59
			l2.72-5.15L257.422,113.612z"/>
		<path style="fill:#F27E55;" d="M374.911,177.667c0,0,6.077,2.844,4.784,4.202c-0.743,0.776-3.458,0.452-3.458,0.452
			s2.295,1.099,1.713,1.972c-0.582,0.873-4.137,0-4.137,0s1.713,1.035,0.97,1.649c-0.743,0.614-9.244-1.132-9.244-1.132l3.006-6.238
			L374.911,177.667z"/>
		<path style="fill:#F27E55;" d="M374.857,175.118c-3.017-0.413-16.339,2.02-16.339,2.02l-0.443,6.413c0,0,6.945,6.201,11.657-1.364
			c0,0,6.366,0.744,6.242-0.951c-0.063-0.864-1.406-1.502-2.706-1.92c2.293-1.718,5.848,1.796,7.088,0.68
			C381.567,178.905,377.875,175.531,374.857,175.118z"/>
		<path style="fill:#CC5D32;" d="M380.448,178.06c-3.596-3.986-8.203-3.516-12.987-2.234c-0.622,0.167-0.358,1.132,0.266,0.964
			c2.734-0.732,5.39-1.353,8.207-0.647c1.286,0.322,2.399,1.208,3.333,2.099c0.257,1.266-0.067,1.612-0.974,1.039
			c-0.751-0.257-1.477-0.569-2.178-0.938c-0.097-0.048-0.19-0.054-0.279-0.045c-0.084-0.03-0.176-0.046-0.284-0.02
			c-0.861,0.208-1.722,0.417-2.583,0.625c-0.278,0.067-0.372,0.293-0.346,0.512c0,0.016,0.004,0.031,0.005,0.048
			c0.003,0.015,0.003,0.029,0.007,0.043c0.032,0.22,0.184,0.423,0.47,0.43c0.697,0.018,1.362,0.029,1.948,0.489
			c0.177,0.807-0.022,1.225-0.596,1.254c-0.351,0.046-0.703,0.084-1.056,0.114c-1.185,0.113-2.377,0.138-3.567,0.123
			c-0.253-0.003-0.404,0.15-0.458,0.337c-1.685,2.375-4.403,3.421-7.258,2.833c-0.629-0.13-0.897,0.834-0.266,0.964
			c1.807,0.372,3.536,0.164,5.059-0.536c0.017,0.007,0.028,0.019,0.047,0.025c2.317,0.669,5.13,1.538,7.57,1.317
			c1.247-0.113,1.295-1.077,0.904-1.895c0.817,0.142,1.664,0.259,2.428,0.012c0.455-0.147,0.844-0.78,0.718-1.255
			c-0.081-0.307-0.206-0.546-0.363-0.745c0.518-0.036,1.019-0.126,1.468-0.33c0.984-0.446,0.948-1.358,0.553-2.121
			c0.06-0.025,0.127-0.033,0.183-0.066C381.348,179.915,381.058,178.736,380.448,178.06z M373.734,185.865
			c-0.774-0.053-1.545-0.188-2.31-0.311c-1.111-0.179-2.205-0.445-3.291-0.738c0.325-0.227,0.64-0.471,0.936-0.749
			c0.001,0,0.002,0.001,0.003,0.001c1.648,0.224,3.296,0.448,4.944,0.671c0.014,0.015,0.02,0.031,0.037,0.045
			C374.583,185.218,374.502,185.918,373.734,185.865z M376.055,184.016c-0.672-0.091-1.343-0.182-2.015-0.274
			c-1.384-0.188-2.768-0.376-4.152-0.564c0.074-0.092,0.156-0.171,0.227-0.266c1.247,0.006,2.488-0.043,3.73-0.162
			c0.209-0.02,0.464-0.041,0.726-0.078c0.08,0.085,0.19,0.145,0.338,0.151c0.388,0.014,0.802,0.052,1.227,0.089
			c0.057,0.087,0.142,0.161,0.275,0.194c0.14,0.035,0.279,0.07,0.419,0.105C377.723,183.712,377.036,184.433,376.055,184.016z
			 M378.557,181.938c-0.335,0.037-0.694-0.005-1.029-0.017c-0.483-0.018-0.967-0.036-1.45-0.053c0.594-1.225,0-2.016-0.924-2.464
			c0.191-0.046,0.382-0.092,0.572-0.138c0.854,0.431,2.217,1.216,3.394,1.374C379.543,181.205,379.359,181.849,378.557,181.938z"/>
		<path style="fill:#CC5D32;" d="M248.055,30.125c-0.563-0.05-1.148,0.325-1.68,0.805c0.005-0.257-0.026-0.521-0.102-0.798
			c-0.207-0.753-1.131-1.458-1.934-1.21c-1.054,0.325-1.819,1.179-2.504,2.034c0.025-0.293-0.002-0.589-0.13-0.89
			c-0.35-0.825-1.073-1.075-1.914-0.862c-0.507,0.128-0.935,0.544-1.302,1.029c-0.34-0.856-1.255-1.131-2.298-0.282
			c-0.961,0.783-1.566,2.394-2.07,3.484c-0.57,1.235-1.02,2.525-1.477,3.804c-0.218,0.609,0.749,0.868,0.964,0.266
			c0.429-1.201,0.864-2.396,1.376-3.565c0.263-0.601,0.569-1.181,0.887-1.754c0.163-0.284,0.335-0.563,0.516-0.836
			c0.607-0.777,1.107-0.761,1.247-0.129c-0.017,0.105,0.004,0.196,0.037,0.279c-0.052,0.086-0.104,0.173-0.153,0.249
			c-0.742,1.166-1.341,2.413-1.872,3.687c-0.248,0.595,0.72,0.852,0.964,0.266c0.603-1.446,1.344-2.814,2.207-4.121
			c0.27-0.409,0.554-0.8,0.885-1.164c0.276-0.47,0.537-0.418,1.03-0.097c0.131,0.337,0.14,0.675,0.029,1.013
			c-0.144,0.628-0.398,1.159-0.474,1.786c-0.43,0.707-0.815,1.442-1.153,2.2c-0.261,0.583,0.601,1.093,0.863,0.505
			c0.337-0.755,0.734-1.47,1.159-2.17c0.02-0.027,0.041-0.053,0.055-0.086c0.234-0.38,0.463-0.762,0.725-1.129
			c0.48-0.673,1.04-1.285,1.614-1.878c0.481-0.616,1.1-0.487,1.855,0.384c0.04,0.571-0.374,1.177-0.637,1.651
			c-0.022,0.039-0.025,0.076-0.036,0.114c-0.991,1.118-1.844,2.36-2.58,3.657c-0.318,0.562,0.546,1.065,0.864,0.505
			c0.968-1.707,2.138-3.243,3.527-4.629c0.34-0.339,0.696-0.67,1.088-0.95c1.324-0.946,0.763,1.27,0.721,1.422
			c-0.274,0.984-0.678,1.923-1.134,2.835c-1.623,0.24-2.622,2.951-3.347,4.319c-3.013-1.473-6.503,0.675-6.431,4.141
			c0.014,0.644,1.014,0.645,1,0c-0.06-2.865,2.87-4.559,5.322-3.072c0.241,0.146,0.467,0.059,0.606-0.108
			c0.082-0.037,0.16-0.092,0.219-0.191c0.687-1.155,1.373-2.31,2.06-3.466c0.428-0.371,1.04-0.457,0.977,0.416
			c-0.037,0.507-0.083,1.013-0.139,1.519c-0.098,0.968-0.262,1.926-0.433,2.883c-0.374,2.09-1.744,2.766-3.622,3.321
			c-1.706,0.505-3.412,1.009-5.119,1.514c-0.617,0.182-0.354,1.148,0.266,0.964c1.706-0.505,3.412-1.01,5.118-1.514
			c0.88-0.26,2.019-0.46,2.757-1.063c1.756-1.434,1.78-4.011,2.032-6.106c0.079-0.654,0.413-2.534-0.281-3.275
			C249.069,34.119,250.824,30.372,248.055,30.125z"/>
		<path style="fill:#F27E55;" d="M260.254,115.818c3.474-1.482,7.353-5.096,10.339-13.183c0,0-0.146-11.71-9.002-14.93
			c0,0-7.984,1.396-12.076,10.832c-1.627,3.75-2.051,6.842-1.86,9.325C248.134,114.088,254.509,118.269,260.254,115.818z"/>
		<path style="fill:#BA3329;" d="M287.762,153.152c0,0-2.98,15.17-17.73,18.34l-6.52-5.84l-14,24.5l12.67,30.17
			c0,0-34.83,17-64.49-1.99c-0.01-0.01-0.01-0.01-0.01-0.01c19.32,4.539,36.772,2.173,45.667,0.291
			c3.472-0.734,5.716-4.104,5.046-7.589l-2.454-12.764c-0.737-3.834-3.356-6.959-6.882-8.638c-8.756-4.17-8.647-14.711-8.647-14.711
			c16.5,15.14,30.81-17.48,30.81-17.48l1.729,1.393c5.988,4.825,14.663,4.559,20.23-0.747
			C285.892,155.494,287.762,153.152,287.762,153.152z"/>
		<path style="fill:#4B66BD;" d="M310.052,344.602c-0.05,0.32-0.12,0.65-0.19,0.98c-31.82-8.18-63.25-17.82-94.18-28.89
			c-0.4-0.14-0.42-0.61-0.21-0.85c-0.11-0.11-0.18-0.26-0.13-0.46c6.91-26.02,15.61-51.53,26.02-76.36
			c-3.67-1.46-6.85-4.19-8.85-8.02c-0.3-0.57,0.56-1.08,0.86-0.51c1.9,3.63,4.91,6.24,8.39,7.62c0.31-0.42,1.09-0.18,0.9,0.35
			c3.84,1.27,8.16,1.07,12.16-0.86c0.58-0.28,1.09,0.58,0.51,0.86c-4.28,2.07-8.92,2.28-13.04,0.91
			c-10.4,24.8-19.08,50.29-25.98,76.28c-0.02,0.07-0.05,0.12-0.09,0.17C247.042,326.852,278.352,336.452,310.052,344.602z"/>
		<path style="fill:#232163;" d="M259.87,98.617c-0.493-1.65-4.449-2.569-5.686-1.403c-0.026,0.025-0.018,0.068,0.011,0.086
			c0.769,0.467,1.851,0.402,2.716,0.662c0.915,0.275,1.717,1.031,2.692,1.007C259.779,98.963,259.923,98.793,259.87,98.617z"/>
		<path style="fill:#232163;" d="M263.86,100.714c-0.683-0.097-1.08,0.712-0.476,1.128c0.647,0.445,1.298,0.826,1.914,1.32
			c0.623,0.5,1.13,1.116,1.566,1.776c0.077,0.117,0.27,0.077,0.269-0.073C267.127,103.037,265.785,100.987,263.86,100.714z"/>
		<circle style="fill:#232163;" cx="263.716" cy="105.151" r="1.395"/>
		<circle style="fill:#232163;" cx="256.027" cy="100.706" r="1.395"/>
		<path style="fill:#CC5D32;" d="M260.547,103.199c0.036-0.125-0.141-0.197-0.207-0.087c-0.66,1.093-0.832,2.357-1.108,3.582
			c-0.103,0.456-0.218,1.017-0.199,1.539c-0.525-0.409-1.111-0.753-1.691-1.06c-0.614-0.326-1.137,0.565-0.544,0.931
			c0.797,0.493,1.663,0.969,2.582,1.18c0.048,0.059,0.092,0.12,0.152,0.172c0.131,0.111,0.337,0.108,0.429-0.055
			c0.46-0.816-0.036-1.73-0.087-2.619C259.801,105.501,260.204,104.404,260.547,103.199z"/>
		<path style="fill:#FFFFFF;" d="M252.036,106.294c1.862,2.327,4.536,3.991,7.447,4.632c-1.444,1.384-4.058,1.577-5.728,0.475
			C252.086,110.3,251.331,108.166,252.036,106.294z"/>
	</g>
</g>
</svg>
