<svg xmlns="http://www.w3.org/2000/svg" viewBox="0 0 500 500"><g id="freepik--background-complete--inject-3"><rect x="120.24" y="150.97" width="98.53" height="312.26" style="fill:#f5f5f5"></rect><rect x="169.5" y="150.97" width="49.26" height="311.4" style="fill:#ebebeb"></rect><rect x="131.49" y="120.32" width="34.79" height="30.66" style="fill:#f5f5f5"></rect><rect x="157.99" y="120.32" width="8.29" height="30.66" style="fill:#ebebeb"></rect><polyline points="112.03 150.97 112.03 149.18 221.65 149.18 221.65 150.97" style="fill:#e0e0e0"></polyline><rect x="139.69" y="164.34" width="8.34" height="17.59" style="fill:#fafafa"></rect><path d="M169.5,188.83c0,.18-11,.33-24.63.33s-24.63-.15-24.63-.33,11-.34,24.63-.34S169.5,188.64,169.5,188.83Z" style="fill:#e0e0e0"></path><rect x="189.38" y="164.34" width="8.34" height="17.59" style="fill:#e0e0e0"></rect><path d="M219.2,188.83c0,.18-11,.33-24.63.33s-24.64-.15-24.64-.33,11-.34,24.64-.34S219.2,188.64,219.2,188.83Z" style="fill:#e0e0e0"></path><rect x="189.38" y="199.25" width="8.34" height="17.59" style="fill:#e0e0e0"></rect><path d="M219.2,223.74c0,.19-11,.34-24.63.34s-24.64-.15-24.64-.34,11-.33,24.64-.33S219.2,223.56,219.2,223.74Z" style="fill:#e0e0e0"></path><rect x="189.38" y="235.22" width="8.34" height="17.59" style="fill:#e0e0e0"></rect><path d="M219.2,259.71c0,.19-11,.34-24.63.34s-24.64-.15-24.64-.34,11-.34,24.64-.34S219.2,259.52,219.2,259.71Z" style="fill:#e0e0e0"></path><rect x="189.38" y="271.19" width="8.34" height="17.59" style="fill:#e0e0e0"></rect><path d="M219.2,295.68c0,.18-11,.33-24.63.33s-24.64-.15-24.64-.33,11-.34,24.64-.34S219.2,295.49,219.2,295.68Z" style="fill:#e0e0e0"></path><rect x="189.38" y="306.13" width="8.34" height="17.59" style="fill:#e0e0e0"></rect><path d="M219.2,330.62c0,.18-11,.33-24.63.33s-24.64-.15-24.64-.33,11-.34,24.64-.34S219.2,330.43,219.2,330.62Z" style="fill:#e0e0e0"></path><rect x="189.38" y="341.21" width="8.34" height="17.59" style="fill:#e0e0e0"></rect><rect x="189.38" y="376.75" width="8.34" height="17.59" style="fill:#e0e0e0"></rect><path d="M219.2,365.7c0,.18-11,.33-24.63.33s-24.64-.15-24.64-.33,11-.34,24.64-.34S219.2,365.51,219.2,365.7Z" style="fill:#e0e0e0"></path><rect x="139.69" y="199.79" width="8.34" height="17.59" style="fill:#fafafa"></rect><path d="M169.5,224.28c0,.18-11,.33-24.63.33s-24.63-.15-24.63-.33,11-.34,24.63-.34S169.5,224.09,169.5,224.28Z" style="fill:#e0e0e0"></path><rect x="139.69" y="235.23" width="8.34" height="17.59" style="fill:#fafafa"></rect><path d="M169.5,259.72c0,.19-11,.34-24.63.34s-24.63-.15-24.63-.34,11-.33,24.63-.33S169.5,259.54,169.5,259.72Z" style="fill:#e0e0e0"></path><rect x="139.69" y="270.68" width="8.34" height="17.59" style="fill:#fafafa"></rect><path d="M169.5,295.17c0,.18-11,.34-24.63.34s-24.63-.16-24.63-.34,11-.34,24.63-.34S169.5,295,169.5,295.17Z" style="fill:#e0e0e0"></path><rect x="139.69" y="306.13" width="8.34" height="17.59" style="fill:#fafafa"></rect><path d="M169.5,330.62c0,.18-11,.33-24.63.33s-24.63-.15-24.63-.33,11-.34,24.63-.34S169.5,330.43,169.5,330.62Z" style="fill:#e0e0e0"></path><rect x="139.69" y="341.58" width="8.34" height="17.59" style="fill:#fafafa"></rect><path d="M169.5,366.06c0,.19-11,.34-24.63.34s-24.63-.15-24.63-.34,11-.33,24.63-.33S169.5,365.88,169.5,366.06Z" style="fill:#e0e0e0"></path><rect x="139.69" y="377.02" width="8.34" height="17.59" style="fill:#fafafa"></rect><rect x="297.26" y="270.6" width="146.53" height="193.27" style="fill:#ebebeb"></rect><rect x="375.09" y="270.6" width="68.71" height="193.27" style="fill:#e0e0e0"></rect><rect x="327.98" y="296.77" width="13.18" height="32.01" style="fill:#f5f5f5"></rect><rect x="327.98" y="422.05" width="13.18" height="32.01" style="fill:#f5f5f5"></rect><path d="M375.09,341.34c0,.36-17.43.65-38.91.65s-38.92-.29-38.92-.65,17.42-.65,38.92-.65S375.09,341,375.09,341.34Z" style="fill:#f5f5f5"></path><rect x="327.98" y="359.88" width="13.18" height="32.01" style="fill:#f5f5f5"></rect><path d="M375.09,404.45c0,.36-17.43.65-38.91.65s-38.92-.29-38.92-.65,17.42-.65,38.92-.65S375.09,404.09,375.09,404.45Z" style="fill:#f5f5f5"></path><rect x="389.68" y="296.77" width="13.17" height="32.01" style="fill:#f5f5f5"></rect><rect x="418.26" y="296.77" width="13.18" height="32.01" style="fill:#f5f5f5"></rect><rect x="389.68" y="357.51" width="13.17" height="32.01" style="fill:#f5f5f5"></rect><rect x="418.26" y="357.51" width="13.18" height="32.01" style="fill:#f5f5f5"></rect><rect x="389.68" y="418.25" width="13.17" height="32.01" style="fill:#f5f5f5"></rect><rect x="418.26" y="418.25" width="13.18" height="32.01" style="fill:#f5f5f5"></rect><rect x="286.25" y="263.87" width="163.23" height="6.97" style="fill:#e0e0e0"></rect><path d="M444.82,271.5c0,.36-32.76.65-73.15.65s-73.15-.29-73.15-.65,32.75-.65,73.15-.65S444.82,271.14,444.82,271.5Z" style="fill:#ebebeb"></path><polygon points="147.68 464.08 45.45 464.08 45.01 302.52 147.23 302.52 147.68 464.08" style="fill:#ebebeb"></polygon><rect x="96.12" y="302.52" width="51.11" height="161.56" style="fill:#e0e0e0"></rect><rect x="56.68" y="270.71" width="36.1" height="31.81" style="fill:#ebebeb"></rect><rect x="84.18" y="270.71" width="8.6" height="31.81" style="fill:#e0e0e0"></rect><rect x="39.53" y="300.66" width="110.69" height="1.86" style="fill:#e0e0e0"></rect><rect x="65.19" y="316.39" width="8.65" height="18.25" style="fill:#fff"></rect><path d="M96.12,341.79c0,.2-11.44.35-25.55.35S45,342,45,341.79s11.44-.34,25.56-.34S96.12,341.6,96.12,341.79Z" style="fill:#e0e0e0"></path><rect x="116.75" y="316.39" width="8.65" height="18.25" style="fill:#f5f5f5"></rect><path d="M147.68,341.79c0,.2-11.44.35-25.56.35s-25.55-.15-25.55-.35,11.44-.34,25.55-.34S147.68,341.6,147.68,341.79Z" style="fill:#ebebeb"></path><rect x="116.75" y="352.61" width="8.65" height="18.24" style="fill:#f5f5f5"></rect><path d="M147.68,378c0,.19-11.44.35-25.56.35s-25.55-.16-25.55-.35,11.44-.35,25.55-.35S147.68,377.83,147.68,378Z" style="fill:#ebebeb"></path><rect x="116.75" y="389.93" width="8.65" height="18.25" style="fill:#f5f5f5"></rect><path d="M147.68,415.34c0,.19-11.44.34-25.56.34s-25.55-.15-25.55-.34S108,415,122.12,415,147.68,415.14,147.68,415.34Z" style="fill:#ebebeb"></path><rect x="116.75" y="427.25" width="8.65" height="18.25" style="fill:#f5f5f5"></rect><path d="M147.68,452.65c0,.19-11.44.35-25.56.35s-25.55-.16-25.55-.35,11.44-.35,25.55-.35S147.68,452.46,147.68,452.65Z" style="fill:#ebebeb"></path><rect x="65.19" y="353.17" width="8.65" height="18.25" style="fill:#fff"></rect><path d="M96.12,378.57c0,.19-11.44.35-25.55.35S45,378.76,45,378.57s11.44-.35,25.56-.35S96.12,378.38,96.12,378.57Z" style="fill:#e0e0e0"></path><rect x="65.19" y="389.94" width="8.65" height="18.25" style="fill:#fff"></rect><path d="M96.12,415.35c0,.19-11.44.35-25.55.35S45,415.54,45,415.35,56.45,415,70.57,415,96.12,415.16,96.12,415.35Z" style="fill:#e0e0e0"></path><rect x="65.19" y="426.72" width="8.65" height="18.24" style="fill:#fff"></rect><path d="M96.12,452.13c0,.19-11.44.34-25.55.34S45,452.32,45,452.13s11.44-.35,25.56-.35S96.12,451.93,96.12,452.13Z" style="fill:#e0e0e0"></path><path d="M103.55,78.62a.41.41,0,0,1-.41.42.42.42,0,0,1-.42-.42.41.41,0,0,1,.42-.41A.41.41,0,0,1,103.55,78.62Z" style="fill:#e0e0e0"></path><path d="M131.49,66.79a.41.41,0,0,1-.41.42.42.42,0,0,1,0-.84A.41.41,0,0,1,131.49,66.79Z" style="fill:#e0e0e0"></path><path d="M88.17,58.75a.41.41,0,0,1-.41.41.41.41,0,0,1-.42-.41.42.42,0,0,1,.42-.42A.41.41,0,0,1,88.17,58.75Z" style="fill:#e0e0e0"></path><path d="M96.07,49.06a.41.41,0,0,1-.41.41.41.41,0,0,1-.42-.41.42.42,0,0,1,.42-.42A.41.41,0,0,1,96.07,49.06Z" style="fill:#e0e0e0"></path><path d="M109.35,42.88a.41.41,0,0,1-.41.42.42.42,0,0,1-.42-.42.41.41,0,0,1,.42-.41A.41.41,0,0,1,109.35,42.88Z" style="fill:#e0e0e0"></path><path d="M118.88,49.06a.41.41,0,0,1-.41.41.41.41,0,0,1-.42-.41.42.42,0,0,1,.42-.42A.41.41,0,0,1,118.88,49.06Z" style="fill:#e0e0e0"></path><path d="M123.07,72.77a.41.41,0,0,1-.41.41.41.41,0,0,1-.42-.41.42.42,0,0,1,.42-.42A.41.41,0,0,1,123.07,72.77Z" style="fill:#e0e0e0"></path><path d="M94.34,70.33a.41.41,0,0,1-.41.41.41.41,0,0,1-.42-.41.42.42,0,0,1,.42-.42A.41.41,0,0,1,94.34,70.33Z" style="fill:#e0e0e0"></path><path d="M120.66,79.25a.17.17,0,0,1-.17.17.18.18,0,0,1-.17-.17.18.18,0,0,1,.17-.18A.17.17,0,0,1,120.66,79.25Z" style="fill:#e0e0e0"></path><circle cx="89.81" cy="66.48" r="0.17" style="fill:#e0e0e0"></circle><path d="M95.59,56.12a.18.18,0,0,1-.18.17.18.18,0,0,1-.17-.17.17.17,0,0,1,.17-.17A.17.17,0,0,1,95.59,56.12Z" style="fill:#e0e0e0"></path><path d="M126.56,61.66a.17.17,0,0,1-.17.17.18.18,0,0,1-.17-.17.18.18,0,0,1,.17-.18A.17.17,0,0,1,126.56,61.66Z" style="fill:#e0e0e0"></path><path d="M105.23,48.64a.16.16,0,0,1-.17.17.17.17,0,0,1-.17-.17.18.18,0,0,1,.17-.17A.17.17,0,0,1,105.23,48.64Z" style="fill:#e0e0e0"></path><circle cx="125.27" cy="51.11" r="0.17" style="fill:#e0e0e0"></circle><path d="M111.8,57.76a4.48,4.48,0,0,1-.07,2.39c-.24,1.31-.66,2.3-.81,2.26a7,7,0,0,1,.27-2.36C111.43,58.78,111.64,57.74,111.8,57.76Z" style="fill:#e0e0e0"></path><path d="M115.16,48a18.32,18.32,0,0,1-.92,4.44,18.81,18.81,0,0,1-1.46,4.31,19.4,19.4,0,0,1,.93-4.45A19.13,19.13,0,0,1,115.16,48Z" style="fill:#e0e0e0"></path><path d="M116.39,53.56a15.6,15.6,0,0,1-1.54,3.86,15.55,15.55,0,0,1-2,3.61,16.63,16.63,0,0,1,1.54-3.85A16,16,0,0,1,116.39,53.56Z" style="fill:#e0e0e0"></path><path d="M122.25,52.94a26.39,26.39,0,0,1-3,3.43,25.48,25.48,0,0,1-3.18,3.27A15,15,0,0,1,118.84,56,15.21,15.21,0,0,1,122.25,52.94Z" style="fill:#e0e0e0"></path><path d="M116.93,60.83c.07.14-.73.69-1.79,1.25s-2,.89-2.06.76.74-.7,1.8-1.25S116.86,60.7,116.93,60.83Z" style="fill:#e0e0e0"></path><path d="M129.27,55.48A54,54,0,0,1,124.1,58a55.11,55.11,0,0,1-5.22,2.46,21.74,21.74,0,0,1,5-3A21.73,21.73,0,0,1,129.27,55.48Z" style="fill:#e0e0e0"></path><path d="M122.65,61.66a8.74,8.74,0,0,1-2.87,1,8.4,8.4,0,0,1-3,.45,8.7,8.7,0,0,1,2.88-1A8.37,8.37,0,0,1,122.65,61.66Z" style="fill:#e0e0e0"></path><path d="M128.45,65.17a16.05,16.05,0,0,1-4.66.25,16,16,0,0,1-4.64-.56,26.73,26.73,0,0,1,4.65,0A27,27,0,0,1,128.45,65.17Z" style="fill:#e0e0e0"></path><path d="M117.52,66.79c0,.15-1,0-2.15-.36s-2-.74-2-.88,1,0,2.16.35S117.57,66.65,117.52,66.79Z" style="fill:#e0e0e0"></path><path d="M129.92,70.72a33.84,33.84,0,0,1-5.22-1.24A34,34,0,0,1,119.56,68a21,21,0,0,1,5.28,1A21.42,21.42,0,0,1,129.92,70.72Z" style="fill:#e0e0e0"></path><path d="M120.29,71.21a4.73,4.73,0,0,1-2.33-.95c-1.19-.73-2-1.54-1.91-1.65a7.64,7.64,0,0,1,2.2,1.18C119.4,70.5,120.36,71.07,120.29,71.21Z" style="fill:#e0e0e0"></path><path d="M123.07,79a24,24,0,0,1-3.57-3.59,23.86,23.86,0,0,1-3.16-4,23.49,23.49,0,0,1,3.57,3.59A23.24,23.24,0,0,1,123.07,79Z" style="fill:#e0e0e0"></path><path d="M114.25,71.47c-.13.08-.76-.59-1.41-1.52s-1.08-1.74-1-1.83.75.59,1.4,1.51S114.37,71.38,114.25,71.47Z" style="fill:#e0e0e0"></path><path d="M120.49,84.13a20,20,0,0,1-2.62-4.53A19.54,19.54,0,0,1,116,74.71a33.86,33.86,0,0,1,2.35,4.65A32.56,32.56,0,0,1,120.49,84.13Z" style="fill:#e0e0e0"></path><path d="M113.56,78.79a14,14,0,0,1-1.26-3.64,13.63,13.63,0,0,1-.72-3.78A13.71,13.71,0,0,1,112.84,75,13.69,13.69,0,0,1,113.56,78.79Z" style="fill:#e0e0e0"></path><path d="M110,82.72a17.74,17.74,0,0,1-.33-4.44,18,18,0,0,1,.23-4.45,18.5,18.5,0,0,1,.32,4.44A18.37,18.37,0,0,1,110,82.72Z" style="fill:#e0e0e0"></path><path d="M108.45,73.25a5.44,5.44,0,0,1,.18-2.41,5.53,5.53,0,0,1,.72-2.32,5.48,5.48,0,0,1-.18,2.42A5.52,5.52,0,0,1,108.45,73.25Z" style="fill:#e0e0e0"></path><path d="M105.08,83.93a19.75,19.75,0,0,1,.82-4.58,19.77,19.77,0,0,1,1.35-4.46,19.75,19.75,0,0,1-.82,4.58A20.39,20.39,0,0,1,105.08,83.93Z" style="fill:#e0e0e0"></path><path d="M104,77a10.35,10.35,0,0,1,1.18-3.16,10.28,10.28,0,0,1,1.67-2.92,10.44,10.44,0,0,1-1.18,3.15A10.63,10.63,0,0,1,104,77Z" style="fill:#e0e0e0"></path><path d="M103.58,72a18.79,18.79,0,0,1-3,2.89,18.85,18.85,0,0,1-3.19,2.63,13.6,13.6,0,0,1,2.82-3A13.25,13.25,0,0,1,103.58,72Z" style="fill:#e0e0e0"></path><path d="M107.33,66.66c.08.12-.78.87-1.94,1.67a6.09,6.09,0,0,1-2.25,1.22c-.09-.12.78-.87,1.94-1.67S107.24,66.53,107.33,66.66Z" style="fill:#e0e0e0"></path><path d="M101.13,70.9a33.08,33.08,0,0,1-4.46,1.95,32.14,32.14,0,0,1-4.52,1.79,16.3,16.3,0,0,1,4.31-2.3A16.3,16.3,0,0,1,101.13,70.9Z" style="fill:#e0e0e0"></path><path d="M103.5,67A11.23,11.23,0,0,1,100,68.5a11.37,11.37,0,0,1-3.71.79A15.82,15.82,0,0,1,99.84,68,16.22,16.22,0,0,1,103.5,67Z" style="fill:#e0e0e0"></path><path d="M101.53,65.23a14.63,14.63,0,0,1-4,.33,15.31,15.31,0,0,1-4-.22,15.22,15.22,0,0,1,4-.33A15.15,15.15,0,0,1,101.53,65.23Z" style="fill:#e0e0e0"></path><path d="M106,64.53c0,.14-.86.19-1.86-.06s-1.71-.71-1.65-.84.84.06,1.79.3S106,64.37,106,64.53Z" style="fill:#e0e0e0"></path><path d="M100.56,62.62a19.56,19.56,0,0,1-5.28-1.08,20.15,20.15,0,0,1-5-2A39.49,39.49,0,0,1,95.44,61,42,42,0,0,1,100.56,62.62Z" style="fill:#e0e0e0"></path><path d="M104.8,62.23a18.12,18.12,0,0,1-3.32-1.64,18.63,18.63,0,0,1-3.22-1.84,9.8,9.8,0,0,1,3.48,1.35A10,10,0,0,1,104.8,62.23Z" style="fill:#e0e0e0"></path><path d="M104.67,59.34a27,27,0,0,1-3.81-3.18,26.37,26.37,0,0,1-3.54-3.48,20,20,0,0,1,3.91,3.07A19.33,19.33,0,0,1,104.67,59.34Z" style="fill:#e0e0e0"></path><path d="M108.31,63.14A5.38,5.38,0,0,1,107,60.92a5.34,5.34,0,0,1-.66-2.5,7.36,7.36,0,0,1,1.17,2.29A7.56,7.56,0,0,1,108.31,63.14Z" style="fill:#e0e0e0"></path><path d="M108.84,60.38a15,15,0,0,1-1.52-3.79,15,15,0,0,1-1-4,15.7,15.7,0,0,1,1.52,3.79A15.36,15.36,0,0,1,108.84,60.38Z" style="fill:#e0e0e0"></path><path d="M110.11,56.62a18.66,18.66,0,0,1-.38-4.53,19.1,19.1,0,0,1,.18-4.53,18.85,18.85,0,0,1,.37,4.52A19,19,0,0,1,110.11,56.62Z" style="fill:#e0e0e0"></path><path d="M106.16,57.11a36.1,36.1,0,0,1-3.23-5.41A36.59,36.59,0,0,1,100.18,46a36.75,36.75,0,0,1,3.23,5.41A37.09,37.09,0,0,1,106.16,57.11Z" style="fill:#e0e0e0"></path><path d="M393.55,219a.85.85,0,1,1-.85-.84A.85.85,0,0,1,393.55,219Z" style="fill:#e0e0e0"></path><path d="M450.18,195a.84.84,0,1,1-.84-.85A.84.84,0,0,1,450.18,195Z" style="fill:#e0e0e0"></path><path d="M362.36,178.73a.84.84,0,1,1-1.68,0,.84.84,0,0,1,1.68,0Z" style="fill:#e0e0e0"></path><path d="M378.38,159.09a.84.84,0,1,1-.84-.85A.84.84,0,0,1,378.38,159.09Z" style="fill:#e0e0e0"></path><path d="M405.3,146.57a.85.85,0,1,1-.84-.84A.85.85,0,0,1,405.3,146.57Z" style="fill:#e0e0e0"></path><path d="M424.62,159.09a.85.85,0,1,1-.85-.85A.85.85,0,0,1,424.62,159.09Z" style="fill:#e0e0e0"></path><path d="M433.12,207.15a.85.85,0,1,1-.84-.84A.85.85,0,0,1,433.12,207.15Z" style="fill:#e0e0e0"></path><path d="M374.88,202.2a.85.85,0,1,1-.85-.84A.85.85,0,0,1,374.88,202.2Z" style="fill:#e0e0e0"></path><path d="M428.23,220.29a.35.35,0,1,1-.69,0,.35.35,0,1,1,.69,0Z" style="fill:#e0e0e0"></path><path d="M366,194.41a.35.35,0,1,1-.35-.34A.35.35,0,0,1,366,194.41Z" style="fill:#e0e0e0"></path><path d="M377.39,173.4a.35.35,0,1,1-.35-.35A.35.35,0,0,1,377.39,173.4Z" style="fill:#e0e0e0"></path><path d="M440.19,184.63a.35.35,0,1,1-.35-.35A.35.35,0,0,1,440.19,184.63Z" style="fill:#e0e0e0"></path><path d="M397,158.24a.35.35,0,1,1-.35-.35A.35.35,0,0,1,397,158.24Z" style="fill:#e0e0e0"></path><path d="M437.92,163.26a.35.35,0,1,1-.35-.35A.34.34,0,0,1,437.92,163.26Z" style="fill:#e0e0e0"></path><path d="M410.26,176.72c.3,0,.37,2.22-.13,4.86s-1.35,4.66-1.64,4.57.06-2.2.54-4.78S410,176.69,410.26,176.72Z" style="fill:#e0e0e0"></path><path d="M417.08,157c.3.08-.54,4.12-1.87,9s-2.65,8.81-2.95,8.73.54-4.12,1.87-9S416.78,156.92,417.08,157Z" style="fill:#e0e0e0"></path><path d="M419.57,168.22c.28.14-1.12,3.63-3.12,7.81s-3.85,7.46-4.13,7.33,1.12-3.63,3.12-7.81S419.29,168.09,419.57,168.22Z" style="fill:#e0e0e0"></path><path d="M431.44,167c.22.23-2.64,3.22-6.08,7s-6.22,6.81-6.47,6.62,2.16-3.61,5.65-7.38S431.24,166.74,431.44,167Z" style="fill:#e0e0e0"></path><path d="M420.67,183c.14.28-1.49,1.41-3.64,2.53s-4,1.82-4.16,1.54,1.49-1.4,3.64-2.53S420.53,182.68,420.67,183Z" style="fill:#e0e0e0"></path><path d="M445.67,172.1c.12.3-4.69,2.37-10.48,5.17s-10.41,5.27-10.57,5,4.23-3.18,10.08-6S445.57,171.83,445.67,172.1Z" style="fill:#e0e0e0"></path><path d="M432.27,184.63c.07.3-2.54,1.2-5.83,2s-6,1.23-6.09.93,2.53-1.2,5.82-2S432.19,184.33,432.27,184.63Z" style="fill:#e0e0e0"></path><path d="M444,191.75c0,.3-4.22.69-9.45.51s-9.43-.83-9.4-1.13,4.25-.15,9.44,0S444,191.44,444,191.75Z" style="fill:#e0e0e0"></path><path d="M421.87,195c-.09.29-2.05,0-4.37-.73s-4.14-1.5-4.05-1.8,2,0,4.37.73S422,194.74,421.87,195Z" style="fill:#e0e0e0"></path><path d="M447,203c-.1.3-4.8-1-10.59-2.51s-10.49-2.78-10.42-3.09,4.89.46,10.71,2S447.09,202.72,447,203Z" style="fill:#e0e0e0"></path><path d="M427.48,204c-.12.27-2.32-.45-4.73-1.94s-4.06-3.11-3.87-3.34,2.1.95,4.45,2.39S427.61,203.71,427.48,204Z" style="fill:#e0e0e0"></path><path d="M433.12,219.87c-.23.2-3.47-3.06-7.24-7.28s-6.64-7.82-6.41-8,3.47,3.06,7.24,7.28S433.35,219.66,433.12,219.87Z" style="fill:#e0e0e0"></path><path d="M415.22,204.52c-.25.17-1.52-1.2-2.85-3.08s-2.18-3.53-1.93-3.71,1.52,1.2,2.85,3.07S415.47,204.34,415.22,204.52Z" style="fill:#e0e0e0"></path><path d="M427.89,230.18c-.27.15-2.81-3.88-5.33-9.18s-4.05-9.8-3.77-9.91,2.27,4.18,4.78,9.44S428.16,230,427.89,230.18Z" style="fill:#e0e0e0"></path><path d="M413.84,219.36c-.3.08-1.44-3.22-2.55-7.37s-1.77-7.58-1.48-7.66,1.44,3.22,2.55,7.37S414.13,219.28,413.84,219.36Z" style="fill:#e0e0e0"></path><path d="M406.51,227.32c-.31,0-.61-4-.66-9s.15-9,.45-9,.61,4,.66,9S406.81,227.32,406.51,227.32Z" style="fill:#e0e0e0"></path><path d="M403.47,208.13c-.3,0-.14-2.25.37-4.89s1.16-4.75,1.46-4.69.14,2.25-.37,4.9S403.77,208.19,403.47,208.13Z" style="fill:#e0e0e0"></path><path d="M396.63,229.78c-.29-.07.45-4.23,1.66-9.29s2.45-9.11,2.75-9-.45,4.24-1.66,9.3S396.93,229.86,396.63,229.78Z" style="fill:#e0e0e0"></path><path d="M394.37,215.73c-.28-.14.79-3,2.38-6.4s3.12-6.05,3.4-5.93-.79,3-2.39,6.4S394.64,215.87,394.37,215.73Z" style="fill:#e0e0e0"></path><path d="M393.6,205.52c.19.24-2.56,2.78-6,5.86s-6.24,5.56-6.46,5.33,2.27-3.05,5.72-6.15S393.41,205.28,393.6,205.52Z" style="fill:#e0e0e0"></path><path d="M401.2,194.76c.17.25-1.59,1.77-3.93,3.4s-4.39,2.73-4.57,2.47,1.59-1.77,3.93-3.39S401,194.51,401.2,194.76Z" style="fill:#e0e0e0"></path><path d="M388.62,203.37c.1.3-4,1.86-9,3.95s-9,3.9-9.17,3.62,3.68-2.54,8.75-4.65S388.54,203.08,388.62,203.37Z" style="fill:#e0e0e0"></path><path d="M393.43,195.46c.11.28-3,1.76-7.07,3s-7.46,1.89-7.53,1.6,3.18-1.38,7.19-2.66S393.32,195.17,393.43,195.46Z" style="fill:#e0e0e0"></path><path d="M389.45,191.88c0,.31-3.66.6-8.18.66s-8.19-.14-8.2-.45,3.66-.6,8.18-.66S389.44,191.57,389.45,191.88Z" style="fill:#e0e0e0"></path><path d="M398.54,190.45c0,.3-1.74.4-3.76-.12s-3.48-1.43-3.35-1.7,1.7.13,3.63.62S398.57,190.13,398.54,190.45Z" style="fill:#e0e0e0"></path><path d="M387.47,186.59c-.06.29-4.91-.47-10.69-2.2s-10.27-3.74-10.16-4,4.73,1.24,10.47,2.95S387.54,186.28,387.47,186.59Z" style="fill:#e0e0e0"></path><path d="M396.07,185.79c-.17.26-3.09-1.4-6.73-3.33s-6.64-3.44-6.52-3.73,3.35.77,7.05,2.74S396.24,185.55,396.07,185.79Z" style="fill:#e0e0e0"></path><path d="M395.82,179.94c-.22.22-3.61-2.74-7.73-6.46s-7.39-6.81-7.19-7,3.81,2.48,7.94,6.22S396,179.72,395.82,179.94Z" style="fill:#e0e0e0"></path><path d="M403.18,187.63c-.27.14-1.59-1.82-2.72-4.49s-1.63-5-1.34-5.07,1.25,2,2.37,4.64S403.46,187.48,403.18,187.63Z" style="fill:#e0e0e0"></path><path d="M404.26,182c-.29.1-1.67-3.34-3.09-7.68s-2.32-7.93-2-8,1.68,3.35,3.09,7.69S404.55,181.94,404.26,182Z" style="fill:#e0e0e0"></path><path d="M406.83,174.41c-.31,0-.65-4.1-.76-9.17s.06-9.18.36-9.19.65,4.1.76,9.17S407.14,174.4,406.83,174.41Z" style="fill:#e0e0e0"></path><path d="M398.83,175.42c-.27.15-3.21-4.76-6.55-11s-5.85-11.35-5.57-11.49,3.2,4.76,6.55,11S399.1,175.27,398.83,175.42Z" style="fill:#e0e0e0"></path><path d="M58.47,84.53C56.11,76.17,45.24,77,45.24,77l.3,5.82c6.28-1.09,10.19,6.28,10.19,6.28Z" style="fill:#e0e0e0"></path><path d="M293.24,179.3c12.61,3.82,20.46-10.72,20.46-10.72L306,164.2c-3.75,8.91-16.34,7.88-16.34,7.88Z" style="fill:#e0e0e0"></path><path d="M405.3,140c-2.44-7-11.6-5.7-11.6-5.7l.56,4.91c5.26-1.25,8.95,4.78,8.95,4.78Z" style="fill:#e0e0e0"></path><path d="M334.13,88.75c-2.44-7-11.6-5.7-11.6-5.7l.56,4.91c5.26-1.25,9,4.78,9,4.78Z" style="fill:#e0e0e0"></path><path d="M131.07,25.87c-2.44-7-11.6-5.7-11.6-5.7l.56,4.91c5.27-1.25,9,4.78,9,4.78Z" style="fill:#ebebeb"></path><path d="M227.42,24.49c-7.27,1.19-7.62,10.43-7.62,10.43l4.93.3c-.32-5.4,6.26-8,6.26-8Z" style="fill:#ebebeb"></path><path d="M29.92,253.94c12.61,3.82,20.46-10.72,20.46-10.72l-7.67-4.38c-3.76,8.91-16.35,7.88-16.35,7.88Z" style="fill:#ebebeb"></path><path d="M469.92,159.79c.86-5.84-6.11-8.35-6.11-8.35l-1.42,3.69c4.19,1.07,4.57,6.72,4.57,6.72Z" style="fill:#e0e0e0"></path><path d="M454.88,74.46c-4.92,3.26-2.13,10.12-2.13,10.12l3.7-1.4c-2-3.84,1.94-7.89,1.94-7.89Z" style="fill:#ebebeb"></path></g><g id="freepik--Confetti--inject-3"><path d="M411.63,214.05c-1.59-5.62-8.89-5.07-8.89-5.07l.2,3.9c4.22-.72,6.84,4.22,6.84,4.22Z" style="fill:#FED835"></path><path d="M345.94,153.93c-5.87.62-6.57,8-6.57,8l3.93.47c0-4.33,5.37-6.1,5.37-6.1Z" style="fill:#FED835"></path><path d="M468.11,200.12c-5.87.63-6.57,8-6.57,8l3.93.47c0-4.33,5.37-6.1,5.37-6.1Z" style="fill:#FED835"></path><path d="M35.49,134.9c-5.87.62-6.57,8-6.57,8l3.93.47c0-4.33,5.37-6.1,5.37-6.1Z" style="fill:#FED835"></path><path d="M330.68,45.6c1.78,4.54,7.81,3.49,7.81,3.49L338,45.85c-3.45.95-6-3-6-3Z" style="fill:#FED835"></path><path d="M206.43,221.54c-5.87.62-6.57,8-6.57,8l3.92.47c0-4.33,5.37-6.1,5.37-6.1Z" style="fill:#FED835"></path><path d="M174.28,39c-5.87.63-6.57,8-6.57,8l3.93.46c0-4.33,5.37-6.1,5.37-6.1Z" style="fill:#FED835"></path><path d="M141.85,101.6c.85-5.84-6.11-8.35-6.11-8.35l-1.43,3.69c4.2,1.07,4.58,6.72,4.58,6.72Z" style="fill:#FED835"></path><path d="M53.29,43.3c-5.64,1.72-4.93,9.09-4.93,9.09l3.94-.28c-.82-4.25,4.12-7,4.12-7Z" style="fill:#FED835"></path><path d="M116.22,156.61c-.76,6.59,8,8.18,8,8.18l1.57-4.31c-5.23-.47-6-6.63-6-6.63Z" style="fill:#FED835"></path><path d="M443.12,130.25c5.89.33,7.78-6.83,7.78-6.83l-3.8-1.09c-.7,4.27-6.29,5.15-6.29,5.15Z" style="fill:#FED835"></path><path d="M455.18,47c-.85-5.84-8.24-6.26-8.24-6.26l-.32,3.94c4.33-.17,6.3,5.13,6.3,5.13Z" style="fill:#FED835"></path></g><g id="freepik--Fireworks--inject-3"><path d="M241.49,111.43a3.36,3.36,0,0,1-.6.39l-1.76,1c-.77.43-1.71,1-2.75,1.66s-2.29,1.41-3.56,2.35l-2,1.43c-.7.5-1.39,1.07-2.13,1.63-1.49,1.11-3,2.43-4.56,3.79a100.27,100.27,0,0,0-9.43,9.75,99.23,99.23,0,0,0-7.87,11c-1.05,1.81-2.08,3.51-2.9,5.17-.42.83-.85,1.62-1.22,2.4l-1,2.25c-.69,1.42-1.18,2.77-1.66,3.93s-.85,2.17-1.14,3-.51,1.43-.69,1.92a4,4,0,0,1-.27.66,3,3,0,0,1,.17-.69c.16-.5.35-1.15.6-2s.59-1.88,1.06-3,.92-2.53,1.59-4l1-2.27c.36-.79.79-1.59,1.2-2.42.81-1.69,1.83-3.4,2.87-5.22a94.57,94.57,0,0,1,7.88-11.14,95.62,95.62,0,0,1,9.51-9.78c1.61-1.35,3.11-2.67,4.62-3.77.74-.56,1.44-1.13,2.15-1.62l2.06-1.4c1.29-.93,2.54-1.63,3.61-2.29s2-1.19,2.81-1.6l1.81-.94A3.51,3.51,0,0,1,241.49,111.43Z" style="fill:#FED835"></path><path d="M245.35,93.91a31,31,0,0,1-2.12-2.63A57.14,57.14,0,0,0,231.42,80.2c-1.7-1.2-2.8-1.89-2.76-2a3.34,3.34,0,0,1,.83.38c.52.27,1.25.71,2.13,1.27a45.84,45.84,0,0,1,11.9,11.17c.62.84,1.1,1.55,1.4,2A2.94,2.94,0,0,1,245.35,93.91Z" style="fill:#FED835"></path><path d="M235.21,73.52A24.34,24.34,0,0,1,233,71c-1.32-1.59-3.19-3.76-5.38-6s-4.27-4.24-5.81-5.63A28.82,28.82,0,0,1,219.37,57s.3.15.77.49,1.13.86,1.93,1.52a72.54,72.54,0,0,1,11.24,11.73c.63.83,1.12,1.52,1.44,2A3.14,3.14,0,0,1,235.21,73.52Z" style="fill:#FED835"></path><path d="M248,78a7.17,7.17,0,0,1-.25-1.26c-.13-.82-.32-2-.58-3.44a105.24,105.24,0,0,0-6.39-22.06c-.55-1.36-1-2.46-1.35-3.21a6.25,6.25,0,0,1-.46-1.2,5.9,5.9,0,0,1,.64,1.11c.39.73.91,1.81,1.51,3.16a85.38,85.38,0,0,1,6.42,22.14c.21,1.46.35,2.65.41,3.47A5.5,5.5,0,0,1,248,78Z" style="fill:#FED835"></path><path d="M264.21,41.64a5.94,5.94,0,0,1-.56,1.15c-.4.72-.95,1.77-1.61,3.08a81.12,81.12,0,0,0-7.37,21.62c-.28,1.44-.48,2.61-.61,3.42a5.51,5.51,0,0,1-.26,1.26,6.85,6.85,0,0,1,.06-1.28c.07-.82.21-2,.44-3.46a69.43,69.43,0,0,1,2.8-11.18,70.33,70.33,0,0,1,4.61-10.55c.71-1.29,1.31-2.32,1.76-3A5.91,5.91,0,0,1,264.21,41.64Z" style="fill:#FED835"></path><path d="M281.87,53.23c.11.09-4.2,5.4-9.62,11.85s-9.9,11.6-10,11.51,4.19-5.4,9.62-11.85S281.76,53.14,281.87,53.23Z" style="fill:#FED835"></path><path d="M297.46,57.72a9.73,9.73,0,0,1-1.3.84l-3.59,2.17c-3,1.84-7.16,4.47-11.58,7.57s-8.3,6.11-11.06,8.33l-3.26,2.65a9.22,9.22,0,0,1-1.23.93,8.39,8.39,0,0,1,1.1-1.09c.72-.67,1.8-1.62,3.15-2.77,2.71-2.3,6.56-5.35,11-8.47s8.61-5.7,11.69-7.47c1.54-.88,2.8-1.57,3.68-2A8.07,8.07,0,0,1,297.46,57.72Z" style="fill:#FED835"></path><path d="M306.72,79.77a7.7,7.7,0,0,1-1.31.17c-.84.07-2.07.19-3.57.36A87.86,87.86,0,0,0,279,86.1c-1.4.57-2.54,1-3.31,1.39a7.23,7.23,0,0,1-1.23.47,6.76,6.76,0,0,1,1.14-.66c.75-.4,1.86-.93,3.26-1.54a74.91,74.91,0,0,1,11.24-3.84,73.88,73.88,0,0,1,11.71-2c1.52-.13,2.75-.2,3.6-.2A5.65,5.65,0,0,1,306.72,79.77Z" style="fill:#FED835"></path><path d="M311.71,100.68a10.19,10.19,0,0,1-1.48-.65c-.47-.23-1.05-.5-1.73-.78s-1.45-.64-2.33-1a56.08,56.08,0,0,0-6.21-2,60.62,60.62,0,0,0-7.86-1.38,58.93,58.93,0,0,0-8-.2,53.11,53.11,0,0,0-6.49.7c-.92.13-1.74.33-2.47.47s-1.34.29-1.85.42a10.58,10.58,0,0,1-1.58.34,10.73,10.73,0,0,1,1.53-.54c.5-.16,1.11-.34,1.84-.51s1.54-.39,2.46-.54a48.48,48.48,0,0,1,6.53-.82,55.19,55.19,0,0,1,8.06.16,56.45,56.45,0,0,1,7.93,1.44,49.53,49.53,0,0,1,6.23,2.1c.88.33,1.63.71,2.31,1a18.89,18.89,0,0,1,1.7.86A9.18,9.18,0,0,1,311.71,100.68Z" style="fill:#FED835"></path><path d="M306.27,113.56a48,48,0,0,1-6.49-2.72,47.07,47.07,0,0,1-6.27-3.19,47.05,47.05,0,0,1,6.49,2.72A47.85,47.85,0,0,1,306.27,113.56Z" style="fill:#FED835"></path><path d="M287.25,122.64c-.05.07-1.34-.78-3.52-2a58.51,58.51,0,0,0-8.86-4,59.46,59.46,0,0,0-9.41-2.42c-2.46-.41-4-.54-4-.63a4,4,0,0,1,1.09,0c.7,0,1.71.12,3,.28a48.5,48.5,0,0,1,9.53,2.29,47.6,47.6,0,0,1,8.86,4.17c1.08.65,1.92,1.21,2.49,1.63A4.68,4.68,0,0,1,287.25,122.64Z" style="fill:#FED835"></path><path d="M304,132.37c-.07,0-.86-1-2.26-2.71a57.14,57.14,0,0,0-5.89-6.09,58,58,0,0,0-6.74-5.15c-1.82-1.18-3-1.85-3-1.92a3.33,3.33,0,0,1,.88.37c.55.26,1.33.68,2.28,1.24a46.46,46.46,0,0,1,6.89,5.07,45.11,45.11,0,0,1,5.83,6.25c.67.87,1.18,1.6,1.5,2.11A3.5,3.5,0,0,1,304,132.37Z" style="fill:#FED835"></path><path d="M258.09,139.13a11.2,11.2,0,0,1-1.49-2.19,41.32,41.32,0,0,1-2.77-5.76,40.81,40.81,0,0,1-1.85-6.13,11,11,0,0,1-.38-2.62,16.53,16.53,0,0,1,.74,2.53c.43,1.57,1.08,3.72,2,6a60.56,60.56,0,0,0,2.62,5.77A17,17,0,0,1,258.09,139.13Z" style="fill:#FED835"></path><path d="M270.94,131a93.8,93.8,0,0,1-7.42-6.37,93.75,93.75,0,0,1-7.07-6.76,93.8,93.8,0,0,1,7.42,6.37A91.46,91.46,0,0,1,270.94,131Z" style="fill:#FED835"></path><path d="M273,150.67a21.59,21.59,0,0,1-2.14-2.66c-1.26-1.68-2.94-4.06-4.71-6.74s-3.28-5.16-4.34-7a20.65,20.65,0,0,1-1.59-3,22.21,22.21,0,0,1,1.91,2.82c1.13,1.77,2.69,4.22,4.46,6.9s3.39,5.07,4.57,6.81A23.21,23.21,0,0,1,273,150.67Z" style="fill:#FED835"></path><path d="M284.08,157.71a13.14,13.14,0,0,1-1.48-2.08c-.87-1.31-2.08-3.12-3.45-5.08s-2.65-3.73-3.58-5a15.21,15.21,0,0,1-1.44-2.11,11,11,0,0,1,1.73,1.89c1,1.21,2.34,2.94,3.72,4.92s2.54,3.82,3.33,5.19A11.74,11.74,0,0,1,284.08,157.71Z" style="fill:#FED835"></path><path d="M235,155.22a13.31,13.31,0,0,1-.34-3,38.8,38.8,0,0,1,.4-7.31,39.49,39.49,0,0,1,1.74-7.11A13.28,13.28,0,0,1,238,135a26.09,26.09,0,0,1-.85,2.89A50.05,50.05,0,0,0,235,152.2,27.17,27.17,0,0,1,235,155.22Z" style="fill:#FED835"></path><path d="M223.55,160.64a7.12,7.12,0,0,1,0-1.26c.05-.81.16-2,.34-3.41a73.61,73.61,0,0,1,2.29-11.08,74.47,74.47,0,0,1,4-10.61c.62-1.31,1.14-2.36,1.54-3.06a6,6,0,0,1,.65-1.08,6.25,6.25,0,0,1-.47,1.17c-.34.73-.81,1.8-1.38,3.12A92.35,92.35,0,0,0,226.7,145a94.2,94.2,0,0,0-2.43,11c-.23,1.42-.39,2.58-.49,3.38A5.35,5.35,0,0,1,223.55,160.64Z" style="fill:#FED835"></path><path d="M242.23,159.74a3.61,3.61,0,0,1-.29-1c-.16-.66-.34-1.64-.53-2.84a59.06,59.06,0,0,1-.66-9.52,60,60,0,0,1,.88-9.5c.22-1.2.43-2.17.6-2.83a4.81,4.81,0,0,1,.31-1c.08,0-.21,1.5-.54,3.9a76.4,76.4,0,0,0-.73,9.46,74.3,74.3,0,0,0,.51,9.46C242.06,158.24,242.31,159.73,242.23,159.74Z" style="fill:#FED835"></path><path d="M214.87,168.12a11.24,11.24,0,0,1,.09-2.73,38.27,38.27,0,0,1,3.63-12.61,11.42,11.42,0,0,1,1.36-2.36,20.06,20.06,0,0,1-1,2.51,56.58,56.58,0,0,0-2.19,6.15,53.91,53.91,0,0,0-1.4,6.36A18.83,18.83,0,0,1,214.87,168.12Z" style="fill:#FED835"></path><path d="M207.33,122.79c0,.07-1.17.69-3,1.8A59.48,59.48,0,0,0,191,135.18c-1.49,1.59-2.36,2.63-2.43,2.58a3.33,3.33,0,0,1,.52-.8c.36-.5.92-1.19,1.64-2A47.37,47.37,0,0,1,197,129a48.79,48.79,0,0,1,7.15-4.73c1-.52,1.77-.91,2.34-1.15A2.86,2.86,0,0,1,207.33,122.79Z" style="fill:#FED835"></path><path d="M220,107.82a11.49,11.49,0,0,1-1.72.15l-2,.09-2.66.25a66.62,66.62,0,0,0-15.07,3.31,80.88,80.88,0,0,0-14,6.55l-4.07,2.36a11.43,11.43,0,0,1-1.54.8,12,12,0,0,1,1.43-1c.94-.61,2.29-1.47,4-2.5a71.61,71.61,0,0,1,14-6.73A60.63,60.63,0,0,1,213.52,108l2.68-.18h2A11,11,0,0,1,220,107.82Z" style="fill:#FED835"></path><path d="M284.72,142.08a1.12,1.12,0,1,1-1.11-1.11A1.11,1.11,0,0,1,284.72,142.08Z" style="fill:#FED835"></path><path d="M224.9,45.27a1.35,1.35,0,1,1-1.35-1.34A1.34,1.34,0,0,1,224.9,45.27Z" style="fill:#FED835"></path><path d="M322.2,95.5a1.35,1.35,0,1,1-1.34-1.35A1.35,1.35,0,0,1,322.2,95.5Z" style="fill:#FED835"></path><path d="M231.79,169.29a1.35,1.35,0,1,1-1.35-1.34A1.34,1.34,0,0,1,231.79,169.29Z" style="fill:#FED835"></path><path d="M196.24,95.15a1.35,1.35,0,1,1-1.35-1.35A1.34,1.34,0,0,1,196.24,95.15Z" style="fill:#FED835"></path><circle cx="206.3" cy="57.46" r="0.56" style="fill:#FED835"></circle><path d="M189.72,146a.56.56,0,1,1-.56-.56A.56.56,0,0,1,189.72,146Z" style="fill:#FED835"></path><circle cx="247.68" cy="158.71" r="0.56" style="fill:#FED835"></circle><circle cx="303.98" cy="103.89" r="0.56" style="fill:#FED835"></circle><circle cx="249.91" cy="47.29" r="0.56" style="fill:#FED835"></circle><path d="M235.14,119.85c.33.33-4.8,5.71-10,13.18s-8.59,14.08-9,13.88,2.37-7.2,7.73-14.78S234.88,119.55,235.14,119.85Z" style="fill:#FED835"></path><path d="M240.37,129.64c-.41,0-.53-4.51,1-9.77s4.09-9,4.44-8.77-1.46,4.13-2.95,9.21S240.83,129.67,240.37,129.64Z" style="fill:#FED835"></path><path d="M241.49,103.11c0,.26-3.73-.19-9.71-.46a120.84,120.84,0,0,0-23.27,1.24A102.36,102.36,0,0,0,186.06,110c-5.54,2.22-8.81,4-8.94,3.78s.71-.63,2.16-1.51c.71-.45,1.62-1,2.68-1.5l1.71-.89,2-.9a86.9,86.9,0,0,1,22.64-6.63,98.94,98.94,0,0,1,23.58-.8c3,.29,5.43.6,7.09.93A8.18,8.18,0,0,1,241.49,103.11Z" style="fill:#FED835"></path><path d="M244.14,94.64c-.15.21-2.67-1.43-6.93-3.68-2.13-1.13-4.72-2.37-7.64-3.61a100.38,100.38,0,0,0-9.74-3.47,98.8,98.8,0,0,0-10.07-2.33c-3.13-.53-6-.89-8.38-1.08-4.81-.4-7.81-.38-7.82-.63s3-.59,7.88-.47a71.72,71.72,0,0,1,8.55.76,83.09,83.09,0,0,1,10.28,2.25A85.69,85.69,0,0,1,230.14,86a71.77,71.77,0,0,1,7.61,4C241.93,92.53,244.24,94.5,244.14,94.64Z" style="fill:#FED835"></path><path d="M284.89,39.55c.15.23-3,2.17-7.21,6.24A78.55,78.55,0,0,0,263.93,64a181.79,181.79,0,0,0-9.65,20.88c-2.21,5.48-3.61,8.87-3.82,8.79s.84-3.58,2.79-9.18a135.64,135.64,0,0,1,9.31-21.25A69.07,69.07,0,0,1,276.94,45a44,44,0,0,1,5.64-4.25A7.84,7.84,0,0,1,284.89,39.55Z" style="fill:#FED835"></path><path d="M302.71,68.31c.06.24-2.93,1-7.61,2.67-2.34.81-5.09,1.89-8.08,3.19s-6.22,2.92-9.51,4.78-6.29,3.83-9,5.71-5,3.72-6.88,5.31c-3.81,3.18-6,5.34-6.2,5.17s1.8-2.56,5.47-6a79.91,79.91,0,0,1,6.77-5.64,92.6,92.6,0,0,1,9-5.91,91.46,91.46,0,0,1,9.71-4.74,80.85,80.85,0,0,1,8.32-2.92C299.59,68.54,302.67,68.13,302.71,68.31Z" style="fill:#FED835"></path><path d="M234.75,77.36c-.32.32-4.3-3.27-9.68-7s-10.07-6.37-9.88-6.78,5.29,1.6,10.79,5.5S235.05,77.09,234.75,77.36Z" style="fill:#FED835"></path><path d="M226.79,79.7c-.22.41-7.48-3.36-17-6.45s-17.61-4.38-17.54-4.85,8.33.17,18,3.36S227,79.37,226.79,79.7Z" style="fill:#FED835"></path><path d="M232.1,109.27c.08.51-9.93,1.55-21.12,6.46A112.07,112.07,0,0,0,197.16,123c-3.42,2.09-5.51,3.45-5.65,3.27s1.75-1.84,5.05-4.2a77.55,77.55,0,0,1,13.8-7.78,66.11,66.11,0,0,1,15.19-4.53C229.56,109.11,232.08,109.08,232.1,109.27Z" style="fill:#FED835"></path><path d="M253.57,162.67c-.18.06-1.24-2.6-2.43-7.06a104.49,104.49,0,0,1-3-35.8c.44-4.6,1-7.4,1.23-7.37s0,2.86-.13,7.44a155.28,155.28,0,0,0,.4,17.83,157.11,157.11,0,0,0,2.55,17.65C253.12,159.85,253.8,162.61,253.57,162.67Z" style="fill:#FED835"></path><path d="M298.77,141.9c-.35.36-7.78-7.25-18.85-14.05s-21.13-10.15-21-10.62c.05-.19,2.66.39,6.7,1.88a85.71,85.71,0,0,1,28.44,17.62C297.22,139.69,298.9,141.76,298.77,141.9Z" style="fill:#FED835"></path><path d="M323.94,131.77c-.16.21-3.4-2.33-9-5.84-.7-.43-1.44-.88-2.2-1.36s-1.6-.91-2.43-1.39c-1.67-1-3.52-1.91-5.45-2.92a117.06,117.06,0,0,0-26.6-9.53c-2.13-.44-4.14-.91-6.06-1.2-1-.16-1.87-.35-2.76-.47l-2.57-.35c-6.54-.83-10.64-.93-10.64-1.19a10.3,10.3,0,0,1,2.89-.22c.93,0,2.07,0,3.39,0s2.83.09,4.48.27l2.61.26c.9.09,1.83.25,2.81.38,1.94.24,4,.66,6.16,1.08a111,111,0,0,1,13.81,3.89A113.06,113.06,0,0,1,305.53,119c1.94,1,3.79,2,5.45,3.08.84.52,1.66,1,2.41,1.49l2.17,1.46c1.4.91,2.59,1.84,3.65,2.63s1.94,1.51,2.64,2.13C323.26,131,324,131.68,323.94,131.77Z" style="fill:#FED835"></path><path d="M290.82,104.45c-.14.47-8.24-2.12-18.58-2.33s-18.57,1.85-18.68,1.37c-.05-.18,1.94-1,5.31-1.71a57.69,57.69,0,0,1,26.73.68C288.93,103.38,290.88,104.26,290.82,104.45Z" style="fill:#FED835"></path><path d="M232.43,93.15c-.11.22-2.76-.89-7.23-2a90.54,90.54,0,0,0-17.81-2.46,85.9,85.9,0,0,0-17.93,1.12c-4.54.81-7.29,1.67-7.37,1.42s2.58-1.39,7.15-2.5a68.69,68.69,0,0,1,18.21-1.6,70.87,70.87,0,0,1,18,3C230,91.49,232.51,93,232.43,93.15Z" style="fill:#FED835"></path><path d="M231.79,98.38c-.14.45-5.56-1.18-12.44-1.34s-12.38,1.08-12.5.62c0-.19,1.27-.78,3.53-1.31a36.14,36.14,0,0,1,18,.51C230.57,97.53,231.86,98.19,231.79,98.38Z" style="fill:#FED835"></path><path d="M247.68,93.66c-.48.1-2.65-10.68-8-23S228.17,49.17,228.58,48.9c.15-.11,1.93,2,4.38,5.73a101.57,101.57,0,0,1,13.62,31.9C247.58,90.87,247.88,93.62,247.68,93.66Z" style="fill:#FED835"></path><path d="M238.13,110.6c.09.24-2.93,1.43-7.55,3.8-2.32,1.17-5,2.72-7.9,4.53a99.92,99.92,0,0,0-9.05,6.51,84.15,84.15,0,0,0-8.15,7.57c-1.16,1.25-2.26,2.45-3.21,3.64s-1.83,2.3-2.61,3.34c-3,4.19-4.52,7.08-4.77,6.95-.1-.05.19-.8.8-2.14a21.23,21.23,0,0,1,1.23-2.39c.53-.9,1.07-2,1.84-3s1.52-2.3,2.5-3.51,2-2.51,3.16-3.82a74.92,74.92,0,0,1,8.23-7.81,85,85,0,0,1,9.27-6.51,78.16,78.16,0,0,1,8.18-4.3C234.91,111.26,238.07,110.43,238.13,110.6Z" style="fill:#FED835"></path><path d="M297.83,87.82c0,.25-2.63.22-6.8.55-2.09.15-4.57.45-7.29.89a85.43,85.43,0,0,0-8.75,2,86.36,86.36,0,0,0-8.47,3c-2.54,1.09-4.79,2.16-6.64,3.14-3.7,2-5.9,3.38-6,3.18s1.87-1.9,5.49-4.14a61.61,61.61,0,0,1,6.62-3.5,70,70,0,0,1,8.6-3.17,68.74,68.74,0,0,1,9-1.92,60.22,60.22,0,0,1,7.46-.57C295.24,87.22,297.85,87.64,297.83,87.82Z" style="fill:#FED835"></path><path d="M377.83,105.63a.72.72,0,1,1-.72-.72A.72.72,0,0,1,377.83,105.63Z" style="fill:#FED835"></path><path d="M426.31,85.1a.72.72,0,0,1-.72.72.72.72,0,1,1,0-1.44A.72.72,0,0,1,426.31,85.1Z" style="fill:#FED835"></path><path d="M351.14,71.14a.72.72,0,1,1-.72-.72A.73.73,0,0,1,351.14,71.14Z" style="fill:#FED835"></path><path d="M364.85,54.33a.72.72,0,1,1-.72-.72A.72.72,0,0,1,364.85,54.33Z" style="fill:#FED835"></path><path d="M387.89,43.62a.72.72,0,1,1-.72-.72A.72.72,0,0,1,387.89,43.62Z" style="fill:#FED835"></path><path d="M404.43,54.33a.73.73,0,1,1-.72-.72A.72.72,0,0,1,404.43,54.33Z" style="fill:#FED835"></path><path d="M411.7,95.47a.72.72,0,1,1-1.44,0,.72.72,0,0,1,1.44,0Z" style="fill:#FED835"></path><path d="M361.85,91.23a.72.72,0,1,1-.72-.72A.73.73,0,0,1,361.85,91.23Z" style="fill:#FED835"></path><path d="M407.52,106.71a.3.3,0,1,1-.59,0,.3.3,0,0,1,.59,0Z" style="fill:#FED835"></path><path d="M354.29,84.57a.31.31,0,0,1-.3.3.3.3,0,0,1-.3-.3.29.29,0,0,1,.3-.3A.3.3,0,0,1,354.29,84.57Z" style="fill:#FED835"></path><circle cx="363.71" cy="66.58" r="0.3" style="fill:#FED835"></circle><path d="M417.76,76.19a.3.3,0,0,1-.3.3.29.29,0,0,1-.3-.3.3.3,0,0,1,.3-.3A.31.31,0,0,1,417.76,76.19Z" style="fill:#FED835"></path><path d="M380.75,53.61a.31.31,0,0,1-.3.3.3.3,0,0,1-.3-.3.29.29,0,0,1,.3-.3A.3.3,0,0,1,380.75,53.61Z" style="fill:#FED835"></path><path d="M415.82,57.9a.31.31,0,0,1-.3.3.3.3,0,1,1,0-.6A.31.31,0,0,1,415.82,57.9Z" style="fill:#FED835"></path><path d="M392.14,69.42c.28,0,.35,1.91-.07,4.17s-1.18,4-1.45,3.91,0-1.9.42-4.1S391.85,69.4,392.14,69.42Z" style="fill:#FED835"></path><path d="M398,52.55c.28.07-.42,3.53-1.56,7.72s-2.28,7.53-2.56,7.45.42-3.53,1.56-7.72S397.7,52.47,398,52.55Z" style="fill:#FED835"></path><path d="M400.11,62.15c.26.12-.92,3.13-2.64,6.7s-3.31,6.38-3.57,6.26.92-3.13,2.63-6.71S399.85,62,400.11,62.15Z" style="fill:#FED835"></path><path d="M410.27,61.07c.2.21-2.23,2.79-5.18,6s-5.33,5.81-5.56,5.63,1.81-3.11,4.8-6.34S410.08,60.86,410.27,61.07Z" style="fill:#FED835"></path><path d="M401.05,74.76c.13.25-1.26,1.24-3.1,2.2s-3.45,1.54-3.58,1.28,1.25-1.24,3.1-2.2S400.92,74.5,401.05,74.76Z" style="fill:#FED835"></path><path d="M422.45,65.47c.1.28-4,2.06-9,4.46s-8.91,4.49-9.06,4.24S408,71.41,413,69,422.35,65.21,422.45,65.47Z" style="fill:#FED835"></path><path d="M411,76.19c.07.28-2.16,1.07-5,1.76s-5.16,1-5.23.75,2.16-1.07,5-1.76S410.91,75.91,411,76.19Z" style="fill:#FED835"></path><path d="M421,82.29c0,.28-3.62.63-8.09.48s-8.08-.73-8.05-1,3.64-.17,8.08,0S421,82,421,82.29Z" style="fill:#FED835"></path><path d="M402.07,85.1c-.08.28-1.76,0-3.75-.58s-3.54-1.3-3.45-1.58,1.76,0,3.75.58S402.16,84.83,402.07,85.1Z" style="fill:#FED835"></path><path d="M423.58,91.92c-.09.28-4.11-.79-9.07-2.11s-9-2.4-8.91-2.68,4.2.34,9.18,1.68S423.67,91.65,423.58,91.92Z" style="fill:#FED835"></path><path d="M406.88,92.77c-.12.26-2-.35-4.08-1.62s-3.46-2.68-3.29-2.9,1.83.78,3.84,2S407,92.5,406.88,92.77Z" style="fill:#FED835"></path><path d="M411.7,106.35c-.21.19-3-2.58-6.23-6.2s-5.66-6.7-5.45-6.89,3,2.58,6.23,6.2S411.92,106.16,411.7,106.35Z" style="fill:#FED835"></path><path d="M396.39,93.22c-.24.16-1.35-1-2.48-2.61s-1.86-3-1.62-3.2,1.34,1,2.47,2.6S396.62,93.05,396.39,93.22Z" style="fill:#FED835"></path><path d="M407.22,115.18c-.24.14-2.44-3.3-4.59-7.83s-3.45-8.41-3.19-8.51,2,3.56,4.13,8.06S407.48,115,407.22,115.18Z" style="fill:#FED835"></path><path d="M395.2,105.92c-.28.08-1.28-2.74-2.23-6.3s-1.49-6.49-1.21-6.56S393,95.8,394,99.36,395.48,105.85,395.2,105.92Z" style="fill:#FED835"></path><path d="M388.92,112.74c-.28,0-.56-3.45-.6-7.71s.14-7.72.43-7.72.56,3.45.61,7.71S389.21,112.73,388.92,112.74Z" style="fill:#FED835"></path><path d="M386.32,96.31c-.28,0-.16-1.93.28-4.2s1-4.06,1.29-4,.16,1.93-.27,4.2S386.61,96.37,386.32,96.31Z" style="fill:#FED835"></path><path d="M380.48,114.84c-.28-.06.33-3.63,1.37-8s2.11-7.79,2.39-7.73-.33,3.64-1.37,8S380.75,114.91,380.48,114.84Z" style="fill:#FED835"></path><path d="M378.53,102.81c-.25-.13.64-2.59,2-5.49s2.68-5.18,2.95-5.06-.64,2.58-2,5.5S378.79,102.94,378.53,102.81Z" style="fill:#FED835"></path><path d="M377.87,94.07c.19.23-2.16,2.42-5.09,5.06s-5.35,4.73-5.56,4.53,1.91-2.65,4.87-5.31S377.7,93.85,377.87,94.07Z" style="fill:#FED835"></path><path d="M384.38,84.87c.16.23-1.33,1.55-3.34,2.94s-3.77,2.32-3.93,2.08,1.33-1.55,3.34-2.94S384.22,84.63,384.38,84.87Z" style="fill:#FED835"></path><path d="M373.62,92.23c.09.28-3.43,1.64-7.71,3.43S358.17,99,358,98.72s3.13-2.22,7.47-4S373.54,92,373.62,92.23Z" style="fill:#FED835"></path><path d="M377.73,85.46c.11.27-2.56,1.55-6,2.65s-6.39,1.6-6.46,1.32,2.7-1.22,6.14-2.31S377.63,85.19,377.73,85.46Z" style="fill:#FED835"></path><path d="M374.32,82.4c0,.29-3.13.56-7,.61s-7-.14-7-.43,3.13-.56,7-.61S374.32,82.11,374.32,82.4Z" style="fill:#FED835"></path><path d="M382.11,81.17c0,.28-1.5.39-3.23-.06s-3-1.24-2.86-1.49,1.47.07,3.12.48S382.13,80.88,382.11,81.17Z" style="fill:#FED835"></path><path d="M372.63,77.87c-.05.27-4.21-.36-9.17-1.84s-8.78-3.22-8.68-3.48,4.07,1,9,2.48S372.69,77.58,372.63,77.87Z" style="fill:#FED835"></path><path d="M380,77.19c-.17.24-2.67-1.16-5.79-2.82s-5.67-3-5.56-3.23,2.89.62,6.05,2.31S380.15,77,380,77.19Z" style="fill:#FED835"></path><path d="M379.78,72.18c-.21.2-3.13-2.32-6.64-5.5s-6.32-5.84-6.13-6.06,3.29,2.09,6.82,5.29S380,72,379.78,72.18Z" style="fill:#FED835"></path><path d="M386.08,78.76c-.25.13-1.4-1.54-2.37-3.82s-1.38-4.27-1.11-4.36,1.11,1.71,2.07,4S386.34,78.62,386.08,78.76Z" style="fill:#FED835"></path><path d="M387,74c-.27.09-1.47-2.85-2.68-6.56s-2-6.8-1.7-6.89,1.48,2.85,2.69,6.57S387.28,73.88,387,74Z" style="fill:#FED835"></path><path d="M389.2,67.45c-.29,0-.6-3.51-.69-7.85s.07-7.86.35-7.87.6,3.51.69,7.85S389.49,67.44,389.2,67.45Z" style="fill:#FED835"></path><path d="M382.35,68.31c-.25.14-2.78-4.06-5.64-9.36s-5-9.73-4.73-9.87,2.78,4.06,5.64,9.37S382.61,68.17,382.35,68.31Z" style="fill:#FED835"></path></g><g id="freepik--Table--inject-3"><path d="M461.63,463.8c0,.15-94.76.26-211.62.26S38.37,464,38.37,463.8s94.74-.26,211.64-.26S461.63,463.66,461.63,463.8Z" style="fill:#263238"></path></g><g id="freepik--Characters--inject-3"><path d="M411.75,302.35l-30.88,38.72c.29,1.05-4.63-21.05-8.12-35.78-2.72-11.48-11.12-14.39-11.12-14.39s-6.31,3.61-9.11,14.8a142.7,142.7,0,0,0-3.64,24.09l11.93,32a18.65,18.65,0,0,0,8.79,9.05,19,19,0,0,0,19.13-1.76l3-2.09a19.49,19.49,0,0,0,4.93-5l28.05-47.64Z" style="fill:#ffbe9d"></path><path d="M422.08,316.32l7.08-5.34,5.28-4c.65-.52,1.18-1,1.52-1.27,2.35-2.18,1.49-5.65,1.49-5.65l1.21-3a4.09,4.09,0,0,0-1.07-4.78,83,83,0,0,1,9.33-7.3c4.38-2.73,4.85-3.77,2.83-5.14s-16.89,7.61-16.89,7.61,3.08-5.48,5.78-10.5.1-5.89-1.1-5.5c-1.5.49-6.91,8.07-10.39,13.12-1.76,2.57-3,4.48-3,4.48s-4.05,1.93-6.59,3.49a8.92,8.92,0,0,0-1.84,1.34c-1.23,1.4-4.87,10.95-4.87,10.95L408.39,309" style="fill:#ffbe9d"></path><path d="M419.08,306.71a2.36,2.36,0,0,0,.84-.17,6.56,6.56,0,0,0,2.14-1.13,7,7,0,0,0,2.23-3,7.3,7.3,0,0,0,.1-4.86l-.47.24a13.27,13.27,0,0,0,3.52,3.68,5.61,5.61,0,0,0,5.59.45,3.52,3.52,0,0,0,.38-.24l.22-.13-.13-.25c-1.42-2.68-2.76-5.23-4-7.56a9,9,0,0,0-1.06-1.66,3.23,3.23,0,0,0-1.59-1.07,5.24,5.24,0,0,0-3.32.3,26.43,26.43,0,0,0-2.42,1.17,10.81,10.81,0,0,1-1.84.75,7.53,7.53,0,0,1-1.67.21s.14.07.44.1a4.17,4.17,0,0,0,1.29-.09,9.65,9.65,0,0,0,1.92-.67c.73-.32,1.51-.76,2.42-1.08a4.94,4.94,0,0,1,3-.23A4.26,4.26,0,0,1,429,294c1.22,2.33,2.55,4.89,4,7.58l.09-.38c-.1.06-.2.14-.32.2a5.05,5.05,0,0,1-5-.42,12.78,12.78,0,0,1-3.4-3.49L423.3,296l.59,1.68a6.8,6.8,0,0,1-2,7.48A9.36,9.36,0,0,1,419.08,306.71Z" style="fill:#eb996e"></path><path d="M427.49,301.42s-.22.05-.55.24a4.66,4.66,0,0,0-1.27,1.06,2.39,2.39,0,0,0-.39,2.49,1.78,1.78,0,0,0,1.28,1,4.35,4.35,0,0,0,1.61,0,47,47,0,0,0,7.28-1.8c0-.17-3.35.38-7.38,1.21-1,.21-2,.13-2.3-.57a2,2,0,0,1,.24-2,6.16,6.16,0,0,1,1.06-1.12C427.36,301.6,427.51,301.45,427.49,301.42Z" style="fill:#eb996e"></path><path d="M431.92,299c.07.16,1.08-.16,2.35-.12s2.27.39,2.35.24-.91-.8-2.33-.83S431.84,298.89,431.92,299Z" style="fill:#eb996e"></path><path d="M429.69,293.93c.09.14,1.41-.54,3.17-.91a13.7,13.7,0,0,1,2.27-.31c.56,0,.76.27.84.24s0-.13-.08-.29a1.17,1.17,0,0,0-.72-.37,7.25,7.25,0,0,0-2.43.15A5.26,5.26,0,0,0,429.69,293.93Z" style="fill:#eb996e"></path><path d="M379.05,356.76a8.59,8.59,0,0,1-.48-2.43,26,26,0,0,1,0-6,26.54,26.54,0,0,1,1.38-5.82,9,9,0,0,1,1-2.24,37.76,37.76,0,0,0-2,16.47Z" style="fill:#eb996e"></path><path d="M295,279.81s-8.18-.08-12.86,12l8,12.5Z" style="fill:#455a64"></path><path d="M356.88,321.93c-.9.89-12.21,50.71-12.21,50.71h0s16.57,25.75,20.16,39.22,5.85,52,5.85,52H282.05l-4.2-128.47L295,279.81l38.2-3.5,28.4,14.59Z" style="fill:#455a64"></path><path d="M344.67,372.64a2.79,2.79,0,0,1-.58.21l-1.69.5c-.73.21-1.63.5-2.68.75l-3.59.84c-1.34.28-2.82.53-4.4.83s-3.29.48-5.09.69a85.41,85.41,0,0,1-11.76.42,61.48,61.48,0,0,1-11.66-1.64,40.38,40.38,0,0,1-9-3.48l-1.66-1.05a10.6,10.6,0,0,1-1.43-1l-1.17-1a6.23,6.23,0,0,1-.95-.86l-1.19-1.29a2.83,2.83,0,0,1-.39-.48,3.83,3.83,0,0,1,.47.4l1.25,1.22a6.84,6.84,0,0,0,1,.82l1.19.92a10.44,10.44,0,0,0,1.43.95l1.65,1a42,42,0,0,0,8.91,3.33,62.86,62.86,0,0,0,11.57,1.59,89.68,89.68,0,0,0,11.68-.37c1.79-.2,3.49-.42,5.07-.64s3.06-.51,4.39-.77l3.6-.76c1.06-.23,2-.49,2.7-.66l1.71-.41A2.44,2.44,0,0,1,344.67,372.64Z" style="fill:#263238"></path><path d="M311.82,424.7c-.15,0-.46-10.82-.69-24.18s-.32-24.18-.18-24.18.46,10.82.7,24.18S312,424.69,311.82,424.7Z" style="fill:#263238"></path><path d="M322.17,445.32c-.14,0-1.63-15.23-3.31-34s-2.94-34.07-2.79-34.08,1.62,15.22,3.31,34S322.31,445.31,322.17,445.32Z" style="fill:#263238"></path><path d="M325.43,353.57a5.43,5.43,0,0,1-1.07-.44,27,27,0,0,1-2.78-1.52,38.47,38.47,0,0,1-14.07-15.15,27.81,27.81,0,0,1-1.3-2.88,4.28,4.28,0,0,1-.36-1.1c.08,0,.7,1.49,2,3.81a42.39,42.39,0,0,0,13.94,15C324,352.75,325.47,353.49,325.43,353.57Z" style="fill:#263238"></path><path d="M347.34,329.14l11.06,26.19L379.32,334l-7-30.15s-3.41-12.42-12.35-13-1.39-1.48-1.39-1.48-11,13.17-12.26,25.65S347.34,329.14,347.34,329.14Z" style="fill:#455a64"></path><path d="M361,291.19a20.93,20.93,0,0,0-10.25,14.43,50.5,50.5,0,0,0-1,12.88c.06,1.59.11,2.92.14,3.94a7.67,7.67,0,0,1,0,1.45,6.59,6.59,0,0,1-.2-1.43c-.09-.93-.21-2.27-.3-3.94a45.86,45.86,0,0,1,.82-13,23,23,0,0,1,6.24-11.37,15.42,15.42,0,0,1,3.2-2.35,9.83,9.83,0,0,1,1-.47C360.9,291.21,361,291.17,361,291.19Z" style="fill:#263238"></path><path d="M289.88,339.83a24.19,24.19,0,0,1,.74-5,24.87,24.87,0,0,1,1.25-4.93,49.75,49.75,0,0,1-2,10Z" style="fill:#fafafa"></path><path d="M304.64,364a12.7,12.7,0,0,1-2.14-2.84,12.32,12.32,0,0,1-1.7-3.13,12.1,12.1,0,0,1,2.14,2.84A12.32,12.32,0,0,1,304.64,364Z" style="fill:#fafafa"></path><path d="M328.66,329.51a15.91,15.91,0,0,1-3,2.73,16.07,16.07,0,0,1-3.29,2.32,31.11,31.11,0,0,1,6.24-5.05Z" style="fill:#fafafa"></path><path d="M310.88,311.34a17.4,17.4,0,0,1-2.29-3.6,17.92,17.92,0,0,1-1.84-3.85,17.4,17.4,0,0,1,2.29,3.6A17.59,17.59,0,0,1,310.88,311.34Z" style="fill:#fafafa"></path><path d="M345.89,292.62a13.15,13.15,0,0,1-2.83,2.29,12.59,12.59,0,0,1-3.12,1.86,25,25,0,0,1,5.95-4.15Z" style="fill:#fafafa"></path><path d="M292.69,288.78c0,.14-.8.26-1.78.26s-1.79-.12-1.79-.26.8-.26,1.79-.26S292.69,288.64,292.69,288.78Z" style="fill:#fafafa"></path><path d="M362.26,318.21a12,12,0,0,1,.33-3.46,11.48,11.48,0,0,1,.86-3.38,23.32,23.32,0,0,1-1.19,6.84Z" style="fill:#fafafa"></path><path d="M360.47,337.53c-.07.12-1.11-.47-2-1.58a4.38,4.38,0,0,1-1.23-2.28c.14-.07.74.89,1.63,1.94S360.56,337.41,360.47,337.53Z" style="fill:#fafafa"></path><path d="M338.16,393.43a7.41,7.41,0,0,1-1.29-2.42,7.6,7.6,0,0,1-.8-2.63,14.34,14.34,0,0,1,2.09,5.05Z" style="fill:#fafafa"></path><path d="M293.29,395.21a7.22,7.22,0,0,1,1.27-2.38c.82-1.23,1.58-2.16,1.7-2.08a7.12,7.12,0,0,1-1.27,2.37C294.17,394.35,293.41,395.29,293.29,395.21Z" style="fill:#fafafa"></path><path d="M307.26,412.15c-.1.11-.92-.54-1.82-1.45s-1.55-1.71-1.45-1.82.91.55,1.82,1.45S307.36,412.05,307.26,412.15Z" style="fill:#fafafa"></path><path d="M296,440.4a11.72,11.72,0,0,1-2.84,2A11.39,11.39,0,0,1,290,444,23.59,23.59,0,0,1,296,440.4Z" style="fill:#fafafa"></path><path d="M308.21,455.83c-.15.06-.94-1.65-2.19-3.6s-2.46-3.39-2.35-3.49a10.52,10.52,0,0,1,2.79,3.21A10.74,10.74,0,0,1,308.21,455.83Z" style="fill:#fafafa"></path><path d="M318.56,425.83a6.91,6.91,0,0,1-2.28,1.28,6.78,6.78,0,0,1-2.48.8,12.91,12.91,0,0,1,4.76-2.08Z" style="fill:#fafafa"></path><path d="M321.53,394c0,.14-.74.45-1.72.7s-1.81.33-1.85.19.74-.45,1.72-.7S321.49,393.88,321.53,394Z" style="fill:#fafafa"></path><path d="M337.38,429.94a18.79,18.79,0,0,1-2.19-3.88,19,19,0,0,1-1.72-4.12,20,20,0,0,1,2.19,3.89A19.26,19.26,0,0,1,337.38,429.94Z" style="fill:#fafafa"></path><path d="M357.8,430a18,18,0,0,1,.94-4.23,17.67,17.67,0,0,1,1.44-4.09,19.25,19.25,0,0,1-.94,4.23A18.24,18.24,0,0,1,357.8,430Z" style="fill:#fafafa"></path><path d="M339,454.68a23,23,0,0,1-1-4.71,22.6,22.6,0,0,1-.52-4.8,21.55,21.55,0,0,1,1,4.71A22.6,22.6,0,0,1,339,454.68Z" style="fill:#fafafa"></path><path d="M335.94,363.26a27.58,27.58,0,0,1,2.19-4.78,27,27,0,0,1,2.66-4.54,27.38,27.38,0,0,1-2.2,4.78A25.59,25.59,0,0,1,335.94,363.26Z" style="fill:#fafafa"></path><path d="M324.59,371.72a9.4,9.4,0,0,1-.29-3.05,9,9,0,0,1,.23-3.06,9.45,9.45,0,0,1,.29,3.05A8.9,8.9,0,0,1,324.59,371.72Z" style="fill:#fafafa"></path><path d="M282.86,363.26a18.48,18.48,0,0,1,2.35-5.63,17.59,17.59,0,0,1-2.35,5.63Z" style="fill:#fafafa"></path><path d="M348.63,414a12.4,12.4,0,0,1-1.65-3.19,12.54,12.54,0,0,1-1.17-3.39,24.77,24.77,0,0,1,2.82,6.58Z" style="fill:#fafafa"></path><path d="M357.48,454.88a11,11,0,0,1-1-3.23,11.12,11.12,0,0,1-.47-3.34,11,11,0,0,1,1,3.23A11.26,11.26,0,0,1,357.48,454.88Z" style="fill:#fafafa"></path><path d="M299.77,318.17a10.62,10.62,0,0,1-2.95-1.42,10.41,10.41,0,0,1-2.68-1.87,10.62,10.62,0,0,1,2.95,1.42A10.47,10.47,0,0,1,299.77,318.17Z" style="fill:#fafafa"></path><path d="M332.15,311.93a8.29,8.29,0,0,1-2.75,1,8.39,8.39,0,0,1-2.88.46,16.16,16.16,0,0,1,5.63-1.43Z" style="fill:#fafafa"></path><path d="M360.17,223.13c-1.25-2.64.08-6,2.53-7.63a9.78,9.78,0,0,1,8.45-.65,13.73,13.73,0,0,1,8.94,11.69,10.06,10.06,0,0,1,5.37,3.61c3.81,4.84,3.23,12.46-1,16.92a14.94,14.94,0,0,1-17,2.75,17,17,0,0,1-9-15.06" style="fill:#263238"></path><path d="M356.14,225.93a2.56,2.56,0,0,1,1.21-2.83,3.92,3.92,0,0,1,3.2-.24,9.17,9.17,0,0,1,2.84,1.67,14.28,14.28,0,0,1,3.3,3.55,7.31,7.31,0,0,1,1.13,4.63,4.93,4.93,0,0,1-2.64,3.84,3.75,3.75,0,0,1-4.42-.89" style="fill:#FED835"></path><path d="M352.08,211.28c.1-3-2.68-5.36-5.48-6.48s-5.93-1.55-8.42-3.25c-2.21-1.5-3.69-3.84-5.56-5.75a18.58,18.58,0,0,0-31.29,8.39c-1.1,4.29-.39,9.37,3,12.24,3.92,3.34,9.75,2.63,14.8,1.62s10.75-2,14.94,1c2.53,1.8,4,4.7,5.51,7.4s3.47,5.44,6.4,6.47,6.92-.71,7-3.81" style="fill:#263238"></path><path d="M351.87,212.93c-.34,2.53,1.48,4.81,3.29,6.6s3.87,3.7,4.18,6.23c.36,3-1.81,5.86-1.2,8.78.39,1.85,1.82,3.28,2.69,5a10.56,10.56,0,0,1,.5,7.76c-.77,2.54-2,8.23-3.77,10.2a40.86,40.86,0,0,1-19.91,11.75c-7.16,1.61-14.6,1.59-21.93,1.1-6-.4-12.9-.15-17.86-8.43-2.57-4.29-3.83-10-5.18-14.79-1.17-4.15-2.17-8.58-.92-12.7.73-2.4,2.18-4.53,2.9-6.94.9-3,.59-6.21,1-9.32a21.41,21.41,0,0,1,30.55-16.77" style="fill:#263238"></path><path d="M344.61,217a5.06,5.06,0,0,0-4.48-5.16l-26.76-7c-8.57-1-14.35,9.56-14.95,18.17-.67,9.57-1.11,21.27,0,28.42,2.19,14.37,13.18,16.27,13.18,16.27s0,2.09,0,7.31a42,42,0,0,0,.07,8.88l.19,1.33c.68,4,3.81,4.69,7.28,5.92,11.77,4.15,22.37-9.55,22.37-9.55l-.19,0Z" style="fill:#ffbe9d"></path><path d="M303.25,232.1A1.84,1.84,0,0,0,305,234a1.77,1.77,0,0,0,1.91-1.65,1.84,1.84,0,0,0-1.76-1.87A1.77,1.77,0,0,0,303.25,232.1Z" style="fill:#263238"></path><path d="M301.46,229.72c.23.25,1.63-.78,3.61-.76s3.43,1,3.64.78-.12-.54-.75-1a5.12,5.12,0,0,0-2.91-.92,4.87,4.87,0,0,0-2.88.91C301.56,229.18,301.35,229.62,301.46,229.72Z" style="fill:#263238"></path><path d="M320.64,234.12c.23.24,1.63-.78,3.61-.76s3.43,1,3.65.78-.12-.55-.76-1a5,5,0,0,0-2.91-.92,4.83,4.83,0,0,0-2.88.91C320.74,233.58,320.53,234,320.64,234.12Z" style="fill:#263238"></path><path d="M313.15,244.32a12.52,12.52,0,0,0-3.21-.61c-.51-.05-1-.16-1.07-.5a2.56,2.56,0,0,1,.35-1.5l1.52-3.84c2.12-5.47,3.65-10,3.43-10.06s-2.12,4.29-4.23,9.76c-.51,1.35-1,2.63-1.46,3.86a2.94,2.94,0,0,0-.28,2,1.29,1.29,0,0,0,.83.74,3.21,3.21,0,0,0,.86.13A13.25,13.25,0,0,0,313.15,244.32Z" style="fill:#263238"></path><path d="M311.62,267.75a36.57,36.57,0,0,0,19.27-5s-4.74,9.83-19.1,8.39Z" style="fill:#eb996e"></path><path d="M314,249.1a3.57,3.57,0,0,1,3.21-1.31,3.25,3.25,0,0,1,2.24,1.23,2.06,2.06,0,0,1,.14,2.36,2.4,2.4,0,0,1-2.6.64,7.52,7.52,0,0,1-2.52-1.53,2.28,2.28,0,0,1-.57-.59.68.68,0,0,1,0-.74" style="fill:#eb996e"></path><path d="M319,245.73c-.32,0-.34,2.13-2.19,3.64s-4.14,1.26-4.16,1.56c0,.14.51.42,1.48.46a5.33,5.33,0,0,0,3.47-1.19,4.64,4.64,0,0,0,1.7-3C319.36,246.25,319.12,245.71,319,245.73Z" style="fill:#263238"></path><path d="M319.57,226.2c.2.54,2.18.29,4.5.59s4.2.94,4.51.46c.14-.23-.18-.74-.94-1.27a7.67,7.67,0,0,0-3.34-1.19,7.54,7.54,0,0,0-3.52.39C319.92,225.52,319.49,225.94,319.57,226.2Z" style="fill:#263238"></path><path d="M301.74,223.44c.34.45,1.71,0,3.35,0s3,.33,3.35-.14c.15-.23-.07-.68-.68-1.11a4.83,4.83,0,0,0-5.4.13C301.78,222.76,301.58,223.22,301.74,223.44Z" style="fill:#263238"></path><path d="M350,259.13A12.74,12.74,0,0,1,334.89,245c.46-3.53,2.38-7.1,1.17-10.45-1.6-4.42-7.78-5.8-9.4-10.21-.94-2.57-.07-5.56-1.14-8.07-1-2.36-3.48-3.73-5.89-4.62s-5-1.5-7-3.08-3.27-4.57-1.95-6.77A135.81,135.81,0,0,1,342,209.52c2.34.89,4.8,1.95,6.18,4s1.37,5.06,1.23,7.7l-2,38.67" style="fill:#263238"></path><path d="M349.06,264.06s.09,0,.24-.15l.64-.48c.56-.43,1.37-1.08,2.39-2a26,26,0,0,0,3.39-3.54,13.23,13.23,0,0,0,2.71-5.9,9,9,0,0,0-1.82-7.56,28.72,28.72,0,0,0-3.33-2.87,7.72,7.72,0,0,1-2.59-3.57c-1.05-2.93-.56-6.32-1-9.78a19.39,19.39,0,0,0-4-9.91,13.43,13.43,0,0,0-4.24-3.5,26.17,26.17,0,0,0-5-1.72,11.75,11.75,0,0,1-4.4-2.19,17.49,17.49,0,0,1-3.18-3.55c-1.79-2.57-3.12-5.3-4.82-7.59a16.24,16.24,0,0,0-2.82-3,10.84,10.84,0,0,0-3.34-1.85,7.14,7.14,0,0,0-6.38.61,5.89,5.89,0,0,0-2.29,4.29,4.32,4.32,0,0,0,.85,3,2.86,2.86,0,0,0,.58.56,1,1,0,0,0,.23.15,1.85,1.85,0,0,0-.18-.2,3,3,0,0,1-.53-.59,4.25,4.25,0,0,1-.7-2.86,5.61,5.61,0,0,1,2.24-4,6.76,6.76,0,0,1,6-.47,10.2,10.2,0,0,1,3.18,1.79,16.38,16.38,0,0,1,2.71,2.95c1.65,2.25,2.94,5,4.76,7.61a17.48,17.48,0,0,0,3.28,3.68,12.35,12.35,0,0,0,4.6,2.32,26.1,26.1,0,0,1,4.91,1.68,13,13,0,0,1,4,3.35,18.82,18.82,0,0,1,3.9,9.58c.4,3.35-.1,6.79,1,9.91a8.39,8.39,0,0,0,2.78,3.8,29.31,29.31,0,0,1,3.3,2.79A8.54,8.54,0,0,1,358,252a13,13,0,0,1-2.55,5.76,27,27,0,0,1-3.28,3.57c-1,.9-1.77,1.58-2.3,2A7.72,7.72,0,0,0,349.06,264.06Z" style="fill:#455a64"></path><path d="M384.12,237.39a1.25,1.25,0,0,1,.34.2,4.83,4.83,0,0,1,.85.8,6.7,6.7,0,0,1,1.47,4,10.92,10.92,0,0,1-1.78,6,14,14,0,0,1-5.57,5.26,11.26,11.26,0,0,1-7.58,1,9.5,9.5,0,0,1-3.11-1.33,9.3,9.3,0,0,1-2.15-2,8.36,8.36,0,0,1-1.68-3.87,5.92,5.92,0,0,1-.08-1.15c0-.27,0-.4.05-.4s0,.55.21,1.51a8.77,8.77,0,0,0,1.76,3.71,8.95,8.95,0,0,0,5.1,3.13,11,11,0,0,0,7.27-1,13.84,13.84,0,0,0,5.41-5.07,10.68,10.68,0,0,0,1.81-5.76,6.63,6.63,0,0,0-1.28-3.85A11.17,11.17,0,0,0,384.12,237.39Z" style="fill:#263238"></path><path d="M348.12,241.23a2.94,2.94,0,0,1-.48.22c-.32.13-.8.31-1.43.5a16.78,16.78,0,0,1-5.51.8,11,11,0,0,1-7.56-3.1,9.1,9.1,0,0,1-2.33-4.32,28.34,28.34,0,0,0-1.41-5,10.44,10.44,0,0,0-3.33-3.79,29.65,29.65,0,0,0-4.15-2.45c-2.75-1.39-5.26-2.8-6.8-4.65a8.12,8.12,0,0,1-2.06-5.13,5.26,5.26,0,0,1,.21-1.51,2,2,0,0,1,.2-.49,8.32,8.32,0,0,0-.23,2,8.19,8.19,0,0,0,2.13,4.91c1.52,1.76,4,3.12,6.75,4.48a29.27,29.27,0,0,1,4.22,2.47,10.83,10.83,0,0,1,3.49,4,28.1,28.1,0,0,1,1.43,5.05,8.72,8.72,0,0,0,2.19,4.14,10.83,10.83,0,0,0,7.27,3.07,18.19,18.19,0,0,0,5.44-.65C347.42,241.44,348.1,241.19,348.12,241.23Z" style="fill:#263238"></path><path d="M262.94,195.25c5.67-1.65,11.57-3,17.44-2.37s11.78,3.47,14.79,8.55c2.4,4.07,2.69,9.14,1.61,13.74-.85,3.65-2.51,7.54-1,11,.74,1.66-1.11,8.87-.77,10.65,1.92,10.22,1.89,17.56-3.85,23.15-13.05,23-1.82,25.26,1.9,32.88,4.88,10-1.89,21.3-8.49,30.25-16-17-33.2-68.55-38.39-91.3-1.82-7.95-2.89-16.27-1.18-24.24s10.49-8.91,17.92-12.27" style="fill:#263238"></path><path d="M225.27,376.85S214,411.63,211.9,428.39a281.79,281.79,0,0,0-1.68,35.48h83L283.45,382l-10.86-9.31Z" style="fill:#263238"></path><path d="M227.71,464.08a5,5,0,0,1-.15-.85c-.08-.6-.19-1.41-.32-2.43s-.31-2.35-.43-3.86-.32-3.23-.39-5.14-.23-4-.25-6.23,0-4.64,0-7.16c.15-5.05.53-10.59,1.27-16.36s1.81-11.23,3-16.15c.6-2.45,1.16-4.78,1.8-6.93s1.21-4.16,1.79-6,1.16-3.44,1.65-4.87,1-2.65,1.35-3.64.68-1.72.9-2.29a5.33,5.33,0,0,1,.35-.78,4.73,4.73,0,0,1-.25.82l-.81,2.32c-.36,1-.8,2.22-1.26,3.66s-1,3.06-1.58,4.89-1.17,3.82-1.73,6-1.16,4.48-1.74,6.93c-1.11,4.91-2.14,10.35-2.91,16.1s-1.12,11.28-1.3,16.31c0,2.52-.12,4.91-.06,7.14s.1,4.32.18,6.22.23,3.62.32,5.13.23,2.81.34,3.87.17,1.83.22,2.44A6.8,6.8,0,0,1,227.71,464.08Z" style="fill:#455a64"></path><path d="M237.34,210.62c-3.56,10-8.79,17-14.42,25.78-2.57,4-5.22,8.31-5.24,13.08,0,3.53,1.43,7.14.4,10.52-1.58,5.22-8.21,7.39-10.33,12.42-2.21,5.25,2.93,11.6.78,16.88-3.06,7.53-3.76,28-2.89,21.69.15-1.11,2.73,14.81,2.73,14.81l24.42-16.67,11.15-36.83-2.44-62.76" style="fill:#263238"></path><path d="M222.19,331.65c1.27,2.9,5.76,28.14,5.76,28.14s-14.09,14.51-5,24.56c0,0,2.45-4.82,4.08-4.82,0,0,21.33-2,27.39.83,8.89,4.13,22.54,2.6,22.54,2.6s11.74-.32,12.38-5.72-3.18-14.92-3.18-14.92l3.25-23.5s7.23-17.14,5.33-24.45c-1.49-5.69-16.41-36.76-16.41-36.76L275,275.73l-3.65,11.06-20.82-12.9-18.68,5.18-10.46,48.54Z" style="fill:#FED835"></path><path d="M223.62,362.57c-1-1.29-3-1.11-3.38-.11s1.48,3.44,2,4.37a10.35,10.35,0,0,0,2.21,2.37,5.09,5.09,0,0,0,1.51,1,1.73,1.73,0,0,0,1.73-.22,1.75,1.75,0,0,0,.37-1.8,5,5,0,0,0-1-1.63c.55.88,1.43,1.8,2.45,1.6a2,2,0,0,0,1.27-2.36,5.7,5.7,0,0,0-1.55-2.51,6.29,6.29,0,0,0,2.25.88,2.08,2.08,0,0,0,2.09-.94,3.13,3.13,0,0,0-.22-2.88,18.2,18.2,0,0,0-4-5c-.76-.6-2.71-1.78-3.42-1.24a2.53,2.53,0,0,0-.28,3.13,2.93,2.93,0,0,0-3.58-.08,2.57,2.57,0,0,0-.25,2.78,7.15,7.15,0,0,0,1.85,2.65" style="fill:#ffbe9d"></path><path d="M227.63,367.39a18.49,18.49,0,0,1-2.27-2.55,20,20,0,0,1-2.21-2.6,8.39,8.39,0,0,1,2.61,2.26A8.18,8.18,0,0,1,227.63,367.39Z" style="fill:#eb996e"></path><path d="M230.59,363.61a12.3,12.3,0,0,1-3-2.93,12,12,0,0,1-2.26-3.49,27.74,27.74,0,0,1,2.66,3.17A26.37,26.37,0,0,1,230.59,363.61Z" style="fill:#eb996e"></path><path d="M222.62,327.54s3.93,18.65,11.43,18.66c9.78,0,11.32-10.82,12.59-14.63s-10-54-10-54l-13.46,4Z" style="fill:#ffbe9d"></path><path d="M227.59,283s-1.86-3.24-6.62-.41a12.32,12.32,0,0,0-4.38,4.57l-11,23.85a357.91,357.91,0,0,0,3,38.63l27.94-37.07S237.12,284.17,227.59,283Z" style="fill:#ffbe9d"></path><path d="M239.83,318.29a7.45,7.45,0,0,0-3.59,0,9.37,9.37,0,0,0-3.45,1.81,36.36,36.36,0,0,0-3.52,3.37c-2.4,2.52-4.44,4.93-5.88,6.69A35.45,35.45,0,0,1,221,333a3.79,3.79,0,0,1,.5-.86c.36-.53.9-1.28,1.59-2.2a77.84,77.84,0,0,1,5.79-6.81,33.13,33.13,0,0,1,3.6-3.4,9.46,9.46,0,0,1,3.66-1.79,6.16,6.16,0,0,1,2.75,0A2.43,2.43,0,0,1,239.83,318.29Z" style="fill:#eb996e"></path><path d="M247.47,369.17a13.4,13.4,0,0,1-.09,1.68,10.57,10.57,0,0,0,2.67,7.36c.68.76,1.2,1.16,1.15,1.23a3.61,3.61,0,0,1-1.42-1,9.32,9.32,0,0,1-2.77-7.63A3.68,3.68,0,0,1,247.47,369.17Z" style="fill:#263238"></path><path d="M236.26,372c.09,0,.35.88,1.24,2.07a11.23,11.23,0,0,0,4.54,3.45,25.34,25.34,0,0,0,5.62,1.54,12.21,12.21,0,0,1,2.4.5,10.3,10.3,0,0,1-2.45-.14,20.52,20.52,0,0,1-5.77-1.42,10.57,10.57,0,0,1-4.64-3.72,6.71,6.71,0,0,1-.81-1.63C236.26,372.21,236.23,372,236.26,372Z" style="fill:#263238"></path><path d="M284.89,323.16a3.49,3.49,0,0,1-.08,1,22,22,0,0,1-.56,2.76,30.89,30.89,0,0,1-9.75,15.59,21.74,21.74,0,0,1-2.24,1.72,3.65,3.65,0,0,1-.9.52c-.05-.07,1.16-.91,2.89-2.51a34.8,34.8,0,0,0,5.86-7.06,34.3,34.3,0,0,0,3.78-8.36C284.57,324.59,284.8,323.14,284.89,323.16Z" style="fill:#263238"></path><path d="M275,275.73c-.08-5.69-.31-9.06-.31-9.06s11.27-1.79,13.7-16.47c1.21-7.29.93-19.28.38-29.07-.5-8.82-12.74-18.8-21.53-17.93l-25.71,6.34.06,4.74,3.28,59.44,26.48,13.07Z" style="fill:#ffbe9d"></path><path d="M286.5,231.23c-.24.24-1.66-.83-3.69-.83s-3.52,1-3.73.74.13-.55.78-1a5.24,5.24,0,0,1,3-.9,5,5,0,0,1,2.93,1C286.41,230.67,286.61,231.12,286.5,231.23Z" style="fill:#263238"></path><path d="M266.06,231.83c-.23.24-1.65-.82-3.68-.83s-3.52,1-3.74.74.13-.55.79-1a5.23,5.23,0,0,1,3-.9,5,5,0,0,1,2.93,1C266,231.27,266.18,231.72,266.06,231.83Z" style="fill:#263238"></path><path d="M273.42,242.67a13.92,13.92,0,0,1,3.3-.57c.52,0,1-.15,1.1-.5a2.65,2.65,0,0,0-.34-1.54c-.48-1.26-1-2.57-1.5-3.95-2.09-5.63-3.6-10.26-3.37-10.34s2.1,4.41,4.19,10l1.44,4a3,3,0,0,1,.26,2,1.3,1.3,0,0,1-.86.75,3.3,3.3,0,0,1-.88.12A12.69,12.69,0,0,1,273.42,242.67Z" style="fill:#263238"></path><path d="M274.66,266.67A37.38,37.38,0,0,1,255,261.29s5,10.12,19.73,8.85Z" style="fill:#eb996e"></path><path d="M266.08,222.72c-.2.55-2.22.28-4.6.55s-4.31.92-4.62.42c-.14-.24.19-.75,1-1.28a8.08,8.08,0,0,1,7-.74C265.73,222,266.17,222.46,266.08,222.72Z" style="fill:#263238"></path><path d="M286,223.44c-.35.46-1.75,0-3.43,0s-3.1.36-3.43-.11c-.15-.23.06-.7.68-1.15a5,5,0,0,1,5.53.08C285.91,222.74,286.11,223.21,286,223.44Z" style="fill:#263238"></path><path d="M273.94,248a8.11,8.11,0,0,1-.53,2.35,2.82,2.82,0,0,1-1.67,1.64,2.57,2.57,0,0,1-2.39-.61,4,4,0,0,1-1.19-2.24c-.16-.76,0-1.74.68-2a2,2,0,0,1,1,0l4.33.6" style="fill:#eb996e"></path><path d="M273.2,251.62a5.63,5.63,0,0,1-2.17.28,3.1,3.1,0,0,1-1.95-1,3.31,3.31,0,0,1-.7-2.56,3,3,0,0,1,.19-.67c.12-.2.09-.19.27-.21s.46.06.69.09l.71.1,2.47.31a7.43,7.43,0,0,0,2.3.1,7,7,0,0,0-2.22-.61c-.7-.14-1.52-.3-2.45-.46l-.7-.12a6.86,6.86,0,0,0-.8-.12,1,1,0,0,0-.58.17,1.05,1.05,0,0,0-.34.45,3.26,3.26,0,0,0-.25.86,3.8,3.8,0,0,0,.91,3.11,3.47,3.47,0,0,0,2.41,1.11,3.23,3.23,0,0,0,1.72-.37C273.07,251.84,273.22,251.66,273.2,251.62Z" style="fill:#263238"></path><path d="M270.18,199.12c1.05,7.2-5.56,13.61-10.72,18.74s-10.73,11.5-9.54,18.68c.62,3.73,3,6.89,4.91,10.16s3.38,7.24,2,10.78c-.81,2.11-2.58,3.92-2.63,6.18-.11,4.19,5.25,6.07,7.61,9.53s1.51,7.83.12,11.6-3.35,7.51-3.25,11.53c.19,7.21,7,13.33,6.06,20.48-.89,6.94-8.85,12.07-8,19,.43,3.33,2.9,6.78,1.28,9.72a5.07,5.07,0,0,1-5,2.29,9.56,9.56,0,0,1-5.12-2.66C242.8,340.44,241,333,241,326.06s1.5-13.87,1.81-20.84-.78-14.4-5.24-19.76c-4.09-4.93-11-8.18-12.13-14.48-1.12-6,3.6-11.44,4.72-17.44.68-3.6,0-7.3,0-11-.12-5.62,1.14-11.18,2.39-16.66,1.64-7.18,3.41-14.63,8-20.36,6.87-8.49,19.85-11.31,29.63-6.44" style="fill:#263238"></path><path d="M251.2,245.53a1.83,1.83,0,0,1-.24-.48c-.13-.32-.31-.81-.54-1.43a28.56,28.56,0,0,1-1.31-5.5,17.44,17.44,0,0,1,.79-8.33,19,19,0,0,1,6.42-8c2.87-2.26,5.85-4,8.25-6a18.17,18.17,0,0,0,5.22-6.3,11.41,11.41,0,0,0,1.18-5.37c-.08-1.32-.33-2-.28-2a1.78,1.78,0,0,1,.19.5,7.45,7.45,0,0,1,.29,1.51,11.16,11.16,0,0,1-1,5.55,18.24,18.24,0,0,1-5.26,6.51c-2.42,2-5.4,3.84-8.23,6.06s-5.2,4.82-6.29,7.73a17.38,17.38,0,0,0-.87,8.12,32.35,32.35,0,0,0,1.14,5.47C251,244.83,251.24,245.52,251.2,245.53Z" style="fill:#263238"></path><path d="M218.22,275.32a10.39,10.39,0,0,0,1.28-3.72,14.3,14.3,0,0,0-.23-4.6,28.11,28.11,0,0,0-2-5.82,52.75,52.75,0,0,1-2.77-7,15.41,15.41,0,0,1-.62-4.18,13.71,13.71,0,0,1,.76-4.43,13.88,13.88,0,0,1,2.28-4.13,21.53,21.53,0,0,1,3.61-3.32,27.11,27.11,0,0,0,3.74-3.29,19.34,19.34,0,0,0,2.79-4.26c1.52-3.13,2.65-6.37,3.9-9.43a90.78,90.78,0,0,1,3.9-8.7,39.87,39.87,0,0,1,4.76-7.21,26.82,26.82,0,0,1,5.62-5,20.08,20.08,0,0,1,10.19-3.58,13.7,13.7,0,0,1,1.72,0,11,11,0,0,1,1.24.13l.76.15c.17,0,.26,0,.25.06a24.53,24.53,0,0,0-4-.16,20.25,20.25,0,0,0-10,3.69,27.17,27.17,0,0,0-5.49,5,40,40,0,0,0-4.66,7.16,91.52,91.52,0,0,0-3.86,8.67c-1.24,3.06-2.35,6.29-3.9,9.47a20.19,20.19,0,0,1-2.87,4.38,27.7,27.7,0,0,1-3.82,3.34,21.1,21.1,0,0,0-3.53,3.24,13.28,13.28,0,0,0-3,8.24,15.43,15.43,0,0,0,.57,4.06,55.75,55.75,0,0,0,2.7,7,28,28,0,0,1,1.93,5.9,14,14,0,0,1,.15,4.69,8.79,8.79,0,0,1-.92,2.82A5.71,5.71,0,0,1,218.22,275.32Z" style="fill:#263238"></path><path d="M266.54,304l-.24.08a1.85,1.85,0,0,1-.74,0,2.87,2.87,0,0,1-2-1.93,2.65,2.65,0,0,1,.15-2.07,3.72,3.72,0,0,1,1.85-1.65,5,5,0,0,1,2.83-.31,6,6,0,0,1,2.86,1.42,6.24,6.24,0,0,1,1.87,3,5.88,5.88,0,0,1-.26,3.8,6,6,0,0,1-7,3.65,8.93,8.93,0,0,1-6.48-6.16c-1-3.12-.51-6.57.46-9.78s2.42-6.2,3.36-9.2A17.16,17.16,0,0,0,264,276a10.2,10.2,0,0,0-1.6-3.79,9.66,9.66,0,0,0-2.89-2.6c-1.09-.69-2.19-1.29-3.16-2a7.58,7.58,0,0,1-2.25-2.69,10.14,10.14,0,0,1-.79-5.88,18,18,0,0,1,1.28-4.32c.48-1.13.91-2,1.21-2.56.13-.26.25-.48.34-.65a1,1,0,0,1,.13-.22.77.77,0,0,1-.08.24l-.3.68c-.26.59-.66,1.45-1.11,2.59a18.36,18.36,0,0,0-1.18,4.28,9.88,9.88,0,0,0,.83,5.68,7.12,7.12,0,0,0,2.16,2.53c.94.72,2,1.3,3.15,2a10.06,10.06,0,0,1,3,2.7,10.56,10.56,0,0,1,1.7,4,17.55,17.55,0,0,1-.77,9.11c-1,3-2.38,6-3.35,9.19s-1.39,6.5-.47,9.48a8.44,8.44,0,0,0,6.09,5.84,5.66,5.66,0,0,0,4-.51,5.77,5.77,0,0,0,2.49-2.84,5.38,5.38,0,0,0,.27-3.52,5.83,5.83,0,0,0-1.73-2.8,5.52,5.52,0,0,0-2.67-1.37,4.83,4.83,0,0,0-2.66.25,3.45,3.45,0,0,0-1.74,1.49,2.39,2.39,0,0,0-.17,1.89,2.7,2.7,0,0,0,1.83,1.89A3,3,0,0,0,266.54,304Z" style="fill:#263238"></path><path d="M259.28,237.07c-.14,0-.27,0-.29-.08s.08-.18.21-.21.27,0,.29.08S259.42,237,259.28,237.07Z" style="fill:#eb996e"></path><path d="M262.51,236.71a.23.23,0,1,1,0-.45.23.23,0,1,1,0,.45Z" style="fill:#eb996e"></path><path d="M264.8,236.93a.45.45,0,0,1-.19-.29.49.49,0,0,1,.18-.3c.12-.09.34,0,.34.29S264.92,237,264.8,236.93Z" style="fill:#eb996e"></path><path d="M261,238.62a.27.27,0,0,1-.35-.16.28.28,0,0,1,.13-.36.28.28,0,0,1,.35.16A.28.28,0,0,1,261,238.62Z" style="fill:#eb996e"></path><path d="M264,238.4a.26.26,0,0,1-.23-.3.27.27,0,0,1,.3-.22.26.26,0,0,1,.22.3A.26.26,0,0,1,264,238.4Z" style="fill:#eb996e"></path><path d="M282.37,237.07c-.13.06-.3,0-.38-.22a.33.33,0,0,1,.09-.44c.13-.06.3,0,.38.23A.31.31,0,0,1,282.37,237.07Z" style="fill:#eb996e"></path><path d="M284.59,237.15a.26.26,0,1,1,.08-.52.27.27,0,0,1,.22.3A.27.27,0,0,1,284.59,237.15Z" style="fill:#eb996e"></path><path d="M286.86,237.52a.43.43,0,0,1,0-.38.41.41,0,0,1,.31-.21c.15,0,.28.2.16.44S286.93,237.64,286.86,237.52Z" style="fill:#eb996e"></path><path d="M283.11,239.94a.27.27,0,0,1-.26-.29.28.28,0,0,1,.26-.3.29.29,0,0,1,.26.3A.28.28,0,0,1,283.11,239.94Z" style="fill:#eb996e"></path><path d="M285.61,239.94c-.14,0-.3-.09-.36-.29s0-.4.14-.44.3.09.36.29S285.75,239.9,285.61,239.94Z" style="fill:#eb996e"></path><path d="M270.69,219.19a.27.27,0,0,1-.39-.11.26.26,0,1,1,.42-.3A.29.29,0,0,1,270.69,219.19Z" style="fill:#eb996e"></path><path d="M274.81,219.06c-.12-.07-.12-.3,0-.5s.32-.31.45-.23.12.3,0,.5S274.93,219.14,274.81,219.06Z" style="fill:#eb996e"></path><path d="M272.38,221.55a.26.26,0,1,1,.22-.29A.25.25,0,0,1,272.38,221.55Z" style="fill:#eb996e"></path><path d="M271.49,216a.29.29,0,0,1,0-.58.29.29,0,0,1,0,.58Z" style="fill:#eb996e"></path><path d="M279.44,218a.24.24,0,0,1-.33-.05.25.25,0,0,1,.11-.32.24.24,0,0,1,.33,0A.24.24,0,0,1,279.44,218Z" style="fill:#eb996e"></path><path d="M263.32,219a.53.53,0,0,1,.52-.59c.14,0,.19.3,0,.52S263.37,219.11,263.32,219Z" style="fill:#eb996e"></path><path d="M218.07,265.61a12.06,12.06,0,0,1-.43-3.53,17.87,17.87,0,0,1,2.55-9.29,26.11,26.11,0,0,1,4.32-5.13,18.51,18.51,0,0,0,2.32-2.84,9.94,9.94,0,0,0,1.36-3.58c.5-2.63.2-5.48.48-8.44a12.22,12.22,0,0,1,1.21-4.39,11.34,11.34,0,0,1,3.06-3.56,23.72,23.72,0,0,1,8.32-3.78c1.41-.4,2.81-.77,4.15-1.19a39.89,39.89,0,0,0,15.73-9.23,40.54,40.54,0,0,0,6.17-7.38c.62-1,1.09-1.71,1.38-2.23l.35-.59a1,1,0,0,1,.13-.19s0,.07-.09.21l-.3.62c-.26.54-.7,1.31-1.29,2.29a38.47,38.47,0,0,1-6.1,7.53,40.36,40.36,0,0,1-11.92,8c-1.25.54-2.56,1-3.91,1.46s-2.75.8-4.16,1.2a23.31,23.31,0,0,0-8.14,3.7,11,11,0,0,0-2.92,3.39,11.56,11.56,0,0,0-1.16,4.2c-.29,2.89,0,5.76-.51,8.47a10.54,10.54,0,0,1-1.45,3.74,18.24,18.24,0,0,1-2.4,2.9,26.06,26.06,0,0,0-4.32,5,18.22,18.22,0,0,0-2.66,9.1A25.17,25.17,0,0,0,218.07,265.61Z" style="fill:#455a64"></path><path d="M238.43,218.48a1.32,1.32,0,0,1-.1-.41,5.92,5.92,0,0,1-.05-1.21,8.18,8.18,0,0,1,1.49-4.15,11.38,11.38,0,0,1,5.13-4.06,27.66,27.66,0,0,1,7.82-1.75,59.94,59.94,0,0,0,7.86-1.08,14.68,14.68,0,0,0,5.79-2.66,9.9,9.9,0,0,0,2.77-3.27c.47-.92.59-1.48.64-1.47s0,.15-.06.42a5.8,5.8,0,0,1-.4,1.13,9.43,9.43,0,0,1-2.72,3.48,14.71,14.71,0,0,1-5.9,2.84,55.9,55.9,0,0,1-7.92,1.13,27.9,27.9,0,0,0-7.7,1.68,11.16,11.16,0,0,0-5,3.82,8.45,8.45,0,0,0-1.59,4C238.38,217.9,238.49,218.47,238.43,218.48Z" style="fill:#455a64"></path><path d="M293.78,224.14a1.81,1.81,0,0,1-.18-.48,11.7,11.7,0,0,1-.33-1.43,22.89,22.89,0,0,1-.15-5.4c.13-2.27.58-5,.55-7.92a17.08,17.08,0,0,0-.6-4.59,9.71,9.71,0,0,0-2.39-4.25,11.32,11.32,0,0,0-8.74-3,15.75,15.75,0,0,0-7.35,2.55,27.21,27.21,0,0,0-4.18,3.32c-.91.88-1.39,1.39-1.42,1.36a2.2,2.2,0,0,1,.3-.41c.22-.26.54-.63,1-1.09a24,24,0,0,1,4.12-3.49,15.84,15.84,0,0,1,7.52-2.72,12.8,12.8,0,0,1,4.74.53,9.93,9.93,0,0,1,6.91,7.09,17.4,17.4,0,0,1,.59,4.72c0,3-.48,5.71-.66,8a25.51,25.51,0,0,0,0,5.34C293.63,223.45,293.83,224.13,293.78,224.14Z" style="fill:#455a64"></path><path d="M251.06,327.53a1.61,1.61,0,0,1,.12-.33c.11-.24.24-.56.41-1,.36-.84.91-2.08,1.54-3.7a32.57,32.57,0,0,0,1.76-6.06,17.58,17.58,0,0,0-.41-8.23,13.36,13.36,0,0,0-2.27-4.22c-1-1.34-2.26-2.6-3.48-4a17.76,17.76,0,0,1-3.25-4.71,10.85,10.85,0,0,1-.67-6c.57-4.13,2.69-8.11,2.57-12.57s-1.94-8.8-3.93-13.08c-1-2.16-2-4.29-2.8-6.47a21.23,21.23,0,0,1-1-3.35,12.79,12.79,0,0,1,0-3.44,26.5,26.5,0,0,1,1.7-6.42A60.11,60.11,0,0,1,244,238.2c1.9-3.66,3.94-7,5.93-10.09s3.92-5.89,5.71-8.44c3.59-5.06,6.51-9.16,8.54-12l2.28-3.29c.25-.37.44-.65.58-.87s.21-.29.22-.28a1.75,1.75,0,0,1-.17.31c-.14.22-.31.52-.54.89-.49.78-1.22,1.92-2.2,3.36-1.94,2.89-4.87,7-8.41,12.12-1.77,2.56-3.68,5.38-5.65,8.46s-4,6.43-5.87,10.08c-.92,1.83-1.81,3.74-2.58,5.74a26.7,26.7,0,0,0-1.66,6.3,13.1,13.1,0,0,0,0,3.31,20.14,20.14,0,0,0,1,3.25c.8,2.15,1.79,4.27,2.79,6.43,2,4.29,3.9,8.7,4,13.29a21.61,21.61,0,0,1-1.06,6.56,47.67,47.67,0,0,0-1.54,6.09,10.39,10.39,0,0,0,.61,5.77,17.27,17.27,0,0,0,3.15,4.61c1.21,1.36,2.44,2.64,3.48,4a14,14,0,0,1,2.31,4.35,17.71,17.71,0,0,1,.33,8.4,32.13,32.13,0,0,1-1.85,6.08c-.66,1.62-1.24,2.84-1.63,3.67-.19.4-.34.71-.46.94A1.17,1.17,0,0,1,251.06,327.53Z" style="fill:#455a64"></path><path d="M115.71,358.14a49.09,49.09,0,0,1-7.19-6.54,5.37,5.37,0,0,1-1.4-2.55,2.18,2.18,0,0,1,1.24-2.41c1-.32,2,.36,2.84,1l3.16,2.45a10.57,10.57,0,0,1,2.62,2.59c1.27,2.09.9,4.75.49,7.17" style="fill:#ffbe9d"></path><path d="M187.82,266.81s0,0,0,0c.2,0-6.38-2.33-4.7-2.51,0,0,8.56-2.19,13-1.31,6.35,1.26,15.91,4.17,15.91,4.17h0a19.28,19.28,0,0,0-1.64,12.34l.78,3.86s-4.63,25.76-6.15,25.54S187.8,266.82,187.82,266.81Z" style="fill:#FED835"></path><path d="M136,201.52l5.57,64.57,32.34-2.58c.2-3.77-.07-18.38-.07-18.38s13.45-2.1,13.62-15.55c.08-6.53-.85-20-1.84-32.2a24.89,24.89,0,0,0-26.27-22.86h0A24.89,24.89,0,0,0,136,201.52Z" style="fill:#c17e6f"></path><path d="M173.83,244.93a31.32,31.32,0,0,1-17.54-5s4.15,9.68,17.57,8.47Z" style="fill:#aa6550"></path><path d="M183.12,206.22c-.24.25-1.69-.83-3.76-.82s-3.58,1-3.81.78.14-.56.8-1a5.22,5.22,0,0,1,3-.94,5.06,5.06,0,0,1,3,1C183,205.65,183.24,206.1,183.12,206.22Z" style="fill:#263238"></path><path d="M162.4,206.6c-.24.25-1.7-.82-3.77-.82s-3.58,1-3.8.79.13-.57.79-1a5.31,5.31,0,0,1,3-.94,5,5,0,0,1,3,1C162.3,206,162.51,206.49,162.4,206.6Z" style="fill:#263238"></path><path d="M169.9,219.88a13.54,13.54,0,0,1,3.36-.61c.52-.05,1-.16,1.11-.52a2.59,2.59,0,0,0-.35-1.56c-.5-1.28-1-2.62-1.56-4-2.17-5.73-3.74-10.43-3.51-10.52s2.18,4.49,4.35,10.21c.52,1.41,1,2.76,1.49,4a3,3,0,0,1,.28,2.07,1.33,1.33,0,0,1-.87.77,3.49,3.49,0,0,1-.9.12A13.07,13.07,0,0,1,169.9,219.88Z" style="fill:#263238"></path><path d="M163.81,221.31c.34,0,.34,2.22,2.27,3.82s4.31,1.34,4.32,1.66c0,.14-.53.43-1.54.46a5.57,5.57,0,0,1-3.61-1.26,4.85,4.85,0,0,1-1.75-3.2C163.41,221.85,163.66,221.3,163.81,221.31Z" style="fill:#263238"></path><path d="M162.93,196.44c-.2.56-2.27.3-4.69.59s-4.39.95-4.71.45c-.15-.24.19-.77,1-1.31a8.17,8.17,0,0,1,7.17-.79C162.57,195.73,163,196.18,162.93,196.44Z" style="fill:#263238"></path><path d="M182,198.18c-.37.47-1.79,0-3.5,0s-3.17.31-3.5-.18c-.15-.24.08-.71.72-1.15a5.06,5.06,0,0,1,5.63.17C181.92,197.46,182.12,198,182,198.18Z" style="fill:#263238"></path><path d="M150.57,186.77l-.07.06a10.56,10.56,0,0,0-3.93,6.84c0,.09,0,.19,0,.27-.53,3.84-.43,7.74-1,11.57s-1.89,7.74-4.72,10.38c-1.17,1.08-3.23,1.83-4.19.56a3.25,3.25,0,0,1-.47-1.76c-.72-9.27-3.25-17.49-3.23-27.18a8.17,8.17,0,0,1,3.38-6.65c2-1.45,4.51-3,6.76-1.89s5.18,5.29,6.93,7.08" style="fill:#263238"></path><path d="M140.5,207.61c-.23-.1-9.24-2.74-8.95,6.46s9.47,7,9.48,6.74S140.5,207.61,140.5,207.61Z" style="fill:#c17e6f"></path><path d="M138.11,217.42s-.16.12-.43.25a1.56,1.56,0,0,1-1.19.06c-1-.32-1.85-1.84-2-3.5a5.4,5.4,0,0,1,.37-2.31,1.83,1.83,0,0,1,1.17-1.26.81.81,0,0,1,1,.41c.13.25.08.43.13.45s.19-.16.1-.54a1,1,0,0,0-.38-.56,1.15,1.15,0,0,0-.89-.21,2.23,2.23,0,0,0-1.63,1.48,5.41,5.41,0,0,0-.47,2.58c.12,1.85,1.12,3.56,2.46,3.9a1.74,1.74,0,0,0,1.46-.29C138.1,217.64,138.14,217.43,138.11,217.42Z" style="fill:#aa6550"></path><path d="M141.81,181.85c-2.81-3.28,2.5-9.46,6.76-11.58s10.52-.87,15.21-.09c3,.49,6,1.36,8.92.77a20.34,20.34,0,0,0,5.53-2.38,15.08,15.08,0,0,1,5.63-2.06,5.54,5.54,0,0,1,5.26,2.28c1,1.73.36,4.42-1.56,5a4.51,4.51,0,1,1,2.49,8.08c1.14-1.18,3.37.13,3.46,1.77s-1.18,3-2.56,3.92c-3.53,2.26-8,2.43-12.16,1.72s-8.09-2.18-12.2-3-11-2.32-14.71-.33c-2.72,1.46-4.17,5.24-5.91,4.73a5.61,5.61,0,0,1-3.52-3.64,16.46,16.46,0,0,1-.64-5.2" style="fill:#263238"></path><path d="M104.88,116.53c.44-.12,2.44,16,1.37,18.15s-8.08,8.39-10.83,8.39-6.4,4-7.16,5.34l-17.7-3.66,4-9.76-.48-12.27a13.75,13.75,0,0,1,1.73-7.33c1.37-2.42,3.31-5,5.15-4.19,3.36,1.37,3.36,2.44,3.36,2.44s3.17-2.9,4.25.45c0,0,4.14-3,6.12.92,0,0,4.58-2.75,5.8,3.51l.46,4.27S100.46,117.75,104.88,116.53Z" style="fill:#c17e6f"></path><path d="M90.54,136a7.62,7.62,0,0,1,1.9-2.22,16.94,16.94,0,0,1,6.11-3.53,18.14,18.14,0,0,1,2.77-.66l-.26.3c0-2-.22-3.79-.25-5.06a6,6,0,0,1,.11-2,10.29,10.29,0,0,1,.26,2,43.34,43.34,0,0,1,.48,5.08v.26l-.26,0a19.58,19.58,0,0,0-2.67.66,19.32,19.32,0,0,0-6,3.27C91.34,135.2,90.62,136.05,90.54,136Z" style="fill:#aa6550"></path><path d="M79.84,117.87a2.63,2.63,0,0,1,.43,1,4.26,4.26,0,0,1,.08,3c-.24.65-.94,1.06-1.08,1.62a2,2,0,0,0,.53,1.84,2.92,2.92,0,0,0,4.21-.18,4.25,4.25,0,0,0,.82-2.35c.08-.85.09-1.7.09-2.5a36.68,36.68,0,0,0-.25-4.24,6.74,6.74,0,0,0-.68-2.71,7.7,7.7,0,0,0-.65-.81s.42.09.85.67a6.27,6.27,0,0,1,.92,2.79,29.86,29.86,0,0,1,.39,4.29,25.07,25.07,0,0,1-.06,2.57,4.85,4.85,0,0,1-.94,2.69,3.5,3.5,0,0,1-5.12.17,2.52,2.52,0,0,1-.6-2.39,2.44,2.44,0,0,1,.64-.94,2.81,2.81,0,0,0,.53-.7,4.45,4.45,0,0,0,.09-2.71A5.37,5.37,0,0,1,79.84,117.87Z" style="fill:#aa6550"></path><path d="M84,125.48s.11.27.41.65a2.66,2.66,0,0,0,1.71.93A3,3,0,0,0,88.71,126,5.89,5.89,0,0,0,90,122.56a14.92,14.92,0,0,0-.86-6.8c-.6-1.69-1.22-2.62-1.13-2.67a6.66,6.66,0,0,1,1.54,2.5,13.72,13.72,0,0,1,1.07,7,6.14,6.14,0,0,1-1.51,3.7,3.38,3.38,0,0,1-3.07,1.16,2.69,2.69,0,0,1-1.84-1.22C84,125.8,84,125.48,84,125.48Z" style="fill:#aa6550"></path><path d="M89.35,125.91c.05,0,.17.2.49.5a3,3,0,0,0,1.63.75,3.13,3.13,0,0,0,2.48-.69,4.89,4.89,0,0,0,1.62-2.8c.45-2.35-.3-4.59-.55-6.18a11.3,11.3,0,0,1-.37-2.63,11.74,11.74,0,0,1,.8,2.53c.2.79.46,1.73.67,2.8a9.06,9.06,0,0,1,.06,3.61,5.27,5.27,0,0,1-1.88,3.12,3.51,3.51,0,0,1-2.91.68,3,3,0,0,1-1.73-1C89.37,126.19,89.32,125.92,89.35,125.91Z" style="fill:#aa6550"></path><path d="M95.58,125.44s.1.28.24.76a5,5,0,0,0,.87,1.86,2.53,2.53,0,0,0,2.54,1,2.69,2.69,0,0,0,1.6-2.84,40.72,40.72,0,0,0-.6-7,26.39,26.39,0,0,1-.5-2.89,9.77,9.77,0,0,1,.93,2.8,31.14,31.14,0,0,1,.8,7.1,3.22,3.22,0,0,1-2.09,3.39,3,3,0,0,1-3-1.28,4.79,4.79,0,0,1-.75-2.08C95.52,125.73,95.54,125.45,95.58,125.44Z" style="fill:#aa6550"></path><path d="M127.67,242.86s-13.83-5.18-20.17-10.37-24.42-34.11-24.42-34.11l9.14-52.16L70,135.15s-25.86,62.07-23,73.6S96.6,284.39,96.6,284.39l11.48,45.49,12.1,40.91s-5.19,2.3-2.3,10.37,6.59,11.57,2.88,13.25c-6,2.74-2.06,7.56-2.06,7.56L216,404.36S203.49,325.41,205.64,311c2.19-14.7.07-39.77.07-39.77L196.17,263,174,258.7h0c-9.61,2.25-28.94,1.1-34.17-11.16h0Z" style="fill:#FED835"></path><path d="M116,298.53a12.29,12.29,0,0,1,0-1.91c0-.61,0-1.36,0-2.24s0-1.86-.06-2.95a71.44,71.44,0,0,0-.74-7.64,68.48,68.48,0,0,0-5.36-18,70.62,70.62,0,0,0-3.56-6.8c-.54-1-1.1-1.77-1.57-2.51s-.88-1.36-1.24-1.86a9.6,9.6,0,0,1-1-1.6,10.82,10.82,0,0,1,1.23,1.46c.39.48.84,1.08,1.33,1.8s1.09,1.53,1.65,2.48a61.87,61.87,0,0,1,3.71,6.79,63.59,63.59,0,0,1,5.4,18.13,61.42,61.42,0,0,1,.62,7.72c.05,1.1,0,2.1,0,3s-.07,1.63-.13,2.24A12,12,0,0,1,116,298.53Z" style="fill:#263238"></path><path d="M134.59,383.42a10.36,10.36,0,0,1-2.72-1.16,32.13,32.13,0,0,1-10.69-9.3,10.76,10.76,0,0,1-1.52-2.53c.17-.12,2.58,3.71,6.76,7.31S134.69,383.24,134.59,383.42Z" style="fill:#263238"></path><path d="M164.38,394.63a9.16,9.16,0,0,1-1.56.57,43.4,43.4,0,0,1-4.38,1.13,55.47,55.47,0,0,1-6.65.95,56.23,56.23,0,0,1-16.37-1.1,53.69,53.69,0,0,1-6.46-1.83,42.25,42.25,0,0,1-4.19-1.7,7.64,7.64,0,0,1-1.47-.78,9.22,9.22,0,0,1,1.56.55c1,.4,2.43.93,4.24,1.51a63.24,63.24,0,0,0,6.44,1.69,67.68,67.68,0,0,0,8.07,1.09,64.86,64.86,0,0,0,8.14,0,59.5,59.5,0,0,0,6.6-.81c1.87-.33,3.37-.66,4.4-.92A8.23,8.23,0,0,1,164.38,394.63Z" style="fill:#263238"></path><path d="M196.77,334.7a2,2,0,0,1,.1.58c0,.38.12,1,.15,1.68a36.75,36.75,0,0,1-.2,6.2,39.43,39.43,0,0,1-23.2,31.67,36,36,0,0,1-5.86,2.06c-.7.2-1.27.29-1.64.37a2.32,2.32,0,0,1-.59.08,17,17,0,0,1,2.17-.68,42,42,0,0,0,5.73-2.23,40.2,40.2,0,0,0,22.95-31.33,41.69,41.69,0,0,0,.4-6.13A20.75,20.75,0,0,1,196.77,334.7Z" style="fill:#263238"></path><path d="M205.86,292.81a6.42,6.42,0,0,1,0,1.05c0,.74-.08,1.73-.13,3s-.13,2.88-.16,4.73-.09,3.95-.05,6.27c0,4.65.26,10.18.64,16.31s1,12.85,1.84,19.9c1.62,14.1,3.48,26.82,4.7,36,.61,4.61,1.1,8.34,1.39,10.93.14,1.25.25,2.24.33,3a7.32,7.32,0,0,1,.08,1,6.77,6.77,0,0,1-.2-1l-.45-3c-.38-2.63-.93-6.34-1.59-10.9-1.33-9.2-3.25-21.91-4.88-36-.79-7.05-1.4-13.79-1.8-19.94s-.56-11.68-.5-16.34c0-2.33.06-4.43.14-6.28s.14-3.44.26-4.74.2-2.25.26-3A6,6,0,0,1,205.86,292.81Z" style="fill:#263238"></path><g style="opacity:0.30000000000000004"><path d="M167.3,376.84a49,49,0,0,1-10.1,2.1c-1.5.15-3.16.19-4.35-.74a3.88,3.88,0,0,1-1-4.41,6.38,6.38,0,0,1,3.4-3.28c5.26-2.41,12,.17,16.93-2.94,2.45-1.56,3.89-4.26,5.63-6.59a27.33,27.33,0,0,1,11.67-9,3,3,0,0,1,2.05-.26c1.48.56,1.17,2.75.49,4.18-5,10.57-13.29,18.68-24.74,21"></path></g><path d="M73.3,202.17c-.1-.13,1.92-1.72,4.86-2.79s5.51-1.2,5.51-1-2.44.56-5.29,1.62S73.4,202.32,73.3,202.17Z" style="fill:#263238"></path><path d="M204.5,316l-1-.23-2.88-.72c-1.25-.32-2.78-.7-4.57-1.09s-3.81-.9-6.07-1.35c-4.51-1-9.91-2-15.93-2.93s-12.67-1.77-19.68-2.4-13.71-.92-19.8-1.07-11.59-.06-16.2.12c-2.3,0-4.38.18-6.21.27s-3.41.19-4.69.28l-3,.21-1,0s5.68-.62,14.9-1c4.61-.2,10.1-.26,16.2-.17s12.81.45,19.82,1.05,13.67,1.49,19.7,2.42,11.42,2,15.93,3C199,314.35,204.5,316,204.5,316Z" style="fill:#fafafa"></path><path d="M194.62,351.58l-.81-.1-2.31-.33c-1-.16-2.23-.3-3.66-.47s-3.06-.34-4.87-.5c-7.21-.68-17.21-1.11-28.27-1.08s-21.06.51-28.29,1c-3.62.23-6.54.47-8.56.63l-2.32.19-.82.05.81-.1,2.32-.24c2-.19,4.94-.45,8.56-.7,7.23-.52,17.24-1,28.3-1.06s21.08.43,28.29,1.16S194.62,351.58,194.62,351.58Z" style="fill:#fafafa"></path><path d="M214.45,399.18s-.34-.05-1-.18-1.56-.36-2.77-.53a67.39,67.39,0,0,0-10.33-.92,140.67,140.67,0,0,0-15.38.67c-5.78.5-12.12,1.21-18.82,1.56a226.37,226.37,0,0,1-34.26-.77c-8.74-.87-14.08-1.88-14.08-1.88l1,.13,2.79.39c2.44.33,6,.78,10.32,1.19a234.39,234.39,0,0,0,34.24.69c6.68-.34,13-1.06,18.81-1.54a139.94,139.94,0,0,1,15.4-.62,65.54,65.54,0,0,1,10.34,1c1.22.19,2.14.44,2.77.58S214.45,399.18,214.45,399.18Z" style="fill:#fafafa"></path><path d="M208.36,285.16l-1-.28-2.94-.84-10.82-3.1c-9.14-2.59-21.79-6.09-35.82-9.74s-26.79-6.77-36-9l-11-2.57-3-.7c-.68-.16-1-.26-1-.26l1,.21,3,.66,11,2.5c9.26,2.16,22,5.25,36.07,8.9s26.67,7.18,35.8,9.82L204.41,284l2.93.89C208,285,208.36,285.16,208.36,285.16Z" style="fill:#fafafa"></path><path d="M112.53,267.83a.61.61,0,0,1-.21.08l-.61.18-2.27.6-7.51,1.91c-1.47.37-2.88.68-4.13,1a9.67,9.67,0,0,0-3.11,1.44,5.83,5.83,0,0,0-2,2.46,3.16,3.16,0,0,1,.3-.81A5.7,5.7,0,0,1,94.58,273a9.73,9.73,0,0,1,3.15-1.52c1.27-.38,2.67-.7,4.14-1.08l7.53-1.83,2.28-.53.63-.13Z" style="fill:#fafafa"></path><path d="M101.71,227.15a1.83,1.83,0,0,1-.39,0l-1.11.09c-1,.07-2.37.22-4.08.46A62.45,62.45,0,0,0,71,237.17c-1.45.94-2.6,1.75-3.38,2.33l-.9.67a1.28,1.28,0,0,1-.32.21,47.29,47.29,0,0,1,4.5-3.36,59.65,59.65,0,0,1,25.23-9.45A48.46,48.46,0,0,1,101.71,227.15Z" style="fill:#fafafa"></path><path d="M84.46,192.36a1.15,1.15,0,0,1-.3-.18l-.84-.56c-.71-.5-1.78-1.17-3.13-2A45,45,0,0,0,69,185.06a42.67,42.67,0,0,0-12.07-1.27c-1.56.06-2.82.16-3.69.28l-1,.11a1.93,1.93,0,0,1-.36,0,34.35,34.35,0,0,1,5-.59A41.38,41.38,0,0,1,69,184.81a43.9,43.9,0,0,1,11.26,4.7A37.4,37.4,0,0,1,84.46,192.36Z" style="fill:#fafafa"></path><path d="M88.66,156.65a1.24,1.24,0,0,1-.2-.18l-.52-.53c-.43-.47-1.1-1.12-2-1.89a33.4,33.4,0,0,0-15.89-7.91c-1.13-.22-2-.37-2.69-.43l-.74-.09a1.18,1.18,0,0,1-.25-.05h.26l.74,0a25.79,25.79,0,0,1,2.71.35,32.48,32.48,0,0,1,8.56,2.84,31.84,31.84,0,0,1,7.42,5.12,25.52,25.52,0,0,1,1.92,2l.48.57A1.24,1.24,0,0,1,88.66,156.65Z" style="fill:#fafafa"></path><path d="M117.85,366.87c-1.57.29-2.28,2.18-1.57,3s3.74.16,4.82.07a10.7,10.7,0,0,0,3.1-.95,5.17,5.17,0,0,0,1.58-.91,1.76,1.76,0,0,0,.56-1.65,1.73,1.73,0,0,0-1.46-1.12,5,5,0,0,0-1.92.21c1-.1,2.24-.49,2.51-1.49a2,2,0,0,0-1.57-2.18,5.68,5.68,0,0,0-2.93.29,6,6,0,0,0,1.77-1.64,2.1,2.1,0,0,0,.07-2.29,3.14,3.14,0,0,0-2.69-1.06,18.26,18.26,0,0,0-6.29,1.44c-.88.42-2.78,1.67-2.61,2.53a2.52,2.52,0,0,0,2.69,1.63,2.93,2.93,0,0,0-1.64,3.18,2.55,2.55,0,0,0,2.39,1.44,7.14,7.14,0,0,0,3.19-.5" style="fill:#ffbe9d"></path><path d="M124,365.37a19.11,19.11,0,0,1-3.29.93,20.7,20.7,0,0,1-3.3.85,8.07,8.07,0,0,1,3.17-1.36A8.28,8.28,0,0,1,124,365.37Z" style="fill:#eb996e"></path><path d="M121.84,361.06a12.39,12.39,0,0,1-3.93,1.38,12.59,12.59,0,0,1-4.12.51,25.85,25.85,0,0,1,4-1A26.3,26.3,0,0,1,121.84,361.06Z" style="fill:#eb996e"></path><path d="M212.11,403.94l-94.8-2.34-1.78,16.07c-.85,7.64-1.7,38.5-.8,46.13l104.66.07Z" style="fill:#263238"></path><path d="M177.57,402.87a7.52,7.52,0,0,1,.32,1.44c.18.94.39,2.29.63,4,.48,3.37,1,8,1.4,13.2s.52,9.86.53,13.25c0,1.7,0,3.08,0,4a6.56,6.56,0,0,1-.12,1.48,7.73,7.73,0,0,1-.13-1.47l-.15-4c-.12-3.38-.33-8.06-.71-13.22s-.85-9.81-1.21-13.18c-.18-1.59-.32-2.92-.44-4A6.36,6.36,0,0,1,177.57,402.87Z" style="fill:#455a64"></path><path d="M169,406.86s.17-.21.62-.31a2.57,2.57,0,0,1,1.87.4,2.62,2.62,0,0,1,.92,1,2.39,2.39,0,0,1,.18,1.59,3,3,0,0,1-2.6,2.3,3.08,3.08,0,0,1-2.91-1.91,2.86,2.86,0,0,1,.36-2.81,3,3,0,0,1,1.52-1.14c.44-.14.69-.11.69-.07a4.11,4.11,0,0,0-1.85,1.45,2.45,2.45,0,0,0-.19,2.34,2.57,2.57,0,0,0,2.34,1.52,2.43,2.43,0,0,0,2.08-1.81,2,2,0,0,0-.79-2.11,2.48,2.48,0,0,0-1.59-.53A6.34,6.34,0,0,1,169,406.86Z" style="fill:#455a64"></path><path d="M118.31,461.43a2.7,2.7,0,0,1-.07-.61c0-.45,0-1-.08-1.72-.06-1.5-.12-3.67-.15-6.36-.06-5.36,0-12.78.46-21s1.13-15.57,1.76-20.9c.31-2.66.59-4.81.81-6.3l.27-1.71a2.41,2.41,0,0,1,.12-.59,2.58,2.58,0,0,1,0,.61c0,.45-.1,1-.17,1.72-.16,1.56-.38,3.7-.65,6.31-.53,5.34-1.16,12.72-1.6,20.89s-.57,15.57-.61,20.93c0,2.63,0,4.79,0,6.35v1.73A3.63,3.63,0,0,1,118.31,461.43Z" style="fill:#455a64"></path><path d="M180,445.07a73.64,73.64,0,0,1,.54,8.76,76.49,76.49,0,0,1,0,8.78,71.68,71.68,0,0,1-.54-8.77A73.6,73.6,0,0,1,180,445.07Z" style="fill:#455a64"></path><path d="M219.39,463.87c-.15,0-1.89-13.39-3.9-29.94s-3.52-30-3.38-30,1.89,13.39,3.9,29.94S219.53,463.85,219.39,463.87Z" style="fill:#455a64"></path></g></svg>